<svg xmlns="http://www.w3.org/2000/svg" width="60" height="50.403" viewBox="0 0 60 50.403">
  <g id="accImg" transform="translate(-0.005)">
    <g id="Layer_1" data-name="Layer 1" transform="translate(0.005)">
      <path id="Rectangle_11619" data-name="Rectangle 11619" d="M-1.1-2.3h9.6a1.2,1.2,0,0,1,1.2,1.2v25.6a1.2,1.2,0,0,1-1.2,1.2H-1.1a1.2,1.2,0,0,1-1.2-1.2V-1.1A1.2,1.2,0,0,1-1.1-2.3ZM7.307.1H.1v23.2h7.2Z" transform="translate(8.693 24.692)" fill="#ef7e25"/>
      <path id="Rectangle_11620" data-name="Rectangle 11620" d="M-1.1-2.295h9.6a1.2,1.2,0,0,1,1.2,1.2v22.4a1.2,1.2,0,0,1-1.2,1.2H-1.1a1.2,1.2,0,0,1-1.2-1.2V-1.1A1.2,1.2,0,0,1-1.1-2.295ZM7.307.1H.1v20h7.2Z" transform="translate(26.292 27.897)" fill="#ef7e25"/>
      <path id="Rectangle_11621" data-name="Rectangle 11621" d="M-1.1-2.295h9.6a1.2,1.2,0,0,1,1.2,1.2v35.2a1.2,1.2,0,0,1-1.2,1.2H-1.1a1.2,1.2,0,0,1-1.2-1.2V-1.1A1.2,1.2,0,0,1-1.1-2.295ZM7.307.1H.1v32.8h7.2Z" transform="translate(43.896 15.096)" fill="#ef7e25"/>
      <path id="Path_48947" data-name="Path 48947" d="M78.008,8.8a1.2,1.2,0,0,1-1.2-1.2V2.4H71.6a1.2,1.2,0,1,1,0-2.4h6.4a1.2,1.2,0,0,1,1.2,1.2V7.6A1.2,1.2,0,0,1,78.008,8.8Z" transform="translate(-33.607 -0.005)" fill="#ef7e25"/>
      <path id="Path_48948" data-name="Path 48948" d="M31.843,20.8A1.2,1.2,0,0,1,31,20.452L25.748,15.2h-12.3a1.2,1.2,0,1,1,0-2.4h12.8a1.2,1.2,0,0,1,.848.351l4.75,4.75L49.4.356a1.2,1.2,0,0,1,1.7,1.7l-18.4,18.4A1.2,1.2,0,0,1,31.843,20.8Z" transform="translate(-5.847 -0.005)" fill="#ef7e25"/>
      <path id="Line_194" data-name="Line 194" d="M56.505.1H-1.1A1.2,1.2,0,0,1-2.3-1.1,1.2,1.2,0,0,1-1.1-2.3h57.6a1.2,1.2,0,0,1,1.2,1.2A1.2,1.2,0,0,1,56.505.1Z" transform="translate(2.295 50.294)" fill="#ef7e25"/>
    </g>
  </g>
</svg>
