<svg id="DerivativesIcon" xmlns="http://www.w3.org/2000/svg" width="48" height="48" viewBox="0 0 48 48">
  <g id="vuesax_outline_money-recive" data-name="vuesax/outline/money-recive">
    <g id="money-recive">
      <path id="Vector" d="M8.6,17.02H4.84a4.931,4.931,0,0,1-4.84-5,1.511,1.511,0,0,1,1.5-1.5A1.511,1.511,0,0,1,3,12.02a1.925,1.925,0,0,0,1.84,2H8.6A1.483,1.483,0,0,0,10,12.46c0-1.08-.3-1.24-.98-1.48L3,8.88A4.084,4.084,0,0,1,0,4.56,4.5,4.5,0,0,1,4.4,0H8.16A4.931,4.931,0,0,1,13,5a1.5,1.5,0,0,1-3,0A1.925,1.925,0,0,0,8.16,3H4.4A1.483,1.483,0,0,0,3,4.56c0,1.08.3,1.24.98,1.48L10,8.14a4.084,4.084,0,0,1,3,4.32A4.488,4.488,0,0,1,8.6,17.02Z" transform="translate(17.5 15.48)" fill="#ef7e25"/>
      <path id="Vector-2" data-name="Vector" d="M1.5,21A1.511,1.511,0,0,1,0,19.5V1.5A1.511,1.511,0,0,1,1.5,0,1.511,1.511,0,0,1,3,1.5v18A1.511,1.511,0,0,1,1.5,21Z" transform="translate(22.5 13.5)" fill="#ef7e25"/>
      <path id="Vector-3" data-name="Vector" d="M21.5,43a21.5,21.5,0,0,1,0-43A1.511,1.511,0,0,1,23,1.5,1.511,1.511,0,0,1,21.5,3,18.5,18.5,0,1,0,40,21.5a1.5,1.5,0,0,1,3,0A21.518,21.518,0,0,1,21.5,43Z" transform="translate(2.5 2.5)" fill="#ef7e25"/>
      <path id="Vector-4" data-name="Vector" d="M9.5,11h-8A1.511,1.511,0,0,1,0,9.5v-8A1.511,1.511,0,0,1,1.5,0,1.511,1.511,0,0,1,3,1.5V8H9.5a1.5,1.5,0,0,1,0,3Z" transform="translate(32.5 4.5)" fill="#ef7e25"/>
      <path id="Vector-5" data-name="Vector" d="M1.495,12.995a1.483,1.483,0,0,1-1.06-.44,1.509,1.509,0,0,1,0-2.12l10-10a1.5,1.5,0,0,1,2.12,2.12l-10,10A1.483,1.483,0,0,1,1.495,12.995Z" transform="translate(32.505 2.505)" fill="#ef7e25"/>
      <path id="Vector-6" data-name="Vector" d="M0,0H48V48H0Z" fill="none" opacity="0"/>
    </g>
  </g>
</svg>
