<svg xmlns="http://www.w3.org/2000/svg" xmlns:xlink="http://www.w3.org/1999/xlink" width="48" height="48" viewBox="0 0 48 48">
  <defs>
    <clipPath id="clip-path">
      <rect id="exchangeIcon" width="48" height="48" transform="translate(465)" fill="#fff"/>
    </clipPath>
  </defs>
  <g id="exchangeIcon-2" data-name="exchangeIcon" transform="translate(-465)" clip-path="url(#clip-path)">
    <g id="Layer_2" data-name="Layer 2" transform="translate(465.96 0.96)">
      <g id="Layer_1" data-name="Layer 1">
        <path id="Path_61581" data-name="Path 61581" d="M12.752,28.915A11.951,11.951,0,1,1,1.2,40.858,11.826,11.826,0,0,1,3.76,33.613" transform="translate(-1.202 -6.74)" fill="none" stroke="#ef7e25" stroke-linecap="round" stroke-linejoin="round" stroke-width="2.398"/>
        <path id="Path_61582" data-name="Path 61582" d="M18.462,48.225H15.916a5.121,5.121,0,0,1-5.121-5.1h0a5.125,5.125,0,0,1,5.121-5.142h2.546" transform="translate(-3.121 -8.556)" fill="none" stroke="#ef7e25" stroke-linecap="round" stroke-linejoin="round" stroke-width="2.398"/>
        <line id="Line_324" data-name="Line 324" x1="6.4" transform="translate(5.117 34.552)" fill="none" stroke="#ef7e25" stroke-linecap="round" stroke-linejoin="round" stroke-width="2.398"/>
        <line id="Line_325" data-name="Line 325" y1="14.075" x2="14.075" transform="translate(2.558 12.799)" fill="none" stroke="#ef7e25" stroke-linecap="round" stroke-linejoin="round" stroke-width="2.398"/>
        <path id="Path_61583" data-name="Path 61583" d="M15.6,17.2h5.117v5.117" transform="translate(-4.081 -4.398)" fill="none" stroke="#ef7e25" stroke-linecap="round" stroke-linejoin="round" stroke-width="2.398"/>
        <path id="Path_61584" data-name="Path 61584" d="M40.7,25.1a12.21,12.21,0,1,1,9.564-4.724" transform="translate(-6.746 -1.198)" fill="none" stroke="#ef7e25" stroke-linecap="round" stroke-linejoin="round" stroke-width="2.398"/>
        <path id="Path_61585" data-name="Path 61585" d="M39.592,19.434H44.7a2.558,2.558,0,0,0,2.562-2.546h0A2.558,2.558,0,0,0,44.7,14.317H42.15a2.558,2.558,0,0,1-2.558-2.562h0A2.558,2.558,0,0,1,42.15,9.2h5.117" transform="translate(-8.88 -2.798)" fill="none" stroke="#ef7e25" stroke-linecap="round" stroke-linejoin="round" stroke-width="2.398"/>
        <line id="Line_326" data-name="Line 326" y2="2.558" transform="translate(34.549 3.84)" fill="none" stroke="#ef7e25" stroke-linecap="round" stroke-linejoin="round" stroke-width="2.398"/>
        <line id="Line_327" data-name="Line 327" y2="2.558" transform="translate(34.549 16.636)" fill="none" stroke="#ef7e25" stroke-linecap="round" stroke-linejoin="round" stroke-width="2.398"/>
        <line id="Line_328" data-name="Line 328" x1="14.079" y2="14.079" transform="translate(29.429 19.194)" fill="none" stroke="#ef7e25" stroke-linecap="round" stroke-linejoin="round" stroke-width="2.398"/>
        <path id="Path_61586" data-name="Path 61586" d="M43.108,41.509H37.988V36.389" transform="translate(-8.559 -8.236)" fill="none" stroke="#ef7e25" stroke-linecap="round" stroke-linejoin="round" stroke-width="2.398"/>
      </g>
    </g>
  </g>
</svg>
