<svg id="money-recive" xmlns="http://www.w3.org/2000/svg" width="40" height="40" viewBox="0 0 40 40">
  <g id="vuesax_outline_money-recive" data-name="vuesax/outline/money-recive">
    <g id="money-recive-2" data-name="money-recive">
      <path id="Vector" d="M7.167,14.183H4.033A4.109,4.109,0,0,1,0,10.017a1.259,1.259,0,0,1,1.25-1.25,1.259,1.259,0,0,1,1.25,1.25,1.6,1.6,0,0,0,1.533,1.667H7.167a1.236,1.236,0,0,0,1.167-1.3c0-.9-.25-1.033-.817-1.233L2.5,7.4A3.4,3.4,0,0,1,0,3.8,3.75,3.75,0,0,1,3.667,0H6.8a4.109,4.109,0,0,1,4.033,4.167,1.25,1.25,0,1,1-2.5,0A1.6,1.6,0,0,0,6.8,2.5H3.667A1.236,1.236,0,0,0,2.5,3.8c0,.9.25,1.033.817,1.233l5.017,1.75a3.4,3.4,0,0,1,2.5,3.6A3.74,3.74,0,0,1,7.167,14.183Z" transform="translate(14.583 12.9)" fill="#ef7e25"/>
      <path id="Vector-2" data-name="Vector" d="M1.25,17.5A1.259,1.259,0,0,1,0,16.25v-15A1.259,1.259,0,0,1,1.25,0,1.259,1.259,0,0,1,2.5,1.25v15A1.259,1.259,0,0,1,1.25,17.5Z" transform="translate(18.75 11.25)" fill="#ef7e25"/>
      <path id="Vector-3" data-name="Vector" d="M17.917,35.833A17.917,17.917,0,0,1,17.917,0a1.259,1.259,0,0,1,1.25,1.25,1.259,1.259,0,0,1-1.25,1.25A15.417,15.417,0,1,0,33.333,17.917a1.25,1.25,0,0,1,2.5,0A17.932,17.932,0,0,1,17.917,35.833Z" transform="translate(2.083 2.083)" fill="#ef7e25"/>
      <path id="Vector-4" data-name="Vector" d="M7.917,9.167H1.25A1.259,1.259,0,0,1,0,7.917V1.25A1.259,1.259,0,0,1,1.25,0,1.259,1.259,0,0,1,2.5,1.25V6.667H7.917a1.25,1.25,0,0,1,0,2.5Z" transform="translate(27.083 3.75)" fill="#ef7e25"/>
      <path id="Vector-5" data-name="Vector" d="M1.246,10.829a1.236,1.236,0,0,1-.883-.367,1.257,1.257,0,0,1,0-1.767L8.7.362a1.249,1.249,0,0,1,1.767,1.767L2.129,10.462A1.236,1.236,0,0,1,1.246,10.829Z" transform="translate(27.087 2.088)" fill="#ef7e25"/>
      <path id="Vector-6" data-name="Vector" d="M0,0H40V40H0Z" fill="none" opacity="0"/>
    </g>
  </g>
</svg>
