<svg id="money-change" xmlns="http://www.w3.org/2000/svg" width="40" height="40" viewBox="0 0 40 40">
  <g id="vuesax_outline_money-change" data-name="vuesax/outline/money-change">
    <g id="money-change-2" data-name="money-change">
      <path id="Vector" d="M26.25,29.167H17.917a1.25,1.25,0,0,1,0-2.5H26.25c4.767,0,7.083-2.317,7.083-7.083v-10c0-4.767-2.317-7.083-7.083-7.083H9.583C4.817,2.5,2.5,4.817,2.5,9.583v3.333a1.259,1.259,0,0,1-1.25,1.25A1.259,1.259,0,0,1,0,12.917V9.583C0,3.5,3.5,0,9.583,0H26.25c6.083,0,9.583,3.5,9.583,9.583v10C35.833,25.667,32.333,29.167,26.25,29.167Z" transform="translate(2.083 5.417)" fill="#ef7e25"/>
      <path id="Vector-2" data-name="Vector" d="M5.417,10.833a5.417,5.417,0,1,1,5.417-5.417A5.427,5.427,0,0,1,5.417,10.833Zm0-8.333A2.917,2.917,0,1,0,8.333,5.417,2.931,2.931,0,0,0,5.417,2.5Z" transform="translate(14.583 14.583)" fill="#ef7e25"/>
      <path id="Vector-3" data-name="Vector" d="M1.25,10.833A1.259,1.259,0,0,1,0,9.583V1.25A1.259,1.259,0,0,1,1.25,0,1.259,1.259,0,0,1,2.5,1.25V9.583A1.259,1.259,0,0,1,1.25,10.833Z" transform="translate(29.583 14.583)" fill="#ef7e25"/>
      <path id="Vector-4" data-name="Vector" d="M12.083,6.567a1.259,1.259,0,0,1-1.25-1.25V3.183A.686.686,0,0,0,10.15,2.5H1.25A1.259,1.259,0,0,1,0,1.25,1.259,1.259,0,0,1,1.25,0h8.9a3.194,3.194,0,0,1,3.183,3.183V5.317A1.259,1.259,0,0,1,12.083,6.567Z" transform="translate(2.083 24.583)" fill="#ef7e25"/>
      <path id="Vector-5" data-name="Vector" d="M3.279,6.562A1.236,1.236,0,0,1,2.4,6.2L.362,4.163a1.258,1.258,0,0,1,0-1.767L2.4.362A1.249,1.249,0,0,1,4.163,2.129l-1.15,1.15,1.15,1.15a1.257,1.257,0,0,1,0,1.767A1.236,1.236,0,0,1,3.279,6.562Z" transform="translate(2.087 22.554)" fill="#ef7e25"/>
      <path id="Vector-6" data-name="Vector" d="M12.083,6.567h-8.9A3.194,3.194,0,0,1,0,3.383V1.25A1.259,1.259,0,0,1,1.25,0,1.259,1.259,0,0,1,2.5,1.25V3.383a.686.686,0,0,0,.683.683h8.9a1.25,1.25,0,0,1,0,2.5Z" transform="translate(2.083 29.317)" fill="#ef7e25"/>
      <path id="Vector-7" data-name="Vector" d="M1.246,6.562A1.236,1.236,0,0,1,.362,6.2a1.258,1.258,0,0,1,0-1.767l1.15-1.15L.362,2.129A1.249,1.249,0,0,1,2.129.362L4.163,2.4a1.257,1.257,0,0,1,0,1.767L2.129,6.2A1.209,1.209,0,0,1,1.246,6.562Z" transform="translate(10.887 31.354)" fill="#ef7e25"/>
      <path id="Vector-8" data-name="Vector" d="M0,0H40V40H0Z" fill="none" opacity="0"/>
    </g>
  </g>
</svg>
