<svg id="moneyIcon" xmlns="http://www.w3.org/2000/svg" width="57.139" height="48" viewBox="0 0 57.139 48">
  <path id="Rectangle_11619" data-name="Rectangle 11619" d="M-1.153-2.3H7.991A1.142,1.142,0,0,1,9.134-1.153V23.228a1.142,1.142,0,0,1-1.142,1.142H-1.153A1.142,1.142,0,0,1-2.3,23.228V-1.153A1.142,1.142,0,0,1-1.153-2.3Zm8,2.285H-.01v22.1H6.849Z" transform="translate(8.388 23.624)" fill="#ef7e25"/>
  <path id="Rectangle_11620" data-name="Rectangle 11620" d="M-1.153-2.295H7.991A1.142,1.142,0,0,1,9.134-1.153V20.182a1.142,1.142,0,0,1-1.142,1.142H-1.153A1.142,1.142,0,0,1-2.3,20.182V-1.153A1.142,1.142,0,0,1-1.153-2.295Zm8,2.285H-.01v19.05H6.849Z" transform="translate(25.148 26.676)" fill="#ef7e25"/>
  <path id="Rectangle_11621" data-name="Rectangle 11621" d="M-1.153-2.295H7.991A1.142,1.142,0,0,1,9.134-1.153V32.372a1.142,1.142,0,0,1-1.142,1.142H-1.153A1.142,1.142,0,0,1-2.3,32.372V-1.153A1.142,1.142,0,0,1-1.153-2.295Zm8,2.285H-.01V31.23H6.849Z" transform="translate(41.913 14.485)" fill="#ef7e25"/>
  <path id="Path_48947" data-name="Path 48947" d="M77.645,8.382A1.142,1.142,0,0,1,76.5,7.24V2.29H71.547a1.142,1.142,0,1,1,0-2.285h6.1a1.142,1.142,0,0,1,1.142,1.142V7.24A1.142,1.142,0,0,1,77.645,8.382Z" transform="translate(-35.362 -0.005)" fill="#ef7e25"/>
  <path id="Path_48948" data-name="Path 48948" d="M30.909,19.811a1.139,1.139,0,0,1-.808-.335l-5-5H13.387a1.142,1.142,0,1,1,0-2.285h12.19a1.142,1.142,0,0,1,.808.335l4.523,4.523L47.628.339a1.142,1.142,0,0,1,1.615,1.616L31.717,19.477A1.139,1.139,0,0,1,30.909,19.811Z" transform="translate(-6.152 -0.005)" fill="#ef7e25"/>
  <path id="Line_194" data-name="Line 194" d="M53.7-.01H-1.153A1.142,1.142,0,0,1-2.3-1.153,1.142,1.142,0,0,1-1.153-2.3H53.7a1.142,1.142,0,0,1,1.142,1.142A1.142,1.142,0,0,1,53.7-.01Z" transform="translate(2.295 48.005)" fill="#ef7e25"/>
</svg>
