<svg xmlns="http://www.w3.org/2000/svg" xmlns:xlink="http://www.w3.org/1999/xlink" width="48" height="48" viewBox="0 0 48 48">
  <defs>
    <clipPath id="clip-path">
      <rect id="Rectangle_12111" data-name="Rectangle 12111" width="48" height="48" fill="#ef7e25"/>
    </clipPath>
  </defs>
  <g id="RepoIcon" clip-path="url(#clip-path)">
    <g id="Layer_2" data-name="Layer 2" transform="translate(-0.001 0.007)">
      <g id="layer_1" data-name="layer 1" transform="translate(0)">
        <path id="Path_61598" data-name="Path 61598" d="M44,48H4a1,1,0,0,1-1-.84l-3-19A1,1,0,0,1,1,27H47a1,1,0,0,1,.99,1.16l-3,19A1,1,0,0,1,44,48ZM4.85,46h38.3l2.68-17H2.17Z" transform="translate(0.012 0)" fill="#ef7e25"/>
        <path id="Path_61599" data-name="Path 61599" d="M47,29H1a1,1,0,0,1-.84-1.54l7-11A1,1,0,0,1,8,16h6v2H8.55L2.82,27H45.18l-5.73-9H34V16h6a1,1,0,0,1,.84.46l7,11A1,1,0,0,1,47,29Z" transform="translate(0.012)" fill="#ef7e25"/>
        <rect id="Rectangle_12101" data-name="Rectangle 12101" width="2" height="11.05" transform="matrix(0.996, -0.09, 0.09, 0.996, 8.014, 17.091)" fill="#ef7e25"/>
        <rect id="Rectangle_12102" data-name="Rectangle 12102" width="11.095" height="2.008" transform="translate(37.081 27.755) rotate(-84.857)" fill="#ef7e25"/>
        <path id="Path_61600" data-name="Path 61600" d="M24,24A12,12,0,1,1,36,12,12,12,0,0,1,24,24ZM24,2A10,10,0,1,0,34,12,10,10,0,0,0,24,2Z" transform="translate(0.012)" fill="#ef7e25"/>
        <path id="Path_61601" data-name="Path 61601" d="M24,19a4,4,0,0,1-4-4h2a2,2,0,1,0,2-2,4,4,0,1,1,4-4H26a2,2,0,1,0-2,2,4,4,0,0,1,0,8Z" transform="translate(0.012)" fill="#ef7e25"/>
        <rect id="Rectangle_12103" data-name="Rectangle 12103" width="2" height="3" transform="translate(23.012 18)" fill="#ef7e25"/>
        <rect id="Rectangle_12104" data-name="Rectangle 12104" width="2" height="3" transform="translate(23.012 3)" fill="#ef7e25"/>
        <rect id="Rectangle_12105" data-name="Rectangle 12105" width="2" height="2" transform="translate(30.012 11)" fill="#ef7e25"/>
        <rect id="Rectangle_12106" data-name="Rectangle 12106" width="2" height="2" transform="translate(16.012 11)" fill="#ef7e25"/>
        <rect id="Rectangle_12107" data-name="Rectangle 12107" width="17" height="2" transform="translate(15.012 41)" fill="#ef7e25"/>
        <rect id="Rectangle_12108" data-name="Rectangle 12108" width="4" height="2" transform="translate(9.012 41)" fill="#ef7e25"/>
        <rect id="Rectangle_12109" data-name="Rectangle 12109" width="10" height="2" transform="translate(32.012 32)" fill="#ef7e25"/>
        <rect id="Rectangle_12110" data-name="Rectangle 12110" width="11" height="2" transform="translate(19.012 32)" fill="#ef7e25"/>
      </g>
    </g>
  </g>
</svg>
