<svg id="wallet-money" xmlns="http://www.w3.org/2000/svg" width="40" height="40" viewBox="0 0 40 40">
  <g id="vuesax_outline_wallet-money" data-name="vuesax/outline/wallet-money">
    <g id="wallet-money-2" data-name="wallet-money">
      <path id="Vector" d="M7.217,11.083C3.25,11.083,0,8.2,0,4.65V1.25A1.259,1.259,0,0,1,1.25,0,1.259,1.259,0,0,1,2.5,1.25C2.5,3.333,4.517,4.9,7.217,4.9s4.717-1.567,4.717-3.65a1.25,1.25,0,0,1,2.5,0v3.4C14.433,8.2,11.2,11.083,7.217,11.083Zm-4.283-4.8a4.8,4.8,0,0,0,4.283,2.3,4.837,4.837,0,0,0,4.283-2.3A8.237,8.237,0,0,1,7.217,7.417,8.237,8.237,0,0,1,2.933,6.283Z" transform="translate(4.733 26.833)" fill="#ef7e25"/>
      <path id="Vector-2" data-name="Vector" d="M7.217,12.527a7.429,7.429,0,0,1-6.4-3.233A5.58,5.58,0,0,1,0,6.377a6.048,6.048,0,0,1,2.167-4.6A8.046,8.046,0,0,1,12.233,1.76a6.125,6.125,0,0,1,2.183,4.617A5.58,5.58,0,0,1,13.6,9.294,7.379,7.379,0,0,1,7.217,12.527Zm0-10.083a5.144,5.144,0,0,0-3.4,1.217A3.583,3.583,0,0,0,2.5,6.377a3.073,3.073,0,0,0,.45,1.617,4.9,4.9,0,0,0,4.267,2.05,4.876,4.876,0,0,0,4.25-2.033,3.031,3.031,0,0,0,.45-1.617A3.643,3.643,0,0,0,10.6,3.66,5.069,5.069,0,0,0,7.217,2.444Z" transform="translate(4.733 17.139)" fill="#ef7e25"/>
      <path id="Vector-3" data-name="Vector" d="M7.217,17.167C3.1,17.167,0,14.517,0,11.017V6.433C0,2.883,3.233,0,7.217,0A7.7,7.7,0,0,1,12.25,1.817a6.125,6.125,0,0,1,2.183,4.617v4.583C14.433,14.517,11.333,17.167,7.217,17.167Zm0-14.667C4.617,2.5,2.5,4.267,2.5,6.433v4.583c0,2.083,2.017,3.65,4.717,3.65s4.717-1.567,4.717-3.65V6.433A3.643,3.643,0,0,0,10.617,3.7,5.219,5.219,0,0,0,7.217,2.5Z" transform="translate(4.733 17.083)" fill="#ef7e25"/>
      <path id="Vector-4" data-name="Vector" d="M4.871,9.333A4.8,4.8,0,0,1,.021,5.067,4.575,4.575,0,0,1,1.388,1.35,4.517,4.517,0,0,1,4.654,0H8.138a2.959,2.959,0,0,1,2.917,2.95V6.383a2.949,2.949,0,0,1-2.867,2.95ZM8.088,2.5H4.671a2.049,2.049,0,0,0-1.5.617,2.1,2.1,0,0,0-.65,1.733,2.31,2.31,0,0,0,2.35,1.983H8.138a.442.442,0,0,0,.417-.45V2.95A.463.463,0,0,0,8.088,2.5Z" transform="translate(26.862 15.333)" fill="#ef7e25"/>
      <path id="Vector-5" data-name="Vector" d="M24.6,30.833H20.433a1.25,1.25,0,0,1,0-2.5H24.6c4.3,0,7.083-2.783,7.083-7.083V20.083H29.667a4.8,4.8,0,0,1-4.85-4.267A4.575,4.575,0,0,1,26.183,12.1a4.517,4.517,0,0,1,3.267-1.35h2.217V9.583c0-3.9-2.283-6.583-5.983-7.017a6.377,6.377,0,0,0-1.1-.067h-15a8.94,8.94,0,0,0-1.167.083C4.75,3.05,2.5,5.717,2.5,9.583v3.333a1.259,1.259,0,0,1-1.25,1.25A1.259,1.259,0,0,1,0,12.917V9.583C0,4.45,3.167.733,8.083.117A10.343,10.343,0,0,1,9.583,0h15a9.486,9.486,0,0,1,1.45.1c4.917.567,8.133,4.3,8.133,9.483V12a1.259,1.259,0,0,1-1.25,1.25H29.45a2.049,2.049,0,0,0-1.5.617A2.1,2.1,0,0,0,27.3,15.6a2.31,2.31,0,0,0,2.35,1.983h3.283a1.259,1.259,0,0,1,1.25,1.25V21.25C34.183,26.983,30.333,30.833,24.6,30.833Z" transform="translate(2.067 4.583)" fill="#ef7e25"/>
      <path id="Vector-6" data-name="Vector" d="M0,0H40V40H0Z" transform="translate(40 40) rotate(180)" fill="none" opacity="0"/>
    </g>
  </g>
</svg>
