<svg xmlns="http://www.w3.org/2000/svg" xmlns:xlink="http://www.w3.org/1999/xlink" width="50" height="50" viewBox="0 0 50 50">
  <defs>
    <clipPath id="clip-path">
      <rect id="Rectangle_12006" data-name="Rectangle 12006" width="50" height="50" transform="translate(-602 -13216)" fill="#fff" stroke="#434343" stroke-width="1"/>
    </clipPath>
  </defs>
  <g id="StructuredAcIcon7" transform="translate(602 13216)" clip-path="url(#clip-path)">
    <g id="Layer_2" data-name="Layer 2" transform="translate(-598.817 -13215.999)">
      <g id="Layer_1" data-name="Layer 1">
        <path id="Path_61326" data-name="Path 61326" d="M43.585,9.2a.468.468,0,0,0-.4-.468C34.108,7.167,22.221.136,22.1.065a.5.5,0,0,0-.5,0C21.482.136,9.571,7.167.491,8.757a.491.491,0,0,0-.4.43A44.2,44.2,0,0,0,1.8,24.157,43.918,43.918,0,0,0,8.065,37.49,43.688,43.688,0,0,0,21.6,49.929a.468.468,0,0,0,.248.07.515.515,0,0,0,.257-.075,44.409,44.409,0,0,0,13.258-12.5,45.77,45.77,0,0,0,6.269-13.3A45.5,45.5,0,0,0,43.585,9.2ZM40.7,23.881A44.788,44.788,0,0,1,34.547,36.9a43.408,43.408,0,0,1-12.7,12.041A42.758,42.758,0,0,1,8.888,36.957,43.118,43.118,0,0,1,2.751,23.938,45.3,45.3,0,0,1,1.034,9.651,61.276,61.276,0,0,0,14.9,4.678c3.452-1.633,6.147-3.158,6.947-3.625.8.468,3.49,1.993,6.938,3.64A61.543,61.543,0,0,0,42.631,9.651,46.949,46.949,0,0,1,40.7,23.881Z" fill="#434343" stroke="#434343" stroke-width="1"/>
        <path id="Path_61327" data-name="Path 61327" d="M17.122,35.249a.468.468,0,0,1-.318-.117l-6.7-5.749a.468.468,0,0,1-.061-.678l2.737-3.335a.5.5,0,0,1,.337-.178.468.468,0,0,1,.36.122l3.466,3.017L33.177,11.868a.468.468,0,0,1,.346-.14h0a.5.5,0,0,1,.346.136l2.928,2.9a.468.468,0,0,1,0,.688L17.468,35.085a.468.468,0,0,1-.346.164Zm-6.016-6.3L17.094,34.1,35.764,15.11,33.528,12.9,17.309,29.345a.468.468,0,0,1-.669.023L13.206,26.38Z" fill="#434343" stroke="#434343" stroke-width="1"/>
        <path id="Path_61328" data-name="Path 61328" d="M37.892,19.377a50.467,50.467,0,0,1-3.378,9.3,48.127,48.127,0,0,1-4.837,8.2,34.323,34.323,0,0,1-7.536,7.569.468.468,0,0,1-.168.075.51.51,0,0,1-.117,0h0a.388.388,0,0,1-.1,0,.468.468,0,0,1-.108-.037.383.383,0,0,1-.094-.056c-5.4-4.294-6.853-6.241-6.914-6.32a.494.494,0,1,1,.8-.58,38.666,38.666,0,0,0,5.932,5.487V34.716a.489.489,0,0,1,.978,0v8.346A33.9,33.9,0,0,0,28.9,36.288a46.78,46.78,0,0,0,4.734-8.028,50.607,50.607,0,0,0,3.275-9.1.48.48,0,1,1,.936.215Z" fill="#434343" stroke="#434343" stroke-width="1"/>
        <path id="Path_61329" data-name="Path 61329" d="M29.724,10.292a.491.491,0,0,1-.468.332A.589.589,0,0,1,29.1,10.6a20.135,20.135,0,0,1-6.769-3.537v11.5a.489.489,0,1,1-.978,0V6.872a41.635,41.635,0,0,1-3.714,2.437A41.99,41.99,0,0,1,6.549,13.866,33.3,33.3,0,0,0,8.631,24.794a.5.5,0,0,1-.262.641.533.533,0,0,1-.187.037.468.468,0,0,1-.468-.3,34.19,34.19,0,0,1-2.166-11.7.468.468,0,0,1,.379-.468,41.728,41.728,0,0,0,15.592-7.5.426.426,0,0,1,.178-.089.468.468,0,0,1,.341.023l.061.033a.36.36,0,0,1,.14.126c.028.037,1.7,2.25,7.162,4.075a.468.468,0,0,1,.323.618Z" fill="#434343" stroke="#434343" stroke-width="1"/>
        <path id="Path_61330" data-name="Path 61330" d="M22.113,5.473l-.07-.033h0Z" fill="#434343" stroke="#434343" stroke-width="1"/>
        <path id="Path_61331" data-name="Path 61331" d="M21.861,5.394a.44.44,0,0,1,.182.047A.524.524,0,0,0,21.861,5.394Z" fill="#434343" stroke="#434343" stroke-width="1"/>
      </g>
    </g>
  </g>
</svg>
