<svg xmlns="http://www.w3.org/2000/svg" width="56.601" height="50.565" viewBox="0 0 56.601 50.565">
  <g id="StructuredIcon1" transform="translate(0 0.005)">
    <g id="Layer_1" data-name="Layer 1" transform="translate(0 -0.005)">
      <path id="Path_61194" data-name="Path 61194" d="M45.189,39.153v4.53a3.011,3.011,0,0,1-3.011,3.011H13.491a3.011,3.011,0,0,1-3.011-3.011V13.491a3.011,3.011,0,0,1,3.011-3.011H42.178a3.011,3.011,0,0,1,3.011,3.011V39.153" transform="translate(-3.305 -3.305)" fill="rgba(239,126,37,0.14)"/>
      <path id="Rectangle_11991" data-name="Rectangle 11991" d="M-.522-1.655H10.044A1.133,1.133,0,0,1,11.176-.522v4.53A1.133,1.133,0,0,1,10.044,5.14H-.522A1.133,1.133,0,0,1-1.655,4.008V-.522A1.133,1.133,0,0,1-.522-1.655ZM8.911.61H.61V2.875h8.3Z" transform="translate(19.769 16.751)" fill="#ef7e25"/>
      <path id="Line_318" data-name="Line 318" d="M2.5.61H-.522A1.133,1.133,0,0,1-1.655-.522,1.133,1.133,0,0,1-.522-1.655H2.5A1.133,1.133,0,0,1,3.628-.522,1.133,1.133,0,0,1,2.5.61Z" transform="translate(19.769 28.823)" fill="#ef7e25"/>
      <path id="Line_319" data-name="Line 319" d="M2.5.61H-.522A1.133,1.133,0,0,1-1.655-.522,1.133,1.133,0,0,1-.522-1.655H2.5A1.133,1.133,0,0,1,3.628-.522,1.133,1.133,0,0,1,2.5.61Z" transform="translate(19.769 34.859)" fill="#ef7e25"/>
      <path id="Line_320" data-name="Line 320" d="M2.5.61H-.522A1.133,1.133,0,0,1-1.655-.522,1.133,1.133,0,0,1-.522-1.655H2.5A1.133,1.133,0,0,1,3.628-.522,1.133,1.133,0,0,1,2.5.61Z" transform="translate(27.317 28.823)" fill="#ef7e25"/>
      <path id="Line_321" data-name="Line 321" d="M2.5.61H-.522A1.133,1.133,0,0,1-1.655-.522,1.133,1.133,0,0,1-.522-1.655H2.5A1.133,1.133,0,0,1,3.628-.522,1.133,1.133,0,0,1,2.5.61Z" transform="translate(27.317 34.859)" fill="#ef7e25"/>
      <path id="Line_322" data-name="Line 322" d="M-.522,3.628A1.133,1.133,0,0,1-1.655,2.5V-.522A1.133,1.133,0,0,1-.522-1.655,1.133,1.133,0,0,1,.61-.522V2.5A1.133,1.133,0,0,1-.522,3.628Z" transform="translate(52.973 24.299)" fill="#ef7e25"/>
      <path id="Path_61190" data-name="Path 61190" d="M48.654,50.56H4.926A4.938,4.938,0,0,1,0,45.638V4.926A4.937,4.937,0,0,1,4.924,0H48.654a4.938,4.938,0,0,1,4.924,4.931v6.768a1.133,1.133,0,0,1-1.133,1.133h0a1.133,1.133,0,0,1-1.133-1.133V4.926A2.669,2.669,0,0,0,48.652,2.26H4.926A2.677,2.677,0,0,0,2.26,4.928V45.636a2.669,2.669,0,0,0,2.665,2.659H48.654a2.662,2.662,0,0,0,2.659-2.659V38.861a1.133,1.133,0,0,1,2.265,0v6.775A4.929,4.929,0,0,1,48.654,50.56Z" transform="translate(0.005 0.005)" fill="#363636"/>
      <path id="Path_61191" data-name="Path 61191" d="M41.656,47.3H12.969a4.148,4.148,0,0,1-4.144-4.144V12.969a4.148,4.148,0,0,1,4.144-4.144H41.656A4.148,4.148,0,0,1,45.8,12.969V43.161A4.144,4.144,0,0,1,41.656,47.3ZM12.969,11.09a1.881,1.881,0,0,0-1.878,1.878V43.161a1.881,1.881,0,0,0,1.878,1.878H41.656a1.878,1.878,0,0,0,1.878-1.878V12.969a1.881,1.881,0,0,0-1.878-1.878Z" transform="translate(-2.782 -2.782)" fill="#363636"/>
      <path id="Rectangle_11992" data-name="Rectangle 11992" d="M-.522-1.655H5.513A1.133,1.133,0,0,1,6.646-.522V5.513A1.133,1.133,0,0,1,5.513,6.646H-.522A1.133,1.133,0,0,1-1.655,5.513V-.522A1.133,1.133,0,0,1-.522-1.655ZM4.381.61H.61V4.381H4.381Z" transform="translate(49.955 15.239)" fill="#ef7e25"/>
      <path id="Rectangle_11993" data-name="Rectangle 11993" d="M-.522-1.655H5.513A1.133,1.133,0,0,1,6.646-.522V5.513A1.133,1.133,0,0,1,5.513,6.646H-.522A1.133,1.133,0,0,1-1.655,5.513V-.522A1.133,1.133,0,0,1-.522-1.655ZM4.381.61H.61V4.381H4.381Z" transform="translate(49.955 30.335)" fill="#ef7e25"/>
    </g>
  </g>
</svg>
