<svg xmlns="http://www.w3.org/2000/svg" width="45.435" height="53.57" viewBox="0 0 45.435 53.57">
  <g id="StructuredIcon2" transform="translate(0 0.005)">
    <g id="Layer_1" data-name="Layer 1" transform="translate(0 -0.005)">
      <path id="Path_61204" data-name="Path 61204" d="M12.206,0A12.206,12.206,0,1,1,0,12.206,12.206,12.206,0,0,1,12.206,0Z" transform="translate(20.006 28.141)" fill="#ef7e25" opacity="0.19"/>
      <path id="Path_61192" data-name="Path 61192" d="M1.013,48.141A1.018,1.018,0,0,1,0,47.124V1.013A1.018,1.018,0,0,1,1.5.12l4.929,2.7L11.365.12a1.018,1.018,0,0,1,.976,0l4.935,2.7L22.212.12a1.018,1.018,0,0,1,.976,0l4.942,2.7,4.948-2.7a1.018,1.018,0,0,1,1.5.893V24.071a1.018,1.018,0,1,1-2.035,0V2.727L28.617,4.87a1.018,1.018,0,0,1-.975,0L22.7,2.172l-4.936,2.7a1.018,1.018,0,0,1-.976,0l-4.935-2.7-4.935,2.7a1.018,1.018,0,0,1-.976,0L2.03,2.729V45.41l3.931-2.143a1.018,1.018,0,0,1,.975,0l4.942,2.7,4.936-2.7a1.018,1.018,0,0,1,.976,1.786l-5.423,2.964a1.018,1.018,0,0,1-.976,0l-4.942-2.7L1.5,48.017A1.017,1.017,0,0,1,1.013,48.141Z" transform="translate(0.005 0.005)" fill="#363636"/>
      <path id="Path_61203" data-name="Path 61203" d="M12.927.38H-.637A1.018,1.018,0,0,1-1.655-.637,1.018,1.018,0,0,1-.637-1.655H12.927A1.018,1.018,0,0,1,13.945-.637,1.018,1.018,0,0,1,12.927.38Z" transform="translate(13.861 13.861)" fill="#ef7e25"/>
      <path id="Path_61202" data-name="Path 61202" d="M15.633.38H-.637A1.018,1.018,0,0,1-1.655-.637,1.018,1.018,0,0,1-.637-1.655h16.27A1.018,1.018,0,0,1,16.65-.637,1.018,1.018,0,0,1,15.633.38Z" transform="translate(7.085 27.425)" fill="#ef7e25"/>
      <path id="Path_61201" data-name="Path 61201" d="M8.85.38H-.637A1.018,1.018,0,0,1-1.655-.637,1.018,1.018,0,0,1-.637-1.655H8.85A1.018,1.018,0,0,1,9.868-.637,1.018,1.018,0,0,1,8.85.38Z" transform="translate(7.085 32.849)" fill="#ef7e25"/>
      <path id="Path_61200" data-name="Path 61200" d="M8.857.38H-.637A1.018,1.018,0,0,1-1.655-.637,1.018,1.018,0,0,1-.637-1.655H8.857A1.018,1.018,0,0,1,9.874-.637,1.018,1.018,0,0,1,8.857.38Z" transform="translate(13.861 19.284)" fill="#ef7e25"/>
      <path id="Path_61199" data-name="Path 61199" d="M2.074.38H-.637A1.018,1.018,0,0,1-1.655-.637,1.018,1.018,0,0,1-.637-1.655H2.074A1.018,1.018,0,0,1,3.092-.637,1.018,1.018,0,0,1,2.074.38Z" transform="translate(7.085 13.861)" fill="#ef7e25"/>
      <path id="Path_61198" data-name="Path 61198" d="M2.074.38H-.637A1.018,1.018,0,0,1-1.655-.637,1.018,1.018,0,0,1-.637-1.655H2.074A1.018,1.018,0,0,1,3.092-.637,1.018,1.018,0,0,1,2.074.38Z" transform="translate(7.085 19.284)" fill="#ef7e25"/>
      <path id="Path_61197" data-name="Path 61197" d="M11.568-1.655a13.22,13.22,0,0,1,9.35,22.574A13.223,13.223,0,1,1,6.421-.615,13.141,13.141,0,0,1,11.568-1.655Zm0,24.411A11.188,11.188,0,1,0,.38,11.568,11.2,11.2,0,0,0,11.568,22.756Z" transform="translate(20.643 28.778)" fill="#363636"/>
      <path id="Path_61193" data-name="Path 61193" d="M50.552,68.009H45.123a1.018,1.018,0,1,1,0-2.035h5.423a1.7,1.7,0,1,0,0-3.4H47.834a3.729,3.729,0,0,1,0-7.459h5.43a1.018,1.018,0,1,1,0,2.035h-5.43a1.694,1.694,0,1,0,0,3.388h2.712a3.735,3.735,0,1,1,.006,7.471Z" transform="translate(-16.982 -21.222)" fill="#ef7e25"/>
      <path id="Path_61196" data-name="Path 61196" d="M-.637,3.092A1.018,1.018,0,0,1-1.655,2.074V-.637A1.018,1.018,0,0,1-.637-1.655,1.018,1.018,0,0,1,.38-.637V2.074A1.018,1.018,0,0,1-.637,3.092Z" transform="translate(32.849 32.849)" fill="#ef7e25"/>
      <path id="Path_61195" data-name="Path 61195" d="M-.637,3.092A1.018,1.018,0,0,1-1.655,2.074V-.637A1.018,1.018,0,0,1-.637-1.655,1.018,1.018,0,0,1,.38-.637V2.074A1.018,1.018,0,0,1-.637,3.092Z" transform="translate(32.849 46.407)" fill="#ef7e25"/>
    </g>
  </g>
</svg>
