<svg xmlns="http://www.w3.org/2000/svg" xmlns:xlink="http://www.w3.org/1999/xlink" width="50" height="50" viewBox="0 0 50 50">
  <defs>
    <clipPath id="clip-path">
      <rect id="Rectangle_12005" data-name="Rectangle 12005" width="50" height="50" transform="translate(-488 -13216)" fill="#fff"/>
    </clipPath>
  </defs>
  <g id="StructuredAcIcon4" transform="translate(488 13216)" clip-path="url(#clip-path)">
    <g id="Layer_2" data-name="Layer 2" transform="translate(-482.935 -13216.002)">
      <g id="Layer_1" data-name="Layer 1">
        <path id="Path_61323" data-name="Path 61323" d="M30.116,16.162,24.234,9.531a12.7,12.7,0,0,0,2.152-7.057A2.425,2.425,0,0,0,25.149.359a2.567,2.567,0,0,0-2.548,0L19.211,2.307a.619.619,0,0,1-.619,0L15.178.34a2.579,2.579,0,0,0-2.554,0A2.437,2.437,0,0,0,11.387,2.5a12.686,12.686,0,0,0,2.53,7.62L7.843,18.16A38.107,38.107,0,0,0,0,41.311v.359A8.468,8.468,0,0,0,8.579,50H31.291A8.468,8.468,0,0,0,39.87,41.67a38.472,38.472,0,0,0-9.754-25.508ZM13.292,2.474a.526.526,0,0,1,.315-.489.649.649,0,0,1,.649,0L17.64,3.952a2.548,2.548,0,0,0,2.554,0l3.389-1.967a.649.649,0,0,1,.649,0,.538.538,0,0,1,.285.47,10.855,10.855,0,0,1-1.942,6.185l-.148.216H15.352a10.855,10.855,0,0,1-2.06-6.383Zm18,45.647H8.579A6.569,6.569,0,0,1,1.9,41.688v-.359a36.2,36.2,0,0,1,7.459-22.05l6.464-8.523H22.78l.037.037,5.876,6.631A36.542,36.542,0,0,1,37.971,41.67a6.569,6.569,0,0,1-6.68,6.433Z" fill="#444"/>
        <path id="Path_61324" data-name="Path 61324" d="M25.978,33.227a4.113,4.113,0,0,1-4.113,4.113h-.977v1.583a.953.953,0,0,1-1.9,0V37.34H14.844a.953.953,0,0,1,0-1.9h6.989a2.214,2.214,0,0,0,0-4.429h-3.8a4.113,4.113,0,0,1,0-8.226h.953V19.935a.953.953,0,0,1,1.9,0v2.851h2.845a.953.953,0,1,1,0,1.9h-5.7a2.214,2.214,0,0,0,0,4.429h3.8a4.113,4.113,0,0,1,4.144,4.113Z" fill="#444"/>
        <path id="Path_61325" data-name="Path 61325" d="M22.817,10.793a.748.748,0,0,1-.235-.037h.2Z" fill="#444"/>
      </g>
    </g>
  </g>
</svg>
