<svg xmlns="http://www.w3.org/2000/svg" xmlns:xlink="http://www.w3.org/1999/xlink" width="50" height="50" viewBox="0 0 50 50">
  <defs>
    <clipPath id="clip-path">
      <rect id="Rectangle_12003" data-name="Rectangle 12003" width="50" height="50" transform="translate(-358 -13216)" fill="#fff"/>
    </clipPath>
  </defs>
  <g id="StructuredAcIcon2" transform="translate(358 13216)" clip-path="url(#clip-path)">
    <g id="Layer_2" data-name="Layer 2" transform="translate(-358 -13215.999)">
      <g id="Layer_1" data-name="Layer 1">
        <path id="Path_61309" data-name="Path 61309" d="M49.943,17.243l-3.1,14.226a1.038,1.038,0,0,1-.917.814L11.8,35.536l.223,1.267a2.088,2.088,0,0,0,2.051,1.713H43.747a1.044,1.044,0,1,1,0,2.081H14.076a4.169,4.169,0,0,1-4.1-3.432L5.533,11.222a1.044,1.044,0,0,0-1.026-.851H2.094v1.092a1.047,1.047,0,1,1-2.094,0v-1.05A2.088,2.088,0,0,1,2.088,8.332H4.5a3.125,3.125,0,0,1,3.077,2.577l.452,2.63h2.383a1.044,1.044,0,0,1,0,2.088H8.392l3.071,17.846L44.99,30.281l2.926-13.454a1.008,1.008,0,0,0-.253-.821,1.062,1.062,0,0,0-.827-.38h-.983a1.044,1.044,0,1,1,0-2.088h1.02a3.143,3.143,0,0,1,2.413,1.14A3.089,3.089,0,0,1,49.943,17.243Z" fill="#434343"/>
        <path id="Path_61310" data-name="Path 61310" d="M18.751,50a4.169,4.169,0,1,1,4.175-4.145A4.169,4.169,0,0,1,18.751,50Zm0-6.25a2.081,2.081,0,1,0,1.48.618,2.081,2.081,0,0,0-1.48-.618Z" fill="#434343"/>
        <path id="Path_61311" data-name="Path 61311" d="M38.54,50a4.169,4.169,0,1,1,4.169-4.145A4.169,4.169,0,0,1,38.54,50Zm0-6.25a2.088,2.088,0,1,0,1.479.62,2.081,2.081,0,0,0-1.479-.62Z" fill="#434343"/>
        <path id="Path_61312" data-name="Path 61312" d="M41.63,7.143a.477.477,0,0,0-.03-.133,1.008,1.008,0,0,0-.6-.676L28.592.109a1.062,1.062,0,0,0-.935,0l-6.2,3.1-.127.066-6.16,3.077-.127.072h0a1.273,1.273,0,0,0-.139.115h0a.676.676,0,0,0-.115.145.815.815,0,0,0-.09.157h0a.79.79,0,0,0-.054.169.066.066,0,0,0,0,.048.639.639,0,0,0,0,.187V19.789a1.038,1.038,0,0,0,.6.929l12.4,6.25h0l.078.03a.477.477,0,0,0,.157.048.808.808,0,0,0,.211,0,.748.748,0,0,0,.2,0,.694.694,0,0,0,.265-.09l12.519-6.238a1.038,1.038,0,0,0,.6-.929V7.288a1.171,1.171,0,0,0-.06-.145Zm-13.5-4.935,10.166,5.08-3.9,1.961L24.211,4.169ZM21.871,5.327h0l10.166,5.086-3.916,1.961L17.955,7.288Zm-5.2,3.65,10.413,5.207V24.35L16.67,19.144ZM39.6,19.144,29.165,24.356V14.184l5.623-2.812.127-.066,4.67-2.329Z" fill="#434343"/>
      </g>
    </g>
  </g>
</svg>
