<svg xmlns="http://www.w3.org/2000/svg" xmlns:xlink="http://www.w3.org/1999/xlink" width="50" height="50" viewBox="0 0 50 50">
  <defs>
    <clipPath id="clip-path">
      <rect id="Rectangle_12004" data-name="Rectangle 12004" width="50" height="50" transform="translate(-122 -13216)" fill="#fff"/>
    </clipPath>
  </defs>
  <g id="StructuredAcIcon3" transform="translate(122 13216)" clip-path="url(#clip-path)">
    <g id="Layer_2" data-name="Layer 2" transform="translate(-122 -13213.473)">
      <g id="Layer_1" data-name="Layer 1">
        <path id="Path_61313" data-name="Path 61313" d="M30.06,5.694H16.14a.947.947,0,1,1,0-1.894H30.06a.947.947,0,0,1,0,1.894Z" fill="#444"/>
        <path id="Path_61314" data-name="Path 61314" d="M44.934,4.747V18.7a.947.947,0,0,1-1.894,0V13.269H1.9V39.2H23.733a.953.953,0,0,1,0,1.9H.947A.947.947,0,0,1,0,40.193V4.747A.947.947,0,0,1,.947,3.8H3.48a.953.953,0,0,1,0,1.9H1.9v5.694H43.04V5.7H41.454a.953.953,0,0,1,0-1.9h2.533a.947.947,0,0,1,.947.947Z" fill="#444"/>
        <path id="Path_61315" data-name="Path 61315" d="M11.074,9.493H7.28a.947.947,0,0,1-.953-.947V.947A.953.953,0,0,1,7.28,0h3.794a.953.953,0,0,1,.953.947v7.6a.947.947,0,0,1-.953.947Zm-2.847-1.9h1.9V1.9h-1.9Z" fill="#444"/>
        <path id="Path_61316" data-name="Path 61316" d="M37.66,9.493h-3.8a.947.947,0,0,1-.947-.947V.947A.947.947,0,0,1,33.86,0h3.8A.947.947,0,0,1,38.6.947v7.6a.947.947,0,0,1-.941.947Zm-2.853-1.9h1.9V1.9h-1.9Z" fill="#444"/>
        <path id="Path_61317" data-name="Path 61317" d="M13.607,24.686H7.28a.953.953,0,0,1-.953-.953V18.7a.953.953,0,0,1,.953-.953h6.327a.947.947,0,0,1,.947.953v5.06a.947.947,0,0,1-.947.929Zm-5.38-1.9h4.439V19.62H8.227Z" fill="#444"/>
        <path id="Path_61318" data-name="Path 61318" d="M26.267,24.686H19.934a.947.947,0,0,1-.947-.953V18.7a.947.947,0,0,1,.947-.953h6.333a.947.947,0,0,1,.947.953v5.06A.947.947,0,0,1,26.267,24.686Zm-5.38-1.9h4.445V19.62H20.887Z" fill="#444"/>
        <path id="Path_61319" data-name="Path 61319" d="M13.607,34.813H7.28a.953.953,0,0,1-.953-.953V28.8a.953.953,0,0,1,.953-.953h6.327a.947.947,0,0,1,.947.953v5.06a.947.947,0,0,1-.947.953Zm-5.38-1.9h4.439V29.747H8.227Z" fill="#444"/>
        <path id="Path_61320" data-name="Path 61320" d="M22.467,34.813H19.934a.947.947,0,0,1-.947-.953V28.8a.947.947,0,0,1,.947-.953h2.533a.953.953,0,1,1,0,1.9h-1.58v3.166h1.58a.953.953,0,1,1,0,1.9Z" fill="#444"/>
        <path id="Path_61321" data-name="Path 61321" d="M37.66,20.253A12.346,12.346,0,1,0,50,32.569,12.346,12.346,0,0,0,37.66,20.253Zm0,22.786A10.446,10.446,0,1,1,48.1,32.569,10.446,10.446,0,0,1,37.66,43.04Z" fill="#444"/>
        <path id="Path_61322" data-name="Path 61322" d="M42.406,35.127A3.48,3.48,0,0,1,38.92,38.6H38.6v1.586a.953.953,0,0,1-1.9,0V38.6H33.86a.947.947,0,0,1,0-1.894h5.06a1.586,1.586,0,1,0,0-3.166H36.393a3.48,3.48,0,1,1,0-6.96h.314V25a.953.953,0,0,1,1.9,0v1.586h2.847a.947.947,0,1,1,0,1.894h-5.06a1.586,1.586,0,1,0,0,3.166H38.92a3.486,3.486,0,0,1,3.486,3.48Z" fill="#444"/>
      </g>
    </g>
  </g>
</svg>
