<svg id="icon2" xmlns="http://www.w3.org/2000/svg" width="105.3" height="84" viewBox="0 0 105.3 84">
  <g id="Layer_1" data-name="Layer 1" transform="translate(0)">
    <path id="Path_50049" data-name="Path 50049" d="M47.329,60.007H2A2,2,0,0,1,0,58V2A2,2,0,0,1,2,0H90a2,2,0,0,1,2,2V18a2,2,0,1,1-4,0V4H4V56H47.329a2,2,0,1,1,0,4Z" transform="translate(0 0)"/>
    <path id="Path_50050" data-name="Path 50050" d="M55.128,82.084a2.019,2.019,0,0,1-1.41-.581l-2.457-2.457a2.019,2.019,0,0,1-.543-1.829l.676-3.2A25.222,25.222,0,0,1,58.271,61.31L91.5,28.068A9.325,9.325,0,0,1,104.7,41.222L71.454,74.464a25.222,25.222,0,0,1-12.706,6.877h0l-3.21.676A1.905,1.905,0,0,1,55.128,82.084Zm3.21-2.676Zm-3.486-2.429.952.952,2.124-.514a21.326,21.326,0,0,0,10.7-5.715L101.866,38.46a5.324,5.324,0,0,0-7.534-7.525L61.1,64.139a21.145,21.145,0,0,0-5.791,10.7Z" transform="translate(-2.408 -1.218)"/>
    <path id="Path_50051" data-name="Path 50051" d="M103.381,43.882a2,2,0,0,1-1.419-.581L91.56,32.948a2.021,2.021,0,0,1,2.857-2.857l10.325,10.363a2,2,0,0,1-1.362,3.429Z" transform="translate(-4.322 -1.402)"/>
    <path id="Path_50052" data-name="Path 50052" d="M84.154,63.062a1.981,1.981,0,0,1-1.41-.591L72.39,52.118a2.021,2.021,0,0,1,2.857-2.857L85.573,59.643a2.01,2.01,0,0,1-1.419,3.419Z" transform="translate(-3.411 -2.312)"/>
    <path id="Path_50053" data-name="Path 50053" d="M90.81,67.45a2,2,0,0,1-1.419-3.41L105.04,48.391a1.743,1.743,0,0,0,0-2.457,1.772,1.772,0,0,0-2.467,0L98.306,50.2a2.021,2.021,0,0,1-2.857-2.857l4.267-4.267a5.742,5.742,0,1,1,8.125,8.115L92.22,66.869a1.991,1.991,0,0,1-1.41.581Z" transform="translate(-4.22 -1.967)"/>
    <path id="Path_50054" data-name="Path 50054" d="M49.39,87.771a2.01,2.01,0,0,1-1.419-3.419l4.362-4.381a2.021,2.021,0,0,1,2.857,2.857l-4.362,4.353a1.981,1.981,0,0,1-1.438.591Z" transform="translate(-2.252 -3.772)"/>
    <path id="Path_50055" data-name="Path 50055" d="M25.2,34h-12a2,2,0,1,1,0-4h12a2,2,0,0,0,0-4h-8a6,6,0,1,1,0-12h12a2,2,0,1,1,0,4h-12a2,2,0,1,0,0,4h8a6,6,0,0,1,0,12Z" transform="translate(-0.532 -0.665)"/>
    <path id="Path_50056" data-name="Path 50056" d="M21.6,40.125a2,2,0,0,1-2-2V32.8a2,2,0,1,1,4,0v5.324A2,2,0,0,1,21.6,40.125Z" transform="translate(-0.931 -1.463)"/>
    <path id="Path_50057" data-name="Path 50057" d="M21.6,17.734a2,2,0,0,1-2-2V10.4a2,2,0,0,1,4,0v5.334a2,2,0,0,1-2,2Z" transform="translate(-0.931 -0.399)"/>
    <path id="Path_50058" data-name="Path 50058" d="M81.195,29.2h-40a2,2,0,0,1,0-4h40a2,2,0,0,1,0,4Z" transform="translate(-1.862 -1.197)"/>
    <path id="Path_50059" data-name="Path 50059" d="M65.193,18h-24a2,2,0,0,1,0-4h24a2,2,0,1,1,0,4Z" transform="translate(-1.862 -0.665)"/>
    <path id="Path_50060" data-name="Path 50060" d="M67.86,40.39H41.19a2,2,0,0,1,0-4H67.86a2,2,0,1,1,0,4Z" transform="translate(-1.862 -1.729)"/>
  </g>
</svg>
