<svg id="icon1" xmlns="http://www.w3.org/2000/svg" width="62.738" height="84" viewBox="0 0 62.738 84">
  <path id="Path_50038" data-name="Path 50038" d="M54.762,75.5H33.492a1.6,1.6,0,1,1,0-3.19H53.174V9.571H3.19V72.309H7.976a1.6,1.6,0,1,1,0,3.19H1.6A1.6,1.6,0,0,1,0,73.9V7.976a1.6,1.6,0,0,1,1.6-1.6H54.769a1.6,1.6,0,0,1,1.6,1.6V73.9a1.6,1.6,0,0,1-1.6,1.6Z"/>
  <path id="Path_50039" data-name="Path 50039" d="M61.143,71.246a1.6,1.6,0,0,1-1.6-1.6V1.6a1.6,1.6,0,0,1,3.19,0V69.651A1.6,1.6,0,0,1,61.143,71.246Z"/>
  <path id="Path_50040" data-name="Path 50040" d="M61.143,3.19H7.969a1.6,1.6,0,1,1,0-3.19H61.143a1.6,1.6,0,1,1,0,3.19Z"/>
  <path id="Path_50041" data-name="Path 50041" d="M44.127,28.706h-31.9a1.6,1.6,0,1,1,0-3.183h31.9a1.6,1.6,0,1,1,0,3.183Z"/>
  <path id="Path_50042" data-name="Path 50042" d="M29.238,20.206H12.23a1.6,1.6,0,1,1,0-3.19H29.238a1.6,1.6,0,1,1,0,3.19Z"/>
  <path id="Path_50043" data-name="Path 50043" d="M44.127,37.222h-31.9a1.6,1.6,0,0,1,0-3.19h31.9a1.6,1.6,0,1,1,0,3.19Z"/>
  <path id="Path_50044" data-name="Path 50044" d="M20.738,69.126a10.1,10.1,0,1,1,10.1-10.1,10.1,10.1,0,0,1-10.1,10.1Zm0-17.016a6.923,6.923,0,1,0,0-.008Z"/>
  <path id="Path_50045" data-name="Path 50045" d="M27.111,84a1.588,1.588,0,0,1-1.588-1.588V71.778a1.6,1.6,0,1,1,3.183,0V82.412A1.588,1.588,0,0,1,27.111,84Z"/>
  <path id="Path_50046" data-name="Path 50046" d="M20.738,81.881a1.6,1.6,0,0,1-1.6-1.6V73.9a1.6,1.6,0,0,1,3.19,0v6.381A1.6,1.6,0,0,1,20.738,81.881Z"/>
  <path id="Path_50047" data-name="Path 50047" d="M14.357,84a1.588,1.588,0,0,1-1.6-1.588V71.778a1.6,1.6,0,1,1,3.19,0V82.412A1.588,1.588,0,0,1,14.357,84Z"/>
</svg>
