<svg xmlns="http://www.w3.org/2000/svg" width="74" height="74" viewBox="0 0 74 74">
  <g id="TabsIcon1" transform="translate(5.325 5.013)">
    <g id="Group_23749" data-name="Group 23749" transform="translate(-5.325 -4.763)">
      <g id="Group_23748" data-name="Group 23748" transform="translate(0 0)">
        <circle id="Ellipse_11710" data-name="Ellipse 11710" cx="37" cy="37" r="37" transform="translate(0 -0.25)" fill="#edeff9"/>
        <g id="Layer_2" data-name="Layer 2" transform="translate(17 11.76)">
          <g id="Layer_1" data-name="Layer 1" transform="translate(0 -0.01)">
            <path id="Path_48951" data-name="Path 48951" d="M14.874,72.659H.948A.952.952,0,0,1,0,71.7V50.178a.948.948,0,0,1,.948-.948H12.337a.948.948,0,1,1,0,1.9H1.9V70.751H14.874a.952.952,0,1,1,0,1.9Z" transform="translate(0 -30.246)" fill="#d5313a"/>
            <path id="Path_48952" data-name="Path 48952" d="M79.578,94a.948.948,0,0,1-.948-.929A4.958,4.958,0,0,1,83.584,88.1a.952.952,0,0,1,0,1.9,3.057,3.057,0,0,0-3.054,3.073A.952.952,0,0,1,79.578,94Z" transform="translate(-48.315 -54.131)" fill="#d5313a"/>
            <path id="Path_48953" data-name="Path 48953" d="M9.768,61.727a.948.948,0,1,1,0-1.9,3.188,3.188,0,0,0,3.185-3.185.952.952,0,1,1,1.9,0,5.089,5.089,0,0,1-5.085,5.081Z" transform="translate(-5.42 -34.181)" fill="#d5313a"/>
            <path id="Path_48954" data-name="Path 48954" d="M13.861,93.984a.948.948,0,0,1-.948-.929,3.057,3.057,0,0,0-3.053-3.084.952.952,0,0,1,0-1.9,4.962,4.962,0,0,1,4.954,4.985A.952.952,0,0,1,13.861,93.984Z" transform="translate(-5.51 -54.112)" fill="#d5313a"/>
            <path id="Path_48955" data-name="Path 48955" d="M83.372,61.727a5.089,5.089,0,0,1-5.085-5.081.952.952,0,1,1,1.9,0,3.188,3.188,0,0,0,3.185,3.184.948.948,0,0,1,0,1.9Z" transform="translate(-48.103 -34.181)" fill="#d5313a"/>
            <path id="Path_48956" data-name="Path 48956" d="M57.084,42.4H47.06a3.582,3.582,0,0,1-3.578-3.578V9.794a.952.952,0,0,1,.933-.933H45.9L39.349,2.307,32.795,8.861H34.3a.948.948,0,0,1,.948.948V27.545a.952.952,0,1,1-1.9,0v-16.8H30.482a.948.948,0,0,1-.675-1.619L38.674.256a.979.979,0,0,1,1.342,0l8.867,8.867a.948.948,0,0,1-.667,1.619H45.363v8.231h11.72a.948.948,0,0,1,.948.948V41.443a.952.952,0,0,1-.948.96ZM45.363,20.871V38.818a1.677,1.677,0,0,0,1.7,1.677h9.064V20.871Z" transform="translate(-18.144 0.01)" fill="#d5313a"/>
            <path id="Path_48957" data-name="Path 48957" d="M53.488,53.5a.948.948,0,0,1-.948-.948V43.689a.952.952,0,0,1,1.9,0v8.867A.952.952,0,0,1,53.488,53.5Z" transform="translate(-32.284 -26.294)" fill="#d5313a"/>
            <path id="Path_48958" data-name="Path 48958" d="M53.488,82.578a.948.948,0,0,1-.948-.948v-5.05a.952.952,0,0,1,1.9,0v5.05A.952.952,0,0,1,53.488,82.578Z" transform="translate(-32.284 -46.503)" fill="#d5313a"/>
            <path id="Path_48959" data-name="Path 48959" d="M53.485,104.112a.948.948,0,0,1-.948-.948V99.386a.952.952,0,1,1,1.9,0v3.8A.952.952,0,0,1,53.485,104.112Z" transform="translate(-32.281 -60.443)" fill="#d5313a"/>
            <path id="Path_48960" data-name="Path 48960" d="M53.488,122.71a.948.948,0,0,1-.948-.948v-2.533a.952.952,0,0,1,1.9,0v2.533A.952.952,0,0,1,53.488,122.71Z" transform="translate(-32.284 -72.71)" fill="#d5313a"/>
          </g>
        </g>
      </g>
    </g>
  </g>
</svg>
