<svg xmlns="http://www.w3.org/2000/svg" width="74" height="74" viewBox="0 0 74 74">
  <g id="tabsIcon3" transform="translate(17.325 5.013)">
    <g id="Group_23749" data-name="Group 23749" transform="translate(-5 -4.763)">
      <g id="Group_23748" data-name="Group 23748" transform="translate(0 0)">
        <circle id="Ellipse_11710" data-name="Ellipse 11710" cx="37" cy="37" r="37" transform="translate(-12.325 -0.25)" fill="#edeff9"/>
        <g id="Layer_2" data-name="Layer 2" transform="translate(-0.322 14.75)">
          <g id="Layer_1" data-name="Layer 1" transform="translate(-0.002)">
            <path id="Path_48971" data-name="Path 48971" d="M67.448,19.621H37.068a.952.952,0,0,1-.948-.952V.937A.948.948,0,0,1,37.068,0h30.38A.952.952,0,0,1,68.4.948V18.68A.956.956,0,0,1,67.448,19.621ZM38.02,17.732H66.5V1.927H38.02Z" transform="translate(-22.196)" fill="#d5313a"/>
            <path id="Path_48972" data-name="Path 48972" d="M68.413,21.877a6.013,6.013,0,1,1,6.013-6.013,6.013,6.013,0,0,1-6.013,6.013Zm0-10.127a4.113,4.113,0,1,0,4.109,4.113A4.113,4.113,0,0,0,68.413,11.75Z" transform="translate(-38.346 -6.053)" fill="#d5313a"/>
            <path id="Path_48973" data-name="Path 48973" d="M105.3,11.018a3.365,3.365,0,0,1-3.469-3.469.948.948,0,1,1,1.9,0,1.484,1.484,0,0,0,1.584,1.58.952.952,0,0,1,0,1.9Z" transform="translate(-62.573 -4.056)" fill="#d5313a"/>
            <path id="Path_48974" data-name="Path 48974" d="M46.171,37.266a.948.948,0,0,1-.948-.948,1.484,1.484,0,0,0-1.584-1.584.948.948,0,1,1,0-1.9,3.365,3.365,0,0,1,3.469,3.469A.948.948,0,0,1,46.171,37.266Z" transform="translate(-26.233 -20.178)" fill="#d5313a"/>
            <path id="Path_48975" data-name="Path 48975" d="M43.729,10.981a.952.952,0,0,1,0-1.9,1.484,1.484,0,0,0,1.584-1.592.948.948,0,1,1,1.9,0,3.369,3.369,0,0,1-3.481,3.492Z" transform="translate(-26.324 -4.019)" fill="#d5313a"/>
            <path id="Path_48976" data-name="Path 48976" d="M102.746,37.285a.948.948,0,0,1-.948-.948,3.365,3.365,0,0,1,3.469-3.469.948.948,0,1,1,0,1.9,1.484,1.484,0,0,0-1.584,1.584A.948.948,0,0,1,102.746,37.285Z" transform="translate(-62.555 -20.197)" fill="#d5313a"/>
            <path id="Path_48977" data-name="Path 48977" d="M41.368,86.788a22.662,22.662,0,0,1-5.863-.709h-.042L33.5,85.492a.955.955,0,1,1,.544-1.831l1.927.578a20.508,20.508,0,0,0,5.4.651,26.247,26.247,0,0,0,8.843-1.469l17.2-7.239c.443-.251,1.029-.825.8-1.38a1.276,1.276,0,0,0-1.426-.64l-9.93,2.116a.949.949,0,0,1-.385-1.858l9.9-2.109a3.153,3.153,0,0,1,3.6,1.754,3.111,3.111,0,0,1-1.7,3.793l-.081.039L50.912,85.188a28.3,28.3,0,0,1-9.544,1.6Z" transform="translate(-20.166 -44.385)" fill="#d5313a"/>
            <path id="Path_48978" data-name="Path 48978" d="M9.809,83.272a.941.941,0,0,1-.836-.5L.111,66.319a.952.952,0,0,1,.312-1.241l3.816-2.533a.944.944,0,0,1,1.361.343L14.466,79.34a.952.952,0,0,1-.308,1.241l-3.8,2.533a.964.964,0,0,1-.551.158ZM2.192,66.18l7.956,14.775,2.213-1.473L4.4,64.7Z" transform="translate(0.002 -38.337)" fill="#d5313a"/>
            <path id="Path_48979" data-name="Path 48979" d="M41.283,71.133H29.256a.948.948,0,0,1,0-1.9H41.283a2.216,2.216,0,0,0,0-4.433h-8.23a.937.937,0,0,1-.567-.189l-1.079-.81a14.085,14.085,0,0,0-8.4-2.81,13.922,13.922,0,0,0-5.554,1.156l-3.011,1.311a.953.953,0,0,1-.771-1.742l3.014-1.3a15.77,15.77,0,0,1,6.322-1.307,15.978,15.978,0,0,1,9.533,3.176l.829.636h7.91a4.113,4.113,0,0,1,0,8.226Z" transform="translate(-8.055 -36.324)" fill="#d5313a"/>
          </g>
        </g>
      </g>
    </g>
  </g>
</svg>
