<svg xmlns="http://www.w3.org/2000/svg" width="74" height="74" viewBox="0 0 74 74">
  <g id="tbsIcon2" transform="translate(12.325 0.25)">
    <g id="Group_23748" data-name="Group 23748" transform="translate(0 0)">
      <circle id="Ellipse_11710" data-name="Ellipse 11710" cx="37" cy="37" r="37" transform="translate(-12.325 -0.25)" fill="#edeff9"/>
      <g id="Layer_2" data-name="Layer 2" transform="translate(19.676 28.603)">
        <g id="Layer_1" data-name="Layer 1" transform="translate(-15 -16.853)">
          <path id="Path_48961" data-name="Path 48961" d="M12.349,43.141H.949A.949.949,0,0,1,0,42.2V20.65A.949.949,0,0,1,.949,19.7H14.889a.953.953,0,1,1,0,1.9H1.9V41.242H12.349a.949.949,0,0,1,0,1.9Z" transform="translate(0 -12.151)" fill="#d5313a"/>
          <path id="Path_48962" data-name="Path 48962" d="M83.589,32.269A4.967,4.967,0,0,1,78.63,27.31a.953.953,0,0,1,1.9,0,3.06,3.06,0,0,0,3.056,3.056.953.953,0,0,1,0,1.9Z" transform="translate(-48.286 -16.279)" fill="#d5313a"/>
          <path id="Path_48963" data-name="Path 48963" d="M13.906,64.276a.949.949,0,0,1-.949-.949,3.192,3.192,0,0,0-3.188-3.188.949.949,0,1,1,0-1.9,5.094,5.094,0,0,1,5.09,5.086A.953.953,0,0,1,13.906,64.276Z" transform="translate(-5.416 -35.821)" fill="#d5313a"/>
          <path id="Path_48964" data-name="Path 48964" d="M9.86,32.269a.953.953,0,0,1,0-1.9,3.06,3.06,0,0,0,3.056-3.056.953.953,0,0,1,1.9,0A4.967,4.967,0,0,1,9.86,32.269Z" transform="translate(-5.507 -16.279)" fill="#d5313a"/>
          <path id="Path_48965" data-name="Path 48965" d="M79.239,64.276a.949.949,0,0,1-.949-.949,5.094,5.094,0,0,1,5.09-5.086.949.949,0,0,1,0,1.9,3.191,3.191,0,0,0-3.188,3.188A.953.953,0,0,1,79.239,64.276Z" transform="translate(-48.077 -35.821)" fill="#d5313a"/>
          <path id="Path_48966" data-name="Path 48966" d="M39.371,62.154a.953.953,0,0,1-.671-.278L29.823,53a.949.949,0,0,1,.671-1.617h2.856V34.592a.953.953,0,1,1,1.9,0V52.344a.949.949,0,0,1-.949.949H32.81l6.561,6.561,6.561-6.561H44.426a.953.953,0,0,1-.953-.949V23.289A3.585,3.585,0,0,1,47.089,19.7H57.123a.949.949,0,0,1,.949.953V42.2a.949.949,0,0,1-.949.945H45.391v8.239h2.856A.949.949,0,0,1,48.918,53L40.042,61.88A.945.945,0,0,1,39.371,62.154Zm6.02-20.909H56.162V21.6H47.089a1.679,1.679,0,0,0-1.7,1.686Z" transform="translate(-18.146 -12.154)" fill="#d5313a"/>
          <path id="Path_48967" data-name="Path 48967" d="M53.489,69.945A.949.949,0,0,1,52.54,69V60.12a.953.953,0,0,1,1.9,0V69A.953.953,0,0,1,53.489,69.945Z" transform="translate(-32.264 -36.427)" fill="#d5313a"/>
          <path id="Path_48968" data-name="Path 48968" d="M53.489,43.18a.949.949,0,0,1-.949-.949V37.16a.953.953,0,0,1,1.9,0v5.071a.953.953,0,0,1-.953.949Z" transform="translate(-32.264 -22.328)" fill="#d5313a"/>
          <path id="Path_48969" data-name="Path 48969" d="M53.489,22.214a.953.953,0,0,1-.949-.953v-3.8a.953.953,0,0,1,1.9,0v3.8A.957.957,0,0,1,53.489,22.214Z" transform="translate(-32.264 -10.23)" fill="#d5313a"/>
          <path id="Path_48970" data-name="Path 48970" d="M53.489,4.524a.949.949,0,0,1-.949-.961V1.04a.953.953,0,0,1,1.9,0V3.564a.953.953,0,0,1-.953.961Z" transform="translate(-32.264 -0.147)" fill="#d5313a"/>
        </g>
      </g>
    </g>
  </g>
</svg>
