<svg xmlns="http://www.w3.org/2000/svg" width="17" height="17" viewBox="0 0 17 17">
  <path id="linkedin" d="M15.786,128H1.21A1.22,1.22,0,0,0,0,129.226v14.549A1.22,1.22,0,0,0,1.21,145H15.786A1.223,1.223,0,0,0,17,143.774V129.226A1.223,1.223,0,0,0,15.786,128ZM5.138,142.571H2.618v-8.113H5.142v8.113Zm-1.26-9.221a1.461,1.461,0,1,1,1.461-1.461A1.462,1.462,0,0,1,3.878,133.35Zm10.7,9.221h-2.52v-3.946c0-.941-.019-2.152-1.309-2.152-1.313,0-1.514,1.025-1.514,2.083v4.015H6.72v-8.113H9.137v1.108h.034a2.654,2.654,0,0,1,2.387-1.309c2.55,0,3.024,1.681,3.024,3.867Z" transform="translate(0 -128)" fill="#5e5e59"/>
</svg>
