<svg xmlns="http://www.w3.org/2000/svg" width="19.369" height="20.555" viewBox="0 0 19.369 20.555">
  <g id="PDF" transform="translate(-14.769)">
    <path id="Rectangle_11530" data-name="Rectangle 11530" d="M1.837,0h0a9.8,9.8,0,0,1,9.8,9.8v4.429a2.449,2.449,0,0,1-2.449,2.449H1.837A1.837,1.837,0,0,1,0,14.84v-13A1.837,1.837,0,0,1,1.837,0Z" transform="translate(20.975 1.939)" fill="#f3e7e8"/>
    <path id="Path_46860" data-name="Path 46860" d="M34.028,5.563,28.791.121A.4.4,0,0,0,28.506,0H20.7a1.586,1.586,0,0,0-1.584,1.583V7.115H15.954A1.186,1.186,0,0,0,14.769,8.3v5.931a1.186,1.186,0,0,0,1.185,1.185h3.163v3.558A1.584,1.584,0,0,0,20.7,20.555H32.554a1.584,1.584,0,0,0,1.584-1.58V5.837A.4.4,0,0,0,34.028,5.563ZM28.6,1.067l4.3,4.467H28.6ZM15.954,14.626a.4.4,0,0,1-.395-.394V8.3a.4.4,0,0,1,.395-.394H26.628a.4.4,0,0,1,.395.394v5.931a.4.4,0,0,1-.395.394Zm17.394,4.35a.792.792,0,0,1-.794.789H20.7a.793.793,0,0,1-.794-.79V15.416h6.721a1.186,1.186,0,0,0,1.185-1.185V8.3a1.186,1.186,0,0,0-1.185-1.185H19.908V1.583A.794.794,0,0,1,20.7.791h7.112V5.929a.4.4,0,0,0,.4.4h5.139V18.975Z" fill="#d5313a"/>
    <path id="Path_46861" data-name="Path 46861" d="M75,240.729a.89.89,0,0,0-.489-.332,3.99,3.99,0,0,0-.815-.051H72.6v3.4h.686v-1.281h.447a3.912,3.912,0,0,0,.711-.049.993.993,0,0,0,.356-.161.931.931,0,0,0,.288-.335,1.107,1.107,0,0,0,.113-.526A1.054,1.054,0,0,0,75,240.729Zm-.587.935a.45.45,0,0,1-.214.167,1.772,1.772,0,0,1-.542.053h-.375v-.964h.331a3.3,3.3,0,0,1,.493.023.474.474,0,0,1,.276.151.439.439,0,0,1,.109.306A.456.456,0,0,1,74.413,241.664Z" transform="translate(-55.505 -230.697)" fill="#d5313a"/>
    <path id="Path_46862" data-name="Path 46862" d="M154.081,241.274a1.483,1.483,0,0,0-.324-.55,1.136,1.136,0,0,0-.512-.313,2.447,2.447,0,0,0-.646-.065h-1.253v3.4h1.29a2.074,2.074,0,0,0,.607-.072,1.2,1.2,0,0,0,.482-.271,1.5,1.5,0,0,0,.364-.6,2.232,2.232,0,0,0,.1-.723A2.506,2.506,0,0,0,154.081,241.274Zm-.667,1.394a.719.719,0,0,1-.179.328.633.633,0,0,1-.277.141,1.867,1.867,0,0,1-.415.032h-.512V240.92h.308a3.106,3.106,0,0,1,.563.032.652.652,0,0,1,.317.16.777.777,0,0,1,.195.329,2.028,2.028,0,0,1,.07.6A2.214,2.214,0,0,1,153.414,242.668Z" transform="translate(-131.094 -230.697)" fill="#d5313a"/>
    <path id="Path_46863" data-name="Path 46863" d="M239.174,240.92v-.574h-2.328v3.4h.686V242.3h1.417v-.574h-1.417v-.8Z" transform="translate(-213.161 -230.697)" fill="#d5313a"/>
  </g>
</svg>
