<svg xmlns="http://www.w3.org/2000/svg" width="130" height="130" viewBox="0 0 130 130">
  <g id="icon6" transform="translate(-192.619 -257.482)">
    <rect id="Rectangle_11649" data-name="Rectangle 11649" width="130" height="130" transform="translate(192.619 257.482)" fill="#a21942"/>
    <path id="Path_50705" data-name="Path 50705" d="M208.6,272.151a4.446,4.446,0,0,0-.429-2.127,1.406,1.406,0,0,0-1.316-.78,1.471,1.471,0,0,0-1.346.78,4.186,4.186,0,0,0-.46,2.127q0,3.826,1.806,3.825,1.744,0,1.744-3.825m-.138,14.4a7.765,7.765,0,0,0,.413-2.738,8.279,8.279,0,0,0-.413-2.907,1.735,1.735,0,0,0-3.213.015,8.308,8.308,0,0,0-.414,2.892,7.762,7.762,0,0,0,.414,2.738,1.731,1.731,0,0,0,3.213,0m-8.247-2.922a8.279,8.279,0,0,1,.734-3.612,4.789,4.789,0,0,1,2.173-2.264,6.084,6.084,0,0,1-1.837-2.219,7.434,7.434,0,0,1-.7-3.381,6.607,6.607,0,0,1,1.622-4.759,6.124,6.124,0,0,1,4.651-1.7,6.061,6.061,0,0,1,4.621,1.683,6.545,6.545,0,0,1,1.592,4.682,8.054,8.054,0,0,1-.674,3.489,5.548,5.548,0,0,1-1.8,2.2,4.744,4.744,0,0,1,2.172,2.326,8.906,8.906,0,0,1,.736,3.765,8.23,8.23,0,0,1-1.592,5.386q-1.592,1.929-5.049,1.928-6.642,0-6.641-7.528" transform="translate(2.581 2.79)" fill="#fff"/>
    <path id="Path_50706" data-name="Path 50706" d="M218.8,274.174h.492a1.971,1.971,0,0,0,.451-.046,1.708,1.708,0,0,0,.326-.109.538.538,0,0,0,.22-.206,1.574,1.574,0,0,0,.134-.263,1.442,1.442,0,0,0,.068-.363c.016-.162.025-.3.029-.414s.005-.284.005-.508V268.8c0-.224,0-.406-.012-.543a2.76,2.76,0,0,0-.054-.414.837.837,0,0,0-.126-.323.89.89,0,0,0-.22-.209.862.862,0,0,0-.343-.131,2.776,2.776,0,0,0-.5-.038H218.8Zm-1.726,1.211v-9.473h2.205a5.127,5.127,0,0,1,1.435.172,2.053,2.053,0,0,1,.926.543,2.109,2.109,0,0,1,.493.912,5.131,5.131,0,0,1,.146,1.328v3.416a5.485,5.485,0,0,1-.149,1.377,2.359,2.359,0,0,1-.488.959,1.989,1.989,0,0,1-.906.581,4.518,4.518,0,0,1-1.389.185Z" transform="translate(8.308 2.864)" fill="#fff"/>
    <path id="Path_50707" data-name="Path 50707" d="M221.68,275.385v-9.473h3.966v1.218h-2.24v2.718h1.771v1.218h-1.771v3.126h2.268v1.194Z" transform="translate(9.872 2.864)" fill="#fff"/>
    <path id="Path_50708" data-name="Path 50708" d="M227.757,275.526a3.443,3.443,0,0,1-1.08-.154,2.143,2.143,0,0,1-.774-.429,2.108,2.108,0,0,1-.5-.679,3.289,3.289,0,0,1-.268-.872,6.341,6.341,0,0,1-.078-1.048v-3.3a6.654,6.654,0,0,1,.08-1.095,3.475,3.475,0,0,1,.268-.886,1.956,1.956,0,0,1,.494-.671,2.181,2.181,0,0,1,.772-.411,3.567,3.567,0,0,1,1.082-.149,3.448,3.448,0,0,1,1.211.189,1.776,1.776,0,0,1,.794.555,2.32,2.32,0,0,1,.423.853,4.439,4.439,0,0,1,.131,1.14v.811h-1.663v-.805a3.93,3.93,0,0,0-.075-.954.721.721,0,0,0-.725-.514h-.092a1.241,1.241,0,0,0-.379.052.593.593,0,0,0-.267.162.994.994,0,0,0-.165.237,1.106,1.106,0,0,0-.1.328q-.03.2-.04.374c-.005.115-.008.26-.008.435v4.011a2.472,2.472,0,0,0,.209,1.187.789.789,0,0,0,.745.355,1.122,1.122,0,0,0,.323-.043.848.848,0,0,0,.234-.109.521.521,0,0,0,.159-.189,1.358,1.358,0,0,0,.1-.229,1.428,1.428,0,0,0,.052-.293c.011-.126.017-.233.019-.32s0-.208,0-.359v-.847h1.663v.777a5.521,5.521,0,0,1-.075.954,2.962,2.962,0,0,1-.255.794,1.886,1.886,0,0,1-.465.618,2.057,2.057,0,0,1-.732.386,3.488,3.488,0,0,1-1.034.139" transform="translate(11.02 2.836)" fill="#fff"/>
    <path id="Path_50709" data-name="Path 50709" d="M229.648,275.385v-9.473h3.966v1.218h-2.24v2.718h1.771v1.218h-1.771v3.126h2.268v1.194Z" transform="translate(12.579 2.864)" fill="#fff"/>
    <path id="Path_50710" data-name="Path 50710" d="M233.144,275.385v-9.473h1.188l2.319,5.366v-5.366h1.429v9.473h-1.132l-2.342-5.639v5.639Z" transform="translate(13.767 2.864)" fill="#fff"/>
    <path id="Path_50711" data-name="Path 50711" d="M238.753,275.385v-8.2h-1.589v-1.274h4.851v1.274h-1.537v8.2Z" transform="translate(15.132 2.864)" fill="#fff"/>
    <path id="Path_50712" data-name="Path 50712" d="M244.137,275.385l-1.354-9.473h1.452l.777,6.108,1.01-6.108h1.16l1.034,6.113.777-6.113h1.423l-1.354,9.473h-1.377l-1.068-6.325-1.062,6.325Z" transform="translate(17.041 2.864)" fill="#fff"/>
    <path id="Path_50713" data-name="Path 50713" d="M251.2,274.173a1.131,1.131,0,0,0,.431.074,1.107,1.107,0,0,0,.429-.074.766.766,0,0,0,.283-.2.847.847,0,0,0,.166-.313,2,2,0,0,0,.079-.389,4.585,4.585,0,0,0,.02-.462v-4.3a3.985,3.985,0,0,0-.033-.571,1.483,1.483,0,0,0-.134-.431.651.651,0,0,0-.3-.3,1.133,1.133,0,0,0-.509-.1,1.154,1.154,0,0,0-.512.1.633.633,0,0,0-.3.3,1.52,1.52,0,0,0-.131.431,3.985,3.985,0,0,0-.033.571v4.3a4.585,4.585,0,0,0,.02.462,2.1,2.1,0,0,0,.079.389.864.864,0,0,0,.163.313.734.734,0,0,0,.283.2m.431,1.353a2.524,2.524,0,0,1-2.1-.794,3.655,3.655,0,0,1-.635-2.324v-3.5a5.291,5.291,0,0,1,.143-1.309,2.6,2.6,0,0,1,.46-.959,1.9,1.9,0,0,1,.849-.608,3.56,3.56,0,0,1,1.279-.2,2.552,2.552,0,0,1,2.094.782,3.572,3.572,0,0,1,.638,2.3v3.5a5.266,5.266,0,0,1-.146,1.3,2.705,2.705,0,0,1-.464.977,1.936,1.936,0,0,1-.848.626,3.446,3.446,0,0,1-1.274.212" transform="translate(19.118 2.836)" fill="#fff"/>
    <path id="Path_50714" data-name="Path 50714" d="M255.416,269.957h.417a1.5,1.5,0,0,0,1.089-.326,1.554,1.554,0,0,0,.323-1.113,1.677,1.677,0,0,0-.28-1.088,1.307,1.307,0,0,0-1.029-.33h-.52Zm-1.726,5.429v-9.473h2.172a5.841,5.841,0,0,1,1.285.123,2.526,2.526,0,0,1,.935.411,1.742,1.742,0,0,1,.594.782,3.275,3.275,0,0,1,.2,1.208,3.438,3.438,0,0,1-.265,1.456,1.625,1.625,0,0,1-.878.824l1.314,4.668h-1.731l-1.131-4.325h-.766v4.325Z" transform="translate(20.746 2.864)" fill="#fff"/>
    <path id="Path_50715" data-name="Path 50715" d="M258.308,275.385v-9.473h1.726v4.114l1.862-4.114h1.647l-1.811,4.24,2,5.233h-1.719l-1.634-4.456-.343.616v3.84Z" transform="translate(22.315 2.864)" fill="#fff"/>
    <path id="Path_50716" data-name="Path 50716" d="M266.446,272.06h1.269l-.635-3.891Zm-2.2,3.325,1.925-9.473h1.8l1.92,9.473h-1.6l-.383-2.2h-1.64l-.389,2.2Z" transform="translate(24.332 2.864)" fill="#fff"/>
    <path id="Path_50717" data-name="Path 50717" d="M268.928,275.385v-9.473h1.188l2.319,5.366v-5.366h1.43v9.473h-1.132l-2.342-5.639v5.639Z" transform="translate(25.923 2.864)" fill="#fff"/>
    <path id="Path_50718" data-name="Path 50718" d="M275.169,274.174h.492a1.97,1.97,0,0,0,.451-.046,1.708,1.708,0,0,0,.326-.109.538.538,0,0,0,.22-.206,1.576,1.576,0,0,0,.134-.263,1.443,1.443,0,0,0,.068-.363c.016-.162.025-.3.029-.414s.005-.284.005-.508V268.8c0-.224,0-.406-.012-.543a2.764,2.764,0,0,0-.054-.414.837.837,0,0,0-.126-.323.89.89,0,0,0-.22-.209.862.862,0,0,0-.343-.131,2.776,2.776,0,0,0-.5-.038h-.474Zm-1.726,1.211v-9.473h2.205a5.127,5.127,0,0,1,1.435.172,2.054,2.054,0,0,1,.926.543,2.109,2.109,0,0,1,.493.912,5.131,5.131,0,0,1,.146,1.328v3.416a5.488,5.488,0,0,1-.149,1.377,2.359,2.359,0,0,1-.488.959,1.982,1.982,0,0,1-.906.581,4.518,4.518,0,0,1-1.389.185Z" transform="translate(27.457 2.864)" fill="#fff"/>
    <path id="Path_50719" data-name="Path 50719" d="M217.075,286.941v-9.473h3.966v1.218H218.8v2.72h1.771v1.216H218.8v3.126h2.268v1.194Z" transform="translate(8.308 6.789)" fill="#fff"/>
    <path id="Path_50720" data-name="Path 50720" d="M223.2,287.082a3.443,3.443,0,0,1-1.08-.154,2.143,2.143,0,0,1-.774-.429,2.108,2.108,0,0,1-.5-.679,3.288,3.288,0,0,1-.268-.872,6.341,6.341,0,0,1-.078-1.048v-3.3a6.654,6.654,0,0,1,.08-1.095,3.475,3.475,0,0,1,.268-.886,1.955,1.955,0,0,1,.494-.671,2.181,2.181,0,0,1,.772-.411,3.566,3.566,0,0,1,1.082-.149,3.446,3.446,0,0,1,1.211.189,1.776,1.776,0,0,1,.794.555,2.32,2.32,0,0,1,.423.853,4.437,4.437,0,0,1,.131,1.14v.811H224.1v-.805a3.928,3.928,0,0,0-.075-.954.721.721,0,0,0-.725-.514h-.092a1.241,1.241,0,0,0-.379.052.593.593,0,0,0-.267.162,1,1,0,0,0-.165.237,1.106,1.106,0,0,0-.1.328q-.03.2-.04.374c-.005.115-.008.26-.008.435v4.011a2.472,2.472,0,0,0,.209,1.187.789.789,0,0,0,.745.355,1.122,1.122,0,0,0,.323-.043.848.848,0,0,0,.234-.108.521.521,0,0,0,.159-.189,1.358,1.358,0,0,0,.1-.229,1.428,1.428,0,0,0,.052-.293c.011-.126.017-.233.019-.32s0-.208,0-.359v-.847h1.663v.777a5.524,5.524,0,0,1-.075.954,2.963,2.963,0,0,1-.255.794,1.886,1.886,0,0,1-.465.618,2.056,2.056,0,0,1-.732.386,3.487,3.487,0,0,1-1.034.139" transform="translate(9.474 6.762)" fill="#fff"/>
    <path id="Path_50721" data-name="Path 50721" d="M227.332,285.729a1.166,1.166,0,0,0,.433.074,1.126,1.126,0,0,0,.427-.074.766.766,0,0,0,.283-.2.848.848,0,0,0,.167-.313,2,2,0,0,0,.078-.389,4.22,4.22,0,0,0,.02-.462v-4.3a3.98,3.98,0,0,0-.034-.571,1.443,1.443,0,0,0-.134-.431.651.651,0,0,0-.3-.3,1.127,1.127,0,0,0-.508-.1,1.156,1.156,0,0,0-.513.1.639.639,0,0,0-.3.3,1.52,1.52,0,0,0-.131.431,3.985,3.985,0,0,0-.034.571v4.3a4.584,4.584,0,0,0,.02.462,2.105,2.105,0,0,0,.079.389.886.886,0,0,0,.163.313.734.734,0,0,0,.283.2m.433,1.353a2.523,2.523,0,0,1-2.1-.794,3.647,3.647,0,0,1-.635-2.324v-3.5a5.294,5.294,0,0,1,.142-1.309,2.617,2.617,0,0,1,.46-.959,1.909,1.909,0,0,1,.851-.608,3.551,3.551,0,0,1,1.279-.2,2.55,2.55,0,0,1,2.093.782,3.572,3.572,0,0,1,.638,2.3v3.5a5.2,5.2,0,0,1-.146,1.3,2.726,2.726,0,0,1-.462.977,1.948,1.948,0,0,1-.849.626,3.444,3.444,0,0,1-1.273.212" transform="translate(11.011 6.762)" fill="#fff"/>
    <path id="Path_50722" data-name="Path 50722" d="M229.878,286.941v-9.473h1.188l2.32,5.366v-5.366h1.428v9.473h-1.132l-2.342-5.639v5.639Z" transform="translate(12.657 6.789)" fill="#fff"/>
    <path id="Path_50723" data-name="Path 50723" d="M236.63,285.729a1.158,1.158,0,0,0,.431.074,1.133,1.133,0,0,0,.429-.074.766.766,0,0,0,.283-.2.847.847,0,0,0,.166-.313,2,2,0,0,0,.079-.389,4.575,4.575,0,0,0,.02-.462v-4.3A3.985,3.985,0,0,0,238,279.5a1.447,1.447,0,0,0-.135-.431.642.642,0,0,0-.3-.3,1.133,1.133,0,0,0-.509-.1,1.154,1.154,0,0,0-.512.1.633.633,0,0,0-.3.3,1.521,1.521,0,0,0-.131.431,3.985,3.985,0,0,0-.033.571v4.3a4.585,4.585,0,0,0,.02.462,2.105,2.105,0,0,0,.079.389.864.864,0,0,0,.163.313.733.733,0,0,0,.283.2m.431,1.353a2.524,2.524,0,0,1-2.1-.794,3.655,3.655,0,0,1-.635-2.324v-3.5a5.29,5.29,0,0,1,.143-1.309,2.6,2.6,0,0,1,.46-.959,1.9,1.9,0,0,1,.849-.608,3.561,3.561,0,0,1,1.279-.2,2.552,2.552,0,0,1,2.094.782,3.572,3.572,0,0,1,.636,2.3v3.5a5.27,5.27,0,0,1-.145,1.3,2.7,2.7,0,0,1-.464.977,1.944,1.944,0,0,1-.848.626,3.447,3.447,0,0,1-1.274.212" transform="translate(14.17 6.762)" fill="#fff"/>
    <path id="Path_50724" data-name="Path 50724" d="M239.162,286.941l.154-9.473h1.771l1.372,6.657,1.411-6.657H245.6l.161,9.473h-1.3l-.114-6.524-1.365,6.524h-1.012l-1.383-6.547-.1,6.547Z" transform="translate(15.811 6.789)" fill="#fff"/>
    <rect id="Rectangle_11668" data-name="Rectangle 11668" width="1.703" height="9.473" transform="translate(262.789 284.257)" fill="#fff"/>
    <path id="Path_50725" data-name="Path 50725" d="M249.762,287.082a3.444,3.444,0,0,1-1.08-.154,2.144,2.144,0,0,1-.774-.429,2.109,2.109,0,0,1-.5-.679,3.288,3.288,0,0,1-.268-.872,6.341,6.341,0,0,1-.078-1.048v-3.3a6.657,6.657,0,0,1,.08-1.095,3.477,3.477,0,0,1,.268-.886,1.955,1.955,0,0,1,.494-.671,2.18,2.18,0,0,1,.772-.411,3.566,3.566,0,0,1,1.082-.149,3.446,3.446,0,0,1,1.211.189,1.776,1.776,0,0,1,.794.555,2.32,2.32,0,0,1,.423.853,4.439,4.439,0,0,1,.131,1.14v.811h-1.663v-.805a3.929,3.929,0,0,0-.075-.954.721.721,0,0,0-.725-.514h-.092a1.241,1.241,0,0,0-.379.052.593.593,0,0,0-.267.162.994.994,0,0,0-.165.237,1.1,1.1,0,0,0-.1.328q-.03.2-.04.374c-.005.115-.008.26-.008.435v4.011a2.472,2.472,0,0,0,.209,1.187.789.789,0,0,0,.745.355,1.121,1.121,0,0,0,.323-.043.847.847,0,0,0,.234-.108.521.521,0,0,0,.159-.189,1.363,1.363,0,0,0,.1-.229,1.43,1.43,0,0,0,.052-.293c.011-.126.017-.233.019-.32s0-.208,0-.359v-.847h1.663v.777a5.524,5.524,0,0,1-.075.954,2.964,2.964,0,0,1-.255.794,1.886,1.886,0,0,1-.465.618,2.056,2.056,0,0,1-.731.386,3.487,3.487,0,0,1-1.034.139" transform="translate(18.496 6.762)" fill="#fff"/>
    <path id="Path_50726" data-name="Path 50726" d="M256.073,287.094a2.2,2.2,0,0,1-1.935-.84,4.231,4.231,0,0,1-.591-2.445v-3.085a6.711,6.711,0,0,1,.129-1.408,2.911,2.911,0,0,1,.431-1.037,1.841,1.841,0,0,1,.835-.669,3.364,3.364,0,0,1,1.3-.222,2.581,2.581,0,0,1,2.016.687,3.072,3.072,0,0,1,.612,2.089v.464h-1.652v-.492c0-.21,0-.38-.015-.514a2.147,2.147,0,0,0-.068-.4.721.721,0,0,0-.157-.311.75.75,0,0,0-.28-.177,1.207,1.207,0,0,0-.434-.07,1.134,1.134,0,0,0-.346.05.976.976,0,0,0-.255.119.584.584,0,0,0-.174.2,1.357,1.357,0,0,0-.108.255,1.8,1.8,0,0,0-.058.316c-.013.13-.021.244-.025.343s-.005.226-.005.383v3.822a2.805,2.805,0,0,0,.212,1.254.825.825,0,0,0,.805.4,1.047,1.047,0,0,0,.517-.117.787.787,0,0,0,.326-.355,1.9,1.9,0,0,0,.166-.543,4.831,4.831,0,0,0,.048-.74v-.777h-1.022v-1.113h2.576v4.81H257.8l-.126-.959a1.588,1.588,0,0,1-1.6,1.085" transform="translate(20.698 6.762)" fill="#fff"/>
    <path id="Path_50727" data-name="Path 50727" d="M260.084,281.514h.417a1.493,1.493,0,0,0,1.089-.327,1.555,1.555,0,0,0,.323-1.113,1.677,1.677,0,0,0-.28-1.088,1.305,1.305,0,0,0-1.029-.33h-.52Zm-1.726,5.427v-9.473h2.172a5.842,5.842,0,0,1,1.285.123,2.526,2.526,0,0,1,.935.411,1.742,1.742,0,0,1,.594.782,3.275,3.275,0,0,1,.2,1.208,3.449,3.449,0,0,1-.265,1.458,1.627,1.627,0,0,1-.878.823l1.314,4.668h-1.731l-1.131-4.325h-.766v4.325Z" transform="translate(22.332 6.789)" fill="#fff"/>
    <path id="Path_50728" data-name="Path 50728" d="M265.213,285.729a1.158,1.158,0,0,0,.431.074,1.134,1.134,0,0,0,.429-.074.766.766,0,0,0,.283-.2.847.847,0,0,0,.166-.313,2,2,0,0,0,.079-.389,4.584,4.584,0,0,0,.02-.462v-4.3a3.985,3.985,0,0,0-.033-.571,1.446,1.446,0,0,0-.135-.431.642.642,0,0,0-.3-.3,1.134,1.134,0,0,0-.509-.1,1.154,1.154,0,0,0-.512.1.633.633,0,0,0-.3.3,1.522,1.522,0,0,0-.131.431,3.985,3.985,0,0,0-.033.571v4.3a4.584,4.584,0,0,0,.02.462,2.1,2.1,0,0,0,.079.389.864.864,0,0,0,.163.313.733.733,0,0,0,.283.2m.431,1.353a2.524,2.524,0,0,1-2.1-.794,3.655,3.655,0,0,1-.635-2.324v-3.5a5.29,5.29,0,0,1,.143-1.309,2.6,2.6,0,0,1,.46-.959,1.9,1.9,0,0,1,.849-.608,3.56,3.56,0,0,1,1.279-.2,2.552,2.552,0,0,1,2.094.782,3.572,3.572,0,0,1,.636,2.3v3.5a5.271,5.271,0,0,1-.145,1.3,2.7,2.7,0,0,1-.464.977,1.952,1.952,0,0,1-.848.626,3.447,3.447,0,0,1-1.274.212" transform="translate(23.879 6.762)" fill="#fff"/>
    <path id="Path_50729" data-name="Path 50729" d="M268.869,286.941l-1.354-9.473h1.452l.777,6.108,1.01-6.108h1.16l1.034,6.113.777-6.113h1.423l-1.354,9.473h-1.377l-1.068-6.325-1.062,6.325Z" transform="translate(25.443 6.789)" fill="#fff"/>
    <path id="Path_50730" data-name="Path 50730" d="M274.946,286.941v-8.2h-1.589v-1.274h4.851v1.274h-1.537v8.2Z" transform="translate(27.427 6.789)" fill="#fff"/>
    <path id="Path_50731" data-name="Path 50731" d="M277.379,286.941v-9.473H279.1v3.96h1.925v-3.96h1.726v9.473H281.03v-4.284H279.1v4.284Z" transform="translate(28.794 6.789)" fill="#fff"/>
    <path id="Path_50967" data-name="Path 50967" d="M263.191,305.318l-13.274,12.628a2.2,2.2,0,0,0-.758,1.9v35.391a.759.759,0,0,0,.758.756h13.712a.756.756,0,0,0,.754-.756v-49.6c0-.418-.326-1.18-1.192-.319" transform="translate(19.207 16.117)" fill="#fff"/>
    <path id="Path_50968" data-name="Path 50968" d="M234.647,317.6l-13.275,12.625a2.2,2.2,0,0,0-.757,1.9v18.942a.757.757,0,0,0,.757.753h13.712a.756.756,0,0,0,.756-.753V317.914c0-.418-.33-1.182-1.192-.316" transform="translate(9.51 20.288)" fill="#fff"/>
    <path id="Path_50969" data-name="Path 50969" d="M280.056,293.888a.375.375,0,0,0-.113-.288.4.4,0,0,0-.245-.107l-.074,0-.108.007L269.352,295.8l-.185.02a.4.4,0,0,0-.2.1.391.391,0,0,0,0,.547l.115.115,2.322,2.32-23.032,23.032L237.736,311.3a.3.3,0,0,0-.433,0l-2.886,2.887,0,0-17.052,17.049a.309.309,0,0,0,0,.433l2.89,2.888a.3.3,0,0,0,.43,0l16.839-16.835,7.719,7.719a.128.128,0,0,0,.025.036l2.887,2.884a.3.3,0,0,0,.433,0l26.139-26.139,2.438,2.436a.379.379,0,0,0,.541,0,.365.365,0,0,0,.111-.249v-.034L280.051,294Z" transform="translate(8.376 12.233)" fill="#fff"/>
    <path id="Path_50970" data-name="Path 50970" d="M248.954,319.266l-6.423,6.476a.308.308,0,0,1-.414-.016L236.3,319.8c-1.065-1.062-1.3-.2-1.3.216v30.5a.754.754,0,0,0,.752.754h13.716a.757.757,0,0,0,.754-.754V319.506c0-.418-.33-1.183-1.271-.24" transform="translate(14.399 20.835)" fill="#fff"/>
  </g>
</svg>
