<svg xmlns="http://www.w3.org/2000/svg" width="130" height="130" viewBox="0 0 130 130">
  <g id="icon2" transform="translate(-192.619 -148.74)">
    <rect id="Rectangle_11643" data-name="Rectangle 11643" width="130" height="130" transform="translate(192.619 148.74)" fill="#dda83a"/>
    <path id="Path_50643" data-name="Path 50643" d="M200.444,178.71l6-9.273.367-.551a23.4,23.4,0,0,0,1.713-2.922,6.012,6.012,0,0,0,.552-2.586,3.058,3.058,0,0,0-.46-1.821,1.533,1.533,0,0,0-1.316-.627,1.8,1.8,0,0,0-1.775.978,6.1,6.1,0,0,0-.49,2.693v1.133h-4.59v-1.225a8.565,8.565,0,0,1,1.637-5.524q1.636-2.036,5.126-2.035a5.885,5.885,0,0,1,6.55,6.518,8.19,8.19,0,0,1-.429,2.663,11.991,11.991,0,0,1-1.01,2.233q-.581.981-1.806,2.785l-4.773,7.161h7.375v3.734h-12.67Z" transform="translate(2.658 2.79)" fill="#fff"/>
    <path id="Path_50644" data-name="Path 50644" d="M217.929,166.643v-1.131l2.513-7.147h-2.387v-1.2h4.153v.851l-2.634,7.429h2.639v1.194Z" transform="translate(8.598 2.864)" fill="#fff"/>
    <path id="Path_50645" data-name="Path 50645" d="M221.817,166.643V157.17h3.966v1.218h-2.24v2.718h1.771v1.218h-1.771v3.126h2.268v1.194Z" transform="translate(9.919 2.864)" fill="#fff"/>
    <path id="Path_50646" data-name="Path 50646" d="M227.222,161.215h.417a1.5,1.5,0,0,0,1.089-.326,1.555,1.555,0,0,0,.323-1.113,1.678,1.678,0,0,0-.28-1.088,1.307,1.307,0,0,0-1.029-.33h-.52Zm-1.726,5.428V157.17h2.172a5.843,5.843,0,0,1,1.285.123,2.511,2.511,0,0,1,.934.411,1.735,1.735,0,0,1,.595.782,3.274,3.274,0,0,1,.2,1.208,3.438,3.438,0,0,1-.265,1.456,1.625,1.625,0,0,1-.878.824l1.314,4.668h-1.731l-1.132-4.325h-.765v4.325Z" transform="translate(11.169 2.864)" fill="#fff"/>
    <path id="Path_50647" data-name="Path 50647" d="M232.482,165.431a1.131,1.131,0,0,0,.431.074,1.107,1.107,0,0,0,.429-.074.765.765,0,0,0,.283-.2.847.847,0,0,0,.166-.313,2,2,0,0,0,.079-.389,4.575,4.575,0,0,0,.02-.462v-4.3a3.98,3.98,0,0,0-.034-.571,1.447,1.447,0,0,0-.135-.431.648.648,0,0,0-.3-.3,1.133,1.133,0,0,0-.509-.1,1.153,1.153,0,0,0-.512.1.639.639,0,0,0-.3.3,1.521,1.521,0,0,0-.131.431,3.98,3.98,0,0,0-.034.571v4.3a4.575,4.575,0,0,0,.02.462,2.108,2.108,0,0,0,.079.389.864.864,0,0,0,.163.313.733.733,0,0,0,.283.2m.431,1.353a2.524,2.524,0,0,1-2.1-.794,3.655,3.655,0,0,1-.635-2.324v-3.5a5.29,5.29,0,0,1,.143-1.309,2.6,2.6,0,0,1,.46-.959,1.9,1.9,0,0,1,.849-.608,3.589,3.589,0,0,1,1.279-.2,2.552,2.552,0,0,1,2.094.782,3.572,3.572,0,0,1,.638,2.3v3.5a5.267,5.267,0,0,1-.146,1.3,2.7,2.7,0,0,1-.464.977,1.944,1.944,0,0,1-.848.626,3.419,3.419,0,0,1-1.274.212" transform="translate(12.76 2.836)" fill="#fff"/>
    <path id="Path_50648" data-name="Path 50648" d="M218.163,178.2v-9.473h1.726v3.96h1.925v-3.96h1.726V178.2h-1.726v-4.284h-1.925V178.2Z" transform="translate(8.678 6.789)" fill="#fff"/>
    <path id="Path_50649" data-name="Path 50649" d="M225.816,178.313a3.629,3.629,0,0,1-1.1-.149,2.061,2.061,0,0,1-.765-.417,1.927,1.927,0,0,1-.481-.689,3.629,3.629,0,0,1-.251-.908,7.827,7.827,0,0,1-.072-1.135v-6.29h1.675v6.468c0,.221.005.409.017.565a3.415,3.415,0,0,0,.074.492,1.186,1.186,0,0,0,.163.411.853.853,0,0,0,.291.257,1.04,1.04,0,0,0,.9,0,.809.809,0,0,0,.285-.257,1.3,1.3,0,0,0,.161-.411,3.072,3.072,0,0,0,.074-.489c.009-.154.015-.343.015-.568v-6.468h1.673v6.29a8.039,8.039,0,0,1-.071,1.135,3.63,3.63,0,0,1-.252.908,1.935,1.935,0,0,1-.477.689,2.049,2.049,0,0,1-.762.417,3.61,3.61,0,0,1-1.095.149" transform="translate(10.371 6.789)" fill="#fff"/>
    <path id="Path_50650" data-name="Path 50650" d="M228.081,178.2v-9.473h1.188l2.32,5.366v-5.366h1.428V178.2h-1.132l-2.342-5.639V178.2Z" transform="translate(12.047 6.789)" fill="#fff"/>
    <path id="Path_50651" data-name="Path 50651" d="M235.189,178.351a2.2,2.2,0,0,1-1.935-.84,4.231,4.231,0,0,1-.591-2.445v-3.085a6.709,6.709,0,0,1,.129-1.408,2.911,2.911,0,0,1,.431-1.037,1.841,1.841,0,0,1,.835-.669,3.363,3.363,0,0,1,1.3-.222,2.581,2.581,0,0,1,2.016.687,3.072,3.072,0,0,1,.612,2.089v.464h-1.652v-.492c0-.21,0-.38-.015-.514a2.149,2.149,0,0,0-.068-.4.72.72,0,0,0-.157-.311.75.75,0,0,0-.28-.177,1.21,1.21,0,0,0-.434-.068,1.133,1.133,0,0,0-.346.048.977.977,0,0,0-.255.119.585.585,0,0,0-.174.2,1.354,1.354,0,0,0-.109.255,1.8,1.8,0,0,0-.058.316c-.013.13-.021.244-.025.343s-.005.226-.005.383v3.822a2.805,2.805,0,0,0,.212,1.254.825.825,0,0,0,.805.4,1.047,1.047,0,0,0,.517-.117.79.79,0,0,0,.326-.354,1.917,1.917,0,0,0,.166-.544,4.836,4.836,0,0,0,.048-.74v-.777h-1.022v-1.113h2.576v4.81h-1.12l-.126-.959a1.588,1.588,0,0,1-1.6,1.085" transform="translate(13.604 6.762)" fill="#fff"/>
    <path id="Path_50652" data-name="Path 50652" d="M237.606,178.2v-9.473h3.966v1.218h-2.24v2.718H241.1v1.218h-1.771V177H241.6V178.2Z" transform="translate(15.282 6.789)" fill="#fff"/>
    <path id="Path_50653" data-name="Path 50653" d="M243.011,172.77h.417a1.5,1.5,0,0,0,1.089-.326,1.555,1.555,0,0,0,.323-1.113,1.677,1.677,0,0,0-.28-1.088,1.305,1.305,0,0,0-1.029-.33h-.52Zm-1.726,5.428v-9.473h2.172a5.842,5.842,0,0,1,1.285.123,2.527,2.527,0,0,1,.935.411,1.742,1.742,0,0,1,.593.782,3.275,3.275,0,0,1,.2,1.208,3.438,3.438,0,0,1-.265,1.456,1.625,1.625,0,0,1-.878.824l1.314,4.668h-1.731l-1.131-4.325h-.766V178.2Z" transform="translate(16.532 6.789)" fill="#fff"/>
    <path id="Path_50992" data-name="Path 50992" d="M237.328,238.209v1.837c0,.012-.007.028-.007.04a.41.41,0,0,0,.007.046.864.864,0,0,0,.847.825h21.619a.868.868,0,0,0,.849-.864l0-.007,0-.005V238c12.127-3.975,21.212-13.8,23.21-25.781,0-.027.008-.05.011-.072a.63.63,0,0,0,.012-.122.87.87,0,0,0-.871-.871H214.346a.871.871,0,0,0-.873.871l.044.393c2.1,12.092,11.433,21.977,23.811,25.789" transform="translate(7.084 21.203)" fill="#fff"/>
    <path id="Path_50993" data-name="Path 50993" d="M249.452,189.509c-.283.4-6.917,9.953.149,17.675,3.239,3.545,2.958,6.672,2.034,8.784h4.531c.918-3.119.54-7.029-3.14-11.05-5.2-5.69.067-13.382.146-13.5a1.7,1.7,0,0,0-.735-2.536,2.407,2.407,0,0,0-2.984.627" transform="translate(18.255 13.547)" fill="#fff"/>
    <path id="Path_50994" data-name="Path 50994" d="M241.439,215.968h4.534c.916-3.119.536-7.029-3.143-11.05-5.207-5.691.06-13.378.143-13.5a1.7,1.7,0,0,0-.737-2.532,2.4,2.4,0,0,0-2.98.627c-.285.4-6.924,9.953.147,17.675,3.239,3.546,2.958,6.674,2.035,8.784" transform="translate(14.79 13.547)" fill="#fff"/>
    <path id="Path_50995" data-name="Path 50995" d="M229.059,189.51c-.287.4-6.921,9.953.146,17.675,3.241,3.546,2.961,6.674,2.038,8.784h4.532c.916-3.118.537-7.028-3.144-11.05-5.207-5.69.064-13.382.147-13.5a1.7,1.7,0,0,0-.74-2.532,2.4,2.4,0,0,0-2.98.627" transform="translate(11.326 13.546)" fill="#fff"/>
  </g>
</svg>
