<svg xmlns="http://www.w3.org/2000/svg" width="130" height="130" viewBox="0 0 130 130">
  <g id="icon5" transform="translate(-83.877 -257.482)">
    <rect id="Rectangle_11648" data-name="Rectangle 11648" width="130" height="130" transform="translate(83.877 257.482)" fill="#fcc30b"/>
    <path id="Path_50772" data-name="Path 50772" d="M98.571,269.533H91.839v-3.61h11.353v3.091l-5.233,21.7h-4.59Z" transform="translate(2.705 2.867)" fill="#fff"/>
    <path id="Path_50773" data-name="Path 50773" d="M110.031,272.06H111.3l-.635-3.891Zm-2.2,3.325,1.925-9.473h1.8l1.92,9.473h-1.6l-.383-2.2h-1.64l-.389,2.2Z" transform="translate(8.137 2.864)" fill="#fff"/>
    <path id="Path_50774" data-name="Path 50774" d="M112.565,275.385v-9.473h3.891v1.2h-2.165v2.753h1.731v1.216h-1.731v4.308Z" transform="translate(9.746 2.864)" fill="#fff"/>
    <path id="Path_50775" data-name="Path 50775" d="M115.973,275.385v-9.473h3.891v1.2H117.7v2.753h1.731v1.216H117.7v4.308Z" transform="translate(10.903 2.864)" fill="#fff"/>
    <path id="Path_50776" data-name="Path 50776" d="M121.565,274.173a1.131,1.131,0,0,0,.431.074,1.107,1.107,0,0,0,.429-.074.766.766,0,0,0,.283-.2.847.847,0,0,0,.166-.313,2,2,0,0,0,.079-.389,4.585,4.585,0,0,0,.02-.462v-4.3a3.985,3.985,0,0,0-.033-.571,1.483,1.483,0,0,0-.134-.431.651.651,0,0,0-.3-.3,1.133,1.133,0,0,0-.509-.1,1.154,1.154,0,0,0-.512.1.634.634,0,0,0-.3.3,1.521,1.521,0,0,0-.131.431,3.985,3.985,0,0,0-.033.571v4.3a4.585,4.585,0,0,0,.02.462,2.105,2.105,0,0,0,.079.389.864.864,0,0,0,.163.313.734.734,0,0,0,.283.2m.431,1.353a2.524,2.524,0,0,1-2.1-.794,3.655,3.655,0,0,1-.635-2.324v-3.5a5.289,5.289,0,0,1,.143-1.309,2.6,2.6,0,0,1,.46-.959,1.9,1.9,0,0,1,.849-.608,3.56,3.56,0,0,1,1.279-.2,2.552,2.552,0,0,1,2.094.782,3.572,3.572,0,0,1,.638,2.3v3.5a5.266,5.266,0,0,1-.146,1.3,2.7,2.7,0,0,1-.464.977,1.936,1.936,0,0,1-.848.626,3.446,3.446,0,0,1-1.274.212" transform="translate(12.022 2.836)" fill="#fff"/>
    <path id="Path_50777" data-name="Path 50777" d="M125.836,269.957h.417a1.5,1.5,0,0,0,1.089-.326,1.554,1.554,0,0,0,.323-1.113,1.677,1.677,0,0,0-.28-1.088,1.305,1.305,0,0,0-1.029-.33h-.52Zm-1.726,5.429v-9.473h2.172a5.842,5.842,0,0,1,1.285.123,2.526,2.526,0,0,1,.935.411,1.742,1.742,0,0,1,.594.782,3.275,3.275,0,0,1,.2,1.208,3.438,3.438,0,0,1-.265,1.456,1.625,1.625,0,0,1-.878.824l1.314,4.668h-1.731l-1.131-4.325h-.766v4.325Z" transform="translate(13.668 2.864)" fill="#fff"/>
    <path id="Path_50778" data-name="Path 50778" d="M130.506,274.174H131a1.971,1.971,0,0,0,.451-.046,1.708,1.708,0,0,0,.326-.109.538.538,0,0,0,.22-.206,1.574,1.574,0,0,0,.134-.263,1.442,1.442,0,0,0,.068-.363c.016-.162.025-.3.029-.414s.005-.284.005-.508V268.8c0-.224,0-.406-.012-.543a2.76,2.76,0,0,0-.054-.414.837.837,0,0,0-.126-.323.89.89,0,0,0-.22-.209.862.862,0,0,0-.343-.131,2.776,2.776,0,0,0-.5-.038h-.474Zm-1.726,1.211v-9.473h2.205a5.127,5.127,0,0,1,1.435.172,2.053,2.053,0,0,1,.926.543,2.109,2.109,0,0,1,.493.912,5.131,5.131,0,0,1,.146,1.328v3.416a5.486,5.486,0,0,1-.149,1.377,2.359,2.359,0,0,1-.488.959,1.989,1.989,0,0,1-.906.581,4.518,4.518,0,0,1-1.389.185Z" transform="translate(15.254 2.864)" fill="#fff"/>
    <path id="Path_50779" data-name="Path 50779" d="M135.173,272.06h1.267l-.635-3.891Zm-2.2,3.325,1.925-9.473h1.8l1.92,9.473h-1.6l-.384-2.2h-1.64l-.389,2.2Z" transform="translate(16.678 2.864)" fill="#fff"/>
    <path id="Path_50780" data-name="Path 50780" d="M139.432,274.169h.634a1.328,1.328,0,0,0,1.069-.36,2.5,2.5,0,0,0-.038-2.432,1.416,1.416,0,0,0-1.123-.384h-.543Zm0-4.394h.537a1.35,1.35,0,0,0,1.045-.326,1.664,1.664,0,0,0,.285-1.1,1.86,1.86,0,0,0-.094-.648.7.7,0,0,0-.318-.374,1.394,1.394,0,0,0-.493-.166,5.155,5.155,0,0,0-.723-.04h-.24Zm-1.726,5.611v-9.473h2.319a4.909,4.909,0,0,1,1.147.118,2.46,2.46,0,0,1,.868.389,1.659,1.659,0,0,1,.573.75,3.014,3.014,0,0,1,.189,1.16q-.006,1.754-1.393,1.96a1.917,1.917,0,0,1,1.254.734,2.752,2.752,0,0,1,.419,1.614,2.81,2.81,0,0,1-.674,2.048,2.644,2.644,0,0,1-1.983.7Z" transform="translate(18.286 2.864)" fill="#fff"/>
    <path id="Path_50781" data-name="Path 50781" d="M142.38,275.385v-9.473h1.726v8.279h2.268v1.194Z" transform="translate(19.874 2.864)" fill="#fff"/>
    <path id="Path_50782" data-name="Path 50782" d="M145.869,275.385v-9.473h3.966v1.218h-2.24v2.718h1.771v1.218h-1.771v3.126h2.268v1.194Z" transform="translate(21.059 2.864)" fill="#fff"/>
    <path id="Path_50783" data-name="Path 50783" d="M153.208,272.06h1.269l-.635-3.891Zm-2.2,3.325,1.925-9.473h1.8l1.92,9.473h-1.6l-.383-2.2h-1.64l-.389,2.2Z" transform="translate(22.805 2.864)" fill="#fff"/>
    <path id="Path_50784" data-name="Path 50784" d="M155.742,275.385v-9.473h1.188l2.32,5.366v-5.366h1.428v9.473h-1.132l-2.342-5.639v5.639Z" transform="translate(24.413 2.864)" fill="#fff"/>
    <path id="Path_50785" data-name="Path 50785" d="M162.036,274.174h.492a1.971,1.971,0,0,0,.451-.046,1.709,1.709,0,0,0,.326-.109.538.538,0,0,0,.22-.206,1.574,1.574,0,0,0,.134-.263,1.443,1.443,0,0,0,.068-.363c.016-.162.025-.3.029-.414s.005-.284.005-.508V268.8c0-.224,0-.406-.012-.543a2.76,2.76,0,0,0-.054-.414.837.837,0,0,0-.126-.323.89.89,0,0,0-.22-.209.862.862,0,0,0-.343-.131,2.776,2.776,0,0,0-.5-.038h-.474Zm-1.726,1.211v-9.473h2.205a5.127,5.127,0,0,1,1.435.172,2.053,2.053,0,0,1,.926.543,2.108,2.108,0,0,1,.493.912,5.13,5.13,0,0,1,.146,1.328v3.416a5.486,5.486,0,0,1-.149,1.377,2.359,2.359,0,0,1-.488.959,1.989,1.989,0,0,1-.906.581,4.518,4.518,0,0,1-1.389.185Z" transform="translate(25.965 2.864)" fill="#fff"/>
    <path id="Path_50786" data-name="Path 50786" d="M110.78,287.082a3.444,3.444,0,0,1-1.08-.154,2.143,2.143,0,0,1-.774-.429,2.108,2.108,0,0,1-.5-.679,3.288,3.288,0,0,1-.268-.872,6.341,6.341,0,0,1-.078-1.048v-3.3a6.654,6.654,0,0,1,.08-1.095,3.476,3.476,0,0,1,.268-.886,1.955,1.955,0,0,1,.494-.671,2.18,2.18,0,0,1,.772-.411,3.566,3.566,0,0,1,1.082-.149,3.446,3.446,0,0,1,1.211.189,1.776,1.776,0,0,1,.794.555,2.3,2.3,0,0,1,.422.853,4.376,4.376,0,0,1,.133,1.14v.811h-1.663v-.805a3.929,3.929,0,0,0-.075-.954.721.721,0,0,0-.725-.514h-.092a1.241,1.241,0,0,0-.379.052.593.593,0,0,0-.267.162.994.994,0,0,0-.165.237,1.1,1.1,0,0,0-.1.328q-.03.2-.04.374c-.005.115-.008.26-.008.435v4.011a2.472,2.472,0,0,0,.209,1.187.789.789,0,0,0,.745.355,1.122,1.122,0,0,0,.323-.043.848.848,0,0,0,.234-.108.521.521,0,0,0,.159-.189,1.361,1.361,0,0,0,.1-.229,1.429,1.429,0,0,0,.052-.293c.011-.126.017-.233.019-.32s0-.208,0-.359v-.847h1.663v.777a5.523,5.523,0,0,1-.075.954,2.964,2.964,0,0,1-.255.794,1.886,1.886,0,0,1-.465.618,2.056,2.056,0,0,1-.731.386,3.487,3.487,0,0,1-1.034.139" transform="translate(8.223 6.762)" fill="#fff"/>
    <path id="Path_50787" data-name="Path 50787" d="M112.723,286.941v-9.473h1.726v8.279h2.268v1.194Z" transform="translate(9.799 6.789)" fill="#fff"/>
    <path id="Path_50788" data-name="Path 50788" d="M116.211,286.941v-9.473h3.966v1.218h-2.24v2.72h1.771v1.216h-1.771v3.126h2.268v1.194Z" transform="translate(10.984 6.789)" fill="#fff"/>
    <path id="Path_50789" data-name="Path 50789" d="M121.593,283.616h1.269l-.635-3.891Zm-2.2,3.325,1.925-9.473h1.8l1.92,9.473h-1.6l-.383-2.2h-1.64l-.389,2.2Z" transform="translate(12.065 6.789)" fill="#fff"/>
    <path id="Path_50790" data-name="Path 50790" d="M124.127,286.941v-9.473h1.188l2.319,5.366v-5.366h1.429v9.473h-1.132L125.59,281.3v5.639Z" transform="translate(13.673 6.789)" fill="#fff"/>
    <path id="Path_50791" data-name="Path 50791" d="M130.652,286.941v-9.473h3.966v1.218h-2.24v2.72h1.771v1.216h-1.771v3.126h2.268v1.194Z" transform="translate(15.89 6.789)" fill="#fff"/>
    <path id="Path_50792" data-name="Path 50792" d="M134.2,286.941v-9.473h1.188l2.32,5.366v-5.366h1.428v9.473h-1.132l-2.342-5.639v5.639Z" transform="translate(17.095 6.789)" fill="#fff"/>
    <path id="Path_50793" data-name="Path 50793" d="M138.768,286.941v-9.473h3.966v1.218h-2.24v2.72h1.771v1.216h-1.771v3.126h2.268v1.194Z" transform="translate(18.647 6.789)" fill="#fff"/>
    <path id="Path_50794" data-name="Path 50794" d="M144.043,281.514h.417a1.493,1.493,0,0,0,1.089-.327,1.554,1.554,0,0,0,.323-1.113,1.677,1.677,0,0,0-.28-1.088,1.305,1.305,0,0,0-1.029-.33h-.52Zm-1.726,5.427v-9.473h2.172a5.842,5.842,0,0,1,1.285.123,2.526,2.526,0,0,1,.935.411,1.742,1.742,0,0,1,.593.782,3.275,3.275,0,0,1,.2,1.208,3.449,3.449,0,0,1-.265,1.458,1.627,1.627,0,0,1-.878.823l1.314,4.668H145.94l-1.131-4.325h-.766v4.325Z" transform="translate(19.853 6.789)" fill="#fff"/>
    <path id="Path_50795" data-name="Path 50795" d="M149.4,287.094a2.2,2.2,0,0,1-1.935-.84,4.231,4.231,0,0,1-.591-2.445v-3.085a6.71,6.71,0,0,1,.129-1.408,2.91,2.91,0,0,1,.431-1.037,1.841,1.841,0,0,1,.835-.669,3.364,3.364,0,0,1,1.3-.222,2.581,2.581,0,0,1,2.016.687,3.072,3.072,0,0,1,.612,2.089v.464h-1.652v-.492c0-.21,0-.38-.015-.514a2.153,2.153,0,0,0-.068-.4.721.721,0,0,0-.157-.311.75.75,0,0,0-.28-.177,1.207,1.207,0,0,0-.434-.07,1.134,1.134,0,0,0-.346.05.977.977,0,0,0-.255.119.584.584,0,0,0-.174.2,1.355,1.355,0,0,0-.109.255,1.8,1.8,0,0,0-.058.316c-.013.13-.021.244-.025.343s-.005.226-.005.383v3.822a2.8,2.8,0,0,0,.212,1.254.825.825,0,0,0,.805.4,1.047,1.047,0,0,0,.517-.117.787.787,0,0,0,.326-.355,1.894,1.894,0,0,0,.166-.543,4.831,4.831,0,0,0,.048-.74v-.777h-1.022v-1.113h2.576v4.81h-1.12l-.126-.959a1.588,1.588,0,0,1-1.6,1.085" transform="translate(21.4 6.762)" fill="#fff"/>
    <path id="Path_50796" data-name="Path 50796" d="M153.119,286.941v-3.605l-1.931-5.868h1.61l1.171,3.771,1.12-3.771h1.594l-1.92,5.868v3.605Z" transform="translate(22.866 6.789)" fill="#fff"/>
    <path id="Path_50954" data-name="Path 50954" d="M137.286,333.706a9.957,9.957,0,0,1-2.958-19.463v3.707a6.516,6.516,0,1,0,5.9-.009v-3.7a9.957,9.957,0,0,1-2.942,19.469m-1.42-21.387a1.424,1.424,0,0,1,2.843,0v6.571a1.425,1.425,0,0,1-2.843,0Zm1.417-7.561a19.142,19.142,0,1,0,19.139,19.14,19.139,19.139,0,0,0-19.139-19.14" transform="translate(11.641 16.06)" fill="#fff"/>
    <path id="Path_50955" data-name="Path 50955" d="M118.9,319.318a1.6,1.6,0,0,0-1.472-1.57h-8.381a1.576,1.576,0,0,0,0,3.147h8.381a1.605,1.605,0,0,0,1.472-1.577" transform="translate(8.048 20.473)" fill="#fff"/>
    <path id="Path_50956" data-name="Path 50956" d="M160.172,319.318a1.6,1.6,0,0,0-1.471-1.57H150.32a1.576,1.576,0,0,0,0,3.147H158.7a1.6,1.6,0,0,0,1.471-1.577" transform="translate(22.068 20.473)" fill="#fff"/>
    <path id="Path_50957" data-name="Path 50957" d="M132.836,346.66a1.6,1.6,0,0,0,1.57-1.471v-8.381a1.577,1.577,0,0,0-3.148,0v8.381a1.607,1.607,0,0,0,1.578,1.471" transform="translate(16.096 26.444)" fill="#fff"/>
    <path id="Path_50958" data-name="Path 50958" d="M156.559,332.9a1.6,1.6,0,0,0-.5-2.094l-7.275-4.164a1.578,1.578,0,0,0-1.565,2.733l7.276,4.162a1.6,1.6,0,0,0,2.059-.638" transform="translate(21.281 23.439)" fill="#fff"/>
    <path id="Path_50959" data-name="Path 50959" d="M120.287,343.048a1.6,1.6,0,0,0,2.093-.5l4.164-7.275a1.576,1.576,0,0,0-2.732-1.563l-4.164,7.275a1.606,1.606,0,0,0,.639,2.06" transform="translate(12.098 25.658)" fill="#fff"/>
    <path id="Path_50960" data-name="Path 50960" d="M146.463,343.017a1.6,1.6,0,0,0,.63-2.056l-4.179-7.267a1.576,1.576,0,0,0-2.728,1.57l4.177,7.265a1.6,1.6,0,0,0,2.1.488" transform="translate(19.073 25.652)" fill="#fff"/>
    <path id="Path_50961" data-name="Path 50961" d="M110.931,332.952a1.6,1.6,0,0,0,2.058.628l7.265-4.179a1.577,1.577,0,0,0-1.569-2.729l-7.265,4.179a1.605,1.605,0,0,0-.489,2.1" transform="translate(9.122 23.45)" fill="#fff"/>
    <path id="Path_50962" data-name="Path 50962" d="M132.836,305.392a1.6,1.6,0,0,0,1.57-1.47V295.54a1.577,1.577,0,0,0-3.148,0v8.383a1.607,1.607,0,0,0,1.578,1.47" transform="translate(16.096 12.425)" fill="#fff"/>
    <path id="Path_50963" data-name="Path 50963" d="M120.742,312.4a1.6,1.6,0,0,0-.5-2.094l-7.275-4.163a1.576,1.576,0,0,0-1.563,2.732l7.275,4.162a1.6,1.6,0,0,0,2.059-.638" transform="translate(9.114 16.475)" fill="#fff"/>
    <path id="Path_50964" data-name="Path 50964" d="M140.785,307.232a1.6,1.6,0,0,0,2.093-.5l4.164-7.275a1.577,1.577,0,0,0-2.732-1.565l-4.164,7.275a1.606,1.606,0,0,0,.639,2.06" transform="translate(19.061 13.491)" fill="#fff"/>
    <path id="Path_50965" data-name="Path 50965" d="M125.891,307.243a1.6,1.6,0,0,0,.628-2.058l-4.179-7.267a1.576,1.576,0,0,0-2.728,1.57l4.177,7.265a1.605,1.605,0,0,0,2.1.489" transform="translate(12.084 13.499)" fill="#fff"/>
    <path id="Path_50966" data-name="Path 50966" d="M146.705,312.38a1.6,1.6,0,0,0,2.058.628l7.265-4.179a1.576,1.576,0,0,0-1.567-2.728l-7.267,4.177a1.606,1.606,0,0,0-.489,2.1" transform="translate(21.275 16.461)" fill="#fff"/>
  </g>
</svg>
