<svg xmlns="http://www.w3.org/2000/svg" width="130" height="130" viewBox="0 0 130 130">
  <g id="icon3" transform="translate(-301.361 -148.74)">
    <rect id="Rectangle_11644" data-name="Rectangle 11644" width="130" height="130" transform="translate(301.361 148.74)" fill="#4c9f38"/>
    <path id="Path_50750" data-name="Path 50750" d="M310.61,180.523a8.693,8.693,0,0,1-1.561-5.538v-.857h4.713v.827a6.551,6.551,0,0,0,.458,2.724,1.6,1.6,0,0,0,1.561.825,1.5,1.5,0,0,0,1.515-.841,7.094,7.094,0,0,0,.383-2.738,5.864,5.864,0,0,0-.581-2.953,2.356,2.356,0,0,0-2.142-1,5.749,5.749,0,0,0-.857-.031v-3.458h.765a2.535,2.535,0,0,0,2.2-.856,4.972,4.972,0,0,0,.612-2.816,4.859,4.859,0,0,0-.443-2.357,1.671,1.671,0,0,0-1.577-.765,1.477,1.477,0,0,0-1.468.827,6.116,6.116,0,0,0-.429,2.448v1.1h-4.713v-1.346a6.892,6.892,0,0,1,1.73-5.019,6.5,6.5,0,0,1,4.881-1.775,6.783,6.783,0,0,1,4.958,1.714,6.6,6.6,0,0,1,1.744,4.927,6.779,6.779,0,0,1-.888,3.6,3.79,3.79,0,0,1-2.264,1.821q3.151,1.164,3.152,5.845a8.9,8.9,0,0,1-1.592,5.616q-1.592,2.036-5.049,2.035-3.551,0-5.111-1.959" transform="translate(2.612 2.781)" fill="#fff"/>
    <path id="Path_50751" data-name="Path 50751" d="M329.3,166.8a2.2,2.2,0,0,1-1.935-.84,4.231,4.231,0,0,1-.591-2.445v-3.085a6.711,6.711,0,0,1,.129-1.408,2.921,2.921,0,0,1,.431-1.037,1.841,1.841,0,0,1,.835-.669,3.363,3.363,0,0,1,1.3-.222,2.581,2.581,0,0,1,2.016.687,3.071,3.071,0,0,1,.612,2.089v.464h-1.652v-.492c0-.21,0-.38-.015-.514a2.154,2.154,0,0,0-.068-.4.721.721,0,0,0-.157-.311.75.75,0,0,0-.28-.177,1.209,1.209,0,0,0-.434-.068,1.134,1.134,0,0,0-.346.048.979.979,0,0,0-.255.119.585.585,0,0,0-.174.2,1.356,1.356,0,0,0-.109.255,1.807,1.807,0,0,0-.058.316c-.013.13-.021.244-.025.343s-.005.226-.005.383v3.822a2.805,2.805,0,0,0,.212,1.254.825.825,0,0,0,.805.4,1.047,1.047,0,0,0,.517-.117.79.79,0,0,0,.326-.354,1.9,1.9,0,0,0,.166-.544,4.824,4.824,0,0,0,.048-.74v-.777h-1.022V161.86h2.576v4.81h-1.12l-.126-.959a1.588,1.588,0,0,1-1.6,1.085" transform="translate(8.634 2.836)" fill="#fff"/>
    <path id="Path_50752" data-name="Path 50752" d="M333.9,165.431a1.131,1.131,0,0,0,.431.074,1.107,1.107,0,0,0,.429-.074.765.765,0,0,0,.283-.2.828.828,0,0,0,.166-.313,2,2,0,0,0,.079-.389,4.584,4.584,0,0,0,.02-.462v-4.3a3.98,3.98,0,0,0-.034-.571,1.485,1.485,0,0,0-.134-.431.657.657,0,0,0-.3-.3,1.133,1.133,0,0,0-.509-.1,1.153,1.153,0,0,0-.512.1.639.639,0,0,0-.3.3,1.523,1.523,0,0,0-.131.431,3.985,3.985,0,0,0-.033.571v4.3a4.594,4.594,0,0,0,.02.462,2.106,2.106,0,0,0,.079.389.864.864,0,0,0,.163.313.733.733,0,0,0,.283.2m.431,1.353a2.524,2.524,0,0,1-2.1-.794,3.655,3.655,0,0,1-.634-2.324v-3.5a5.3,5.3,0,0,1,.142-1.309,2.6,2.6,0,0,1,.46-.959,1.905,1.905,0,0,1,.849-.608,3.59,3.59,0,0,1,1.279-.2,2.552,2.552,0,0,1,2.094.782,3.571,3.571,0,0,1,.638,2.3v3.5a5.268,5.268,0,0,1-.146,1.3,2.7,2.7,0,0,1-.464.977,1.936,1.936,0,0,1-.848.626,3.419,3.419,0,0,1-1.274.212" transform="translate(10.274 2.836)" fill="#fff"/>
    <path id="Path_50753" data-name="Path 50753" d="M338.764,165.431a1.13,1.13,0,0,0,.431.074,1.107,1.107,0,0,0,.429-.074.766.766,0,0,0,.283-.2.848.848,0,0,0,.166-.313,2.005,2.005,0,0,0,.079-.389,4.594,4.594,0,0,0,.02-.462v-4.3a3.985,3.985,0,0,0-.034-.571,1.483,1.483,0,0,0-.134-.431.657.657,0,0,0-.3-.3,1.133,1.133,0,0,0-.509-.1,1.153,1.153,0,0,0-.512.1.639.639,0,0,0-.3.3,1.522,1.522,0,0,0-.131.431,3.985,3.985,0,0,0-.034.571v4.3a4.574,4.574,0,0,0,.02.462,2.105,2.105,0,0,0,.079.389.865.865,0,0,0,.163.313.734.734,0,0,0,.283.2m.431,1.353a2.524,2.524,0,0,1-2.1-.794,3.655,3.655,0,0,1-.635-2.324v-3.5a5.288,5.288,0,0,1,.143-1.309,2.594,2.594,0,0,1,.46-.959,1.9,1.9,0,0,1,.849-.608,3.59,3.59,0,0,1,1.279-.2,2.552,2.552,0,0,1,2.094.782,3.572,3.572,0,0,1,.638,2.3v3.5a5.268,5.268,0,0,1-.146,1.3,2.706,2.706,0,0,1-.464.977,1.936,1.936,0,0,1-.848.626,3.419,3.419,0,0,1-1.274.212" transform="translate(11.925 2.836)" fill="#fff"/>
    <path id="Path_50754" data-name="Path 50754" d="M343.167,165.432h.492a1.969,1.969,0,0,0,.451-.046,1.709,1.709,0,0,0,.326-.108.529.529,0,0,0,.22-.206,1.574,1.574,0,0,0,.134-.263,1.44,1.44,0,0,0,.068-.363c.016-.162.025-.3.029-.414s.005-.284.005-.508v-3.463c0-.224,0-.406-.012-.543a2.775,2.775,0,0,0-.054-.414.837.837,0,0,0-.126-.323.89.89,0,0,0-.22-.209.862.862,0,0,0-.343-.131,2.773,2.773,0,0,0-.5-.038h-.474Zm-1.726,1.211V157.17h2.205a5.127,5.127,0,0,1,1.435.172,2.053,2.053,0,0,1,.926.543,2.109,2.109,0,0,1,.493.912,5.138,5.138,0,0,1,.146,1.328v3.416a5.487,5.487,0,0,1-.149,1.377,2.36,2.36,0,0,1-.488.959,1.989,1.989,0,0,1-.906.581,4.519,4.519,0,0,1-1.389.185Z" transform="translate(13.615 2.864)" fill="#fff"/>
    <path id="Path_50755" data-name="Path 50755" d="M348.33,166.643V157.17h1.726v3.96h1.925v-3.96h1.726v9.473h-1.726v-4.284h-1.925v4.284Z" transform="translate(15.956 2.864)" fill="#fff"/>
    <path id="Path_50756" data-name="Path 50756" d="M353.37,166.643V157.17h3.966v1.218H355.1v2.718h1.771v1.218H355.1v3.126h2.268v1.194Z" transform="translate(17.668 2.864)" fill="#fff"/>
    <path id="Path_50757" data-name="Path 50757" d="M358.883,163.318h1.269l-.635-3.891Zm-2.2,3.325,1.925-9.473h1.8l1.92,9.473h-1.6l-.383-2.2H358.7l-.388,2.2Z" transform="translate(18.793 2.864)" fill="#fff"/>
    <path id="Path_50758" data-name="Path 50758" d="M361.548,166.643V157.17h1.726v8.279h2.268v1.194Z" transform="translate(20.446 2.864)" fill="#fff"/>
    <path id="Path_50759" data-name="Path 50759" d="M366.078,166.643v-8.2h-1.589V157.17h4.851v1.274H367.8v8.2Z" transform="translate(21.445 2.864)" fill="#fff"/>
    <path id="Path_50760" data-name="Path 50760" d="M368.642,166.643V157.17h1.726v3.96h1.925v-3.96h1.726v9.473h-1.726v-4.284h-1.925v4.284Z" transform="translate(22.856 2.864)" fill="#fff"/>
    <path id="Path_50761" data-name="Path 50761" d="M328.726,174.873h1.269l-.635-3.891Zm-2.2,3.325,1.925-9.473h1.8l1.92,9.473h-1.605l-.383-2.2h-1.64l-.389,2.2Z" transform="translate(8.549 6.789)" fill="#fff"/>
    <path id="Path_50762" data-name="Path 50762" d="M331.391,178.2v-9.473h1.188l2.319,5.366v-5.366h1.43V178.2H335.2l-2.342-5.639V178.2Z" transform="translate(10.201 6.789)" fill="#fff"/>
    <path id="Path_50763" data-name="Path 50763" d="M337.816,176.987h.492a1.966,1.966,0,0,0,.45-.046,1.709,1.709,0,0,0,.326-.109.529.529,0,0,0,.22-.206,1.591,1.591,0,0,0,.135-.263A1.518,1.518,0,0,0,339.5,176c.016-.162.025-.3.029-.414s.005-.284.005-.508v-3.463c0-.224,0-.406-.012-.543a2.76,2.76,0,0,0-.054-.414.816.816,0,0,0-.126-.323.855.855,0,0,0-.563-.34,2.768,2.768,0,0,0-.5-.038h-.474ZM336.09,178.2v-9.473H338.3a5.11,5.11,0,0,1,1.433.171,2.047,2.047,0,0,1,.926.543,2.1,2.1,0,0,1,.493.912,5.073,5.073,0,0,1,.146,1.328V175.1a5.487,5.487,0,0,1-.149,1.377,2.359,2.359,0,0,1-.488.959,1.975,1.975,0,0,1-.906.581,4.508,4.508,0,0,1-1.389.185Z" transform="translate(11.798 6.789)" fill="#fff"/>
    <path id="Path_50764" data-name="Path 50764" d="M344.078,178.2l-1.354-9.473h1.452l.777,6.108,1.01-6.108h1.16l1.034,6.113.777-6.113h1.423L349,178.2h-1.377l-1.068-6.325-1.062,6.325Z" transform="translate(14.051 6.789)" fill="#fff"/>
    <path id="Path_50765" data-name="Path 50765" d="M349.192,178.2v-9.473h3.966v1.218h-2.24v2.718h1.771v1.218h-1.771V177h2.268V178.2Z" transform="translate(16.248 6.789)" fill="#fff"/>
    <path id="Path_50766" data-name="Path 50766" d="M352.871,178.2v-9.473H354.6V177h2.268V178.2Z" transform="translate(17.498 6.789)" fill="#fff"/>
    <path id="Path_50767" data-name="Path 50767" d="M356.491,178.2v-9.473h1.726V177h2.268V178.2Z" transform="translate(18.728 6.789)" fill="#fff"/>
    <rect id="Rectangle_11672" data-name="Rectangle 11672" width="2.823" height="1.108" transform="translate(380.017 180.704)" fill="#fff"/>
    <path id="Path_50768" data-name="Path 50768" d="M364.876,176.982h.634a1.328,1.328,0,0,0,1.069-.36,2.5,2.5,0,0,0-.038-2.432,1.421,1.421,0,0,0-1.123-.384h-.543Zm0-4.394h.537a1.35,1.35,0,0,0,1.045-.326,1.664,1.664,0,0,0,.285-1.1,1.861,1.861,0,0,0-.094-.648.7.7,0,0,0-.318-.374,1.393,1.393,0,0,0-.493-.166,5.16,5.16,0,0,0-.723-.04h-.24ZM363.15,178.2v-9.473h2.319a4.91,4.91,0,0,1,1.147.118,2.46,2.46,0,0,1,.868.388,1.659,1.659,0,0,1,.573.75,3.014,3.014,0,0,1,.189,1.16q-.006,1.754-1.393,1.96a1.917,1.917,0,0,1,1.254.734,2.752,2.752,0,0,1,.419,1.614,2.81,2.81,0,0,1-.674,2.048,2.644,2.644,0,0,1-1.983.7Z" transform="translate(20.99 6.789)" fill="#fff"/>
    <path id="Path_50769" data-name="Path 50769" d="M367.955,178.2v-9.473h3.966v1.218h-2.24v2.718h1.771v1.218h-1.771V177h2.268V178.2Z" transform="translate(22.623 6.789)" fill="#fff"/>
    <rect id="Rectangle_11673" data-name="Rectangle 11673" width="1.703" height="9.473" transform="translate(395.56 175.515)" fill="#fff"/>
    <path id="Path_50770" data-name="Path 50770" d="M373.988,178.2v-9.473h1.188l2.319,5.366v-5.366h1.429V178.2h-1.132l-2.342-5.639V178.2Z" transform="translate(24.672 6.789)" fill="#fff"/>
    <path id="Path_50771" data-name="Path 50771" d="M381.1,178.351a2.2,2.2,0,0,1-1.935-.84,4.231,4.231,0,0,1-.591-2.445v-3.085a6.711,6.711,0,0,1,.129-1.408,2.911,2.911,0,0,1,.431-1.037,1.841,1.841,0,0,1,.835-.669,3.363,3.363,0,0,1,1.3-.222,2.58,2.58,0,0,1,2.016.687,3.071,3.071,0,0,1,.612,2.089v.464h-1.652v-.492c0-.21,0-.38-.015-.514a2.149,2.149,0,0,0-.068-.4.72.72,0,0,0-.157-.311.75.75,0,0,0-.28-.177,1.209,1.209,0,0,0-.434-.068,1.134,1.134,0,0,0-.346.048.978.978,0,0,0-.255.119.584.584,0,0,0-.174.2,1.356,1.356,0,0,0-.109.255,1.807,1.807,0,0,0-.058.316c-.013.13-.021.244-.025.343s-.005.226-.005.383v3.822a2.8,2.8,0,0,0,.212,1.254.825.825,0,0,0,.805.4,1.047,1.047,0,0,0,.517-.117.79.79,0,0,0,.326-.354,1.916,1.916,0,0,0,.166-.544,4.835,4.835,0,0,0,.048-.74v-.777h-1.022v-1.113h2.576v4.81h-1.12l-.126-.959a1.588,1.588,0,0,1-1.6,1.085" transform="translate(26.229 6.762)" fill="#fff"/>
    <path id="Path_50996" data-name="Path 50996" d="M388.219,211.128c0-3.675-2.358-6.654-5.93-6.654-1.784,0-3.939,1.956-5.11,3.159-1.17-1.2-3.18-3.162-4.966-3.162-3.572,0-6.074,2.98-6.074,6.656a6.73,6.73,0,0,0,1.894,4.705L377.188,225l9.142-9.161-.007-.007a6.735,6.735,0,0,0,1.9-4.708" transform="translate(22.006 18.932)" fill="#fff"/>
    <path id="Path_50997" data-name="Path 50997" d="M365.849,246.5l-.094,0a1.5,1.5,0,0,1-1.388-1.246l-4.65-27.082-7.044,13.059a1.5,1.5,0,0,1-2.811-.5l-2.99-20.9L341.4,222.121a1.5,1.5,0,0,1-1.373.892H318.763a1.5,1.5,0,0,1,0-3.006H339.05l7.2-16.164a1.5,1.5,0,0,1,2.862.4l3.083,21.552,6.946-12.88a1.5,1.5,0,0,1,2.805.46l4.306,25.082,15.695-52.133a1.5,1.5,0,0,1,2.793-.22L393,203.222a1.5,1.5,0,0,1-2.708,1.306l-6.579-13.64-16.421,54.546a1.5,1.5,0,0,1-1.439,1.07" transform="translate(5.401 12.403)" fill="#fff"/>
  </g>
</svg>
