<svg xmlns="http://www.w3.org/2000/svg" width="130" height="130" viewBox="0 0 130 130">
  <g id="icon4" transform="translate(-410.104 -148.74)">
    <rect id="Rectangle_11645" data-name="Rectangle 11645" width="130" height="130" transform="translate(410.104 148.74)" fill="#c5192d"/>
    <path id="Path_50654" data-name="Path 50654" d="M424.984,172.512V161.984l-3.765,10.527Zm0,3.581h-7.468v-3.734l6.457-15.179h5.295v15.332h2.478v3.581h-2.478v5.876h-4.284Z" transform="translate(2.518 2.867)" fill="#fff"/>
    <path id="Path_50655" data-name="Path 50655" d="M437.819,165.43a1.138,1.138,0,0,0,.433.074,1.1,1.1,0,0,0,.427-.074.779.779,0,0,0,.283-.194.863.863,0,0,0,.165-.315,2,2,0,0,0,.08-.389,4.161,4.161,0,0,0,.021-.462v-4.3a3.96,3.96,0,0,0-.035-.571,1.447,1.447,0,0,0-.135-.431.645.645,0,0,0-.3-.3,1.121,1.121,0,0,0-.506-.1,1.151,1.151,0,0,0-.513.1.645.645,0,0,0-.3.3,1.52,1.52,0,0,0-.131.431,3.985,3.985,0,0,0-.033.571v4.3a4.18,4.18,0,0,0,.02.462,1.909,1.909,0,0,0,.08.389.882.882,0,0,0,.162.315.735.735,0,0,0,.283.194m2.449,3.136a3.507,3.507,0,0,1-.946-.719,6.814,6.814,0,0,1-.878-1.069c-.043,0-.106.005-.193.005a2.532,2.532,0,0,1-2.1-.793,3.659,3.659,0,0,1-.634-2.326v-3.5a5.3,5.3,0,0,1,.142-1.309,2.585,2.585,0,0,1,.459-.959,1.934,1.934,0,0,1,.848-.608,3.6,3.6,0,0,1,1.282-.2,2.545,2.545,0,0,1,2.093.784,3.56,3.56,0,0,1,.636,2.3v3.5q0,2.207-1.313,2.84a4.407,4.407,0,0,0,.919.891Z" transform="translate(8.634 2.836)" fill="#fff"/>
    <path id="Path_50656" data-name="Path 50656" d="M443.109,166.757a3.629,3.629,0,0,1-1.1-.149,2.062,2.062,0,0,1-.765-.417,1.927,1.927,0,0,1-.481-.689,3.63,3.63,0,0,1-.251-.908,7.831,7.831,0,0,1-.072-1.135v-6.29h1.675v6.468c0,.221.005.409.016.565a3.42,3.42,0,0,0,.075.492,1.16,1.16,0,0,0,.163.411.839.839,0,0,0,.291.257,1.04,1.04,0,0,0,.9,0,.8.8,0,0,0,.285-.257A1.305,1.305,0,0,0,444,164.7a3.087,3.087,0,0,0,.075-.489c.009-.154.013-.343.013-.568V157.17h1.675v6.29a8.043,8.043,0,0,1-.071,1.135,3.689,3.689,0,0,1-.252.908,1.952,1.952,0,0,1-.477.689,2.049,2.049,0,0,1-.762.417,3.61,3.61,0,0,1-1.095.149" transform="translate(10.306 2.864)" fill="#fff"/>
    <path id="Path_50657" data-name="Path 50657" d="M447.207,163.318h1.269l-.635-3.891Zm-2.2,3.325,1.925-9.473h1.8l1.921,9.473h-1.606l-.383-2.2h-1.64l-.387,2.2Z" transform="translate(11.857 2.864)" fill="#fff"/>
    <path id="Path_50658" data-name="Path 50658" d="M449.872,166.643V157.17H451.6v8.279h2.268v1.194Z" transform="translate(13.51 2.864)" fill="#fff"/>
    <rect id="Rectangle_11663" data-name="Rectangle 11663" width="1.703" height="9.473" transform="translate(468.281 160.034)" fill="#fff"/>
    <path id="Path_50659" data-name="Path 50659" d="M456.938,166.643v-8.2h-1.589V157.17H460.2v1.274h-1.537v8.2Z" transform="translate(15.37 2.864)" fill="#fff"/>
    <path id="Path_50660" data-name="Path 50660" d="M460.973,166.643v-3.605l-1.931-5.868h1.61l1.171,3.771,1.12-3.771h1.594l-1.92,5.868v3.605Z" transform="translate(16.625 2.864)" fill="#fff"/>
    <path id="Path_50661" data-name="Path 50661" d="M435.635,178.2v-9.473H439.6v1.218h-2.24v2.718h1.771v1.218h-1.771V177h2.268V178.2Z" transform="translate(8.673 6.789)" fill="#fff"/>
    <path id="Path_50662" data-name="Path 50662" d="M441.041,176.987h.49a1.955,1.955,0,0,0,.452-.046,1.662,1.662,0,0,0,.324-.109.527.527,0,0,0,.222-.206,1.683,1.683,0,0,0,.134-.263,1.573,1.573,0,0,0,.068-.363c.013-.162.024-.3.027-.414s.008-.284.008-.508v-3.463c0-.224,0-.406-.012-.543a2.945,2.945,0,0,0-.056-.414.818.818,0,0,0-.125-.323.855.855,0,0,0-.563-.34,2.756,2.756,0,0,0-.5-.038h-.474Zm-1.726,1.211v-9.473h2.205a5.113,5.113,0,0,1,1.432.171,2.032,2.032,0,0,1,.926.543,2.083,2.083,0,0,1,.494.912,5.073,5.073,0,0,1,.146,1.328V175.1a5.492,5.492,0,0,1-.147,1.377,2.394,2.394,0,0,1-.489.959,1.979,1.979,0,0,1-.907.581,4.489,4.489,0,0,1-1.387.185Z" transform="translate(9.923 6.789)" fill="#fff"/>
    <path id="Path_50663" data-name="Path 50663" d="M446.716,178.313a3.629,3.629,0,0,1-1.1-.149,2.061,2.061,0,0,1-.765-.417,1.927,1.927,0,0,1-.481-.689,3.625,3.625,0,0,1-.25-.908,7.822,7.822,0,0,1-.072-1.135v-6.29h1.675v6.468c0,.221.005.409.016.565a3.43,3.43,0,0,0,.075.492,1.16,1.16,0,0,0,.163.411.852.852,0,0,0,.291.257,1.04,1.04,0,0,0,.9,0,.81.81,0,0,0,.285-.257,1.3,1.3,0,0,0,.159-.411,3.081,3.081,0,0,0,.075-.489c.009-.154.013-.343.013-.568v-6.468h1.675v6.29a8.044,8.044,0,0,1-.071,1.135,3.689,3.689,0,0,1-.252.908,1.952,1.952,0,0,1-.477.689,2.049,2.049,0,0,1-.762.417,3.611,3.611,0,0,1-1.095.149" transform="translate(11.531 6.789)" fill="#fff"/>
    <path id="Path_50664" data-name="Path 50664" d="M451.562,178.34a3.444,3.444,0,0,1-1.08-.154,2.144,2.144,0,0,1-.774-.429,2.1,2.1,0,0,1-.5-.679,3.288,3.288,0,0,1-.268-.872,6.341,6.341,0,0,1-.078-1.048v-3.3a6.655,6.655,0,0,1,.08-1.095,3.424,3.424,0,0,1,.268-.886,1.955,1.955,0,0,1,.494-.671,2.181,2.181,0,0,1,.772-.411,3.566,3.566,0,0,1,1.082-.149,3.453,3.453,0,0,1,1.211.189,1.776,1.776,0,0,1,.794.555,2.3,2.3,0,0,1,.422.853,4.375,4.375,0,0,1,.133,1.14v.811h-1.663v-.805a3.929,3.929,0,0,0-.075-.954.721.721,0,0,0-.725-.514h-.092a1.241,1.241,0,0,0-.379.052.574.574,0,0,0-.265.162,1.008,1.008,0,0,0-.167.237,1.149,1.149,0,0,0-.094.328c-.02.135-.034.26-.039.374s-.009.26-.009.435v4.011a2.473,2.473,0,0,0,.209,1.187.789.789,0,0,0,.745.355,1.122,1.122,0,0,0,.323-.043.847.847,0,0,0,.234-.109.537.537,0,0,0,.161-.189,1.458,1.458,0,0,0,.1-.229,1.426,1.426,0,0,0,.052-.293c.011-.126.017-.233.019-.32s0-.208,0-.359v-.847h1.663v.777a5.524,5.524,0,0,1-.075.954,2.962,2.962,0,0,1-.255.794,1.872,1.872,0,0,1-.465.618,2.057,2.057,0,0,1-.732.386,3.488,3.488,0,0,1-1.034.139" transform="translate(13.168 6.762)" fill="#fff"/>
    <path id="Path_50665" data-name="Path 50665" d="M455.47,174.873h1.269l-.635-3.891Zm-2.2,3.325,1.925-9.473h1.8l1.921,9.473h-1.606l-.383-2.2h-1.64l-.387,2.2Z" transform="translate(14.664 6.789)" fill="#fff"/>
    <path id="Path_50666" data-name="Path 50666" d="M458.981,178.2V170h-1.589v-1.274h4.851V170h-1.537v8.2Z" transform="translate(16.064 6.789)" fill="#fff"/>
    <rect id="Rectangle_11664" data-name="Rectangle 11664" width="1.703" height="9.473" transform="translate(479.054 175.515)" fill="#fff"/>
    <path id="Path_50667" data-name="Path 50667" d="M466.069,176.987a1.138,1.138,0,0,0,.433.074,1.1,1.1,0,0,0,.427-.074.764.764,0,0,0,.283-.2.828.828,0,0,0,.167-.313,2.218,2.218,0,0,0,.078-.389,4.229,4.229,0,0,0,.02-.462v-4.3a3.986,3.986,0,0,0-.033-.571,1.445,1.445,0,0,0-.135-.431.642.642,0,0,0-.3-.3,1.127,1.127,0,0,0-.508-.1,1.152,1.152,0,0,0-.513.1.639.639,0,0,0-.3.3,1.52,1.52,0,0,0-.131.431,3.985,3.985,0,0,0-.034.571v4.3a4.594,4.594,0,0,0,.02.462,2.009,2.009,0,0,0,.08.389.863.863,0,0,0,.162.313.723.723,0,0,0,.283.2m.433,1.353a2.527,2.527,0,0,1-2.1-.794,3.655,3.655,0,0,1-.634-2.324v-3.5a5.293,5.293,0,0,1,.142-1.309,2.6,2.6,0,0,1,.459-.959,1.913,1.913,0,0,1,.849-.608,3.592,3.592,0,0,1,1.281-.2,2.551,2.551,0,0,1,2.093.782,3.572,3.572,0,0,1,.638,2.3v3.5a5.268,5.268,0,0,1-.146,1.3,2.726,2.726,0,0,1-.462.977,1.948,1.948,0,0,1-.849.626,3.416,3.416,0,0,1-1.273.212" transform="translate(18.231 6.762)" fill="#fff"/>
    <path id="Path_50668" data-name="Path 50668" d="M468.746,178.2v-9.473h1.188l2.319,5.366v-5.366h1.43V178.2h-1.132l-2.343-5.639V178.2Z" transform="translate(19.921 6.789)" fill="#fff"/>
    <path id="Path_50998" data-name="Path 50998" d="M459.046,204.215,435.624,190.69v43.751l23.422,7.068Z" transform="translate(8.669 14.251)" fill="#fff"/>
    <path id="Path_50999" data-name="Path 50999" d="M455.029,204.3v37.22l23.575-7.088V190.691Z" transform="translate(15.262 14.251)" fill="#fff"/>
    <path id="Path_51000" data-name="Path 51000" d="M482.9,232.639h-.687l2.772,9.686,2.768-9.686h0V193.713h-5.542v38.927Z" transform="translate(24.496 15.278)" fill="#fff"/>
    <path id="Path_51001" data-name="Path 51001" d="M491.495,192.6l-2.511-1.984v45.042l-26.025,8.411h-2.646L434.4,236.826V190.612l-2.513,1.984v45.992l28.3,7.835h2.882l26.114-8.29,2.306-.679Z" transform="translate(7.402 14.224)" fill="#fff"/>
    <path id="Path_51002" data-name="Path 51002" d="M487.755,190.567a2.771,2.771,0,1,0-5.541,0v2.986h5.541Z" transform="translate(24.497 13.267)" fill="#fff"/>
  </g>
</svg>
