<svg xmlns="http://www.w3.org/2000/svg" width="130" height="130" viewBox="0 0 130 130">
  <g id="icon9" transform="translate(-518.846 -366.224)">
    <rect id="Rectangle_11658" data-name="Rectangle 11658" width="130" height="130" transform="translate(518.846 366.224)" fill="#19486a"/>
    <path id="Path_50930" data-name="Path 50930" d="M528.209,379.561a20.588,20.588,0,0,1-1.959.765q-1.286.43-1.621.581v-3.519a20.433,20.433,0,0,0,2.524-1.223,8.575,8.575,0,0,0,2.1-1.5h3.7v24.789h-4.744Z" transform="translate(1.965 2.867)" fill="#fff"/>
    <path id="Path_50931" data-name="Path 50931" d="M539.676,378.275h-6.733v-3.611H544.3v3.091l-5.233,21.7h-4.59Z" transform="translate(4.789 2.868)" fill="#fff"/>
    <path id="Path_50932" data-name="Path 50932" d="M551.58,378.682h.555a1.306,1.306,0,0,0,.987-.288,1.63,1.63,0,0,0,.259-1.061,4.873,4.873,0,0,0-.035-.679,1.062,1.062,0,0,0-.161-.437.645.645,0,0,0-.374-.272,2.427,2.427,0,0,0-.67-.074h-.561Zm-1.724,5.445v-9.473h2.725q2.42,0,2.422,2.691a2.528,2.528,0,0,1-.663,1.935,2.65,2.65,0,0,1-1.869.614h-.891v4.233Z" transform="translate(10.534 2.864)" fill="#fff"/>
    <path id="Path_50933" data-name="Path 50933" d="M555.68,380.8h1.269l-.635-3.891Zm-2.2,3.325,1.925-9.473h1.8l1.921,9.473h-1.606l-.383-2.2H555.5l-.388,2.2Z" transform="translate(11.766 2.864)" fill="#fff"/>
    <path id="Path_50934" data-name="Path 50934" d="M559.922,378.7h.417a1.487,1.487,0,0,0,1.088-.327,1.548,1.548,0,0,0,.323-1.113,1.678,1.678,0,0,0-.279-1.088,1.307,1.307,0,0,0-1.029-.33h-.52Zm-1.725,5.427v-9.473h2.17a5.846,5.846,0,0,1,1.286.123,2.52,2.52,0,0,1,.934.411,1.735,1.735,0,0,1,.595.782,3.276,3.276,0,0,1,.2,1.208,3.428,3.428,0,0,1-.267,1.458,1.625,1.625,0,0,1-.876.823l1.314,4.668H561.82l-1.132-4.325h-.765v4.325Z" transform="translate(13.368 2.864)" fill="#fff"/>
    <path id="Path_50935" data-name="Path 50935" d="M563.943,384.127v-8.2h-1.589v-1.274h4.851v1.274h-1.537v8.2Z" transform="translate(14.78 2.864)" fill="#fff"/>
    <path id="Path_50936" data-name="Path 50936" d="M566.346,384.127v-9.473h1.188l2.319,5.366v-5.366h1.43v9.473h-1.132l-2.342-5.639v5.639Z" transform="translate(16.136 2.864)" fill="#fff"/>
    <path id="Path_50937" data-name="Path 50937" d="M570.9,384.127v-9.473h3.965v1.218h-2.24v2.72h1.771v1.216h-1.771v3.126h2.268v1.194Z" transform="translate(17.682 2.864)" fill="#fff"/>
    <path id="Path_50938" data-name="Path 50938" d="M576.153,378.7h.417a1.488,1.488,0,0,0,1.088-.327,1.548,1.548,0,0,0,.323-1.113,1.678,1.678,0,0,0-.279-1.088,1.307,1.307,0,0,0-1.029-.33h-.52Zm-1.726,5.427v-9.473h2.17a5.847,5.847,0,0,1,1.286.123,2.51,2.51,0,0,1,.934.411,1.735,1.735,0,0,1,.595.782,3.276,3.276,0,0,1,.2,1.208,3.449,3.449,0,0,1-.265,1.458,1.632,1.632,0,0,1-.878.823l1.314,4.668h-1.731l-1.132-4.325h-.765v4.325Z" transform="translate(18.881 2.864)" fill="#fff"/>
    <path id="Path_50939" data-name="Path 50939" d="M581.528,384.269q-2.5,0-2.628-2.891l1.5-.314q.056,1.879,1.074,1.88a.7.7,0,0,0,.585-.241,1,1,0,0,0,.192-.646,1.794,1.794,0,0,0-.143-.722,2,2,0,0,0-.331-.537q-.189-.207-.537-.517L580,379.2a3.475,3.475,0,0,1-.817-1,2.781,2.781,0,0,1-.268-1.294,2.24,2.24,0,0,1,.648-1.713,2.53,2.53,0,0,1,1.779-.623,2.779,2.779,0,0,1,.92.129,1.931,1.931,0,0,1,.66.36,1.853,1.853,0,0,1,.433.563,2.96,2.96,0,0,1,.26.7,5.246,5.246,0,0,1,.12.809l-1.474.291c-.008-.19-.02-.356-.038-.5a2.8,2.8,0,0,0-.088-.429,1.11,1.11,0,0,0-.162-.351.707.707,0,0,0-.269-.214.767.767,0,0,0-.391-.063.808.808,0,0,0-.586.255.906.906,0,0,0-.2.62,1.411,1.411,0,0,0,.181.75,2.851,2.851,0,0,0,.563.632L582.5,379.2a7,7,0,0,1,.537.543,4.682,4.682,0,0,1,.437.6,2.755,2.755,0,0,1,.318.744,3.305,3.305,0,0,1,.109.856,2.254,2.254,0,0,1-.655,1.68,2.332,2.332,0,0,1-1.716.646" transform="translate(20.401 2.836)" fill="#fff"/>
    <path id="Path_50940" data-name="Path 50940" d="M583.207,384.127v-9.473h1.725v3.96h1.925v-3.96h1.726v9.473h-1.726v-4.284h-1.925v4.284Z" transform="translate(21.864 2.864)" fill="#fff"/>
    <rect id="Rectangle_11690" data-name="Rectangle 11690" width="1.703" height="9.473" transform="translate(611.675 377.518)" fill="#fff"/>
    <path id="Path_50941" data-name="Path 50941" d="M592.029,378.682h.555a1.306,1.306,0,0,0,.987-.288,1.631,1.631,0,0,0,.257-1.061,5.135,5.135,0,0,0-.034-.679,1.081,1.081,0,0,0-.161-.437.645.645,0,0,0-.374-.272,2.432,2.432,0,0,0-.671-.074h-.56Zm-1.726,5.445v-9.473h2.725q2.422,0,2.422,2.691a2.527,2.527,0,0,1-.662,1.935,2.652,2.652,0,0,1-1.869.614h-.891v4.233Z" transform="translate(24.275 2.864)" fill="#fff"/>
    <path id="Path_50942" data-name="Path 50942" d="M597.089,384.269q-2.5,0-2.628-2.891l1.5-.314q.056,1.879,1.074,1.88a.7.7,0,0,0,.585-.241,1,1,0,0,0,.192-.646,1.8,1.8,0,0,0-.143-.722,2,2,0,0,0-.331-.537q-.189-.207-.537-.517l-1.246-1.08a3.478,3.478,0,0,1-.817-1,2.8,2.8,0,0,1-.268-1.294,2.24,2.24,0,0,1,.648-1.713,2.53,2.53,0,0,1,1.779-.623,2.778,2.778,0,0,1,.92.129,1.931,1.931,0,0,1,.66.36,1.879,1.879,0,0,1,.434.563,3.012,3.012,0,0,1,.259.7,5.246,5.246,0,0,1,.121.809l-1.474.291c-.008-.19-.02-.356-.037-.5a2.8,2.8,0,0,0-.088-.429,1.113,1.113,0,0,0-.162-.351.707.707,0,0,0-.269-.214.767.767,0,0,0-.391-.063.808.808,0,0,0-.585.255.906.906,0,0,0-.2.62,1.411,1.411,0,0,0,.181.75,2.852,2.852,0,0,0,.563.632l1.234,1.073a7,7,0,0,1,.537.543,4.688,4.688,0,0,1,.437.6,2.755,2.755,0,0,1,.318.744,3.3,3.3,0,0,1,.109.856,2.253,2.253,0,0,1-.655,1.68,2.331,2.331,0,0,1-1.716.646" transform="translate(25.687 2.836)" fill="#fff"/>
    <path id="Path_50943" data-name="Path 50943" d="M549.856,395.683V386.21h3.891v1.2h-2.165v2.753h1.731v1.216h-1.731v4.308Z" transform="translate(10.534 6.789)" fill="#fff"/>
    <path id="Path_50944" data-name="Path 50944" d="M555.36,394.471a1.13,1.13,0,0,0,.431.074,1.106,1.106,0,0,0,.429-.074.764.764,0,0,0,.283-.2.829.829,0,0,0,.166-.313,2.112,2.112,0,0,0,.079-.389,4.576,4.576,0,0,0,.02-.462v-4.3a3.976,3.976,0,0,0-.034-.571,1.445,1.445,0,0,0-.135-.431.648.648,0,0,0-.3-.3,1.132,1.132,0,0,0-.509-.1,1.149,1.149,0,0,0-.512.1.63.63,0,0,0-.3.3,1.479,1.479,0,0,0-.133.431,3.975,3.975,0,0,0-.034.571v4.3a4.574,4.574,0,0,0,.02.462,2.006,2.006,0,0,0,.08.389.844.844,0,0,0,.162.313.734.734,0,0,0,.283.2m.431,1.353a2.524,2.524,0,0,1-2.1-.794,3.656,3.656,0,0,1-.634-2.324v-3.5a5.3,5.3,0,0,1,.142-1.309,2.6,2.6,0,0,1,.46-.959,1.905,1.905,0,0,1,.849-.608,3.588,3.588,0,0,1,1.279-.2,2.552,2.552,0,0,1,2.094.782,3.574,3.574,0,0,1,.638,2.3v3.5a5.265,5.265,0,0,1-.146,1.3,2.725,2.725,0,0,1-.462.977,1.948,1.948,0,0,1-.849.626,3.419,3.419,0,0,1-1.274.212" transform="translate(11.623 6.762)" fill="#fff"/>
    <path id="Path_50945" data-name="Path 50945" d="M559.544,390.255h.417a1.493,1.493,0,0,0,1.088-.326,1.548,1.548,0,0,0,.323-1.113,1.679,1.679,0,0,0-.279-1.088,1.307,1.307,0,0,0-1.029-.33h-.52Zm-1.726,5.428V386.21h2.17a5.846,5.846,0,0,1,1.286.123,2.52,2.52,0,0,1,.934.411,1.735,1.735,0,0,1,.595.782,3.276,3.276,0,0,1,.2,1.208,3.44,3.44,0,0,1-.265,1.456,1.63,1.63,0,0,1-.878.824l1.314,4.668h-1.731l-1.132-4.325h-.765v4.325Z" transform="translate(13.239 6.79)" fill="#fff"/>
    <path id="Path_50946" data-name="Path 50946" d="M565.365,395.683v-8.2h-1.589V386.21h4.851v1.274H567.09v8.2Z" transform="translate(15.263 6.789)" fill="#fff"/>
    <path id="Path_50947" data-name="Path 50947" d="M567.711,395.683V386.21h1.726v3.96h1.925v-3.96h1.725v9.473h-1.725V391.4h-1.925v4.284Z" transform="translate(16.6 6.789)" fill="#fff"/>
    <path id="Path_50948" data-name="Path 50948" d="M572.532,395.683V386.21H576.5v1.218h-2.24v2.718h1.771v1.218h-1.771v3.126h2.268v1.194Z" transform="translate(18.238 6.789)" fill="#fff"/>
    <path id="Path_50949" data-name="Path 50949" d="M580.273,395.835a2.2,2.2,0,0,1-1.933-.84,4.217,4.217,0,0,1-.592-2.445v-3.085a6.712,6.712,0,0,1,.129-1.408,2.947,2.947,0,0,1,.431-1.037,1.841,1.841,0,0,1,.835-.669,3.364,3.364,0,0,1,1.3-.222,2.579,2.579,0,0,1,2.016.687,3.065,3.065,0,0,1,.612,2.089v.464h-1.652v-.492c0-.21,0-.38-.013-.514a2.152,2.152,0,0,0-.07-.4.705.705,0,0,0-.157-.311.75.75,0,0,0-.28-.177,1.208,1.208,0,0,0-.434-.068,1.136,1.136,0,0,0-.346.048,1,1,0,0,0-.255.119.585.585,0,0,0-.174.2,1.456,1.456,0,0,0-.109.255,1.815,1.815,0,0,0-.056.316c-.013.13-.023.244-.027.343s-.005.226-.005.383v3.822a2.806,2.806,0,0,0,.212,1.254.826.826,0,0,0,.805.4,1.043,1.043,0,0,0,.517-.118.79.79,0,0,0,.326-.354,1.9,1.9,0,0,0,.166-.544,4.827,4.827,0,0,0,.048-.74v-.777h-1.022V390.9h2.576v4.81H582l-.126-.959a1.588,1.588,0,0,1-1.6,1.085" transform="translate(20.01 6.762)" fill="#fff"/>
    <path id="Path_50950" data-name="Path 50950" d="M584.656,394.471a1.13,1.13,0,0,0,.431.074,1.107,1.107,0,0,0,.429-.074.766.766,0,0,0,.283-.2.827.827,0,0,0,.166-.313,2.1,2.1,0,0,0,.079-.389,4.574,4.574,0,0,0,.02-.462v-4.3a4,4,0,0,0-.033-.571,1.447,1.447,0,0,0-.135-.431.648.648,0,0,0-.3-.3,1.133,1.133,0,0,0-.509-.1,1.148,1.148,0,0,0-.512.1.63.63,0,0,0-.3.3,1.486,1.486,0,0,0-.133.431,3.977,3.977,0,0,0-.033.571v4.3a4.614,4.614,0,0,0,.02.462,2,2,0,0,0,.08.389.842.842,0,0,0,.162.313.734.734,0,0,0,.283.2m.431,1.353a2.524,2.524,0,0,1-2.1-.794,3.655,3.655,0,0,1-.634-2.324v-3.5a5.3,5.3,0,0,1,.142-1.309,2.6,2.6,0,0,1,.459-.959,1.913,1.913,0,0,1,.849-.608,3.588,3.588,0,0,1,1.279-.2,2.552,2.552,0,0,1,2.094.782,3.574,3.574,0,0,1,.638,2.3v3.5a5.269,5.269,0,0,1-.146,1.3,2.723,2.723,0,0,1-.462.977,1.947,1.947,0,0,1-.849.626,3.419,3.419,0,0,1-1.274.212" transform="translate(21.575 6.762)" fill="#fff"/>
    <path id="Path_50951" data-name="Path 50951" d="M588.947,392.358h1.269l-.635-3.891Zm-2.2,3.325,1.925-9.473h1.8l1.921,9.473h-1.606l-.383-2.2h-1.64l-.389,2.2Z" transform="translate(23.067 6.79)" fill="#fff"/>
    <path id="Path_50952" data-name="Path 50952" d="M591.394,395.683V386.21h1.725v8.279h2.268v1.194Z" transform="translate(24.645 6.789)" fill="#fff"/>
    <path id="Path_50953" data-name="Path 50953" d="M597.245,395.825q-2.5,0-2.629-2.891l1.5-.313q.056,1.879,1.073,1.88a.708.708,0,0,0,.587-.24,1.01,1.01,0,0,0,.192-.646,1.8,1.8,0,0,0-.143-.723,1.968,1.968,0,0,0-.331-.536,7.232,7.232,0,0,0-.537-.518l-1.246-1.08a3.456,3.456,0,0,1-.817-1,2.782,2.782,0,0,1-.268-1.294,2.24,2.24,0,0,1,.648-1.713,2.53,2.53,0,0,1,1.779-.623,2.779,2.779,0,0,1,.92.129,1.933,1.933,0,0,1,.661.36,1.855,1.855,0,0,1,.433.563,3,3,0,0,1,.26.7,5.244,5.244,0,0,1,.121.809l-1.474.291c-.008-.19-.02-.356-.037-.5a2.827,2.827,0,0,0-.088-.429,1.085,1.085,0,0,0-.163-.351.693.693,0,0,0-.268-.214.768.768,0,0,0-.391-.063.808.808,0,0,0-.585.255.906.906,0,0,0-.2.62,1.412,1.412,0,0,0,.181.75,2.851,2.851,0,0,0,.563.632l1.234,1.073a6.724,6.724,0,0,1,.537.544,4.571,4.571,0,0,1,.437.6,2.758,2.758,0,0,1,.318.744,3.308,3.308,0,0,1,.109.857,2.253,2.253,0,0,1-.655,1.679,2.332,2.332,0,0,1-1.716.646" transform="translate(25.74 6.762)" fill="#fff"/>
    <path id="Path_50977" data-name="Path 50977" d="M587.716,433.442a16.965,16.965,0,0,0,5.453-12.466,17.393,17.393,0,0,0-.142-2.174,13.561,13.561,0,0,1,7.666,23.543,17.043,17.043,0,0,0-12.976-8.9m11.547,16.883a13.563,13.563,0,0,1-20.283,11.8,16.952,16.952,0,0,0,4.354-14.943,16.967,16.967,0,0,0,15.654.427,13.45,13.45,0,0,1,.275,2.714m-46.207.114a13.442,13.442,0,0,1,.3-2.815,16.979,16.979,0,0,0,15.609-.427,16.92,16.92,0,0,0,4.513,14.959,13.557,13.557,0,0,1-20.419-11.717m-5.893-18.13A13.6,13.6,0,0,1,559.292,418.8a17.393,17.393,0,0,0-.142,2.174,16.973,16.973,0,0,0,5.557,12.565,17.047,17.047,0,0,0-13.042,8.839,13.539,13.539,0,0,1-4.5-10.072m29-24.917a13.6,13.6,0,0,1,12.453,8.168,17.067,17.067,0,0,0-12.453,9.559,17.057,17.057,0,0,0-12.451-9.559,13.6,13.6,0,0,1,12.451-8.168m3.235,30.9a13.54,13.54,0,0,1,18.462,6.046,13.536,13.536,0,0,1-18.462-6.046m-6.514.091a13.532,13.532,0,0,1-18.373,5.976,13.535,13.535,0,0,1,18.373-5.976m-10.128-19.5a13.455,13.455,0,0,1,11.4,15.508,13.455,13.455,0,0,1-11.4-15.508m13.469,41.168A13.544,13.544,0,0,1,576.1,440.7a13.544,13.544,0,0,1,.125,19.351m13.523-39.079a13.594,13.594,0,0,1-11.582,13.42,13.464,13.464,0,0,1,11.4-15.508,13.565,13.565,0,0,1,.178,2.089m18.836,11.333a17.031,17.031,0,0,0-16.385-17,17.008,17.008,0,0,0-32.075,0,17,17,0,0,0-9.819,30.406,17,17,0,0,0,25.939,18.749,17,17,0,0,0,25.8-18.769,16.991,16.991,0,0,0,6.538-13.389" transform="translate(8.456 12.821)" fill="#fff"/>
  </g>
</svg>
