<svg id="icon1" xmlns="http://www.w3.org/2000/svg" width="130" height="130" viewBox="0 0 130 130">
  <rect id="Rectangle_11642" data-name="Rectangle 11642" width="130" height="130" fill="#e5233d"/>
  <path id="Path_50633" data-name="Path 50633" d="M93.376,162.107a20.715,20.715,0,0,1-1.971.77q-1.292.433-1.631.585V159.92a20.557,20.557,0,0,0,2.539-1.231,8.627,8.627,0,0,0,2.109-1.51h3.726v24.94H93.376Z" transform="translate(-82.002 -145.804)" fill="#fff"/>
  <path id="Path_50634" data-name="Path 50634" d="M103.742,166.7V157.17h1.2l2.333,5.4v-5.4h1.438V166.7H107.57l-2.356-5.673V166.7Z" transform="translate(-77.236 -145.808)" fill="#fff"/>
  <path id="Path_50635" data-name="Path 50635" d="M110.508,165.482a1.138,1.138,0,0,0,.434.074,1.114,1.114,0,0,0,.431-.074.77.77,0,0,0,.284-.2.852.852,0,0,0,.167-.315,2.013,2.013,0,0,0,.08-.391,4.614,4.614,0,0,0,.02-.465v-4.329a4.007,4.007,0,0,0-.034-.574,1.455,1.455,0,0,0-.136-.434.652.652,0,0,0-.3-.3,1.14,1.14,0,0,0-.512-.1,1.16,1.16,0,0,0-.515.1.643.643,0,0,0-.3.3,1.531,1.531,0,0,0-.132.434,4.01,4.01,0,0,0-.034.574v4.329a4.614,4.614,0,0,0,.02.465,2.119,2.119,0,0,0,.08.391.87.87,0,0,0,.164.315.738.738,0,0,0,.284.2m.434,1.361a2.54,2.54,0,0,1-2.109-.8,3.677,3.677,0,0,1-.639-2.339v-3.518a5.323,5.323,0,0,1,.144-1.317,2.611,2.611,0,0,1,.462-.965,1.917,1.917,0,0,1,.855-.612,3.612,3.612,0,0,1,1.287-.2,2.567,2.567,0,0,1,2.107.787,3.593,3.593,0,0,1,.64,2.312v3.518a5.3,5.3,0,0,1-.146,1.313,2.722,2.722,0,0,1-.466.983,1.956,1.956,0,0,1-.853.629,3.439,3.439,0,0,1-1.282.213" transform="translate(-75.709 -145.836)" fill="#fff"/>
  <path id="Path_50636" data-name="Path 50636" d="M105.478,172.778h.558a1.316,1.316,0,0,0,.995-.291,1.643,1.643,0,0,0,.257-1.066,5.18,5.18,0,0,0-.034-.683,1.081,1.081,0,0,0-.162-.439.645.645,0,0,0-.376-.274,2.448,2.448,0,0,0-.675-.074h-.563Zm-1.736,5.478v-9.531h2.742q2.438,0,2.438,2.708a2.538,2.538,0,0,1-.667,1.946,2.668,2.668,0,0,1-1.88.617h-.9v4.259Z" transform="translate(-77.236 -141.964)" fill="#fff"/>
  <path id="Path_50637" data-name="Path 50637" d="M110.426,177.038a1.137,1.137,0,0,0,.434.074,1.114,1.114,0,0,0,.431-.074.77.77,0,0,0,.284-.2.833.833,0,0,0,.167-.315,2.013,2.013,0,0,0,.08-.391,4.61,4.61,0,0,0,.02-.465v-4.329a4.007,4.007,0,0,0-.034-.574,1.493,1.493,0,0,0-.135-.434.655.655,0,0,0-.3-.3,1.14,1.14,0,0,0-.512-.1,1.161,1.161,0,0,0-.515.1.637.637,0,0,0-.3.3,1.53,1.53,0,0,0-.132.434,4.007,4.007,0,0,0-.034.574v4.329a4.615,4.615,0,0,0,.02.465,2.119,2.119,0,0,0,.08.391.87.87,0,0,0,.164.315.738.738,0,0,0,.284.2m.434,1.361a2.54,2.54,0,0,1-2.109-.8,3.677,3.677,0,0,1-.639-2.339v-3.518a5.322,5.322,0,0,1,.144-1.317,2.611,2.611,0,0,1,.462-.965,1.917,1.917,0,0,1,.855-.612,3.612,3.612,0,0,1,1.287-.2,2.567,2.567,0,0,1,2.107.787,3.593,3.593,0,0,1,.642,2.312v3.518a5.3,5.3,0,0,1-.147,1.313,2.721,2.721,0,0,1-.466.983,1.948,1.948,0,0,1-.853.629,3.44,3.44,0,0,1-1.282.213" transform="translate(-75.737 -141.992)" fill="#fff"/>
  <path id="Path_50638" data-name="Path 50638" d="M114.691,178.256l-1.932-9.531H114.3l1.254,6.634,1.183-6.634h1.576l-1.944,9.531Z" transform="translate(-74.143 -141.964)" fill="#fff"/>
  <path id="Path_50639" data-name="Path 50639" d="M117.561,178.256v-9.531h3.99v1.225H119.3v2.735h1.782v1.225H119.3v3.145h2.282v1.2Z" transform="translate(-72.493 -141.964)" fill="#fff"/>
  <path id="Path_50640" data-name="Path 50640" d="M122.976,172.794h.419a1.509,1.509,0,0,0,1.1-.328,1.564,1.564,0,0,0,.325-1.12,1.688,1.688,0,0,0-.282-1.094,1.315,1.315,0,0,0-1.035-.332h-.523Zm-1.736,5.462v-9.531h2.185a5.877,5.877,0,0,1,1.293.124,2.542,2.542,0,0,1,.941.414,1.753,1.753,0,0,1,.6.787,3.3,3.3,0,0,1,.2,1.216,3.459,3.459,0,0,1-.267,1.465,1.635,1.635,0,0,1-.883.829l1.322,4.7h-1.742l-1.138-4.351h-.771v4.351Z" transform="translate(-71.233 -141.964)" fill="#fff"/>
  <path id="Path_50641" data-name="Path 50641" d="M127.145,178.256v-8.249h-1.6v-1.282h4.881v1.282h-1.546v8.249Z" transform="translate(-69.754 -141.964)" fill="#fff"/>
  <path id="Path_50642" data-name="Path 50642" d="M131.181,178.256v-3.627l-1.942-5.9h1.62l1.178,3.794,1.127-3.794h1.6l-1.932,5.9v3.627Z" transform="translate(-68.488 -141.964)" fill="#fff"/>
  <path id="Path_50979" data-name="Path 50979" d="M158.727,195.963a3.636,3.636,0,1,1,3.641,3.638,3.64,3.64,0,0,1-3.641-3.638" transform="translate(-58.375 -133.956)" fill="#fff"/>
  <path id="Path_50980" data-name="Path 50980" d="M167.907,198.77a4.848,4.848,0,0,1,4.4,4.831v10.084a1.41,1.41,0,1,1-2.82,0v-8.66c0-.325-.094-.764-.687-.764-.411,0-.5.435-.512.712v25.958a2.027,2.027,0,0,1-4.055,0V215.97a.549.549,0,0,0-.574-.593h0a.557.557,0,0,0-.585.593v14.959a2.025,2.025,0,1,1-4.05,0V204.971c-.013-.276-.1-.712-.51-.712-.6,0-.687.439-.687.764v8.66a1.41,1.41,0,0,1-2.82,0V203.6a4.85,4.85,0,0,1,4.408-4.831,1.978,1.978,0,0,1,.267-.022h7.95a2.127,2.127,0,0,1,.276.022" transform="translate(-59.751 -131.897)" fill="#fff"/>
  <path id="Path_50981" data-name="Path 50981" d="M144.457,197.332a3.444,3.444,0,1,0-3.441,3.445,3.444,3.444,0,0,0,3.441-3.445" transform="translate(-65.633 -133.425)" fill="#fff"/>
  <path id="Path_50982" data-name="Path 50982" d="M135.737,202.925l-2.863,9.324s-.511,1.708.939,2.134,1.88-1.24,1.88-1.24l2.309-7.78s.125-.6.574-.469.282.77.282.77l-4.018,14.58h3.736v10.442a1.794,1.794,0,0,0,3.588,0V220.243h1.02v10.442a1.8,1.8,0,0,0,3.591,0V220.243h3.735l-4.015-14.58s-.168-.64.28-.77.576.469.576.469l2.309,7.78s.438,1.669,1.879,1.24.939-2.134.939-2.134l-2.863-9.324s-1.023-2.693-3.289-2.693h-7.3c-2.265,0-3.29,2.693-3.29,2.693" transform="translate(-67.301 -131.386)" fill="#fff"/>
  <path id="Path_50983" data-name="Path 50983" d="M129.151,197.332a3.444,3.444,0,1,0-3.443,3.445,3.446,3.446,0,0,0,3.443-3.445" transform="translate(-70.884 -133.425)" fill="#fff"/>
  <path id="Path_50984" data-name="Path 50984" d="M120.43,202.925l-2.862,9.324s-.512,1.708.938,2.134,1.879-1.24,1.879-1.24l2.31-7.78s.125-.6.574-.469.28.77.28.77l-4.017,14.58h3.736v10.442a1.795,1.795,0,0,0,3.589,0V220.243h1.02v10.442a1.795,1.795,0,0,0,3.589,0V220.243h3.736l-4.014-14.58s-.171-.64.278-.77.576.469.576.469l2.308,7.78s.439,1.669,1.88,1.24.939-2.134.939-2.134l-2.864-9.324s-1.02-2.693-3.288-2.693h-7.3c-2.264,0-3.292,2.693-3.292,2.693" transform="translate(-72.543 -131.386)" fill="#fff"/>
  <path id="Path_50985" data-name="Path 50985" d="M152,212.225a2.868,2.868,0,1,0-2.867-2.87,2.864,2.864,0,0,0,2.867,2.87" transform="translate(-61.662 -129.144)" fill="#fff"/>
  <path id="Path_50986" data-name="Path 50986" d="M146.189,219.363a1,1,0,0,0,.418,1.356.957.957,0,0,0,1.229-.4l1.558-4.97s.271-.333.271.011v11.7h.007a1.471,1.471,0,0,0,2.941,0v-4.618s-.085-.652.442-.652.445.652.445.652v4.618a1.474,1.474,0,0,0,2.948,0v-11.7c0-.344.181-.1.181-.1l1.223,3.4a8.127,8.127,0,0,0,.693,1.588,1.088,1.088,0,0,0,1.422-.588,1.076,1.076,0,0,0-.117-1.046l.011-.011c-.035-.109-1.826-4.5-2.037-5.118-.647-1.887-1.824-1.871-2.957-1.9s-1.81,0-1.81,0-.725-.028-2.221.016-1.965.813-3.614,5.052c-.236.612-1.031,2.587-1.042,2.705Z" transform="translate(-62.731 -127.471)" fill="#fff"/>
  <path id="Path_50987" data-name="Path 50987" d="M106.427,195.963a3.637,3.637,0,1,0-3.641,3.638,3.641,3.641,0,0,0,3.641-3.638" transform="translate(-78.812 -133.956)" fill="#fff"/>
  <path id="Path_50988" data-name="Path 50988" d="M99.835,198.77a4.85,4.85,0,0,0-4.4,4.831v10.084a1.411,1.411,0,0,0,2.821,0v-8.66c0-.325.094-.764.689-.764.41,0,.495.435.512.712v25.958a2.025,2.025,0,1,0,4.05,0V215.97a.553.553,0,0,1,.578-.593h0a.555.555,0,0,1,.584.593v14.959a2.026,2.026,0,1,0,4.052,0V204.971c.011-.276.1-.712.511-.712.6,0,.686.439.686.764v8.66a1.411,1.411,0,0,0,2.821,0V203.6a4.85,4.85,0,0,0-4.408-4.831,2,2,0,0,0-.267-.022h-7.95a2.111,2.111,0,0,0-.278.022" transform="translate(-80.034 -131.897)" fill="#fff"/>
  <line id="Line_141" data-name="Line 141" x1="3.23" y2="17.122" transform="translate(13.4 83.221)" fill="none" stroke="#fff" stroke-linecap="round" stroke-miterlimit="10" stroke-width="1.148"/>
  <path id="Path_50989" data-name="Path 50989" d="M110.049,209.757a1.045,1.045,0,0,0-1.93.553,1.9,1.9,0,0,0,.1.458L111.113,216a1.85,1.85,0,0,1,.177.689V227.92h.005a1.411,1.411,0,1,0,2.823,0v-4.432s-.08-.627.427-.627.426.627.426.627v4.432a1.415,1.415,0,0,0,2.829,0V216.688a1.861,1.861,0,0,1,.175-.689l2.672-4.83a4.73,4.73,0,0,0,.326-.86,1.044,1.044,0,0,0-1.929-.553l-.012-.005c-.084.071-1.422,2.455-1.863,2.9a1.157,1.157,0,0,1-.886.419H112.81a1.156,1.156,0,0,1-.887-.419c-.448-.441-1.779-2.824-1.866-2.9Z" transform="translate(-75.742 -128.269)" fill="#fff"/>
  <path id="Path_50990" data-name="Path 50990" d="M113.626,212.225a2.868,2.868,0,1,0-2.866-2.87,2.864,2.864,0,0,0,2.866,2.87" transform="translate(-74.829 -129.144)" fill="#fff"/>
  <path id="Path_50991" data-name="Path 50991" d="M114.124,213.73l3.24,2.363,1.539,5.671H109.34l1.543-5.671Z" transform="translate(-75.32 -126.697)" fill="#fff"/>
</svg>
