<svg xmlns="http://www.w3.org/2000/svg" width="130" height="130" viewBox="0 0 130 130">
  <g id="icon8" transform="translate(-410.104 -257.482)">
    <rect id="Rectangle_11651" data-name="Rectangle 11651" width="130" height="130" transform="translate(410.104 257.482)" fill="#dd1367"/>
    <path id="Path_50732" data-name="Path 50732" d="M419.467,270.819a20.592,20.592,0,0,1-1.959.765q-1.286.43-1.621.581v-3.519a20.425,20.425,0,0,0,2.524-1.223,8.575,8.575,0,0,0,2.1-1.5h3.7v24.789h-4.744Z" transform="translate(1.965 2.867)" fill="#fff"/>
    <path id="Path_50733" data-name="Path 50733" d="M432.374,283.971V273.046a6.467,6.467,0,0,0-.352-2.295,1.4,1.4,0,0,0-1.454-.918,1.42,1.42,0,0,0-1.5.9,6.7,6.7,0,0,0-.336,2.311v10.925q0,3.091,1.835,3.091,1.8,0,1.806-3.091m-6.748,5.309a7.65,7.65,0,0,1-1.7-5.218V272.954a7.975,7.975,0,0,1,1.653-5.339,7.333,7.333,0,0,1,9.946,0,7.982,7.982,0,0,1,1.652,5.339v11.109a7.617,7.617,0,0,1-1.713,5.2,7.177,7.177,0,0,1-9.839.015" transform="translate(4.696 2.782)" fill="#fff"/>
    <path id="Path_50734" data-name="Path 50734" d="M442.839,269.957h.417a1.493,1.493,0,0,0,1.088-.326,1.548,1.548,0,0,0,.323-1.113,1.678,1.678,0,0,0-.279-1.088,1.307,1.307,0,0,0-1.029-.33h-.52Zm-1.726,5.429v-9.473h2.17a5.846,5.846,0,0,1,1.286.123,2.521,2.521,0,0,1,.934.411,1.735,1.735,0,0,1,.595.782,3.275,3.275,0,0,1,.2,1.208,3.416,3.416,0,0,1-.267,1.456,1.622,1.622,0,0,1-.876.824l1.314,4.668h-1.731l-1.132-4.325h-.765v4.325Z" transform="translate(10.534 2.864)" fill="#fff"/>
    <path id="Path_50735" data-name="Path 50735" d="M445.73,275.385v-9.473H449.7v1.218h-2.24v2.718h1.771v1.218h-1.771v3.126h2.268v1.194Z" transform="translate(12.103 2.864)" fill="#fff"/>
    <path id="Path_50736" data-name="Path 50736" d="M450.953,274.174h.49a1.954,1.954,0,0,0,.451-.046,1.647,1.647,0,0,0,.326-.109.533.533,0,0,0,.221-.206,1.574,1.574,0,0,0,.134-.263,1.446,1.446,0,0,0,.068-.363c.015-.162.025-.3.028-.414s.007-.284.007-.508V268.8c0-.224,0-.406-.012-.543a2.946,2.946,0,0,0-.054-.414.86.86,0,0,0-.126-.323.891.891,0,0,0-.22-.209.87.87,0,0,0-.343-.131,2.776,2.776,0,0,0-.5-.038h-.474Zm-1.726,1.211v-9.473h2.205a5.123,5.123,0,0,1,1.433.172,2.039,2.039,0,0,1,.926.543,2.1,2.1,0,0,1,.494.912,5.131,5.131,0,0,1,.146,1.328v3.416a5.487,5.487,0,0,1-.149,1.377,2.377,2.377,0,0,1-.488.959,1.986,1.986,0,0,1-.907.581,4.5,4.5,0,0,1-1.388.185Z" transform="translate(13.291 2.864)" fill="#fff"/>
    <path id="Path_50737" data-name="Path 50737" d="M456.444,275.5a3.628,3.628,0,0,1-1.1-.149,2.062,2.062,0,0,1-.765-.417,1.927,1.927,0,0,1-.481-.689,3.63,3.63,0,0,1-.25-.908,7.831,7.831,0,0,1-.072-1.135v-6.29h1.675v6.468c0,.221.005.409.017.565a3.239,3.239,0,0,0,.074.492,1.161,1.161,0,0,0,.163.411.854.854,0,0,0,.291.257,1.04,1.04,0,0,0,.9,0,.809.809,0,0,0,.285-.257,1.305,1.305,0,0,0,.159-.411,2.934,2.934,0,0,0,.075-.489c.009-.154.013-.343.013-.568v-6.468H459.1v6.29a8.035,8.035,0,0,1-.071,1.135,3.686,3.686,0,0,1-.252.908,1.952,1.952,0,0,1-.477.689,2.049,2.049,0,0,1-.762.417,3.611,3.611,0,0,1-1.095.149" transform="translate(14.836 2.864)" fill="#fff"/>
    <path id="Path_50738" data-name="Path 50738" d="M461.107,275.526a3.444,3.444,0,0,1-1.08-.154,2.144,2.144,0,0,1-.774-.429,2.109,2.109,0,0,1-.5-.679,3.288,3.288,0,0,1-.268-.872,6.341,6.341,0,0,1-.078-1.048v-3.3a6.654,6.654,0,0,1,.08-1.095,3.421,3.421,0,0,1,.268-.886,1.955,1.955,0,0,1,.494-.671,2.181,2.181,0,0,1,.772-.411,3.567,3.567,0,0,1,1.083-.149,3.453,3.453,0,0,1,1.211.189,1.776,1.776,0,0,1,.794.555,2.321,2.321,0,0,1,.423.853,4.44,4.44,0,0,1,.131,1.14v.811H462v-.805a3.93,3.93,0,0,0-.075-.954.721.721,0,0,0-.725-.514h-.092a1.241,1.241,0,0,0-.379.052.581.581,0,0,0-.265.162.963.963,0,0,0-.166.237,1.1,1.1,0,0,0-.1.328c-.02.135-.034.26-.039.374s-.009.26-.009.435v4.011a2.472,2.472,0,0,0,.209,1.187.789.789,0,0,0,.745.355,1.121,1.121,0,0,0,.323-.043.847.847,0,0,0,.234-.109.537.537,0,0,0,.161-.189,1.464,1.464,0,0,0,.1-.229,1.43,1.43,0,0,0,.052-.293c.011-.126.017-.233.019-.32s0-.208,0-.359v-.847h1.663v.777a5.524,5.524,0,0,1-.075.954,2.964,2.964,0,0,1-.255.794,1.886,1.886,0,0,1-.465.618,2.056,2.056,0,0,1-.731.386,3.488,3.488,0,0,1-1.034.139" transform="translate(16.41 2.836)" fill="#fff"/>
    <path id="Path_50739" data-name="Path 50739" d="M463,275.385v-9.473h3.966v1.218h-2.24v2.718h1.771v1.218h-1.771v3.126h2.268v1.194Z" transform="translate(17.969 2.864)" fill="#fff"/>
    <path id="Path_50740" data-name="Path 50740" d="M468.22,274.174h.49a1.954,1.954,0,0,0,.451-.046,1.647,1.647,0,0,0,.326-.109.533.533,0,0,0,.221-.206,1.578,1.578,0,0,0,.134-.263,1.446,1.446,0,0,0,.068-.363c.015-.162.025-.3.028-.414s.007-.284.007-.508V268.8c0-.224,0-.406-.012-.543a2.946,2.946,0,0,0-.054-.414.86.86,0,0,0-.126-.323.892.892,0,0,0-.22-.209.87.87,0,0,0-.343-.131,2.776,2.776,0,0,0-.5-.038h-.474Zm-1.726,1.211v-9.473H468.7a5.123,5.123,0,0,1,1.433.172,2.039,2.039,0,0,1,.926.543,2.1,2.1,0,0,1,.494.912,5.131,5.131,0,0,1,.146,1.328v3.416a5.487,5.487,0,0,1-.149,1.377,2.376,2.376,0,0,1-.488.959,1.985,1.985,0,0,1-.907.581,4.5,4.5,0,0,1-1.388.185Z" transform="translate(19.156 2.864)" fill="#fff"/>
    <rect id="Rectangle_11669" data-name="Rectangle 11669" width="1.703" height="9.473" transform="translate(451.697 284.257)" fill="#fff"/>
    <path id="Path_50741" data-name="Path 50741" d="M443.283,286.941v-9.473h1.188l2.319,5.366v-5.366h1.43v9.473h-1.132l-2.343-5.639v5.639Z" transform="translate(11.271 6.789)" fill="#fff"/>
    <path id="Path_50742" data-name="Path 50742" d="M447.8,286.941v-9.473h3.966v1.218h-2.24v2.72h1.771v1.216h-1.771v3.126h2.268v1.194Z" transform="translate(12.805 6.789)" fill="#fff"/>
    <path id="Path_50743" data-name="Path 50743" d="M453.478,285.729a1.128,1.128,0,0,0,.431.074,1.1,1.1,0,0,0,.427-.074.773.773,0,0,0,.284-.194.864.864,0,0,0,.165-.315,1.988,1.988,0,0,0,.08-.388,4.557,4.557,0,0,0,.02-.462v-4.3a3.961,3.961,0,0,0-.035-.571,1.445,1.445,0,0,0-.134-.431.651.651,0,0,0-.3-.3,1.127,1.127,0,0,0-.508-.1,1.15,1.15,0,0,0-.512.1.639.639,0,0,0-.3.3,1.52,1.52,0,0,0-.131.431,3.984,3.984,0,0,0-.034.571v4.3a4.579,4.579,0,0,0,.019.462,1.979,1.979,0,0,0,.08.388.883.883,0,0,0,.163.315.735.735,0,0,0,.283.194m2.448,3.136a3.5,3.5,0,0,1-.945-.719,6.818,6.818,0,0,1-.878-1.069c-.043,0-.107.005-.194.005a2.528,2.528,0,0,1-2.1-.793,3.66,3.66,0,0,1-.635-2.326v-3.5a5.3,5.3,0,0,1,.143-1.309,2.584,2.584,0,0,1,.459-.959,1.919,1.919,0,0,1,.848-.608,3.6,3.6,0,0,1,1.281-.2,2.548,2.548,0,0,1,2.094.782,3.568,3.568,0,0,1,.636,2.3v3.5q0,2.207-1.314,2.84a4.437,4.437,0,0,0,.92.891Z" transform="translate(13.953 6.762)" fill="#fff"/>
    <path id="Path_50744" data-name="Path 50744" d="M458.584,287.055a3.63,3.63,0,0,1-1.1-.149,2.062,2.062,0,0,1-.765-.417,1.926,1.926,0,0,1-.481-.689,3.63,3.63,0,0,1-.251-.908,7.831,7.831,0,0,1-.072-1.135v-6.29h1.675v6.468c0,.221.005.409.016.565a3.427,3.427,0,0,0,.075.492,1.159,1.159,0,0,0,.163.411.853.853,0,0,0,.291.257,1.04,1.04,0,0,0,.9,0,.809.809,0,0,0,.285-.257,1.3,1.3,0,0,0,.159-.411,3.087,3.087,0,0,0,.075-.489c.009-.154.013-.344.013-.568v-6.468h1.675v6.29a8.034,8.034,0,0,1-.071,1.135,3.686,3.686,0,0,1-.252.908,1.951,1.951,0,0,1-.477.689,2.049,2.049,0,0,1-.762.417,3.611,3.611,0,0,1-1.095.149" transform="translate(15.563 6.789)" fill="#fff"/>
    <path id="Path_50745" data-name="Path 50745" d="M462.5,283.616h1.269l-.635-3.891Zm-2.2,3.325,1.925-9.473h1.8l1.921,9.473h-1.606l-.383-2.2h-1.64l-.387,2.2Z" transform="translate(17.052 6.789)" fill="#fff"/>
    <path id="Path_50746" data-name="Path 50746" d="M464.98,286.941v-9.473h1.726v8.279h2.268v1.194Z" transform="translate(18.642 6.789)" fill="#fff"/>
    <rect id="Rectangle_11670" data-name="Rectangle 11670" width="1.703" height="9.473" transform="translate(488.278 284.257)" fill="#fff"/>
    <path id="Path_50747" data-name="Path 50747" d="M471.68,286.941v-8.2h-1.589v-1.274h4.851v1.274h-1.537v8.2Z" transform="translate(20.378 6.789)" fill="#fff"/>
    <rect id="Rectangle_11671" data-name="Rectangle 11671" width="1.703" height="9.473" transform="translate(495.821 284.257)" fill="#fff"/>
    <path id="Path_50748" data-name="Path 50748" d="M476.217,286.941v-9.473h3.966v1.218h-2.24v2.72h1.771v1.216h-1.771v3.126h2.268v1.194Z" transform="translate(22.459 6.789)" fill="#fff"/>
    <path id="Path_50749" data-name="Path 50749" d="M482.163,287.083q-2.5,0-2.629-2.891l1.5-.314q.056,1.879,1.073,1.88a.7.7,0,0,0,.587-.241,1,1,0,0,0,.192-.644,1.8,1.8,0,0,0-.143-.723,2,2,0,0,0-.331-.537q-.189-.207-.537-.517l-1.246-1.08a3.476,3.476,0,0,1-.817-1,2.782,2.782,0,0,1-.268-1.294,2.24,2.24,0,0,1,.648-1.714,2.53,2.53,0,0,1,1.779-.623,2.779,2.779,0,0,1,.92.129,1.931,1.931,0,0,1,.661.36,1.853,1.853,0,0,1,.433.563,2.976,2.976,0,0,1,.26.7,5.246,5.246,0,0,1,.121.809l-1.474.291c-.008-.19-.02-.356-.037-.5a2.812,2.812,0,0,0-.088-.429,1.111,1.111,0,0,0-.162-.351.706.706,0,0,0-.269-.214.766.766,0,0,0-.391-.063.807.807,0,0,0-.585.255.906.906,0,0,0-.2.62,1.411,1.411,0,0,0,.181.75,2.851,2.851,0,0,0,.563.632l1.234,1.073a6.775,6.775,0,0,1,.537.544,4.58,4.58,0,0,1,.437.6,2.754,2.754,0,0,1,.318.744,3.3,3.3,0,0,1,.109.856,2.253,2.253,0,0,1-.655,1.68,2.331,2.331,0,0,1-1.716.646" transform="translate(23.586 6.762)" fill="#fff"/>
    <path id="Path_51007" data-name="Path 51007" d="M473.762,321.157H449.82a.277.277,0,0,0-.26.291v7.2a.277.277,0,0,0,.26.292h23.942a.277.277,0,0,0,.263-.292v-7.2a.277.277,0,0,0-.263-.291" transform="translate(13.404 21.631)" fill="#fff"/>
    <path id="Path_51008" data-name="Path 51008" d="M473.762,309.729H449.82a.277.277,0,0,0-.26.291v7.2a.277.277,0,0,0,.26.292h23.942a.277.277,0,0,0,.263-.292v-7.2a.277.277,0,0,0-.263-.291" transform="translate(13.404 17.749)" fill="#fff"/>
    <path id="Path_51009" data-name="Path 51009" d="M473.288,304.539,461.8,293.047a.2.2,0,0,0-.283,0l-11.491,11.492a.2.2,0,0,0,.139.339h22.984a.2.2,0,0,0,.142-.339" transform="translate(13.541 12.062)" fill="#fff"/>
    <path id="Path_51010" data-name="Path 51010" d="M475.512,332.942,487,321.45a.2.2,0,0,0,0-.281l-11.492-11.491a.2.2,0,0,0-.339.139V332.8a.2.2,0,0,0,.339.141" transform="translate(22.105 17.711)" fill="#fff"/>
    <path id="Path_51011" data-name="Path 51011" d="M450.023,335.167l11.492,11.492a.2.2,0,0,0,.28,0l11.492-11.492a.2.2,0,0,0-.139-.339H450.163a.2.2,0,0,0-.141.339" transform="translate(13.541 26.275)" fill="#fff"/>
    <path id="Path_51012" data-name="Path 51012" d="M444.884,309.678,433.392,321.17a.2.2,0,0,0,0,.28l11.492,11.492a.2.2,0,0,0,.339-.139V309.818a.2.2,0,0,0-.339-.141" transform="translate(7.891 17.711)" fill="#fff"/>
  </g>
</svg>
