<svg xmlns="http://www.w3.org/2000/svg" width="130" height="130" viewBox="0 0 130 130">
  <g id="icon7" transform="translate(-301.361 -257.482)">
    <rect id="Rectangle_11650" data-name="Rectangle 11650" width="130" height="130" transform="translate(301.361 257.482)" fill="#fd6925"/>
    <path id="Path_50600" data-name="Path 50600" d="M317.465,276.68v-3.947a6.822,6.822,0,0,0-.4-2.571,1.565,1.565,0,0,0-2.907.076,10.471,10.471,0,0,0-.367,3.26,24.042,24.042,0,0,0,.091,2.433,2.592,2.592,0,0,0,.505,1.361,1.517,1.517,0,0,0,1.27.521,2.033,2.033,0,0,0,1.8-1.133m-6.625,12.869a6.915,6.915,0,0,1-1.484-4.759v-.367h4.468a5.777,5.777,0,0,0,.352,2.386,1.462,1.462,0,0,0,1.454.7,1.41,1.41,0,0,0,1.148-.46,3.09,3.09,0,0,0,.535-1.514,22.832,22.832,0,0,0,.153-3.046v-2.508a2.66,2.66,0,0,1-1.254,1.056,4.849,4.849,0,0,1-1.99.382,4.367,4.367,0,0,1-4.008-2.02,10.042,10.042,0,0,1-1.255-5.355q0-8.354,6.672-8.354a5.963,5.963,0,0,1,5.049,2.111,9.336,9.336,0,0,1,1.622,5.814v9.028a11.218,11.218,0,0,1-1.484,6.243q-1.485,2.233-5.218,2.233-3.306,0-4.759-1.576" transform="translate(2.581 2.79)" fill="#fff"/>
    <rect id="Rectangle_11659" data-name="Rectangle 11659" width="1.703" height="9.473" transform="translate(330.393 268.606)" fill="#fff"/>
    <path id="Path_50601" data-name="Path 50601" d="M324.936,275.258v-9.473h1.188l2.32,5.366v-5.366h1.428v9.473H328.74l-2.342-5.639v5.639Z" transform="translate(8.008 2.82)" fill="#fff"/>
    <path id="Path_50602" data-name="Path 50602" d="M330.95,274.047h.492a1.968,1.968,0,0,0,.452-.046,1.711,1.711,0,0,0,.326-.108.538.538,0,0,0,.22-.206,1.571,1.571,0,0,0,.134-.263,1.438,1.438,0,0,0,.068-.363c.016-.162.025-.3.029-.414s.005-.284.005-.509v-3.462c0-.224,0-.406-.012-.543a2.752,2.752,0,0,0-.054-.414.836.836,0,0,0-.126-.323.89.89,0,0,0-.22-.209.863.863,0,0,0-.343-.131,2.774,2.774,0,0,0-.5-.038h-.474Zm-1.726,1.211v-9.473h2.205a5.129,5.129,0,0,1,1.435.171,2.041,2.041,0,0,1,.926.543,2.109,2.109,0,0,1,.493.912,5.131,5.131,0,0,1,.146,1.328v3.416a5.485,5.485,0,0,1-.149,1.377,2.358,2.358,0,0,1-.488.959,1.989,1.989,0,0,1-.906.581,4.519,4.519,0,0,1-1.389.185Z" transform="translate(9.465 2.82)" fill="#fff"/>
    <path id="Path_50603" data-name="Path 50603" d="M336.215,275.372a3.644,3.644,0,0,1-1.1-.149,2.061,2.061,0,0,1-.765-.417,1.889,1.889,0,0,1-.478-.689,3.523,3.523,0,0,1-.253-.908,7.837,7.837,0,0,1-.071-1.135v-6.29h1.675v6.468c0,.221,0,.409.017.565a3.231,3.231,0,0,0,.072.492,1.16,1.16,0,0,0,.165.411.861.861,0,0,0,.289.257,1.04,1.04,0,0,0,.9,0,.81.81,0,0,0,.285-.257,1.335,1.335,0,0,0,.162-.411,3.231,3.231,0,0,0,.072-.489c.009-.154.015-.344.015-.568v-6.468h1.673v6.29a7.847,7.847,0,0,1-.071,1.135,3.632,3.632,0,0,1-.252.908,1.919,1.919,0,0,1-.477.689,2.049,2.049,0,0,1-.762.417,3.608,3.608,0,0,1-1.093.149" transform="translate(10.933 2.82)" fill="#fff"/>
    <path id="Path_50604" data-name="Path 50604" d="M340.518,275.4q-2.5,0-2.629-2.891l1.5-.313q.056,1.879,1.073,1.88a.706.706,0,0,0,.587-.24,1.01,1.01,0,0,0,.192-.646,1.8,1.8,0,0,0-.143-.723,2,2,0,0,0-.331-.537q-.189-.207-.537-.517l-1.246-1.08a3.477,3.477,0,0,1-.817-1,2.782,2.782,0,0,1-.268-1.294,2.24,2.24,0,0,1,.648-1.713,2.532,2.532,0,0,1,1.779-.623,2.78,2.78,0,0,1,.92.129,1.913,1.913,0,0,1,.659.36,1.836,1.836,0,0,1,.434.563,3.066,3.066,0,0,1,.261.7,5.418,5.418,0,0,1,.119.809l-1.474.291c-.008-.19-.02-.356-.038-.5a2.8,2.8,0,0,0-.088-.429,1.113,1.113,0,0,0-.162-.351.708.708,0,0,0-.269-.214A.767.767,0,0,0,340.3,267a.808.808,0,0,0-.585.255.906.906,0,0,0-.2.62,1.411,1.411,0,0,0,.181.75,2.853,2.853,0,0,0,.563.632l1.234,1.073a6.561,6.561,0,0,1,.537.544,4.579,4.579,0,0,1,.437.6,2.755,2.755,0,0,1,.318.744,3.3,3.3,0,0,1,.109.856,2.258,2.258,0,0,1-.654,1.68,2.337,2.337,0,0,1-1.717.646" transform="translate(12.409 2.793)" fill="#fff"/>
    <path id="Path_50605" data-name="Path 50605" d="M343.016,275.258v-8.2h-1.589v-1.274h4.851v1.274h-1.537v8.2Z" transform="translate(13.611 2.82)" fill="#fff"/>
    <path id="Path_50606" data-name="Path 50606" d="M346.882,269.83h.417a1.5,1.5,0,0,0,1.089-.326,1.555,1.555,0,0,0,.323-1.113,1.677,1.677,0,0,0-.28-1.088,1.307,1.307,0,0,0-1.029-.33h-.52Zm-1.726,5.428v-9.473h2.172a5.842,5.842,0,0,1,1.285.123,2.526,2.526,0,0,1,.935.411,1.742,1.742,0,0,1,.594.782,3.275,3.275,0,0,1,.2,1.208,3.438,3.438,0,0,1-.265,1.456,1.625,1.625,0,0,1-.878.824l1.314,4.668h-1.731l-1.131-4.325h-.766v4.325Z" transform="translate(14.877 2.82)" fill="#fff"/>
    <path id="Path_50607" data-name="Path 50607" d="M351.018,275.258v-3.605l-1.931-5.868h1.61l1.171,3.771,1.12-3.771h1.594l-1.92,5.868v3.605Z" transform="translate(16.213 2.82)" fill="#fff"/>
    <path id="Path_50608" data-name="Path 50608" d="M353.3,274.854l-.172-.6a1.021,1.021,0,0,0,.552-.346,1,1,0,0,0,.214-.659h-.84V271.7h1.571v1.439a1.544,1.544,0,0,1-1.326,1.715" transform="translate(17.559 4.83)" fill="#fff"/>
    <rect id="Rectangle_11660" data-name="Rectangle 11660" width="1.703" height="9.473" transform="translate(375.003 268.606)" fill="#fff"/>
    <path id="Path_50609" data-name="Path 50609" d="M358.234,275.258v-9.473h1.188l2.319,5.366v-5.366h1.43v9.473h-1.132l-2.342-5.639v5.639Z" transform="translate(19.32 2.82)" fill="#fff"/>
    <path id="Path_50610" data-name="Path 50610" d="M362.522,275.258v-9.473h1.188l2.319,5.366v-5.366h1.43v9.473h-1.132l-2.342-5.639v5.639Z" transform="translate(20.777 2.82)" fill="#fff"/>
    <path id="Path_50611" data-name="Path 50611" d="M369,274.046a1.157,1.157,0,0,0,.431.074,1.132,1.132,0,0,0,.429-.074.765.765,0,0,0,.283-.2.847.847,0,0,0,.166-.314,2,2,0,0,0,.079-.389,4.575,4.575,0,0,0,.02-.462v-4.3a3.984,3.984,0,0,0-.034-.571,1.485,1.485,0,0,0-.134-.431.651.651,0,0,0-.3-.3,1.133,1.133,0,0,0-.509-.1,1.153,1.153,0,0,0-.512.1.633.633,0,0,0-.3.3,1.521,1.521,0,0,0-.131.431,3.98,3.98,0,0,0-.034.571v4.3a4.594,4.594,0,0,0,.02.462,2.1,2.1,0,0,0,.079.389.864.864,0,0,0,.163.314.734.734,0,0,0,.283.2m.431,1.353a2.524,2.524,0,0,1-2.1-.794,3.655,3.655,0,0,1-.635-2.324v-3.5a5.29,5.29,0,0,1,.143-1.309,2.6,2.6,0,0,1,.46-.959,1.905,1.905,0,0,1,.849-.608,3.56,3.56,0,0,1,1.279-.2,2.552,2.552,0,0,1,2.094.782,3.571,3.571,0,0,1,.638,2.3v3.5a5.267,5.267,0,0,1-.146,1.3,2.7,2.7,0,0,1-.464.977,1.943,1.943,0,0,1-.848.626,3.446,3.446,0,0,1-1.274.212" transform="translate(22.194 2.793)" fill="#fff"/>
    <path id="Path_50612" data-name="Path 50612" d="M372.852,275.258l-1.92-9.473h1.531l1.246,6.594,1.176-6.594h1.566l-1.932,9.473Z" transform="translate(23.634 2.82)" fill="#fff"/>
    <path id="Path_50613" data-name="Path 50613" d="M376.926,271.933h1.269l-.635-3.891Zm-2.2,3.325,1.925-9.473h1.8l1.92,9.473h-1.6l-.383-2.2h-1.64l-.388,2.2Z" transform="translate(24.923 2.82)" fill="#fff"/>
    <path id="Path_50614" data-name="Path 50614" d="M380.027,275.258v-8.2h-1.589v-1.274h4.851v1.274h-1.537v8.2Z" transform="translate(26.184 2.82)" fill="#fff"/>
    <rect id="Rectangle_11661" data-name="Rectangle 11661" width="1.703" height="9.473" transform="translate(409.668 268.606)" fill="#fff"/>
    <path id="Path_50615" data-name="Path 50615" d="M386.294,274.046a1.157,1.157,0,0,0,.431.074,1.132,1.132,0,0,0,.429-.074.765.765,0,0,0,.283-.2.828.828,0,0,0,.166-.314,2,2,0,0,0,.079-.389,4.594,4.594,0,0,0,.02-.462v-4.3a3.985,3.985,0,0,0-.033-.571,1.485,1.485,0,0,0-.134-.431.651.651,0,0,0-.3-.3,1.133,1.133,0,0,0-.509-.1,1.153,1.153,0,0,0-.512.1.633.633,0,0,0-.3.3,1.524,1.524,0,0,0-.131.431,3.984,3.984,0,0,0-.034.571v4.3a4.574,4.574,0,0,0,.02.462,2.1,2.1,0,0,0,.079.389.863.863,0,0,0,.163.314.733.733,0,0,0,.283.2m.431,1.353a2.524,2.524,0,0,1-2.1-.794,3.656,3.656,0,0,1-.634-2.324v-3.5a5.293,5.293,0,0,1,.142-1.309,2.594,2.594,0,0,1,.46-.959,1.9,1.9,0,0,1,.849-.608,3.56,3.56,0,0,1,1.279-.2,2.552,2.552,0,0,1,2.094.782,3.572,3.572,0,0,1,.638,2.3v3.5a5.268,5.268,0,0,1-.146,1.3,2.7,2.7,0,0,1-.464.977,1.935,1.935,0,0,1-.848.626,3.446,3.446,0,0,1-1.274.212" transform="translate(28.071 2.793)" fill="#fff"/>
    <path id="Path_50616" data-name="Path 50616" d="M388.56,275.258v-9.473h1.188l2.319,5.366v-5.366h1.43v9.473h-1.132l-2.342-5.639v5.639Z" transform="translate(29.622 2.82)" fill="#fff"/>
    <path id="Path_50617" data-name="Path 50617" d="M324.826,283.489h1.269l-.635-3.891Zm-2.2,3.324,1.925-9.472h1.8l1.92,9.472h-1.6l-.383-2.2h-1.64l-.389,2.2Z" transform="translate(7.224 6.746)" fill="#fff"/>
    <path id="Path_50618" data-name="Path 50618" d="M327.194,286.814v-9.473h1.188l2.32,5.366v-5.366h1.428v9.473H331l-2.342-5.639v5.639Z" transform="translate(8.776 6.746)" fill="#fff"/>
    <path id="Path_50619" data-name="Path 50619" d="M333.322,285.6h.492a1.969,1.969,0,0,0,.451-.046,1.709,1.709,0,0,0,.326-.109.521.521,0,0,0,.22-.206,1.577,1.577,0,0,0,.134-.263,1.44,1.44,0,0,0,.068-.363c.016-.162.025-.3.029-.414s.005-.284.005-.508v-3.463q0-.336-.012-.543a2.774,2.774,0,0,0-.054-.414.837.837,0,0,0-.126-.323.855.855,0,0,0-.563-.34,2.9,2.9,0,0,0-.5-.038h-.474Zm-1.726,1.21v-9.472H333.8a5.128,5.128,0,0,1,1.435.171,2.054,2.054,0,0,1,.926.543,2.109,2.109,0,0,1,.493.912,5.138,5.138,0,0,1,.146,1.328v3.416a5.485,5.485,0,0,1-.149,1.377,2.373,2.373,0,0,1-.488.961,2,2,0,0,1-.906.58,4.522,4.522,0,0,1-1.389.184Z" transform="translate(10.271 6.746)" fill="#fff"/>
    <rect id="Rectangle_11662" data-name="Rectangle 11662" width="1.703" height="9.473" transform="translate(350.337 284.087)" fill="#fff"/>
    <path id="Path_50620" data-name="Path 50620" d="M339.935,286.814v-9.473h1.188l2.319,5.366v-5.366h1.43v9.473H343.74l-2.342-5.639v5.639Z" transform="translate(13.104 6.746)" fill="#fff"/>
    <path id="Path_50621" data-name="Path 50621" d="M344.337,286.814v-9.473h3.891v1.2h-2.165v2.753h1.731v1.216h-1.731v4.308Z" transform="translate(14.599 6.746)" fill="#fff"/>
    <path id="Path_50622" data-name="Path 50622" d="M349.3,281.387h.417a1.493,1.493,0,0,0,1.089-.327,1.555,1.555,0,0,0,.323-1.113,1.677,1.677,0,0,0-.28-1.088,1.305,1.305,0,0,0-1.029-.33h-.52Zm-1.726,5.426v-9.472h2.172a5.841,5.841,0,0,1,1.285.123,2.506,2.506,0,0,1,.935.411,1.742,1.742,0,0,1,.594.782,3.275,3.275,0,0,1,.2,1.208,3.448,3.448,0,0,1-.265,1.458,1.632,1.632,0,0,1-.878.823l1.314,4.666H351.2l-1.131-4.323H349.3v4.323Z" transform="translate(15.7 6.746)" fill="#fff"/>
    <path id="Path_50623" data-name="Path 50623" d="M353.916,283.489h1.269l-.635-3.891Zm-2.2,3.324,1.925-9.472h1.8l1.92,9.472h-1.6l-.383-2.2h-1.64l-.388,2.2Z" transform="translate(17.106 6.746)" fill="#fff"/>
    <path id="Path_50624" data-name="Path 50624" d="M358.733,286.956q-2.5,0-2.629-2.891l1.5-.313q.056,1.879,1.074,1.88a.7.7,0,0,0,.585-.241,1,1,0,0,0,.192-.644,1.8,1.8,0,0,0-.143-.723,2,2,0,0,0-.331-.537q-.189-.207-.537-.517l-1.246-1.08a3.476,3.476,0,0,1-.817-1,2.782,2.782,0,0,1-.268-1.294,2.24,2.24,0,0,1,.648-1.713,2.532,2.532,0,0,1,1.779-.623,2.779,2.779,0,0,1,.92.129,1.913,1.913,0,0,1,.659.36,1.836,1.836,0,0,1,.434.563,3.017,3.017,0,0,1,.261.7,5.411,5.411,0,0,1,.119.809l-1.474.291c-.008-.19-.02-.356-.037-.5a2.806,2.806,0,0,0-.088-.429,1.111,1.111,0,0,0-.162-.351.707.707,0,0,0-.269-.214.767.767,0,0,0-.391-.063.808.808,0,0,0-.585.255.906.906,0,0,0-.2.62,1.41,1.41,0,0,0,.181.75,2.849,2.849,0,0,0,.563.632l1.234,1.073a6.561,6.561,0,0,1,.537.544,4.577,4.577,0,0,1,.437.6,2.757,2.757,0,0,1,.318.744,3.3,3.3,0,0,1,.109.856,2.258,2.258,0,0,1-.654,1.68,2.337,2.337,0,0,1-1.717.646" transform="translate(18.597 6.719)" fill="#fff"/>
    <path id="Path_50625" data-name="Path 50625" d="M361.344,286.814v-8.2h-1.589v-1.274h4.851v1.274H363.07v8.2Z" transform="translate(19.837 6.746)" fill="#fff"/>
    <path id="Path_50626" data-name="Path 50626" d="M365.325,281.387h.417a1.492,1.492,0,0,0,1.088-.327,1.548,1.548,0,0,0,.323-1.113,1.677,1.677,0,0,0-.28-1.088,1.306,1.306,0,0,0-1.028-.33h-.52Zm-1.726,5.426v-9.472h2.17a5.842,5.842,0,0,1,1.285.123,2.49,2.49,0,0,1,.934.411,1.735,1.735,0,0,1,.595.782,3.275,3.275,0,0,1,.2,1.208,3.449,3.449,0,0,1-.265,1.458,1.627,1.627,0,0,1-.878.823l1.314,4.666H367.22l-1.132-4.323h-.764v4.323Z" transform="translate(21.143 6.746)" fill="#fff"/>
    <path id="Path_50627" data-name="Path 50627" d="M370.715,286.928a3.635,3.635,0,0,1-1.1-.149,2.061,2.061,0,0,1-.765-.417,1.907,1.907,0,0,1-.48-.689,3.573,3.573,0,0,1-.252-.908,7.842,7.842,0,0,1-.071-1.135v-6.29h1.673v6.468c0,.221.005.409.017.565a3.423,3.423,0,0,0,.074.492,1.187,1.187,0,0,0,.163.411.836.836,0,0,0,.291.256,1.028,1.028,0,0,0,.9,0,.794.794,0,0,0,.285-.256,1.3,1.3,0,0,0,.161-.411,3.072,3.072,0,0,0,.074-.489c.009-.154.015-.344.015-.568v-6.468h1.673v6.29a8.038,8.038,0,0,1-.071,1.135,3.63,3.63,0,0,1-.252.908,1.935,1.935,0,0,1-.477.689,2.048,2.048,0,0,1-.762.417,3.61,3.61,0,0,1-1.095.149" transform="translate(22.654 6.746)" fill="#fff"/>
    <path id="Path_50628" data-name="Path 50628" d="M375.265,286.955a3.442,3.442,0,0,1-1.08-.154,2.144,2.144,0,0,1-.774-.429,2.11,2.11,0,0,1-.5-.679,3.286,3.286,0,0,1-.268-.872,6.337,6.337,0,0,1-.078-1.048v-3.3a6.647,6.647,0,0,1,.08-1.095,3.477,3.477,0,0,1,.268-.886,1.955,1.955,0,0,1,.494-.671,2.181,2.181,0,0,1,.772-.411,3.565,3.565,0,0,1,1.082-.149,3.448,3.448,0,0,1,1.211.189,1.776,1.776,0,0,1,.794.555,2.3,2.3,0,0,1,.422.853,4.376,4.376,0,0,1,.133,1.14v.811h-1.663V280a3.931,3.931,0,0,0-.075-.954.721.721,0,0,0-.725-.514h-.092a1.24,1.24,0,0,0-.379.052.593.593,0,0,0-.267.162.991.991,0,0,0-.165.237,1.1,1.1,0,0,0-.1.328q-.03.2-.04.374c-.005.115-.008.26-.008.435v4.011a2.472,2.472,0,0,0,.209,1.187.789.789,0,0,0,.745.355,1.122,1.122,0,0,0,.323-.043.847.847,0,0,0,.234-.109.521.521,0,0,0,.159-.189,1.361,1.361,0,0,0,.1-.229,1.43,1.43,0,0,0,.052-.293c.011-.126.017-.233.019-.32s0-.208,0-.359v-.847h1.663v.777a5.523,5.523,0,0,1-.075.954,2.965,2.965,0,0,1-.255.794,1.886,1.886,0,0,1-.465.618,2.057,2.057,0,0,1-.731.386,3.488,3.488,0,0,1-1.034.139" transform="translate(24.19 6.719)" fill="#fff"/>
    <path id="Path_50629" data-name="Path 50629" d="M378.136,286.814v-8.2h-1.589v-1.274H381.4v1.274h-1.537v8.2Z" transform="translate(25.541 6.746)" fill="#fff"/>
    <path id="Path_50630" data-name="Path 50630" d="M383,286.928a3.628,3.628,0,0,1-1.1-.149,2.061,2.061,0,0,1-.765-.417,1.926,1.926,0,0,1-.481-.689,3.631,3.631,0,0,1-.25-.908,7.826,7.826,0,0,1-.072-1.135v-6.29h1.675v6.468c0,.221.005.409.017.565a3.419,3.419,0,0,0,.074.492,1.186,1.186,0,0,0,.163.411.836.836,0,0,0,.291.256,1.028,1.028,0,0,0,.9,0,.794.794,0,0,0,.285-.256,1.3,1.3,0,0,0,.161-.411,3.065,3.065,0,0,0,.074-.489c.009-.154.015-.344.015-.568v-6.468h1.673v6.29a8.043,8.043,0,0,1-.071,1.135,3.631,3.631,0,0,1-.252.908,1.936,1.936,0,0,1-.477.689,2.049,2.049,0,0,1-.762.417,3.61,3.61,0,0,1-1.095.149" transform="translate(26.828 6.746)" fill="#fff"/>
    <path id="Path_50631" data-name="Path 50631" d="M386.7,281.387h.417a1.493,1.493,0,0,0,1.089-.327,1.555,1.555,0,0,0,.323-1.113,1.678,1.678,0,0,0-.28-1.088,1.305,1.305,0,0,0-1.029-.33h-.52Zm-1.726,5.426v-9.472h2.172a5.842,5.842,0,0,1,1.285.123,2.506,2.506,0,0,1,.935.411,1.742,1.742,0,0,1,.594.782,3.274,3.274,0,0,1,.2,1.208,3.448,3.448,0,0,1-.265,1.458,1.632,1.632,0,0,1-.878.823l1.314,4.666h-1.731l-1.131-4.323H386.7v4.323Z" transform="translate(28.403 6.746)" fill="#fff"/>
    <path id="Path_50632" data-name="Path 50632" d="M389.475,286.814v-9.473h3.966v1.218H391.2v2.72h1.771v1.216H391.2v3.126h2.268v1.194Z" transform="translate(29.933 6.746)" fill="#fff"/>
    <path id="Path_50978" data-name="Path 50978" d="M389.875,349.611l-13.936,8.042V341.564l13.936-8.046Zm-46.039,8.042V342.788l12.876,7.434Zm-2.117,0-13.934-8.042V333.518l13.934,8.046Zm14.993-44.5-12.876,7.435V305.716Zm17.109,7.435-12.873-7.435,12.873-7.433Zm-12.873,11.1,13.932-8.042,13.937,8.042L374.88,339.73Zm-3.176-1.834L344.9,322.419l12.876-7.435Zm14.99-7.431-12.873,7.431V314.983Zm-14.99,25.969L344.9,340.953l12.876-7.435Zm33.692-17.621-15.525-8.96V303.882a1.063,1.063,0,0,0-.529-.918L359.359,293.7a1.059,1.059,0,0,0-1.058,0l-16.052,9.267a1.06,1.06,0,0,0-.529.918v17.924l-15.523,8.96a1.057,1.057,0,0,0-.529.918v18.538a1.06,1.06,0,0,0,.529.918l16.052,9.265a1.057,1.057,0,0,0,1.058,0l15.523-8.96,15.521,8.96a1.06,1.06,0,0,0,1.06,0l16.054-9.265a1.059,1.059,0,0,0,.529-.918V331.684a1.057,1.057,0,0,0-.529-.918" transform="translate(8.257 12.255)" fill="#fff"/>
  </g>
</svg>
