<svg xmlns="http://www.w3.org/2000/svg" xmlns:xlink="http://www.w3.org/1999/xlink" width="389.9" height="230.666" viewBox="0 0 389.9 230.666">
  <defs>
    <clipPath id="clip-path">
      <rect id="Rectangle_11640" data-name="Rectangle 11640" width="389.9" height="230.666" fill="none"/>
    </clipPath>
  </defs>
  <g id="SDG_Logo" data-name="SDG Logo" transform="translate(-569.98 -175.531)">
    <g id="Group_24016" data-name="Group 24016" transform="translate(569.98 175.531)" clip-path="url(#clip-path)">
      <path id="Path_50520" data-name="Path 50520" d="M644.877,307.22q-4.6,5.508-13.006,8.543a54.443,54.443,0,0,1-18.629,3.035,36.857,36.857,0,0,1-18.823-4.689,31.238,31.238,0,0,1-12.493-13.6q-4.4-8.917-4.511-20.956l0-5.623q0-12.38,4.178-21.437a30.863,30.863,0,0,1,12.042-13.855,34.674,34.674,0,0,1,18.429-4.795q14.706,0,23,7.019t9.821,20.416l-16.583,0q-1.134-7.1-5.024-10.394t-10.706-3.3q-8.685,0-13.232,6.529t-4.6,19.421v5.282q0,13.006,4.937,19.649t14.48,6.648q9.6,0,13.688-4.085l0-14.255-15.5,0,0-12.553,32.541.006Z" transform="translate(-561.669 -110.349)" fill="#009edb"/>
      <path id="Path_50521" data-name="Path 50521" d="M704.05,300.044l-29.87,0L668.5,317.075l-18.116,0,30.8-82.681,15.786,0L727.9,317.086l-18.116,0Zm-25.268-13.8,20.67,0-10.386-30.952Z" transform="translate(-480.104 -109.735)" fill="#009edb"/>
      <path id="Path_50522" data-name="Path 50522" d="M706.462,303.4l36.175.006,0,13.688-53.213-.011.017-82.688,17.036,0Z" transform="translate(-436.462 -109.73)" fill="#009edb"/>
      <path id="Path_50523" data-name="Path 50523" d="M762.659,296a8.75,8.75,0,0,0-3.406-7.413q-3.409-2.583-12.267-5.453a86.954,86.954,0,0,1-14.026-5.653q-14.083-7.615-14.08-20.505a19.961,19.961,0,0,1,3.778-11.953,24.657,24.657,0,0,1,10.848-8.2,40.864,40.864,0,0,1,15.875-2.95,37.163,37.163,0,0,1,15.786,3.213,25.146,25.146,0,0,1,10.761,9.06,23.711,23.711,0,0,1,3.831,13.29l-17.038,0q0-5.677-3.577-8.831T749.1,247.439q-6.249,0-9.713,2.639a8.332,8.332,0,0,0-3.467,6.955q0,4.035,4.06,6.76a45.867,45.867,0,0,0,11.953,5.112q14.537,4.378,21.181,10.852a21.6,21.6,0,0,1,6.642,16.13q0,10.731-8.124,16.837t-21.865,6.1a42.185,42.185,0,0,1-17.377-3.494,27.479,27.479,0,0,1-11.953-9.573,24.5,24.5,0,0,1-4.115-14.084l17.093,0q0,13.689,16.354,13.69,6.077,0,9.484-2.467a8.039,8.039,0,0,0,3.41-6.9" transform="translate(-406.396 -110.32)" fill="#009edb"/>
      <path id="Path_50524" data-name="Path 50524" d="M632.2,258.338a23.623,23.623,0,0,1,3.725-4.793l-12.216-13.393a41.794,41.794,0,0,0-7.753,10.094Z" transform="translate(-518.581 -103.293)" fill="#56c02b"/>
      <path id="Path_50525" data-name="Path 50525" d="M637.768,253.212a23.334,23.334,0,0,1,5.123,3.209l12.247-13.372a41.613,41.613,0,0,0-10.856-6.773Z" transform="translate(-494.203 -107.627)" fill="#dda83a"/>
      <path id="Path_50526" data-name="Path 50526" d="M659.581,246.173l-16.233,8.092A23.243,23.243,0,0,1,644.972,260l18.059-1.7a41.155,41.155,0,0,0-3.45-12.123" transform="translate(-487.965 -96.563)" fill="#c5192d"/>
      <path id="Path_50527" data-name="Path 50527" d="M644.7,258.474l16.229-8.092a41.745,41.745,0,0,0-7.584-10.07l-12.25,13.37a23.616,23.616,0,0,1,3.6,4.793" transform="translate(-490.483 -103.116)" fill="#4c9f38"/>
      <path id="Path_50528" data-name="Path 50528" d="M631.674,255.765c0-.366.013-.731.027-1.093l-18.063-1.618c-.055.9-.091,1.8-.091,2.711a41.562,41.562,0,0,0,1.23,10.047l17.445-5a23.573,23.573,0,0,1-.548-5.043" transform="translate(-521.279 -88.871)" fill="#3f7e44"/>
      <path id="Path_50529" data-name="Path 50529" d="M644.049,261.344a23.673,23.673,0,0,1-4.405,4.143l9.537,15.443a41.934,41.934,0,0,0,9.34-8.673Z" transform="translate(-492.106 -79.604)" fill="#fcc30b"/>
      <path id="Path_50530" data-name="Path 50530" d="M644.518,255.68a23.153,23.153,0,0,1-.538,4.983l17.445,5.013a41.508,41.508,0,0,0,1.22-10c0-.856-.03-1.7-.083-2.55l-18.061,1.7c.011.284.017.561.017.845" transform="translate(-487.259 -88.786)" fill="#ff3a21"/>
      <path id="Path_50531" data-name="Path 50531" d="M632.375,261.507,617.937,272.48a41.906,41.906,0,0,0,9.429,8.541L636.9,265.6a23.679,23.679,0,0,1-4.526-4.09" transform="translate(-516.371 -79.422)" fill="#fd9d24"/>
      <path id="Path_50532" data-name="Path 50532" d="M631.787,259.926a23.159,23.159,0,0,1,1.73-5.818l-16.227-8.086a41.312,41.312,0,0,0-3.583,12.281Z" transform="translate(-521.1 -96.732)" fill="#0a97d9"/>
      <path id="Path_50533" data-name="Path 50533" d="M651.06,279.391l-9.524-15.422a23.284,23.284,0,0,1-5.557,2.26l3.361,17.839a41.3,41.3,0,0,0,11.72-4.676" transform="translate(-496.203 -76.669)" fill="#a21942"/>
      <path id="Path_50534" data-name="Path 50534" d="M644.99,257.88a23.529,23.529,0,0,1-2.535,5.221l14.484,10.924a41.416,41.416,0,0,0,5.481-11.136Z" transform="translate(-488.964 -83.476)" fill="#26bde2"/>
      <path id="Path_50535" data-name="Path 50535" d="M639.763,265.282a23.292,23.292,0,0,1-6.108.085L630.3,283.205a41.746,41.746,0,0,0,12.824-.1Z" transform="translate(-502.556 -75.202)" fill="#fd6925"/>
      <path id="Path_50536" data-name="Path 50536" d="M633.877,252.869a23.211,23.211,0,0,1,5.8,1.12l6.515-16.932a41.323,41.323,0,0,0-12.313-2.332Z" transform="translate(-498.553 -109.36)" fill="#e5243b"/>
      <path id="Path_50537" data-name="Path 50537" d="M638.735,266.259a23.312,23.312,0,0,1-5.752-2.175l-9.541,15.433a41.353,41.353,0,0,0,11.938,4.562Z" transform="translate(-510.218 -76.541)" fill="#dd1367"/>
      <path id="Path_50538" data-name="Path 50538" d="M633.307,253.911a23.189,23.189,0,0,1,5.92-1.053V234.719a41.343,41.343,0,0,0-12.479,2.272Z" transform="translate(-506.522 -109.367)" fill="#19486a"/>
      <path id="Path_50539" data-name="Path 50539" d="M634.665,263.446a23.329,23.329,0,0,1-2.764-5.54l-17.434,5a41.4,41.4,0,0,0,5.758,11.511Z" transform="translate(-520.25 -83.447)" fill="#bf8b2e"/>
      <path id="Path_50540" data-name="Path 50540" d="M632.766,256.187a23.463,23.463,0,0,1,5.026-3.041l-6.557-16.911a41.539,41.539,0,0,0-10.691,6.548Z" transform="translate(-513.457 -107.672)" fill="#00689d"/>
      <path id="Path_50541" data-name="Path 50541" d="M598.547,214.261a3.739,3.739,0,0,0-1.413-3.111,17.62,17.62,0,0,0-4.964-2.308,47.4,47.4,0,0,1-5.809-2.306q-7.335-3.6-7.336-9.905a8.884,8.884,0,0,1,1.828-5.534,11.82,11.82,0,0,1,5.172-3.734,20.142,20.142,0,0,1,7.518-1.334,17.609,17.609,0,0,1,7.3,1.451,11.562,11.562,0,0,1,5.017,4.134,10.814,10.814,0,0,1,1.79,6.133h-9.075a4.561,4.561,0,0,0-1.413-3.577,5.509,5.509,0,0,0-3.825-1.271,6.209,6.209,0,0,0-3.85,1.076,3.168,3.168,0,0,0,.144,5.367,19.554,19.554,0,0,0,5.47,2.436,33.573,33.573,0,0,1,6.43,2.711q6.118,3.526,6.119,9.721a9.216,9.216,0,0,1-3.734,7.779q-3.733,2.827-10.24,2.825a20.327,20.327,0,0,1-8.311-1.646,12.54,12.54,0,0,1-5.6-4.511,11.756,11.756,0,0,1-1.881-6.6h9.126a5.789,5.789,0,0,0,1.569,4.473q1.569,1.439,5.1,1.44a5.874,5.874,0,0,0,3.564-.972,3.214,3.214,0,0,0,1.309-2.736" transform="translate(-561.146 -163.796)" fill="#009edb"/>
      <path id="Path_50542" data-name="Path 50542" d="M624.067,186.273V210.98a14.206,14.206,0,0,1-1.792,7.273,11.578,11.578,0,0,1-5.129,4.68,18.1,18.1,0,0,1-7.908,1.607q-6.9,0-10.865-3.577t-4.043-9.8V186.273h9.149v25.071q.156,6.195,5.758,6.195a5.568,5.568,0,0,0,4.276-1.554q1.452-1.557,1.451-5.055V186.273Z" transform="translate(-542.76 -163.522)" fill="#009edb"/>
      <path id="Path_50543" data-name="Path 50543" d="M631.4,214.261a3.739,3.739,0,0,0-1.413-3.111,17.619,17.619,0,0,0-4.964-2.308,47.4,47.4,0,0,1-5.809-2.306q-7.335-3.6-7.336-9.905a8.884,8.884,0,0,1,1.828-5.534,11.82,11.82,0,0,1,5.172-3.734,20.141,20.141,0,0,1,7.518-1.334,17.608,17.608,0,0,1,7.3,1.451,11.563,11.563,0,0,1,5.017,4.134,10.815,10.815,0,0,1,1.79,6.133h-9.075a4.561,4.561,0,0,0-1.413-3.577,5.51,5.51,0,0,0-3.825-1.271,6.209,6.209,0,0,0-3.85,1.076,3.168,3.168,0,0,0,.144,5.367,19.556,19.556,0,0,0,5.47,2.436,33.575,33.575,0,0,1,6.43,2.711q6.118,3.526,6.119,9.721a9.216,9.216,0,0,1-3.734,7.779q-3.733,2.827-10.24,2.825a20.326,20.326,0,0,1-8.311-1.646,12.528,12.528,0,0,1-5.6-4.511,11.755,11.755,0,0,1-1.881-6.6h9.126a5.789,5.789,0,0,0,1.569,4.473q1.569,1.439,5.1,1.44a5.874,5.874,0,0,0,3.564-.972,3.214,3.214,0,0,0,1.309-2.736" transform="translate(-524.418 -163.796)" fill="#009edb"/>
      <path id="Path_50544" data-name="Path 50544" d="M657.893,193.3H646.563v30.724h-9.1V193.3H626.341v-7.027h31.552Z" transform="translate(-506.976 -163.523)" fill="#009edb"/>
      <path id="Path_50545" data-name="Path 50545" d="M664.82,216.971H652.35l-2.179,7.05H640.45l13.844-37.749h8.556L676.8,224.022h-9.774Zm-10.293-7.027h8.116l-4.071-13.093Z" transform="translate(-491.205 -163.522)" fill="#009edb"/>
      <rect id="Rectangle_11639" data-name="Rectangle 11639" width="9.073" height="37.749" transform="translate(189.495 22.75)" fill="#009edb"/>
      <path id="Path_50546" data-name="Path 50546" d="M698.5,224.021h-9.048l-13.379-23.489v23.489h-9.1V186.273h9.1l13.353,23.489V186.273H698.5Z" transform="translate(-461.552 -163.523)" fill="#009edb"/>
      <path id="Path_50547" data-name="Path 50547" d="M708.038,216.971h-12.47l-2.179,7.05h-9.721l13.844-37.749h8.556l13.948,37.749h-9.774Zm-10.293-7.027h8.116l-4.071-13.093Z" transform="translate(-442.894 -163.522)" fill="#009edb"/>
      <path id="Path_50548" data-name="Path 50548" d="M702.379,224.022V186.273H715.94q7.284,0,11.083,2.671a8.882,8.882,0,0,1,3.8,7.751,8.974,8.974,0,0,1-1.347,5,7.851,7.851,0,0,1-3.967,3.06,7.961,7.961,0,0,1,4.536,2.9,8.441,8.441,0,0,1,1.582,5.185q0,5.55-3.513,8.336t-10.409,2.84Zm9.1-22.011h4.744a6.752,6.752,0,0,0,4.253-1.093,3.883,3.883,0,0,0,1.271-3.147,4.075,4.075,0,0,0-1.374-3.446,7.366,7.366,0,0,0-4.433-1.053h-4.46Zm0,5.962v9.047h5.962a5.672,5.672,0,0,0,3.787-1.127,3.949,3.949,0,0,0,1.322-3.177q0-4.718-4.693-4.744Z" transform="translate(-421.977 -163.522)" fill="#009edb"/>
      <path id="Path_50549" data-name="Path 50549" d="M727.9,217.022h15.839v7H718.8V186.273h9.1Z" transform="translate(-403.62 -163.523)" fill="#009edb"/>
      <path id="Path_50550" data-name="Path 50550" d="M756.053,208h-14.31v9.022h16.9v7H732.64V186.272H758.7V193.3H741.743v7.959h14.31Z" transform="translate(-388.15 -163.523)" fill="#009edb"/>
      <path id="Path_50551" data-name="Path 50551" d="M578.429,247.726V210.74h11.913a17.532,17.532,0,0,1,8.814,2.222,15.62,15.62,0,0,1,6.11,6.275,18.978,18.978,0,0,1,2.224,9.081v1.7a19.055,19.055,0,0,1-2.147,9.109,15.706,15.706,0,0,1-6.044,6.3,17.151,17.151,0,0,1-8.7,2.3Zm8.916-30.1v23.243h3.1a6.942,6.942,0,0,0,5.894-2.73q2.059-2.732,2.059-8.118v-1.6q0-5.359-2.059-8.077a7.056,7.056,0,0,0-6-2.719Z" transform="translate(-560.536 -136.172)" fill="#009edb"/>
      <path id="Path_50552" data-name="Path 50552" d="M615.834,232.027H602.741v8.84h15.634v6.86h-24.55V210.74h24.6v6.883H602.741v7.8h13.093Z" transform="translate(-543.325 -136.172)" fill="#009edb"/>
      <path id="Path_50553" data-name="Path 50553" d="M623.739,237.666l7.368-26.926h9.958l-12.449,36.986h-9.755L606.516,210.74H616.4Z" transform="translate(-529.138 -136.172)" fill="#009edb"/>
      <path id="Path_50554" data-name="Path 50554" d="M645.982,232.027H633.016v8.84h15.507v6.86H624.1V210.74h24.472v6.883H633.016v7.8h12.966Z" transform="translate(-509.482 -136.172)" fill="#009edb"/>
      <path id="Path_50555" data-name="Path 50555" d="M645.995,240.866h14.111v6.86H637.079V210.74h8.916Z" transform="translate(-494.974 -136.172)" fill="#009edb"/>
      <path id="Path_50556" data-name="Path 50556" d="M680.7,230.263a21.8,21.8,0,0,1-2.008,9.577,14.8,14.8,0,0,1-5.7,6.413,15.867,15.867,0,0,1-8.421,2.249,16.121,16.121,0,0,1-8.383-2.171,14.83,14.83,0,0,1-5.7-6.212,21.213,21.213,0,0,1-2.145-9.272v-2.084a21.9,21.9,0,0,1,1.993-9.59,14.8,14.8,0,0,1,5.716-6.413,15.982,15.982,0,0,1,8.471-2.262,15.822,15.822,0,0,1,8.382,2.236,15.054,15.054,0,0,1,5.729,6.362,21.278,21.278,0,0,1,2.071,9.463Zm-9.069-1.55q0-5.512-1.843-8.37a5.9,5.9,0,0,0-5.271-2.857q-6.706,0-7.086,10.06l-.025,2.717q0,5.435,1.8,8.357a5.9,5.9,0,0,0,5.36,2.921,5.827,5.827,0,0,0,5.208-2.87q1.83-2.872,1.855-8.255Z" transform="translate(-482.392 -136.441)" fill="#009edb"/>
      <path id="Path_50557" data-name="Path 50557" d="M674.2,235.176v12.55h-8.916V210.74h14.759a17.185,17.185,0,0,1,7.506,1.563,11.777,11.777,0,0,1,5.055,4.443,12.144,12.144,0,0,1,1.79,6.542,10.7,10.7,0,0,1-3.874,8.649q-3.872,3.237-10.63,3.238Zm0-6.883h5.843A5.51,5.51,0,0,0,684,227a4.815,4.815,0,0,0,1.36-3.658,5.95,5.95,0,0,0-1.4-4.14,4.957,4.957,0,0,0-3.812-1.576H674.2Z" transform="translate(-463.441 -136.172)" fill="#009edb"/>
      <path id="Path_50558" data-name="Path 50558" d="M692.288,210.74l8.255,25.732,8.23-25.732H720.51v36.986h-8.942v-8.637l.864-17.68-8.942,26.316H697.6l-8.967-26.342.864,17.705v8.637h-8.918V210.74Z" transform="translate(-446.35 -136.172)" fill="#009edb"/>
      <path id="Path_50559" data-name="Path 50559" d="M723.354,232.027H710.223v8.84H725.9v6.86H701.307V210.74h24.637v6.883H710.223v7.8h13.131Z" transform="translate(-423.175 -136.172)" fill="#009edb"/>
      <path id="Path_50560" data-name="Path 50560" d="M745.222,247.726h-8.867L723.25,224.711v23.015h-8.916V210.74h8.916l13.082,23.015V210.74h8.891Z" transform="translate(-408.614 -136.172)" fill="#009edb"/>
      <path id="Path_50561" data-name="Path 50561" d="M761.26,217.623h-11.1v30.1h-8.916v-30.1h-10.9V210.74H761.26Z" transform="translate(-390.714 -136.172)" fill="#009edb"/>
    </g>
  </g>
</svg>
