<svg xmlns="http://www.w3.org/2000/svg" width="188.045" height="95.893" viewBox="0 0 188.045 95.893">
  <g id="icon" transform="translate(-118.955 -1190.107)">
    <g id="Group_23064" data-name="Group 23064" transform="translate(-155.107 12.335)">
      <circle id="Ellipse_168" data-name="Ellipse 168" cx="25" cy="25" r="25" transform="translate(331.107 1214.665)" fill="#bf675d" opacity="0.15"/>
      <text id="Arab-Africa" transform="translate(352.107 1245.665)" fill="#5e5e59" font-size="9" font-family="Roboto-Black, Roboto" font-weight="800"><tspan x="0" y="0">ARAB-AFRICA</tspan></text>
      <text id="Program" transform="translate(398.107 1271.665)" fill="#5e5e59" font-size="8" font-family="Roboto-Black, Roboto" font-weight="800" letter-spacing="0.5em"><tspan x="0" y="0">PROGRAM</tspan></text>
      <text id="Trade_Bridges" data-name="Trade Bridges" transform="translate(352.107 1261.665)" fill="#d5313a" font-size="16" font-family="Roboto-Bold, Roboto" font-weight="700" letter-spacing="-0.052em"><tspan x="0" y="0">TRADE BRIDGES</tspan></text>
      <g id="Group_23066" data-name="Group 23066" transform="translate(2.091 0.922)">
        <path id="Path_338" data-name="Path 338" d="M435.2,1256.077v-75.2L415,1173.7v82.372" transform="translate(-91.264 5)" fill="none" stroke="#d5313a" stroke-linecap="round" stroke-linejoin="round" stroke-width="3"/>
        <path id="Path_340" data-name="Path 340" d="M431.754,1225.214v-47.3L415,1173.7v51.509" transform="translate(-141.473 35.863)" fill="none" stroke="#d5313a" stroke-linecap="round" stroke-linejoin="round" stroke-width="3"/>
        <path id="Path_339" data-name="Path 339" d="M429.637,1252.513v-63.77s-.217-4.274-6.014-4.5-5.573,6.3-5.573,6.3v61.968" transform="translate(-90.236 8.565)" fill="none" stroke="#d5313a" stroke-linecap="round" stroke-linejoin="round" stroke-width="3"/>
        <path id="Path_341" data-name="Path 341" d="M425.294,1227.1v-38.75a4.633,4.633,0,0,0-4.253-3.151,2.777,2.777,0,0,0-2.993,3.151v38.75" transform="translate(-139.91 33.98)" fill="none" stroke="#d5313a" stroke-linecap="round" stroke-linejoin="round" stroke-width="3"/>
        <path id="Path_342" data-name="Path 342" d="M439.363,1173.7s-20.032,69.784-50.079,65.772" transform="translate(-115.627 5)" fill="none" stroke="#d5313a" stroke-linecap="round" stroke-width="3"/>
        <path id="Path_343" data-name="Path 343" d="M430.774,1205.923s-17.27,24.191-33.124,24.465" transform="translate(-107.078 11.936)" fill="none" stroke="#d5313a" stroke-linecap="round" stroke-width="3"/>
        <path id="Path_344" data-name="Path 344" d="M322.811,1220.668s-4.383,1.705-9.361-1.823" transform="translate(-15.967 14.46)" fill="none" stroke="#d5313a" stroke-linecap="round" stroke-width="3"/>
        <path id="Path_345" data-name="Path 345" d="M11.265.419C10.618,5.536,0,17.715,0,17.715" transform="matrix(1, -0.017, 0.017, 1, 327.802, 1197.047)" fill="none" stroke="#d5313a" stroke-linecap="round" stroke-width="3"/>
      </g>
    </g>
  </g>
</svg>
