<svg xmlns="http://www.w3.org/2000/svg" width="88.479" height="85.723" viewBox="0 0 88.479 85.723">
  <g id="icon" transform="translate(-1176.108 -1076.675)">
    <circle id="Ellipse_167" data-name="Ellipse 167" cx="25" cy="25" r="25" transform="translate(1196.031 1091.603)" fill="#b29f56" opacity="0.15"/>
    <g id="Group_23062" data-name="Group 23062" transform="translate(1176.574 1129.504)">
      <path id="Path_320" data-name="Path 320" d="M1179.574,1157.423s12.022-.486,15.03,0,25.838,8.141,32.37,8.141,34.458-22.978,34.458-22.978a4.908,4.908,0,0,0,0-6.3c-2.57-3.526-5.743-1.576-5.743-1.576l-19.056,9.848" transform="translate(-1176.574 -1134.17)" fill="none" stroke="#b29f56" stroke-linecap="round" stroke-width="3"/>
      <path id="Path_321" data-name="Path 321" d="M1212.928,1136.866h7.445c2.516,0,8.061-3.418,14.658-2.236s11.729,6.963,11.729,6.963h14.1s3.88.656,3.88,5.515-3.88,5.909-3.88,5.909H1241.2" transform="translate(-1204.928 -1134.096)" fill="none" stroke="#b29f56" stroke-linecap="round" stroke-width="3"/>
    </g>
    <g id="Group_23063" data-name="Group 23063" transform="translate(1178.031 1079.078)">
      <path id="Path_323" data-name="Path 323" d="M1207.68,1094.185s1.581,6.527-.591,11.223-8.1,6.852-8.1,6.852-2.172-6.172,0-10.868S1207.68,1094.185,1207.68,1094.185Z" transform="translate(-1177.696 -1079.772)" fill="none" stroke="#b29f56" stroke-linecap="round" stroke-linejoin="round" stroke-width="3"/>
      <path id="Path_328" data-name="Path 328" d="M1207.816,1094.185s1.581,6.527-.591,11.223-8.1,6.852-8.1,6.852-1.264-5.976.908-10.672S1207.816,1094.185,1207.816,1094.185Z" transform="translate(-1157.789 -1086.293)" fill="none" stroke="#b29f56" stroke-linecap="round" stroke-linejoin="round" stroke-width="3"/>
      <path id="Path_325" data-name="Path 325" d="M.556,0s-1.581,6.527.591,11.223,8.1,6.852,8.1,6.852,2.172-6.173,0-10.868S.556,0,.556,0Z" transform="matrix(0.788, -0.616, 0.616, 0.788, 30.827, 29.734)" fill="none" stroke="#b29f56" stroke-linecap="round" stroke-linejoin="round" stroke-width="3"/>
      <path id="Path_329" data-name="Path 329" d="M.556,0s-1.581,6.527.591,11.223,8.1,6.852,8.1,6.852,2.172-6.173,0-10.868S.556,0,.556,0Z" transform="matrix(0.788, -0.616, 0.616, 0.788, 51.206, 23.213)" fill="none" stroke="#b29f56" stroke-linecap="round" stroke-linejoin="round" stroke-width="3"/>
      <path id="Path_330" data-name="Path 330" d="M.556,18.074s-1.581-6.527.591-11.223S9.242,0,9.242,0s2.172,6.173,0,10.868S.556,18.074.556,18.074Z" transform="translate(60.721 22.705) rotate(-180)" fill="none" stroke="#b29f56" stroke-linecap="round" stroke-linejoin="round" stroke-width="3"/>
      <path id="Path_331" data-name="Path 331" d="M.547,17.8s-1.557-6.426.582-11.05S9.1,0,9.1,0s2.138,6.078,0,10.7S.547,17.8.547,17.8Z" transform="matrix(-0.719, -0.695, 0.695, -0.719, 62.989, 27.192)" fill="none" stroke="#b29f56" stroke-linecap="round" stroke-linejoin="round" stroke-width="3"/>
      <path id="Path_327" data-name="Path 327" d="M.556,0s-1.581,6.527.591,11.223,8.1,6.852,8.1,6.852,2.172-6.173,0-10.868S.556,0,.556,0Z" transform="matrix(0.788, -0.616, 0.616, 0.788, 40.955, 26.473)" fill="none" stroke="#b29f56" stroke-linecap="round" stroke-linejoin="round" stroke-width="3"/>
      <path id="Path_324" data-name="Path 324" d="M1208.962,1125.96c3.9,2.245,8.506,0,8.506,0s-2.17-5.759-6.734-8.033-11.522-1.063-11.522-1.063a15.43,15.43,0,0,0,4.906,7.206" transform="translate(-1177.939 -1083.905)" fill="none" stroke="#b29f56" stroke-linecap="round" stroke-linejoin="round" stroke-width="3"/>
      <path id="Path_326" data-name="Path 326" d="M5.684,10.555A8.9,8.9,0,0,1,0,9.419S2.17,3.659,6.734,1.385,18.255.322,18.255.322s-2.128,6.44-8.061,9.353" transform="matrix(-0.819, 0.574, -0.574, -0.819, 46.301, 18.853)" fill="none" stroke="#b29f56" stroke-linecap="round" stroke-linejoin="round" stroke-width="3"/>
      <path id="Path_332" data-name="Path 332" d="M1262.784,1075.952s-12.536,3.533-15.962,5.305" transform="translate(-1187.088 -1076.504)" fill="none" stroke="#b29f56" stroke-linecap="round" stroke-width="3"/>
      <path id="Path_333" data-name="Path 333" d="M1264.875,1082.881l-16.893,5.434" transform="translate(-1187.302 -1077.683)" fill="none" stroke="#b29f56" stroke-linecap="round" stroke-width="3"/>
      <path id="Path_334" data-name="Path 334" d="M1270.8,1091.576l-5.57,1.89" transform="translate(-1190.489 -1079.29)" fill="none" stroke="#b29f56" stroke-linecap="round" stroke-width="3"/>
      <path id="Path_335" data-name="Path 335" d="M1270.8,1100.69s-14.466,6.093-15.057,6.211" transform="translate(-1188.736 -1080.975)" fill="none" stroke="#b29f56" stroke-linecap="round" stroke-width="3"/>
      <path id="Path_336" data-name="Path 336" d="M1273.774,1106.938s-11.341,5.671-15.357,6.734" transform="translate(-1189.23 -1082.129)" fill="none" stroke="#b29f56" stroke-linecap="round" stroke-width="3"/>
      <path id="Path_337" data-name="Path 337" d="M1285.139,1212.545s-7.5,5.08-21.438,0" transform="translate(-1263.702 -1179.703)" fill="none" stroke="#b29f56" stroke-linecap="round" stroke-width="3"/>
    </g>
  </g>
</svg>
