<svg xmlns="http://www.w3.org/2000/svg" width="18" height="17.999" viewBox="0 0 18 17.999">
  <path id="cycle-icon" d="M5.878,15.436a6.832,6.832,0,0,1,.14-9.451A6.666,6.666,0,0,1,9.766,4.08L9.69,1.8A8.9,8.9,0,0,0,4.425,4.38,9.108,9.108,0,0,0,4.29,17.036L2.379,18.959l6.047.33-.016-6.4-2.532,2.55Zm7.3-13.125.016,6.4,2.532-2.548a6.832,6.832,0,0,1-.14,9.451,6.662,6.662,0,0,1-3.747,1.905L11.91,19.8a8.914,8.914,0,0,0,5.266-2.579A9.109,9.109,0,0,0,17.31,4.565L19.221,2.64Z" transform="translate(-1.8 -1.8)" fill="#1d1d1b"/>
</svg>
