<svg xmlns="http://www.w3.org/2000/svg" width="16" height="15.999" viewBox="0 0 16 15.999">
  <path id="cycle" d="M5.425,13.92a6.073,6.073,0,0,1,.125-8.4A5.926,5.926,0,0,1,8.881,3.826L8.813,1.8a7.914,7.914,0,0,0-4.68,2.294,8.1,8.1,0,0,0-.12,11.249l-1.7,1.709,5.375.294-.015-5.691L5.425,13.92ZM11.91,2.254l.015,5.691L14.175,5.68a6.073,6.073,0,0,1-.125,8.4,5.922,5.922,0,0,1-3.331,1.694l.067,2.025a7.924,7.924,0,0,0,4.681-2.293,8.1,8.1,0,0,0,.119-11.249l1.7-1.711Z" transform="translate(-1.8 -1.8)" fill="#fe9e36"/>
</svg>
