<svg xmlns="http://www.w3.org/2000/svg" width="62" height="62" viewBox="0 0 62 62">
  <g id="dollar-raduis-icon" transform="translate(5.325 4.763)">
    <g id="Group_23749" data-name="Group 23749" transform="translate(-5 -4.763)">
      <g id="Group_23748" data-name="Group 23748" transform="translate(0 0)">
        <circle id="Ellipse_11710" data-name="Ellipse 11710" cx="31" cy="31" r="31" transform="translate(-0.325)" fill="#edeff9"/>
        <path id="Path_46901" data-name="Path 46901" d="M18.613-1.533a4.41,4.41,0,0,0-1.1-3.144,9.936,9.936,0,0,0-3.722-2.156A43.914,43.914,0,0,1,9.265-8.8,14.429,14.429,0,0,1,6-11.038a9,9,0,0,1-2.12-2.975,9.985,9.985,0,0,1-.759-4.072,9.035,9.035,0,0,1,2.6-6.673,10.98,10.98,0,0,1,6.914-3.036v-5.156h3.855v5.228a10.061,10.061,0,0,1,6.673,3.554,11.709,11.709,0,0,1,2.409,7.649H18.613a6.647,6.647,0,0,0-1.193-4.325,3.94,3.94,0,0,0-3.192-1.433,4.06,4.06,0,0,0-3.06,1.12,4.265,4.265,0,0,0-1.084,3.1,4.075,4.075,0,0,0,1.06,2.939,11.68,11.68,0,0,0,3.939,2.265,43.748,43.748,0,0,1,4.734,2.18A13.664,13.664,0,0,1,22.95-8.363,8.957,8.957,0,0,1,24.9-5.424a10.105,10.105,0,0,1,.675,3.843,8.994,8.994,0,0,1-2.554,6.649,11.2,11.2,0,0,1-7.035,3.011v4.794H12.156V8.1A11.589,11.589,0,0,1,4.507,4.6,11.3,11.3,0,0,1,1.8-3.316H8.759a6.406,6.406,0,0,0,1.361,4.4,4.966,4.966,0,0,0,3.915,1.53,4.782,4.782,0,0,0,3.349-1.12A3.89,3.89,0,0,0,18.613-1.533Z" transform="translate(17.151 40.875)" fill="#d5313a"/>
      </g>
    </g>
  </g>
</svg>
