<svg xmlns="http://www.w3.org/2000/svg" width="18.041" height="18.037" viewBox="0 0 18.041 18.037">
  <path id="export-icon" d="M8.053,7.151l2.066-2.075v8.651a.9.9,0,0,0,1.8,0V5.077l2.066,2.075A.906.906,0,1,0,15.269,5.87L11.661,2.262a.933.933,0,0,0-1.281,0L6.772,5.87A.906.906,0,0,0,8.053,7.151Zm11.086,5.674a.9.9,0,0,0-.9.9v3.608a.9.9,0,0,1-.9.9H4.706a.9.9,0,0,1-.9-.9V13.727a.9.9,0,0,0-1.8,0v3.608a2.706,2.706,0,0,0,2.706,2.706H17.335a2.706,2.706,0,0,0,2.706-2.706V13.727A.9.9,0,0,0,19.139,12.825Z" transform="translate(-2 -2.005)" fill="#fff"/>
</svg>
