<svg xmlns="http://www.w3.org/2000/svg" width="16.015" height="16.461" viewBox="0 0 16.015 16.461">
  <g id="flag" transform="translate(0.001 0.002)">
    <g id="Group_23749" data-name="Group 23749" transform="translate(-0.001 -0.002)">
      <path id="Path_46871" data-name="Path 46871" d="M0,0H16.015V16.015H0Z" transform="translate(0.001 0.446)" fill="none"/>
      <g id="Group_23748" data-name="Group 23748" transform="translate(0 0)">
        <path id="Path_6558" data-name="Path 6558" d="M10.515,2.5c-1.537,0-2.918-1-5.064-1a6.94,6.94,0,0,0-2.525.474A1.5,1.5,0,1,0,.751,2.8V15.514a.5.5,0,0,0,.5.5h.5a.5.5,0,0,0,.5-.5v-3.5a8.608,8.608,0,0,1,4-.89c1.537,0,2.918,1,5.064,1a7.267,7.267,0,0,0,4.021-1.251,1.5,1.5,0,0,0,.679-1.256V3a1.5,1.5,0,0,0-2.093-1.38,8.946,8.946,0,0,1-3.407.881Zm4,7.118a5.883,5.883,0,0,1-3.2,1c-1.875,0-3.19-1-5.064-1a10.729,10.729,0,0,0-4,.751V4a5.884,5.884,0,0,1,3.2-1c1.875,0,3.19,1,5.064,1a10.7,10.7,0,0,0,4-1Z" transform="translate(0.001 0.002)" fill="#1d1d1b"/>
      </g>
    </g>
  </g>
</svg>
