<svg xmlns="http://www.w3.org/2000/svg" width="62" height="62" viewBox="0 0 62 62">
  <g id="handshake-raduis-icon" transform="translate(5.325 4.763)">
    <g id="Group_23749" data-name="Group 23749" transform="translate(-5 -4.763)">
      <g id="Group_23748" data-name="Group 23748" transform="translate(0 0)">
        <circle id="Ellipse_11710" data-name="Ellipse 11710" cx="31" cy="31" r="31" transform="translate(-0.325)" fill="#edeff9"/>
        <g id="XMLID_1321_" transform="translate(8.675 -43.46)">
          <g id="XMLID_396_" transform="translate(0 57.647)">
            <path id="XMLID_429_" d="M43.126,69.076l-4.953-8.567a.848.848,0,0,0-1.468.848l4.953,8.567a.331.331,0,0,1-.121.452L38.548,72.1a.331.331,0,0,1-.452-.121L32.082,61.564a.331.331,0,0,1,.121-.452l2.989-1.726a.331.331,0,0,1,.452.121l1.069,1.852a.848.848,0,0,0,1.468-.848L37.113,58.66a2.028,2.028,0,0,0-2.768-.742l-2.989,1.726a2.019,2.019,0,0,0-.916,1.139H21.965a4.426,4.426,0,0,0-3.15,1.3l-.868.868a10.028,10.028,0,0,0-2.326-.275H12.99a2.02,2.02,0,0,0-.947-1.247L9.054,59.708a2.026,2.026,0,0,0-2.768.742L.272,70.866a2.026,2.026,0,0,0,.742,2.768L4,75.359a2.013,2.013,0,0,0,1.01.271,2.039,2.039,0,0,0,.372-.035l2.447,2.447a3.083,3.083,0,0,0-.057.59,3.046,3.046,0,0,0,2.88,3.043,3.1,3.1,0,0,0-.017.322,3.049,3.049,0,0,0,3.049,3.049l.066,0c0,.022,0,.044,0,.066A3.049,3.049,0,0,0,16.8,88.16l.066,0c0,.022,0,.044,0,.066A3.049,3.049,0,0,0,22.07,90.38l1.206-1.206a3.03,3.03,0,0,0,.744-1.219,3.052,3.052,0,0,0,4.722-1.55,3.051,3.051,0,0,0,4.651-1.94,3.05,3.05,0,0,0,3.118-5.051l-1.978-1.978,3.611-3.611a2.04,2.04,0,0,0,.242.015,2.014,2.014,0,0,0,1.01-.271l2.989-1.726a2.026,2.026,0,0,0,.742-2.768ZM1.861,72.165a.331.331,0,0,1-.121-.452L7.754,61.3a.329.329,0,0,1,.2-.154.34.34,0,0,1,.087-.011.326.326,0,0,1,.164.044L11.2,62.9a.331.331,0,0,1,.121.452L5.3,73.77a.331.331,0,0,1-.452.121ZM9.47,78.632a1.345,1.345,0,0,1,.4-.958l.731-.731a1.354,1.354,0,1,1,1.915,1.915l-.731.731a1.354,1.354,0,0,1-2.312-.957Zm4.217,4.719a1.354,1.354,0,0,1-.957-2.312l1.206-1.206a1.354,1.354,0,1,1,1.915,1.915l-1.206,1.206A1.345,1.345,0,0,1,13.687,83.351ZM16.8,86.465a1.354,1.354,0,0,1-.957-2.312l1.206-1.206a1.354,1.354,0,1,1,1.915,1.915l-1.206,1.206A1.345,1.345,0,0,1,16.8,86.465Zm5.277,1.511-1.206,1.206a1.354,1.354,0,1,1-1.915-1.915l1.206-1.206a1.354,1.354,0,1,1,1.915,1.915Zm13.235-5.448a1.354,1.354,0,0,1-1.915,0l-6.624-6.05a.848.848,0,0,0-1.2,1.2l5.789,5.215a1.354,1.354,0,1,1-1.915,1.915l-4.577-4.194a.848.848,0,0,0-1.2,1.2l3.114,2.731a1.354,1.354,0,1,1-1.915,1.915l-1.6-1.6-.007-.006a3.04,3.04,0,0,0-2.215-.884c0-.022,0-.045,0-.067a3.045,3.045,0,0,0-3.115-3.046c0-.022,0-.045,0-.067a3.047,3.047,0,0,0-3.34-3.034,3.049,3.049,0,0,0-5.2-2.013l-.731.731,0,0L6.783,74.6l5.9-10.22h2.938a8.324,8.324,0,0,1,.86.045l-.969.969A3.049,3.049,0,0,0,19.825,69.7l2.288-2.288,13.2,13.2a1.356,1.356,0,0,1,0,1.915ZM27.169,70.072a4.81,4.81,0,0,0,1.99-3.9.848.848,0,1,0-1.7,0,3.115,3.115,0,0,1-1.518,2.675L22.717,65.62a.847.847,0,0,0-1.2-.009L18.626,68.5a1.354,1.354,0,1,1-1.915-1.915l3.3-3.3a2.741,2.741,0,0,1,1.951-.808h8.688l5.975,10.349c.014.025.03.048.045.071l-3.338,3.338Z" transform="translate(0 -57.647)" fill="#d5313a"/>
            <path id="XMLID_436_" d="M455.156,127.109a.848.848,0,1,0-.6-.248A.856.856,0,0,0,455.156,127.109Z" transform="translate(-415.801 -114.509)" fill="#d5313a"/>
            <path id="XMLID_436_2" data-name="XMLID_436_" d="M455.156,127.109a.848.848,0,1,0-.6-.248A.856.856,0,0,0,455.156,127.109Z" transform="translate(-451.069 -112.788)" fill="#d5313a"/>
          </g>
        </g>
      </g>
    </g>
  </g>
</svg>
