<svg xmlns="http://www.w3.org/2000/svg" width="188.045" height="95.893" viewBox="0 0 188.045 95.893"><defs><style>.a{fill:#bf675d;opacity:0.15;}.b,.c{fill:#5e5e59;font-family:Roboto-Black, Roboto;font-weight:800;}.b{font-size:9px;}.c{font-size:8px;letter-spacing:0.5em;}.d{fill:#d5313a;font-size:16px;font-family:Roboto-Bold, Roboto;font-weight:700;letter-spacing:-0.052em;}.e,.f{fill:none;stroke:#d5313a;stroke-linecap:round;stroke-width:3px;}.e{stroke-linejoin:round;}</style></defs><g transform="translate(-118.955 -1190.107)"><g transform="translate(-155.107 12.335)"><circle class="a" cx="25" cy="25" r="25" transform="translate(331.107 1214.665)"/><text class="b" transform="translate(352.107 1245.665)"><tspan x="0" y="0">ARAB-AFRICA</tspan></text><text class="c" transform="translate(398.107 1271.665)"><tspan x="0" y="0">PROGRAM</tspan></text><text class="d" transform="translate(352.107 1261.665)"><tspan x="0" y="0">TRADE BRIDGES</tspan></text><g transform="translate(2.091 0.922)"><path class="e" d="M435.2,1256.077v-75.2L415,1173.7v82.372" transform="translate(-91.264 5)"/><path class="e" d="M431.754,1225.214v-47.3L415,1173.7v51.509" transform="translate(-141.473 35.863)"/><path class="e" d="M429.637,1252.513v-63.77s-.217-4.274-6.014-4.5-5.573,6.3-5.573,6.3v61.968" transform="translate(-90.236 8.565)"/><path class="e" d="M425.294,1227.1v-38.75a4.633,4.633,0,0,0-4.253-3.151,2.777,2.777,0,0,0-2.993,3.151v38.75" transform="translate(-139.91 33.98)"/><path class="f" d="M439.363,1173.7s-20.032,69.784-50.079,65.772" transform="translate(-115.627 5)"/><path class="f" d="M430.774,1205.923s-17.27,24.191-33.124,24.465" transform="translate(-107.078 11.936)"/><path class="f" d="M322.811,1220.668s-4.383,1.705-9.361-1.823" transform="translate(-15.967 14.46)"/><path class="f" d="M11.265.419C10.618,5.536,0,17.715,0,17.715" transform="matrix(1, -0.017, 0.017, 1, 327.802, 1197.047)"/></g></g></g></svg>