<svg xmlns="http://www.w3.org/2000/svg" width="97.587" height="88.423" viewBox="0 0 97.587 88.423"><defs><style>.a{fill:#fe9e36;opacity:0.15;}.b{fill:none;stroke:#f36b21;stroke-width:3px;}</style></defs><g transform="translate(-6.509 1.35)"><circle class="a" cx="25" cy="25" r="25" transform="translate(54.096 15.041)"/><path class="b" d="M87.668,30.907H83.514a3.117,3.117,0,0,1-3.022-2h0L74.005,11.155a4.578,4.578,0,0,0-3.981-2.811h0C65.23,7.758,59,6.2,56.731,6.2c-2.793,0-4.512.859-8.594.859S41.906,1.9,40.4.4,31.594,2.118,27.3,2.118s-9.023,2.793-9.023,6.445-4.082,6.016-8.594,10.527,1.4,15.361,4.727,18.691S22.14,41.864,27.3,39.716,34.279,38.534,36.75,41s2.578,6.016,5.586,9.023,1.5,14.18,1.5,19.121,4.082,11.172,7.3,14.395,3.652,2.148,8.594,0,8.809-12.461,13.32-16.973S76.711,55.4,76.711,51.532,85.09,40.145,89.386,35.848,87.668,30.907,87.668,30.907Z" transform="translate(0 0)"/><path class="b" d="M442.239,358.722c1.585.736,2.041,2.471.967,4.941s2.847,7.036-.967,10.85-4.834,2.256-7.09,0-2.524-3.813-1.289-5.049,1.128-5.64,2.685-7.2S439.231,357.326,442.239,358.722Z" transform="translate(-354.034 -298.489)"/></g></svg>