<svg xmlns="http://www.w3.org/2000/svg" width="39.358" height="39.358" viewBox="0 0 39.358 39.358">
  <g id="logo-art" transform="translate(-243.929 -207.346)">
    <g id="Group_1" data-name="Group 1" transform="translate(243.929 207.346)">
      <path id="Path_1" data-name="Path 1" d="M328.722,310.948a36.323,36.323,0,0,0-10.58-7.9l-.414-.209-.258.391c-.513.789-.629.9-1.084,1.725.247.448.477.889.707,1.344a18.394,18.394,0,0,1,1.071-1.837q1.412.742,2.746,1.615a36.206,36.206,0,0,0,1.577,8.522c.049.155.175.1.627-.082.5-.2.579-.226.535-.381a43.752,43.752,0,0,1-1.362-7.116,42.033,42.033,0,0,1,5.451,4.706c.113.114.177.056.6-.275C328.722,311.15,328.829,311.068,328.722,310.948Z" transform="translate(-296.264 -276.32)" fill="#ae8268"/>
      <path id="Path_2" data-name="Path 2" d="M345.965,297.605a36.333,36.333,0,0,0-13.112-1.552l-.462.026-.029.467a20.284,20.284,0,0,0-.077,2.037c.437.263.857.53,1.284.81a18.344,18.344,0,0,1,.01-2.126c1.063-.043,2.126-.032,3.186.025a36.158,36.158,0,0,0,5.626,6.592c.12.11.2,0,.5-.384.33-.422.388-.487.273-.6a43.632,43.632,0,0,1-4.738-5.483,42.044,42.044,0,0,1,7.074,1.352c.156.042.182-.042.382-.539C346.066,297.781,346.118,297.655,345.965,297.605Z" transform="translate(-307.746 -271.369)" fill="#c48a65"/>
      <path id="Path_3" data-name="Path 3" d="M352.082,271.248a43.909,43.909,0,0,1-6.844-2.379,42.03,42.03,0,0,1,6.8-2.368c.154-.041.137-.126.061-.657-.069-.483-.086-.618-.245-.584a36.329,36.329,0,0,0-12.13,5.212l-.387.254.209.418a20.345,20.345,0,0,0,.952,1.8c.511.009,1.008.031,1.517.059a18.562,18.562,0,0,1-1.056-1.846q1.348-.853,2.773-1.572a36.148,36.148,0,0,0,8.168,2.9c.159.035.176-.1.244-.585C352.219,271.37,352.239,271.286,352.082,271.248Z" transform="translate(-312.843 -249.173)" fill="#bf675d"/>
      <path id="Path_4" data-name="Path 4" d="M351.1,237.7c-.2-.5-.227-.578-.381-.534a43.769,43.769,0,0,1-7.116,1.362,42.17,42.17,0,0,1,4.706-5.451c.115-.113.056-.177-.275-.6-.3-.384-.384-.491-.5-.384a36.315,36.315,0,0,0-7.9,10.58l-.208.414.39.258c.79.513.9.63,1.726,1.084.448-.247.888-.477,1.344-.706a18.391,18.391,0,0,1-1.836-1.072c.493-.942,1.035-1.856,1.615-2.747a36.242,36.242,0,0,0,8.522-1.575C351.34,238.275,351.285,238.149,351.1,237.7Z" transform="translate(-312.905 -225.19)" fill="#9b636f"/>
      <path id="Path_5" data-name="Path 5" d="M340.083,214.278c-.422-.329-.485-.388-.6-.272A43.79,43.79,0,0,1,334,218.745a41.908,41.908,0,0,1,1.352-7.075c.04-.155-.042-.182-.54-.382-.452-.181-.577-.233-.628-.08a36.3,36.3,0,0,0-1.551,13.113l.026.462.466.028a20.307,20.307,0,0,0,2.037.077c.264-.437.531-.858.811-1.285a18.307,18.307,0,0,1-2.127-.009c-.042-1.063-.031-2.126.026-3.186a36.174,36.174,0,0,0,6.592-5.626C340.58,214.66,340.468,214.579,340.083,214.278Z" transform="translate(-307.953 -210.07)" fill="#90426f"/>
      <path id="Path_6" data-name="Path 6" d="M307.744,218.584q-.852-1.348-1.571-2.772a36.142,36.142,0,0,0,2.9-8.168c.035-.161-.1-.176-.585-.244-.53-.073-.615-.092-.653.063a43.649,43.649,0,0,1-2.379,6.844,42.134,42.134,0,0,1-2.367-6.8c-.04-.155-.126-.137-.657-.061-.483.068-.617.087-.583.244a36.33,36.33,0,0,0,5.212,12.131l.254.387.418-.209c.839-.428,1-.465,1.8-.952.009-.511.03-1.008.059-1.517A18.223,18.223,0,0,1,307.744,218.584Z" transform="translate(-285.757 -207.345)" fill="#cd2233"/>
      <path id="Path_7" data-name="Path 7" d="M280.3,219.291a18.416,18.416,0,0,1-1.071,1.836c-.942-.494-1.856-1.035-2.747-1.614a36.14,36.14,0,0,0-1.576-8.522c-.051-.156-.176-.1-.629.081-.5.2-.578.226-.534.381a43.565,43.565,0,0,1,1.362,7.117,41.957,41.957,0,0,1-5.45-4.707c-.113-.113-.178-.055-.6.276-.385.3-.492.384-.385.5a36.313,36.313,0,0,0,10.58,7.9l.413.208.257-.39a20.254,20.254,0,0,0,1.085-1.725C280.762,220.187,280.532,219.747,280.3,219.291Z" transform="translate(-261.773 -209.912)" fill="#eb412f"/>
      <path id="Path_8" data-name="Path 8" d="M261.472,237.181c-.437-.264-.856-.531-1.284-.811a18.3,18.3,0,0,1-.009,2.126c-1.063.043-2.126.032-3.186-.026a36.164,36.164,0,0,0-5.625-6.592c-.122-.111-.2,0-.5.385-.33.423-.388.485-.273.6a43.683,43.683,0,0,1,4.738,5.482,42.143,42.143,0,0,1-7.075-1.351c-.155-.041-.18.041-.381.539-.181.452-.233.577-.08.627a36.321,36.321,0,0,0,13.112,1.552l.462-.026.028-.466A19.973,19.973,0,0,0,261.472,237.181Z" transform="translate(-246.655 -225.036)" fill="#ed4c21"/>
      <path id="Path_9" data-name="Path 9" d="M256.582,265.111a19.977,19.977,0,0,0-.952-1.8c-.512-.009-1.007-.031-1.517-.059a18.671,18.671,0,0,1,1.056,1.846q-1.35.854-2.773,1.572a36.227,36.227,0,0,0-8.169-2.9c-.159-.034-.176.1-.243.585-.074.531-.093.615.063.653a43.838,43.838,0,0,1,6.844,2.38,42.183,42.183,0,0,1-6.8,2.367c-.155.041-.137.126-.061.657.069.483.087.617.244.585a36.321,36.321,0,0,0,12.131-5.213l.387-.254Z" transform="translate(-243.929 -247.724)" fill="#f36b21"/>
      <path id="Path_10" data-name="Path 10" d="M258.943,280.886c-.79-.514-.9-.631-1.725-1.086-.448.247-.888.477-1.343.708a18.333,18.333,0,0,1,1.836,1.071c-.494.943-1.035,1.858-1.615,2.747a36.235,36.235,0,0,0-8.522,1.576c-.156.05-.1.176.082.628.2.5.226.578.381.534a43.664,43.664,0,0,1,7.116-1.361,42,42,0,0,1-4.706,5.451c-.114.113-.054.177.276.6.3.383.383.49.5.383a36.35,36.35,0,0,0,7.9-10.579l.208-.414Z" transform="translate(-246.495 -259.679)" fill="#fe9e36"/>
      <path id="Path_11" data-name="Path 11" d="M307.577,315.272a36.333,36.333,0,0,0-5.212-12.13l-.254-.387-.417.209c-.84.428-1,.466-1.8.952-.009.511-.03,1.008-.059,1.517a18.449,18.449,0,0,1,1.845-1.054q.853,1.348,1.572,2.771a36.173,36.173,0,0,0-2.9,8.169c-.035.159.1.176.584.243.532.073.615.092.653-.063a43.737,43.737,0,0,1,2.38-6.844,42.054,42.054,0,0,1,2.366,6.8c.042.156.127.136.658.061C307.477,315.448,307.611,315.431,307.577,315.272Z" transform="translate(-284.306 -276.259)" fill="#c9b27a"/>
      <path id="Path_12" data-name="Path 12" d="M276.294,296.27l-.026-.463-.468-.027a20.276,20.276,0,0,0-2.035-.077c-.264.438-.532.858-.811,1.285a18.3,18.3,0,0,1,2.127.009c.043,1.063.032,2.126-.025,3.187a36.163,36.163,0,0,0-6.593,5.625c-.11.121,0,.2.385.5.423.329.487.389.6.272a43.627,43.627,0,0,1,5.482-4.737,42.058,42.058,0,0,1-1.35,7.074c-.042.155.041.182.538.382.452.181.578.233.628.079A36.344,36.344,0,0,0,276.294,296.27Z" transform="translate(-261.62 -271.162)" fill="#b29f56"/>
    </g>
  </g>
</svg>
