<svg xmlns="http://www.w3.org/2000/svg" width="13.999" height="14" viewBox="0 0 13.999 14">
  <path id="flag" d="M9.191,2.186c-1.343,0-2.551-.875-4.427-.875a6.066,6.066,0,0,0-2.207.415,1.313,1.313,0,1,0-1.9.722V13.56A.437.437,0,0,0,1.093,14h.438a.437.437,0,0,0,.438-.437V10.5A7.524,7.524,0,0,1,5.464,9.72c1.343,0,2.551.875,4.427.875A6.352,6.352,0,0,0,13.4,9.5,1.311,1.311,0,0,0,14,8.4V2.623a1.312,1.312,0,0,0-1.829-1.206,7.82,7.82,0,0,1-2.978.77Zm3.495,6.221a5.142,5.142,0,0,1-2.8.875c-1.639,0-2.789-.875-4.427-.875a9.378,9.378,0,0,0-3.495.656V3.5a5.143,5.143,0,0,1,2.8-.875c1.639,0,2.789.875,4.427.875a9.348,9.348,0,0,0,3.495-.875Z" transform="translate(0.001 0.002)" fill="#fff"/>
</svg>
