<svg xmlns="http://www.w3.org/2000/svg" width="14" height="14" viewBox="0 0 14 14">
  <path id="usd-circle" d="M7.364,6.091H9.909a.636.636,0,0,0,0-1.273H8.636V4.182a.636.636,0,1,0-1.273,0v.636a1.909,1.909,0,0,0,0,3.818H8.636a.636.636,0,0,1,0,1.273H6.091a.636.636,0,1,0,0,1.273H7.364v.636a.636.636,0,0,0,1.273,0v-.636a1.909,1.909,0,1,0,0-3.818H7.364a.636.636,0,1,1,0-1.273ZM8,1a7,7,0,1,0,7,7A7,7,0,0,0,8,1ZM8,13.727A5.727,5.727,0,1,1,13.727,8,5.727,5.727,0,0,1,8,13.727Z" transform="translate(-1 -1)" fill="#fff"/>
</svg>
