<svg xmlns="http://www.w3.org/2000/svg" xmlns:xlink="http://www.w3.org/1999/xlink" width="94.798" height="87.369" viewBox="0 0 94.798 87.369"><defs><style>.a{fill:url(#a);}.b{fill:url(#b);}.c{fill:url(#c);}.d{fill:url(#d);}.e{fill:url(#e);}.f{fill:url(#f);}.g{fill:url(#g);}.h{fill:url(#h);}.i{fill:url(#i);}.j{fill:url(#j);}.k{fill:url(#k);}.l{fill:url(#l);}.m{fill:url(#m);}.n{fill:url(#n);}.o{fill:url(#o);}.p{fill:url(#p);}.q{fill:url(#q);}.r{fill:url(#r);}.s{fill:url(#s);}.t{fill:url(#t);}.u{fill:url(#u);}.v{fill:url(#v);}.w{fill:url(#w);}.x{fill:url(#x);}.y{fill:url(#y);}.z{fill:url(#z);}.aa{fill:url(#aa);}.ab{fill:url(#ab);}.ac{fill:url(#ac);}.ad{fill:url(#ad);}.ae{fill:url(#ae);}.af{fill:url(#af);}.ag{fill:url(#ag);}.ah{fill:url(#ah);}.ai{fill:url(#ai);}.aj{fill:url(#aj);}.ak{fill:url(#ak);}.al{fill:url(#al);}.am{fill:url(#am);}.an{fill:url(#an);}.ao{fill:url(#ao);}.ap{fill:url(#ap);}.aq{fill:url(#aq);}.ar{fill:url(#ar);}.as{fill:url(#as);}.at{fill:url(#at);}.au{fill:url(#au);}.av{fill:url(#av);}.aw{fill:#b48b2e;}</style><radialGradient id="a" cx="0.637" cy="-3.694" r="10.881" gradientTransform="matrix(0.35, 0.546, -0.226, 0.831, -5.13, 19.353)" gradientUnits="objectBoundingBox"><stop offset="0" stop-color="#9fc83b"/><stop offset="0.256" stop-color="#8bc242"/><stop offset="0.767" stop-color="#0a753f"/></radialGradient><radialGradient id="b" cx="1.925" cy="-1.873" r="6.666" gradientTransform="matrix(0.636, 0.546, -0.411, 0.831, 2.025, 17.378)" xlink:href="#a"/><radialGradient id="c" cx="-0.847" cy="-3.512" r="10.471" gradientTransform="matrix(0.471, 0.546, -0.304, 0.831, -3.996, 23.616)" xlink:href="#a"/><radialGradient id="d" cx="6.621" cy="-7.861" r="20.56" gradientTransform="matrix(0.66, 0.546, -0.427, 0.831, 7.65, 54.55)" xlink:href="#a"/><radialGradient id="e" cx="7.163" cy="-1.215" r="5.139" gradientTransform="matrix(2.476, 0.546, -1.6, 0.831, 135.702, 41.63)" xlink:href="#a"/><radialGradient id="f" cx="-1.058" cy="0.862" r="14.161" gradientTransform="matrix(0.576, 0.546, -0.372, 0.831, 0.963, 37.756)" xlink:href="#a"/><radialGradient id="g" cx="-3.472" cy="-3.736" r="10.99" gradientTransform="matrix(0.799, 0.546, -0.516, 0.831, 10.437, 38.124)" xlink:href="#a"/><radialGradient id="h" cx="-3.424" cy="0.76" r="24.662" gradientTransform="matrix(0.55, 0.546, -0.356, 0.831, -1.569, 64.408)" xlink:href="#a"/><radialGradient id="i" cx="12.417" cy="-1.655" r="17.489" gradientTransform="matrix(1.4, 0.546, -0.904, 0.831, 119.012, 86.311)" xlink:href="#a"/><radialGradient id="j" cx="-2.839" cy="0.854" r="15.001" gradientTransform="matrix(1.003, 0.546, -0.648, 0.831, 41.438, 62.09)" xlink:href="#a"/><radialGradient id="k" cx="-0.7" cy="0.853" r="15.102" gradientTransform="matrix(0.446, 0.546, -0.288, 0.831, -4.545, 33.532)" xlink:href="#a"/><radialGradient id="l" cx="-2.137" cy="-0.173" r="22.328" gradientTransform="matrix(0.38, 0.546, -0.246, 0.831, -10.309, 45.071)" xlink:href="#a"/><radialGradient id="m" cx="-4.761" cy="-0.563" r="8.191" gradientTransform="matrix(1.493, 0.546, -0.964, 0.831, 71.398, 48.781)" xlink:href="#a"/><radialGradient id="n" cx="-3.126" cy="-0.157" r="9.777" gradientTransform="matrix(0.928, 0.546, -0.599, 0.831, 20.228, 38.636)" xlink:href="#a"/><radialGradient id="o" cx="-8.966" cy="-0.894" r="6.271" gradientTransform="matrix(3.028, 0.546, -1.956, 0.831, 301.169, 72.026)" xlink:href="#a"/><radialGradient id="p" cx="-61.227" cy="-11.474" r="92.496" gradientTransform="matrix(1.436, 0.546, -0.928, 0.831, 726.412, 536.666)" xlink:href="#a"/><radialGradient id="q" cx="-35.835" cy="-2.123" r="7.474" gradientTransform="matrix(9.211, 0.546, -5.951, 0.831, 3894.229, 252.336)" xlink:href="#a"/><radialGradient id="r" cx="3.966" cy="0.109" r="9.21" gradientTransform="matrix(0.948, 0.546, -0.612, 0.831, 21.12, 33.278)" xlink:href="#a"/><radialGradient id="s" cx="27.396" cy="-11.27" r="28.468" gradientTransform="matrix(1.72, 0.546, -1.111, 0.831, 313.563, 165.276)" xlink:href="#a"/><radialGradient id="t" cx="-2.861" cy="0.703" r="18.049" gradientTransform="matrix(0.603, 0.546, -0.389, 0.831, 2.341, 50.467)" xlink:href="#a"/><radialGradient id="u" cx="2.139" cy="0.785" r="9.999" gradientTransform="matrix(0.63, 0.546, -0.407, 0.831, 4.032, 26.918)" xlink:href="#a"/><radialGradient id="v" cx="0.864" cy="18.321" r="182.807" gradientTransform="matrix(0.055, 0.546, -0.036, 0.831, -28.941, 165.525)" xlink:href="#a"/><radialGradient id="w" cx="0.012" cy="3.115" r="32.083" gradientTransform="matrix(0.185, 0.546, -0.12, 0.831, -12.901, 42.931)" xlink:href="#a"/><radialGradient id="x" cx="-1.213" cy="1.948" r="23.606" gradientTransform="matrix(0.373, 0.546, -0.241, 0.831, -9.95, 46.904)" xlink:href="#a"/><radialGradient id="y" cx="1.21" cy="1.411" r="15.376" gradientTransform="matrix(0.39, 0.546, -0.252, 0.831, -4.865, 30.333)" xlink:href="#a"/><radialGradient id="z" cx="2.975" cy="-0.253" r="5.175" gradientTransform="matrix(1.266, 0.546, -0.818, 0.831, 27.245, 23.672)" xlink:href="#a"/><radialGradient id="aa" cx="1.241" cy="0.286" r="8.538" gradientTransform="matrix(0.719, 0.546, -0.464, 0.831, 6.616, 25.736)" xlink:href="#a"/><radialGradient id="ab" cx="4.163" cy="-0.614" r="4.703" gradientTransform="matrix(1.648, 0.546, -1.064, 0.831, 48.019, 26.602)" xlink:href="#a"/><radialGradient id="ac" cx="-1.998" cy="-0.121" r="12.4" gradientTransform="matrix(0.639, 0.546, -0.413, 0.831, 3.301, 36.08)" xlink:href="#a"/><radialGradient id="ad" cx="2.075" cy="0.037" r="6.236" gradientTransform="matrix(0.981, 0.546, -0.634, 0.831, 15.9, 23.539)" xlink:href="#a"/><radialGradient id="ae" cx="1.516" cy="-0.876" r="4.635" gradientTransform="matrix(0.878, 0.546, -0.567, 0.831, 7.682, 15.777)" xlink:href="#a"/><radialGradient id="af" cx="-3.048" cy="-1.019" r="8.987" gradientTransform="matrix(0.995, 0.546, -0.643, 0.831, 23.222, 37.452)" xlink:href="#a"/><radialGradient id="ag" cx="-3.382" cy="-1.747" r="7.872" gradientTransform="matrix(1.114, 0.546, -0.72, 0.831, 28.928, 36.162)" xlink:href="#a"/><radialGradient id="ah" cx="0.298" cy="-1.285" r="5.388" gradientTransform="matrix(0.716, 0.546, -0.463, 0.831, 3.281, 16.208)" xlink:href="#a"/><radialGradient id="ai" cx="-0.072" cy="-0.92" r="6.253" gradientTransform="matrix(0.761, 0.546, -0.491, 0.831, 5.488, 20.057)" xlink:href="#a"/><radialGradient id="aj" cx="-1.409" cy="-1.686" r="7.708" gradientTransform="matrix(0.831, 0.546, -0.537, 0.831, 9.599, 27.139)" xlink:href="#a"/><radialGradient id="ak" cx="1.12" cy="-0.588" r="5.248" gradientTransform="matrix(0.807, 0.546, -0.522, 0.831, 6.412, 17.029)" xlink:href="#a"/><radialGradient id="al" cx="-1.022" cy="-0.181" r="21.729" gradientTransform="matrix(0.369, 0.546, -0.238, 0.831, -9.681, 42.459)" xlink:href="#a"/><radialGradient id="am" cx="0.336" cy="0.523" r="14.383" gradientTransform="matrix(0.459, 0.546, -0.296, 0.831, -3.48, 31.926)" xlink:href="#a"/><radialGradient id="an" cx="-2.162" cy="-0.098" r="10.136" gradientTransform="matrix(0.846, 0.546, -0.546, 0.831, 14.755, 36.712)" xlink:href="#a"/><radialGradient id="ao" cx="-3.573" cy="-0.099" r="10.183" gradientTransform="matrix(1.394, 0.546, -0.901, 0.831, 73.617, 56.134)" xlink:href="#a"/><radialGradient id="ap" cx="-0.696" cy="0.742" r="26.43" gradientTransform="matrix(0.255, 0.546, -0.165, 0.831, -12.61, 41.54)" xlink:href="#a"/><radialGradient id="aq" cx="-2.688" cy="-0.118" r="12.064" gradientTransform="matrix(1.201, 0.546, -0.776, 0.831, 57.235, 57.94)" xlink:href="#a"/><radialGradient id="ar" cx="-0.723" cy="-0.575" r="8.102" gradientTransform="matrix(0.85, 0.546, -0.549, 0.831, 11.942, 28.836)" xlink:href="#a"/><radialGradient id="as" cx="-2.24" cy="-0.987" r="8.88" gradientTransform="matrix(1.002, 0.546, -0.647, 0.831, 23.536, 36.799)" xlink:href="#a"/><radialGradient id="at" cx="0.332" cy="1.737" r="19.644" gradientTransform="matrix(0.331, 0.546, -0.214, 0.831, -8.196, 35.56)" xlink:href="#a"/><radialGradient id="au" cx="0.041" cy="-0.176" r="9.61" gradientTransform="matrix(0.616, 0.546, -0.398, 0.831, 2.183, 26.361)" xlink:href="#a"/><radialGradient id="av" cx="0.666" cy="-0.353" r="6.548" gradientTransform="matrix(0.728, 0.546, -0.47, 0.831, 5.051, 20)" xlink:href="#a"/></defs><g transform="translate(-11.182 -13.386)"><g transform="translate(11.182 13.386)"><g transform="translate(0 0)"><path class="a" d="M91.345,111c-2.228,3.017-4.456,6.081-6.545,9.145a2.552,2.552,0,0,1,.418.325h22.235a101.361,101.361,0,0,1-11.7-6.452C94.177,113,92.738,112.021,91.345,111Z" transform="translate(-50.627 -65.688)"/><path class="b" d="M37.249,98c-1.114,1.439-2.182,2.924-3.2,4.41q-1.462,2.228-2.646,4.456a67.084,67.084,0,0,0,5.8,6.592H50.989c.279-.371.511-.743.789-1.114A81.939,81.939,0,0,1,37.249,98Z" transform="translate(-22.015 -58.722)"/><path class="c" d="M151.374,110.1c-1.021,3.3-2.228,6.592-3.574,9.841h16.85a62.491,62.491,0,0,0,.65-6.545A47.889,47.889,0,0,1,151.374,110.1Z" transform="translate(-84.382 -65.205)"/><path class="d" d="M25.2,125.513h6.36a58.459,58.459,0,0,1-4.271-5.013A44.424,44.424,0,0,0,25.2,125.513Z" transform="translate(-18.693 -70.778)"/><path class="e" d="M12.722,88.1a45.5,45.5,0,0,0-1.485,13.88,30.8,30.8,0,0,0,3.11,6.174h.928a34.153,34.153,0,0,1,2.692-7.52C14.9,96.131,13.094,91.814,12.722,88.1Z" transform="translate(-11.182 -53.418)"/><path class="f" d="M144.224,22.344A9.108,9.108,0,0,0,140,22.39,47.026,47.026,0,0,1,150.584,29.4,27.808,27.808,0,0,0,144.224,22.344Z" transform="translate(-80.203 -18.067)"/><path class="g" d="M198.73,111.1c-1.95,1.9-5.06,2.832-8.913,2.878-.046,2.182-.186,4.317-.418,6.5h9.748A45.5,45.5,0,0,0,198.73,111.1Z" transform="translate(-106.672 -65.741)"/><path class="h" d="M169.16,32.606a26.816,26.816,0,0,0-3.9-2.971l-1.393-.836a16.776,16.776,0,0,1-1.068,4.178A14.623,14.623,0,0,1,169.16,32.606Z" transform="translate(-92.419 -21.645)"/><path class="i" d="M25.128,56.7c-.279.371-.511.743-.789,1.16A48.168,48.168,0,0,0,21.6,62.6a41.4,41.4,0,0,1,3.249-4.271C24.942,57.721,25.035,57.211,25.128,56.7Z" transform="translate(-16.764 -36.594)"/><path class="j" d="M156.524,25.135A23.61,23.61,0,0,0,151,23a22.973,22.973,0,0,1,5.431,6.87A10.867,10.867,0,0,0,156.524,25.135Z" transform="translate(-86.097 -18.537)"/><path class="k" d="M135.711,24.075a2.982,2.982,0,0,0-.511,1.393,54.559,54.559,0,0,1,12.812,4.456A47.659,47.659,0,0,0,136.871,23.1,2.976,2.976,0,0,0,135.711,24.075Z" transform="translate(-77.631 -18.591)"/><path class="l" d="M169.849,37.935a16.825,16.825,0,0,0-7.149-.371,34.371,34.371,0,0,1,10.166,4.41A14.05,14.05,0,0,0,169.849,37.935Z" transform="translate(-92.366 -26.231)"/><path class="m" d="M188.486,54.614a47.924,47.924,0,0,1,6.36,8.866c.789-1.671.65-3.806-.279-6.174A31.442,31.442,0,0,0,188.3,50.9,4.759,4.759,0,0,1,188.486,54.614Z" transform="translate(-106.082 -33.486)"/><path class="n" d="M183.481,43.842a28.025,28.025,0,0,1,6.035,5.9,18.45,18.45,0,0,0-1.3-2.228,47.068,47.068,0,0,0-5.8-6.824A9.617,9.617,0,0,0,180,39.2,18.33,18.33,0,0,1,183.481,43.842Z" transform="translate(-101.635 -27.217)"/><path class="o" d="M203.979,73.938a45.167,45.167,0,0,1,3.574,9.795,8.079,8.079,0,0,0,.65-4.271,46.126,46.126,0,0,0-3.3-10.027c-.371-.743-.789-1.439-1.207-2.135C204.628,69.853,204.814,72.128,203.979,73.938Z" transform="translate(-114.334 -42.273)"/><path class="p" d="M202.25,64.314c-.232-.371-.418-.743-.65-1.114.093.186.232.418.325.6A4.89,4.89,0,0,1,202.25,64.314Z" transform="translate(-113.209 -40.076)"/><path class="q" d="M213.257,112.487c.093-.186.139-.371.232-.557a45.125,45.125,0,0,0-.046-13.23,8.425,8.425,0,0,1-.743,3.621A37.446,37.446,0,0,1,213.257,112.487Z" transform="translate(-119.156 -59.097)"/><path class="r" d="M39.709,37.41A8.585,8.585,0,0,1,41.287,33a48.713,48.713,0,0,0-9.47,9.1,13.858,13.858,0,0,0-.418,2.089A43.469,43.469,0,0,1,39.709,37.41Z" transform="translate(-22.015 -23.895)"/><path class="s" d="M12.311,127.121h1.253A25.944,25.944,0,0,1,11.8,123.5,29.564,29.564,0,0,0,12.311,127.121Z" transform="translate(-11.513 -72.385)"/><path class="t" d="M166.518,28.439a35,35,0,0,1,4.456,3.389,6.971,6.971,0,0,1,1.764.882,43.958,43.958,0,0,0-6.127-4.6L164.8,27a.616.616,0,0,1,.139.464C165.45,27.789,166.007,28.114,166.518,28.439Z" transform="translate(-93.491 -20.68)"/><path class="u" d="M52.8,28.505a49.256,49.256,0,0,1,9.98-4.363,7.833,7.833,0,0,1,1.346-3.806A7.52,7.52,0,0,1,66.494,18.2,47.843,47.843,0,0,0,54.61,23.77a1.411,1.411,0,0,0-.232.325A8.437,8.437,0,0,0,52.8,28.505Z" transform="translate(-33.481 -15.965)"/><path class="v" d="M105.424,13.949a12.427,12.427,0,0,1,3.064-.511,48.185,48.185,0,0,0-8.588.371A36.758,36.758,0,0,1,105.424,13.949Z" transform="translate(-58.717 -13.386)"/><path class="w" d="M115.5,14.554a39.478,39.478,0,0,1,9.7,2.739,10.414,10.414,0,0,1,4.828-.046,19.8,19.8,0,0,0-4.456-2.182,40.784,40.784,0,0,0-5.71-.975A14.157,14.157,0,0,0,115.5,14.554Z" transform="translate(-67.076 -13.759)"/><path class="x" d="M151.295,21.663a1.414,1.414,0,0,0-.418-.6A50.729,50.729,0,0,0,141.5,17.3a15.978,15.978,0,0,1,3.481,1.9A27.142,27.142,0,0,1,151.295,21.663Z" transform="translate(-81.007 -15.483)"/><path class="y" d="M79.7,18.3a7.131,7.131,0,0,0-1.3,3.667,54.505,54.505,0,0,1,11-1.857,5.349,5.349,0,0,1,1.021-2.785,5.988,5.988,0,0,1,2.367-1.9A37.961,37.961,0,0,0,83.6,15.7c-.371.093-.7.186-1.068.279A7.351,7.351,0,0,0,79.7,18.3Z" transform="translate(-47.198 -14.391)"/><path class="z" d="M44.583,58.616c-2.971-4.363-4.688-8.495-4.921-12.116A47.336,47.336,0,0,0,31.4,53.417c.279,3.853,2.089,8.309,5.292,13A62.66,62.66,0,0,1,44.583,58.616Z" transform="translate(-22.015 -31.128)"/><path class="aa" d="M92.365,35.72A16.123,16.123,0,0,1,89.3,28.2a55.059,55.059,0,0,0-11,2.228c.186,2.924,1.578,6.313,3.992,9.841A74.691,74.691,0,0,1,92.365,35.72Z" transform="translate(-47.144 -21.323)"/><path class="ab" d="M18.6,68.824a37.557,37.557,0,0,0-2.6,4.6c.279,3.853,2.135,8.356,5.292,13.09q1.184-2.228,2.646-4.456a47.767,47.767,0,0,1,3.2-4.363C23.938,73,22.081,68.5,21.849,64.6A37.626,37.626,0,0,0,18.6,68.824Z" transform="translate(-13.764 -40.827)"/><path class="ac" d="M173.43,46.109a4.2,4.2,0,0,0-.139-3.249A38.628,38.628,0,0,0,162.8,37.8,54.357,54.357,0,0,1,173.43,46.109Z" transform="translate(-92.419 -26.467)"/><path class="ad" d="M66.912,44.512c-2.46-3.667-3.946-7.2-4.131-10.212a54.283,54.283,0,0,0-9.98,4.642c.232,3.528,1.9,7.613,4.828,11.883A69.564,69.564,0,0,1,66.912,44.512Z" transform="translate(-33.481 -24.592)"/><path class="ae" d="M54.4,77.6a74.364,74.364,0,0,0-7.8,7.984A82.475,82.475,0,0,0,61.037,99.835c2.182-3.017,4.456-6.035,6.777-8.959A77.383,77.383,0,0,1,54.4,77.6Z" transform="translate(-30.159 -47.792)"/><path class="af" d="M183.014,60.8a5.331,5.331,0,0,1-3.714,1.207,54.481,54.481,0,0,1,3.481,10.259c2.692-.046,4.828-.7,6.174-2A50.558,50.558,0,0,0,183.014,60.8Z" transform="translate(-101.26 -38.79)"/><path class="ag" d="M187.6,87.035a61.358,61.358,0,0,1,1.207,10.955c3.714-.046,6.731-.975,8.634-2.785a48.98,48.98,0,0,0-3.2-10.305C192.753,86.293,190.478,86.989,187.6,87.035Z" transform="translate(-105.707 -51.703)"/><path class="ah" d="M108.277,88.6c-2.275,2.832-4.549,5.756-6.777,8.773,1.393.975,2.832,1.95,4.271,2.924a96.517,96.517,0,0,0,13.88,7.427c1.578-3.389,2.971-6.824,4.224-10.212a83,83,0,0,1-11.93-6.36C110.691,90.318,109.438,89.482,108.277,88.6Z" transform="translate(-59.575 -53.686)"/><path class="ai" d="M128.03,70.157c-.928-.6-1.857-1.207-2.739-1.857-2.135,2.46-4.363,5.153-6.592,7.938,1.16.836,2.321,1.625,3.574,2.414a81.76,81.76,0,0,0,11.512,6.127c1.207-3.389,2.228-6.731,3.064-9.934A54.173,54.173,0,0,1,128.03,70.157Z" transform="translate(-68.791 -42.809)"/><path class="aj" d="M159.26,84.2a97.732,97.732,0,0,1-2.46,10.166,48.356,48.356,0,0,0,13.462,3.2,60.979,60.979,0,0,0-.7-10.909A35.081,35.081,0,0,1,159.26,84.2Z" transform="translate(-89.205 -51.328)"/><path class="ak" d="M75.752,60.5A83.823,83.823,0,0,0,66.7,67.138a74.582,74.582,0,0,0,13.183,13c2.367-2.924,4.781-5.756,7.2-8.448A64.746,64.746,0,0,1,75.752,60.5Z" transform="translate(-40.929 -38.63)"/><path class="al" d="M139.6,38.141a24.623,24.623,0,0,0,4.131,4.085,51.145,51.145,0,0,1,6.638-4.6A42.535,42.535,0,0,0,139.6,38.141Z" transform="translate(-79.989 -26.297)"/><path class="am" d="M119.49,32.363a9.379,9.379,0,0,1-1.718-4.271,58.306,58.306,0,0,0-11.373-.418,15.143,15.143,0,0,0,2.878,7.056A62.419,62.419,0,0,1,119.49,32.363Z" transform="translate(-62.2 -20.983)"/><path class="an" d="M172.873,46.9A54.125,54.125,0,0,0,162.8,37.8a46.391,46.391,0,0,1,6.824,10.166A4.784,4.784,0,0,0,172.873,46.9Z" transform="translate(-92.419 -26.467)"/><path class="ao" d="M168.781,47.92A43.423,43.423,0,0,0,162.7,37.8a37.162,37.162,0,0,1,.975,8.913A16.79,16.79,0,0,0,168.781,47.92Z" transform="translate(-92.366 -26.467)"/><path class="ap" d="M136.632,33.114a43.454,43.454,0,0,1,11.28.186A52.958,52.958,0,0,0,135.1,29.4,9.03,9.03,0,0,0,136.632,33.114Z" transform="translate(-77.578 -21.966)"/><path class="aq" d="M150.4,43.092c.418.325.882.6,1.346.928a28.421,28.421,0,0,0,4.363,2.321,40.51,40.51,0,0,0,.046-8.541A75.9,75.9,0,0,0,150.4,43.092Z" transform="translate(-85.775 -26.467)"/><path class="ar" d="M146.216,64.119a80.142,80.142,0,0,0,1.718-9.005,34.538,34.538,0,0,1-4.967-2.646c-.511-.325-1.021-.7-1.532-1.068-1.9,1.95-3.9,4.178-6.035,6.545.836.6,1.671,1.16,2.553,1.718A51.434,51.434,0,0,0,146.216,64.119Z" transform="translate(-77.738 -33.754)"/><path class="as" d="M162.7,69.63a32.282,32.282,0,0,0,9.7,2.275,57.287,57.287,0,0,0-2.878-10.212,19.274,19.274,0,0,1-5.849-1.393A67.824,67.824,0,0,1,162.7,69.63Z" transform="translate(-92.366 -38.523)"/><path class="at" d="M117.773,21.245a3.063,3.063,0,0,1,1.9-2.646A44.478,44.478,0,0,0,109.557,16a5.356,5.356,0,0,0-2.228,1.81,5.186,5.186,0,0,0-.928,2.646A55.4,55.4,0,0,1,117.773,21.245Z" transform="translate(-62.2 -14.787)"/><path class="au" d="M129.176,44.342a28.182,28.182,0,0,1-4.735-4.642,57.963,57.963,0,0,0-9.841,2.971,42.86,42.86,0,0,0,7.845,7.752C124.812,48.148,127.041,46.106,129.176,44.342Z" transform="translate(-66.594 -27.485)"/><path class="av" d="M99.648,47.6A80.344,80.344,0,0,0,89.9,52.567a61.585,61.585,0,0,0,10.909,10.769c2.414-2.646,4.828-5.153,7.2-7.474A47.011,47.011,0,0,1,99.648,47.6Z" transform="translate(-53.359 -31.718)"/><g transform="translate(0.333 59.935)"><path class="aw" d="M11.9,143.7h6.545v26.413H11.9Z" transform="translate(-11.9 -143.143)"/><path class="aw" d="M98.3,143.7h6.545v26.413H98.3Z" transform="translate(-58.193 -143.143)"/><path class="aw" d="M128.192,164.21h8.031v5.8H121.6V143.6h14.622v5.8h-8.031v4.317h8.031v5.849h-8.031Z" transform="translate(-70.677 -143.089)"/><g transform="translate(9.516)"><path class="aw" d="M49.947,166.824a10.631,10.631,0,1,1,8.541-17.175,12.5,12.5,0,0,0-4.781-5.245,13.609,13.609,0,0,0-7.334-1.9,13.3,13.3,0,0,0-10.537,4.549,13.55,13.55,0,0,0-3.435,9.1,12.978,12.978,0,0,0,4.363,10.12,13.774,13.774,0,0,0,9.655,3.667,12.953,12.953,0,0,0,8.356-2.878,15.179,15.179,0,0,0,3.481-4.039A10.7,10.7,0,0,1,49.947,166.824Z" transform="translate(-32.4 -142.5)"/></g><g transform="translate(68.376)"><path class="aw" d="M176.747,166.824a10.631,10.631,0,1,1,8.541-17.175,12.5,12.5,0,0,0-4.781-5.245,13.609,13.609,0,0,0-7.334-1.9,13.3,13.3,0,0,0-10.537,4.549,13.55,13.55,0,0,0-3.435,9.1,12.978,12.978,0,0,0,4.363,10.12,13.774,13.774,0,0,0,9.655,3.667,12.953,12.953,0,0,0,8.356-2.878,15.178,15.178,0,0,0,3.481-4.039A10.7,10.7,0,0,1,176.747,166.824Z" transform="translate(-159.2 -142.5)"/></g></g></g></g></g></svg>