<svg xmlns="http://www.w3.org/2000/svg" xmlns:xlink="http://www.w3.org/1999/xlink" width="116.568" height="61.111" viewBox="0 0 116.568 61.111"><defs><style>.a{fill:#0c3c47;}.b{fill:url(#a);}.c{fill:url(#b);}.d{fill:url(#c);}.e{fill:url(#d);}.f{fill:url(#e);}.g{fill:url(#f);}.h{fill:url(#g);}.i{fill:url(#h);}.j{fill:url(#i);}.k{fill:url(#j);}.l{fill:url(#k);}.m{fill:url(#l);}.n{fill:url(#m);}.o{fill:url(#n);}.p{fill:url(#o);}.q{fill:url(#p);}.r{fill:url(#q);}.s{fill:url(#r);}.t{fill:url(#s);}.u{fill:url(#t);}.v{fill:url(#u);}.w{fill:url(#v);}.x{fill:url(#w);}.y{fill:url(#x);}.z{fill:url(#y);}.aa{fill:url(#z);}.ab{fill:url(#aa);}.ac{fill:url(#ab);}.ad{fill:url(#ac);}.ae{fill:url(#ad);}.af{fill:url(#ae);}.ag{fill:url(#af);}.ah{fill:url(#ag);}.ai{fill:url(#ah);}.aj{fill:url(#ai);}.ak{fill:url(#aj);}.al{fill:url(#ak);}</style><linearGradient id="a" x1="-1.215" y1="0.5" x2="1.523" y2="0.5" gradientUnits="objectBoundingBox"><stop offset="0" stop-color="#42ab37"/><stop offset="0.487" stop-color="#23706b"/><stop offset="0.839" stop-color="#234772"/><stop offset="1" stop-color="#243772"/></linearGradient><linearGradient id="b" x1="-0.294" y1="0.5" x2="2.406" y2="0.5" xlink:href="#a"/><linearGradient id="c" x1="-0.211" y1="0.499" x2="2.216" y2="0.499" xlink:href="#a"/><linearGradient id="d" x1="-0.194" y1="0.5" x2="2.105" y2="0.5" xlink:href="#a"/><linearGradient id="e" x1="-1.022" y1="0.5" x2="1.381" y2="0.5" xlink:href="#a"/><linearGradient id="f" x1="-2.34" y1="0.5" x2="0.875" y2="0.5" xlink:href="#a"/><linearGradient id="g" x1="-2.43" y1="0.501" x2="0.75" y2="0.501" xlink:href="#a"/><linearGradient id="h" x1="-4.671" y1="0.5" x2="-0.142" y2="0.5" xlink:href="#a"/><linearGradient id="i" x1="-4.709" y1="0.499" x2="-0.303" y2="0.499" xlink:href="#a"/><linearGradient id="j" x1="-10.395" y1="0.5" x2="-2.157" y2="0.5" xlink:href="#a"/><linearGradient id="k" x1="-27.088" y1="0.501" x2="-7.128" y2="0.501" xlink:href="#a"/><linearGradient id="l" x1="-40.505" y1="0.5" x2="-11.673" y2="0.5" xlink:href="#a"/><linearGradient id="m" x1="-11.234" y1="0.5" x2="-2.497" y2="0.5" xlink:href="#a"/><linearGradient id="n" x1="-4.494" y1="0.5" x2="0.19" y2="0.5" xlink:href="#a"/><linearGradient id="o" x1="-8.303" y1="0.5" x2="-0.781" y2="0.5" xlink:href="#a"/><linearGradient id="p" x1="-9.251" y1="0.499" x2="-1.529" y2="0.499" xlink:href="#a"/><linearGradient id="q" x1="-1.21" y1="0.498" x2="1.712" y2="0.498" xlink:href="#a"/><linearGradient id="r" x1="-2.857" y1="0.5" x2="1.191" y2="0.5" xlink:href="#a"/><linearGradient id="s" x1="-4.797" y1="0.5" x2="0.609" y2="0.5" xlink:href="#a"/><linearGradient id="t" x1="-1.559" y1="0.497" x2="2.127" y2="0.497" xlink:href="#a"/><linearGradient id="u" x1="-3.14" y1="0.5" x2="3.653" y2="0.5" xlink:href="#a"/><linearGradient id="v" x1="-0.499" y1="0.499" x2="2.741" y2="0.499" xlink:href="#a"/><linearGradient id="w" x1="-0.947" y1="0.499" x2="3.55" y2="0.499" xlink:href="#a"/><linearGradient id="x" x1="-3.097" y1="0.5" x2="1.604" y2="0.5" xlink:href="#a"/><linearGradient id="y" x1="0.355" y1="0.5" x2="3.929" y2="0.5" xlink:href="#a"/><linearGradient id="z" x1="1.233" y1="0.5" x2="6.291" y2="0.5" xlink:href="#a"/><linearGradient id="aa" x1="2.831" y1="0.496" x2="37.897" y2="0.496" xlink:href="#a"/><linearGradient id="ab" x1="0.14" y1="0.5" x2="4.38" y2="0.5" xlink:href="#a"/><linearGradient id="ac" x1="0.518" y1="0.5" x2="3.542" y2="0.5" xlink:href="#a"/><linearGradient id="ad" x1="1.479" y1="0.5" x2="6.023" y2="0.5" xlink:href="#a"/><linearGradient id="ae" x1="3.923" y1="0.499" x2="12.403" y2="0.499" xlink:href="#a"/><linearGradient id="af" x1="3.007" y1="0.501" x2="10.507" y2="0.501" xlink:href="#a"/><linearGradient id="ag" x1="1.598" y1="0.499" x2="5.866" y2="0.499" xlink:href="#a"/><linearGradient id="ah" x1="0.632" y1="0.5" x2="3.963" y2="0.5" xlink:href="#a"/><linearGradient id="ai" x1="1.577" y1="0.5" x2="5.79" y2="0.5" xlink:href="#a"/><linearGradient id="aj" x1="10.679" y1="0.499" x2="30.573" y2="0.499" xlink:href="#a"/><linearGradient id="ak" x1="3.891" y1="0.5" x2="11.851" y2="0.5" xlink:href="#a"/></defs><g transform="translate(-1548.372 -27)"><g transform="translate(1548.372 27)"><g transform="translate(0 0)"><g transform="translate(0 0.816)"><g transform="translate(0.729)"><path class="a" d="M11.483,8.4V37.984H7.5V8.4Z" transform="translate(-7.5 -8.4)"/><path class="a" d="M81.232,91.118v1.059c0,1.729.573,2.924,2.128,2.924,1.418,0,2.04-.884,2.04-2.652s-.534-2.788-3.235-4.557c-3.1-1.992-4.557-3.634-4.557-6.869,0-3.634,1.9-6.024,5.761-6.024,4.158,0,5.713,2.439,5.713,6.286v.972H85.225V80.926c0-1.729-.534-2.565-1.856-2.565-1.282,0-1.817.933-1.817,2.351,0,1.457.486,2.128,2.652,3.546,3.721,2.39,5.178,3.983,5.178,7.753,0,4.255-2.04,6.471-6.16,6.471-4.867,0-6.024-3.1-6.024-6.335v-1.02h4.032Z" transform="translate(-70.428 -68.529)"/><path class="a" d="M229,8.4h5.936c6.335,0,7.53,3.546,7.53,8.676V28.589c0,4.518-.758,9.385-7.617,9.385H229Zm3.983,26.174h1.593c3.235,0,3.857-1.953,3.857-5.363V16.726c0-3.012-.534-4.916-3.857-4.916h-1.593Z" transform="translate(-207.48 -8.4)"/><path class="a" d="M404,8.4h5.664c4.916,0,6.772,2.39,6.772,6.6v1.2c0,4.158-1.37,5.4-2.749,5.975,1.457.486,3.323,1.729,3.323,5.936v2.215c0,5.052-1.953,7.666-7.044,7.666H404Zm5.314,12.232c2.613,0,3.362-.884,3.362-4.032V15.356c0-2.526-.884-3.634-3.235-3.634h-1.593v8.9h1.467ZM407.857,34.71h1.681c2.837,0,3.585-1.331,3.585-4.469V28.2c0-3.012-.933-4.294-3.808-4.294h-1.457Z" transform="translate(-365.478 -8.4)"/></g><g transform="translate(0.486 47.937)"><path class="a" d="M6.282,506v9.5H5V506Z" transform="translate(-5 -505.592)"/><path class="a" d="M33.092,532.578v.34c0,.554.185.943.68.943.457,0,.651-.282.651-.855s-.175-.894-1.04-1.467c-.991-.641-1.467-1.166-1.467-2.205a1.721,1.721,0,0,1,1.846-1.933c1.341,0,1.836.787,1.836,2.021v.311H34.375V529.3c0-.554-.175-.826-.6-.826-.408,0-.583.3-.583.758s.155.68.855,1.137c1.2.768,1.661,1.283,1.661,2.487,0,1.37-.651,2.079-1.972,2.079-1.564,0-1.933-.991-1.933-2.031v-.33Z" transform="translate(-29.196 -524.913)"/><path class="a" d="M85.4,511.71V501.8h1.263v9.91Z" transform="translate(-77.589 -501.8)"/><path class="a" d="M115.835,533.433c0,.466,0,1.137.029,1.389H114.7a5.278,5.278,0,0,1-.087-.554,1.225,1.225,0,0,1-1.2.67c-1.078,0-1.506-.981-1.506-2.108V532.7c0-1.739,1.137-2.264,2.448-2.264h.223v-1.02c0-.612-.087-.972-.583-.972s-.612.369-.612.884v.146h-1.253v-.126a1.707,1.707,0,0,1,1.9-1.953c1.35,0,1.807.787,1.807,1.924Zm-1.234-2.011h-.3c-.729,0-1.2.3-1.2,1.263v.117c0,.583.194,1.01.7,1.01.573,0,.8-.408.8-1.448Z" transform="translate(-101.514 -524.913)"/><path class="a" d="M170.11,529.635c0-1.409,0-1.778-.01-2.118h1.2a6.455,6.455,0,0,1,.058.651,1.294,1.294,0,0,1,1.263-.768,1.083,1.083,0,0,1,1.156.806,1.458,1.458,0,0,1,1.38-.806c.768,0,1.418.369,1.418,1.788v5.635H175.3V529.43c0-.544-.126-.884-.593-.884-.583,0-.729.486-.729,1.234v5.033h-1.282v-5.344c0-.729-.2-.923-.612-.923-.583,0-.709.5-.709,1.253v5.023H170.11Z" transform="translate(-154.06 -524.913)"/><path class="a" d="M254.2,501.8h1.282v1.525H254.2Zm0,2.6h1.263v7.306H254.2Z" transform="translate(-229.989 -501.8)"/><path class="a" d="M286.557,532.452v.1c0,1.292-.33,2.39-1.953,2.39-1.574,0-1.9-1.069-1.9-2.575v-2.643c0-1.2.427-2.322,1.972-2.322,1.661,0,1.875,1.2,1.875,2.147v.282h-1.263v-.282c0-.612-.087-1.069-.641-1.069-.486,0-.67.369-.67,1.1v3.158c0,.573.117,1.127.67,1.127.515,0,.641-.389.641-1.107v-.3Z" transform="translate(-255.72 -524.913)"/><path class="a" d="M360.5,506h1.9c2.031,0,2.419,1.137,2.419,2.788v3.7c0,1.448-.243,3.012-2.448,3.012H360.5Zm1.273,8.4h.515c1.04,0,1.234-.622,1.234-1.72v-4.012c0-.972-.175-1.574-1.234-1.574h-.515Z" transform="translate(-325.961 -505.592)"/><path class="a" d="M420.453,531.48v1.127c0,.641.126,1.253.758,1.253s.729-.544.729-1.137v-.039h1.224v.039c0,.8-.175,2.215-1.933,2.215-1.72,0-2.031-1.1-2.031-2.575v-2.536c0-1.04.359-2.429,2.031-2.429,1.5,0,1.962,1.049,1.962,2.429v1.652Zm1.516-1.01v-.826c0-.67-.126-1.166-.738-1.166-.573,0-.768.427-.768,1.176v.806h1.506Z" transform="translate(-378.958 -524.913)"/><path class="a" d="M471.36,528.6c.224,1.35.738,4.362.923,5.888h.01c.126-1.438.729-4.45.972-5.888h1.263l-1.564,7.306h-1.438L470,528.6Z" transform="translate(-424.823 -525.996)"/><path class="a" d="M527.453,531.48v1.127c0,.641.126,1.253.758,1.253s.729-.544.729-1.137v-.039h1.224v.039c0,.8-.175,2.215-1.934,2.215-1.72,0-2.03-1.1-2.03-2.575v-2.536c0-1.04.36-2.429,2.03-2.429,1.5,0,1.963,1.049,1.963,2.429v1.652Zm1.516-1.01v-.826c0-.67-.126-1.166-.739-1.166-.573,0-.767.427-.767,1.176v.806h1.506Z" transform="translate(-475.562 -524.913)"/><path class="a" d="M582.3,511.71V501.8h1.263v9.91Z" transform="translate(-526.212 -501.8)"/><path class="a" d="M614.79,529.693v2.915c0,1.564-.768,2.332-2.06,2.332-1.321,0-2.031-.768-2.031-2.322v-2.973a1.962,1.962,0,0,1,2.079-2.244C614.052,527.4,614.79,528.206,614.79,529.693Zm-2.817-.078v3.041c0,.68.214,1.137.787,1.137.515,0,.758-.369.758-1.156v-3.031c0-.622-.185-1.1-.768-1.1C612.216,528.527,611.973,528.925,611.973,529.615Z" transform="translate(-551.853 -524.913)"/><path class="a" d="M668.11,529.525c0-.991,0-1.652-.01-2.108h1.2a4.512,4.512,0,0,1,.058.738,1.33,1.33,0,0,1,1.321-.855c1.02,0,1.506.7,1.506,2.138v3.041c0,1.652-.583,2.361-1.632,2.361a1.226,1.226,0,0,1-1.185-.67v3.012H668.11Zm1.263,2.73c0,.8.126,1.438.787,1.438.573,0,.758-.437.758-1.195v-2.973c0-.758-.253-1.069-.7-1.069-.593,0-.836.437-.836,1.321v2.477Z" transform="translate(-603.676 -524.822)"/><path class="a" d="M725.61,529.635c0-1.409,0-1.778-.01-2.118h1.2a6.513,6.513,0,0,1,.058.651,1.3,1.3,0,0,1,1.263-.768,1.083,1.083,0,0,1,1.156.806,1.459,1.459,0,0,1,1.38-.806c.767,0,1.418.369,1.418,1.788v5.635H730.8V529.43c0-.544-.126-.884-.593-.884-.583,0-.729.486-.729,1.234v5.033h-1.283v-5.344c0-.729-.2-.923-.612-.923-.583,0-.709.5-.709,1.253v5.023H725.61Z" transform="translate(-655.589 -524.913)"/><path class="a" d="M808.944,531.48v1.127c0,.641.126,1.253.758,1.253s.729-.544.729-1.137v-.039h1.234v.039c0,.8-.175,2.215-1.933,2.215-1.72,0-2.03-1.1-2.03-2.575v-2.536c0-1.04.359-2.429,2.03-2.429,1.5,0,1.963,1.049,1.963,2.429v1.652Zm1.515-1.01v-.826c0-.67-.126-1.166-.738-1.166-.573,0-.768.427-.768,1.176v.806h1.506Z" transform="translate(-729.713 -524.913)"/><path class="a" d="M863.51,529.851c0-1.477,0-1.9-.01-2.244h1.2a4.49,4.49,0,0,1,.058.7,1.342,1.342,0,0,1,1.341-.806c.855,0,1.477.5,1.477,1.865v5.557H866.3v-5.3c0-.68-.223-.971-.68-.971-.554,0-.835.282-.835,1.438v4.838h-1.263v-5.072Z" transform="translate(-780.092 -525.003)"/><path class="a" d="M916.1,512.078h.806V510.3h1.263v1.778h.972V513.2h-.972v4.566c0,.359.058.67.515.67a1.657,1.657,0,0,0,.408-.039v.971a2.011,2.011,0,0,1-.836.127c-.836,0-1.35-.282-1.35-1.5v-4.79H916.1Z" transform="translate(-827.581 -509.474)"/><path class="a" d="M983.31,506h1.817c1.574,0,2.176.768,2.176,2.118v.389c0,1.341-.437,1.739-.884,1.924.466.155,1.069.554,1.069,1.9v.709c0,1.622-.622,2.458-2.264,2.458H983.3V506Zm1.71,3.925c.835,0,1.078-.282,1.078-1.292v-.4c0-.806-.282-1.166-1.04-1.166h-.515v2.856Zm-.476,4.527h.544c.913,0,1.156-.428,1.156-1.438v-.651c0-.971-.3-1.38-1.224-1.38h-.467v3.468Z" transform="translate(-888.252 -505.592)"/><path class="a" d="M1042.735,533.433c0,.466,0,1.137.029,1.389H1041.6a5.3,5.3,0,0,1-.087-.554,1.226,1.226,0,0,1-1.205.67c-1.078,0-1.506-.981-1.506-2.108V532.7c0-1.739,1.137-2.264,2.448-2.264h.223v-1.02c0-.612-.088-.972-.583-.972s-.612.369-.612.884v.146h-1.253v-.126a1.707,1.707,0,0,1,1.9-1.953c1.351,0,1.807.787,1.807,1.924Zm-1.243-2.011h-.3c-.729,0-1.2.3-1.2,1.263v.117c0,.583.195,1.01.7,1.01.573,0,.8-.408.8-1.448Z" transform="translate(-938.36 -524.913)"/><path class="a" d="M1096.91,529.851c0-1.477,0-1.9-.01-2.244h1.2a4.477,4.477,0,0,1,.058.7,1.343,1.343,0,0,1,1.341-.806c.855,0,1.477.5,1.477,1.865v5.557H1099.7v-5.3c0-.68-.223-.971-.68-.971-.554,0-.836.282-.836,1.438v4.838h-1.263v-5.072Z" transform="translate(-990.816 -525.003)"/><path class="a" d="M1157.853,507.749h.01c.34-.806,1.04-2.351,1.438-3.255h1.341c-.486.991-.923,1.846-1.37,2.691l1.525,4.625h-1.389l-.991-3.381c-.146.272-.427.836-.554,1.078v2.3H1156.6V501.9h1.263v5.849Z" transform="translate(-1044.716 -501.89)"/></g><g transform="translate(0 34.209)"><path class="a" d="M19.4,371.446a.619.619,0,0,0,.427-.165.544.544,0,0,0,.175-.408.529.529,0,0,0-.175-.408.636.636,0,0,0-.855,0,.564.564,0,0,0,0,.816A.6.6,0,0,0,19.4,371.446Z" transform="translate(-16.973 -369.348)"/><path class="a" d="M41.2,371.356a.643.643,0,0,0,.437-.165.529.529,0,0,0,.175-.408.565.565,0,0,0-.175-.418.626.626,0,0,0-.437-.165.6.6,0,0,0-.427.165.563.563,0,0,0,0,.816A.556.556,0,0,0,41.2,371.356Z" transform="translate(-36.655 -369.258)"/><path class="a" d="M74.5,472.1a.587.587,0,0,0-.427.175.565.565,0,0,0-.175.418.529.529,0,0,0,.175.408.665.665,0,0,0,.855,0,.529.529,0,0,0,.175-.408.565.565,0,0,0-.175-.418A.587.587,0,0,0,74.5,472.1Z" transform="translate(-66.72 -461.257)"/><path class="a" d="M96.3,472.1a.571.571,0,0,0-.427.175.565.565,0,0,0-.175.418.529.529,0,0,0,.175.408.611.611,0,0,0,.427.156.635.635,0,0,0,.437-.156.529.529,0,0,0,.175-.408.55.55,0,0,0-.175-.418A.558.558,0,0,0,96.3,472.1Z" transform="translate(-86.402 -461.257)"/><path class="a" d="M216.222,375.4a.668.668,0,0,0,.447-.165.557.557,0,0,0,.175-.427.571.571,0,0,0-.175-.427.615.615,0,0,0-.447-.175.631.631,0,0,0-.447.175.61.61,0,0,0,0,.855A.633.633,0,0,0,216.222,375.4Z" transform="translate(-194.653 -372.869)"/><path class="a" d="M271.7,375.756a.626.626,0,0,0,.437-.165.529.529,0,0,0,.175-.408.565.565,0,0,0-.175-.418.627.627,0,0,0-.437-.165.6.6,0,0,0-.427.165.563.563,0,0,0,0,.816A.586.586,0,0,0,271.7,375.756Z" transform="translate(-244.761 -373.23)"/><path class="a" d="M249.9,375.846a.619.619,0,0,0,.427-.165.544.544,0,0,0,.175-.408.529.529,0,0,0-.175-.408.636.636,0,0,0-.855,0,.563.563,0,0,0,0,.816A.619.619,0,0,0,249.9,375.846Z" transform="translate(-225.079 -373.32)"/><path class="a" d="M34.014,376.815h-3.09V368.8H30.05v8.015H26.387v-5.072h-.874v5.072H22.045v-5.072H21.17v5.072H18.508a3.054,3.054,0,0,0,.272-1.292,3.122,3.122,0,0,0-.913-2.273,3.064,3.064,0,0,0-2.254-.923,3,3,0,0,0-2.244.933,3.145,3.145,0,0,0-.9,2.273,3.34,3.34,0,0,0,.262,1.292H9.356v-5.072H8.482v5.072H4.994V371.21H4.119v.544H3.614a3.939,3.939,0,0,0-2.623.845A2.639,2.639,0,0,0,0,374.727a2.547,2.547,0,0,0,1.03,2.215,4.24,4.24,0,0,0,2.584.748h9.677a3.026,3.026,0,0,0,2.322.981,3.1,3.1,0,0,0,2.332-.981H34.889V368.8h-.874v8.015Zm-29.895,0H3.255a2.564,2.564,0,0,1-1.7-.564,1.847,1.847,0,0,1-.68-1.506,1.906,1.906,0,0,1,.719-1.535,2.507,2.507,0,0,1,1.661-.593h.865Zm13.126.33a2.249,2.249,0,0,1-1.642.651,2.148,2.148,0,0,1-1.613-.67,2.373,2.373,0,0,1,0-3.245,2.154,2.154,0,0,1,1.623-.67,2.258,2.258,0,0,1,2.3,2.312A2.169,2.169,0,0,1,17.245,377.146Z" transform="translate(0 -367.994)"/><path class="a" d="M431.222,420.685a.669.669,0,0,0,.447-.165.556.556,0,0,0,.175-.427.571.571,0,0,0-.175-.427.608.608,0,0,0-.447-.165.668.668,0,0,0-.447.165.61.61,0,0,0,0,.855A.634.634,0,0,0,431.222,420.685Z" transform="translate(-388.765 -413.768)"/><path class="a" d="M431.222,442.085a.668.668,0,0,0,.447-.165.557.557,0,0,0,.175-.427.571.571,0,0,0-.175-.427.608.608,0,0,0-.447-.165.668.668,0,0,0-.447.165.61.61,0,0,0,0,.855A.593.593,0,0,0,431.222,442.085Z" transform="translate(-388.765 -433.089)"/><path class="a" d="M422.19,399.673a3,3,0,0,0-2.244.933,3.145,3.145,0,0,0-.9,2.273,3.34,3.34,0,0,0,.262,1.292H416.8V399.1h-1.953a2.639,2.639,0,0,0-1.71.515,2.337,2.337,0,0,0-.768,1.885v4.042h-2.555a4.1,4.1,0,0,1-1.914-.5l-.4.777a5.436,5.436,0,0,0,2.594.593h3.148v-5.062a1.227,1.227,0,0,1,.447-1.03,1.849,1.849,0,0,1,1.166-.35h1.069v5.072h3.944a2.972,2.972,0,0,0,2.283.981,3.136,3.136,0,0,0,2.283-.9,3.005,3.005,0,0,0,.933-2.254,3.121,3.121,0,0,0-3.177-3.2Zm1.622,4.829a2.249,2.249,0,0,1-1.642.651,2.134,2.134,0,0,1-1.613-.67,2.374,2.374,0,0,1,0-3.245,2.155,2.155,0,0,1,1.623-.67,2.258,2.258,0,0,1,2.3,2.312A2.17,2.17,0,0,1,423.812,404.5Z" transform="translate(-367.909 -395.35)"/><rect class="a" width="0.874" height="6.169" transform="translate(60.295 2.06)"/><path class="a" d="M620.83,367.757a1.677,1.677,0,0,1-.418,1.214,1.553,1.553,0,0,1-1.195.447,1.816,1.816,0,0,1-1.263-.437,1.482,1.482,0,0,1-.505-1.1v-3.1h-.874v3.051a1.393,1.393,0,0,1-.428,1.117,1.562,1.562,0,0,1-1.059.369h-1.7v-4.527h-.874v4.527h-2.3a2.692,2.692,0,0,1-1.224-.233,1.71,1.71,0,0,1-.719-.719,3.115,3.115,0,0,0,.146-.933v-6.063h.806V360.5H607.53v6.937a1.714,1.714,0,0,1-.573,1.428,2.369,2.369,0,0,1-1.535.457H602.4l.107.874h2.584a3.148,3.148,0,0,0,2.885-1.176,2.119,2.119,0,0,0,.758.845,2.411,2.411,0,0,0,1.244.311v.01h5.1a2.19,2.19,0,0,0,1.943-1.01,2.353,2.353,0,0,0,2.166,1.117c1.681,0,2.517-.894,2.517-2.682v-4h-.875Z" transform="translate(-543.873 -360.5)"/><rect class="a" width="0.874" height="6.169" transform="translate(80.853 2.06)"/><path class="a" d="M825.5,472.569c0,.884.408,1.321,1.234,1.321h.447v-.5h-.369c-.457,0-.68-.2-.68-.612h1.4V472.2H825.5Z" transform="translate(-745.298 -461.348)"/><path class="a" d="M819.12,367.437a1.714,1.714,0,0,1-.573,1.428,2.369,2.369,0,0,1-1.535.457H814l.107.874h2.584a3.718,3.718,0,0,0,2.5-.719,2.594,2.594,0,0,0,.816-2.04v-6.063h.806V360.5H819.12Z" transform="translate(-734.915 -360.5)"/><rect class="a" width="0.874" height="8.89" transform="translate(88.111 0.806)"/><path class="a" d="M1006.854,403.545h-1.622v-.437a.628.628,0,0,1,.146-.457.621.621,0,0,1,.486-.155h.641V402h-.661a1.233,1.233,0,0,0-.932.321,1.412,1.412,0,0,0-.311,1.01v.8h2.254Z" transform="translate(-906.997 -397.968)"/><path class="a" d="M1079.022,375.4a.669.669,0,0,0,.447-.165.558.558,0,0,0,.175-.427.572.572,0,0,0-.175-.427.616.616,0,0,0-.447-.175.632.632,0,0,0-.447.175.61.61,0,0,0,0,.855A.65.65,0,0,0,1079.022,375.4Z" transform="translate(-973.627 -372.869)"/><path class="a" d="M1113.531,471.8a.669.669,0,0,0-.447.165.58.58,0,0,0-.185.428.536.536,0,0,0,.175.418.65.65,0,0,0,.447.165.668.668,0,0,0,.447-.165.587.587,0,0,0,0-.835A.594.594,0,0,0,1113.531,471.8Z" transform="translate(-1004.775 -460.986)"/><path class="a" d="M992.9,376.815h-2.8v-5.072h-.874v5.072h-2.439v-5.072h-.874v5.072h-2.642V368.8h-.874v8.015h-3.566a2.666,2.666,0,0,1-1.681-.457,1.824,1.824,0,0,1-.573-1.5v-2.089H975.7v2.215a3.345,3.345,0,0,0,.194,1.088,2.088,2.088,0,0,0,.612.923,2.6,2.6,0,0,0,.981.534,5.637,5.637,0,0,0,1.5.165h14.8v-8.89h-.874v8.006Z" transform="translate(-880.905 -367.994)"/><rect class="a" width="0.874" height="8.89" transform="translate(115.382 0.806)"/></g></g><g transform="translate(62.613)"><path class="b" d="M899.492,102.783a1.984,1.984,0,0,1-.379,1.156l1.875,2.749,4.353.029.923.01.311-.67,1.535-3.313L905.37,99l-4.848-.2-1.622,2.575A1.99,1.99,0,0,1,899.492,102.783Z" transform="translate(-874.179 -89.201)"/><path class="c" d="M819.063,72.1a1.966,1.966,0,0,1,.68.126l1.593-2.516L818.976,67l-.748.058-3.692.272L812,70.585l2.011,3.245,1.875-.146,1.273-.1A1.968,1.968,0,0,1,819.063,72.1Z" transform="translate(-795.722 -60.491)"/><path class="d" d="M810.866,152.141l3.245-.1.194-.359,2.38-4.382L814.9,144.67a1.946,1.946,0,0,1-2.914-1.37l-1.166.087-1.924.146-2.594,4.343,1.185,2.1a2.7,2.7,0,0,1,3.381,2.167Z" transform="translate(-790.576 -129.378)"/><path class="e" d="M810.263,241.787a2.731,2.731,0,0,1-2.711,2.4,3.21,3.21,0,0,1-.534-.049L805.61,247h-.01l2.448,4.08H814l2.565-4.421L813.5,241.7Z" transform="translate(-789.944 -218.217)"/><path class="f" d="M901.95,188.439l-.515-.01-4.761-.029-2.5,4.605-.078.136,2.837,4.6,5.363-.155,2.293-4.741-1.321-2.205Z" transform="translate(-869.846 -170.096)"/><path class="g" d="M974.825,71.055l-.787-.155-.826,1.438-.612,1.049,2.74,3.74,2.021.291,2.157.3.777-2.38.146-.466-2.691-3.255Z" transform="translate(-940.719 -64.012)"/><path class="h" d="M988.908,147.772a1.513,1.513,0,0,1,.67-1.263l-1.487-2.419-.049-.087-2.176-.311-2.031-.292-1.71,3.682-.126.282,1.321,2.205,1.322,2.205,4.314.01.136-.369.835-2.225A1.5,1.5,0,0,1,988.908,147.772Z" transform="translate(-949.205 -129.468)"/><path class="i" d="M1054.586,122.9l1,.107.874.1.505-2.779-1.778-2.973-.321-.534-.369-.107-2.186-.612-.146.457-.767,2.371.068.107,1.584,2.575h.049A1.5,1.5,0,0,1,1054.586,122.9Z" transform="translate(-1011.863 -104.82)"/><path class="j" d="M1065.258,194.714l-.913-.1-1.1-.117a1.535,1.535,0,0,1-1.04.884l-.729,1.943-.379,1,1.933,4.032,2.779-.282,1.01-3.614Z" transform="translate(-1020.62 -175.603)"/><path class="k" d="M1111.686,164.7l-.486,2.682,1.564,3.74,1.253.01.243-2.75-1.253-3.109-.719-.311Z" transform="translate(-1065.853 -148.698)"/><path class="l" d="M1137.163,156.358l-.184-1-.612-1.924-.4-1.166-.068-.068.117,1.38Z" transform="translate(-1088.153 -137.413)"/><path class="m" d="M1148.611,209.149l-.039-.019-.049-.029-.223,2.507.612,2.876.087-.029.175-2.516Z" transform="translate(-1099.348 -188.785)"/><path class="n" d="M1118.41,239.2h-.019l-.991,3.546,2.118,3.362.5-.9.272-3.012-.632-2.983Z" transform="translate(-1071.451 -215.96)"/><path class="o" d="M1032.7,62.053l2.691,3.264,2.507.7.184-1.428-1.554-1.817-.835-.981-2.458-.991Z" transform="translate(-994.98 -54.893)"/><path class="p" d="M1072.629,67.763l.923.554-.039-.155-2.7-2.963-.6-.4-.01.117.894,1.04Z" transform="translate(-1028.836 -58.504)"/><path class="q" d="M1094.736,105.6l-.136,1.38,2.07,3.468.544.233.651.282-.136-1.574-.01-.126-1.01-1.652-.777-1.292-.661-.4Z" transform="translate(-1050.866 -95.34)"/><path class="r" d="M896.485,39.853,893.24,39.6H893.2l-2,2.254,2.341,2.691,4.858.2.612-1.049.816-1.418L898.5,41.038l-.534-.5a1.077,1.077,0,0,1-.4.078A1.176,1.176,0,0,1,896.485,39.853Z" transform="translate(-867.227 -35.753)"/><path class="s" d="M966.91,28.7l.661.612,1.312,1.214,3.7.709.544-1.273L970.7,27.877l-3.323-.777-.029.039-.447.505a1.135,1.135,0,0,1,.146.544A1.4,1.4,0,0,1,966.91,28.7Z" transform="translate(-935.573 -24.467)"/><path class="t" d="M1018.664,30.6V30.38l-2.167-1.807-2.167-1.273-.331.35,2.341,2.021Z" transform="translate(-978.097 -24.648)"/><path class="u" d="M894.734,9.5l-1.234.806,1.749,1.3,3.323.262a1.137,1.137,0,0,1,1.059-.719,1.192,1.192,0,0,1,.379.068l.243-.262.088-.1L898.5,9.723,894.792,9.5Z" transform="translate(-869.304 -8.577)"/><path class="v" d="M904.04.107l3.371.165-.4-.068L903.7,0l.262.107Z" transform="translate(-878.513)"/><path class="w" d="M829.656,21.9l-3.847.4L823.7,24.183l.331.4L825.07,25.8l3.672-.272.777-.058,1.963-2.215-.1-.078Z" transform="translate(-806.285 -19.772)"/><path class="x" d="M838.993,4.7l3.906-.408.4-.262.709-.466-.641-.262-3.721.35-1.244.719.525.291Z" transform="translate(-819.557 -2.979)"/><path class="y" d="M956.381,7.034l3.362.787.224-.243.1-.1-.4-.223-4.6-1.457L954.7,6l.224.136Z" transform="translate(-924.558 -5.236)"/><path class="z" d="M758,54.311l.554,1.321,2.954-.651,1.01-.223,2.536-3.255-1.156-1.36-.2-.243-3.624.874L758.117,53a1.255,1.255,0,0,1,.146.573A1.309,1.309,0,0,1,758,54.311Z" transform="translate(-746.969 -45.052)"/><path class="aa" d="M723.181,51.084a1.194,1.194,0,0,1,.457.087l1.846-2.079-.311-.515-.049-.078-2.215,1.02-1.9,1.963-.505.544.146.855,1.312-.564h0A1.221,1.221,0,0,1,723.181,51.084Z" transform="translate(-713.112 -43.788)"/><path class="ab" d="M763.257,37.7l.078-.058.184-.146-.719.418.049-.029Z" transform="translate(-751.302 -33.857)"/><path class="ac" d="M779.115,20.937l2.031-1.759-.049-.019-.632-.359-3.187.836-1.458,1.146-.622.486.359.593Z" transform="translate(-762.498 -16.973)"/><path class="ad" d="M741.68,109.284l-1.02,1.622-1.36,2.186,1.487,3.4,4.139-.486.165-.019,2.545-4.353-1.972-3.235-.913.2Z" transform="translate(-730.085 -97.868)"/><path class="ae" d="M700.417,101.943l1.341-.34.7-.175,1.428-2.283.962-1.535L704.3,96.3a1.231,1.231,0,0,1-.272.029,1.208,1.208,0,0,1-.923-.427l-1.72.777-1.632,2.536-.457.7.34,1.584A1.566,1.566,0,0,1,700.417,101.943Z" transform="translate(-693.971 -86.583)"/><path class="af" d="M664.04,149.086l1.156-.282.991-2.273a1.522,1.522,0,0,1-.573-1.185,1.541,1.541,0,0,1,1.059-1.457l-.233-1.088-1.137.622-.185.1-1.418,3.3.175,2.312Z" transform="translate(-661.83 -128.926)"/><path class="ag" d="M683.062,91.377l-.127-.777-.767.544-.457.321-1.933,2.876-.078,1.04,1.185-.641Z" transform="translate(-676.276 -81.798)"/><path class="ah" d="M687.834,163.673a1.743,1.743,0,0,1-.224-.019l-1.01,2.312,1,3.342,2.924-.311,1.263-2.691.719-1.535-.253-.573-1.224-2.8-.748.194-.932.243a1.605,1.605,0,0,1,.029.311A1.538,1.538,0,0,1,687.834,163.673Z" transform="translate(-682.505 -145.719)"/><path class="ai" d="M740.63,199.2a2.74,2.74,0,0,1,1.282-2.312l-1.127-1.992-.379.049-3.935.466-.719,1.535-1.253,2.681,2.04,4.3h4.382l1.146-2.322A2.738,2.738,0,0,1,740.63,199.2Z" transform="translate(-725.752 -175.964)"/><path class="aj" d="M687.688,249.033l-1.088,3.653,1.622,3.672,2.934.369,1.428-3.711-2.031-4.217Z" transform="translate(-682.505 -224.628)"/><path class="ak" d="M645.568,192.4l-.573.534a23.956,23.956,0,0,0-.534,5.14l.379-.01.884-3.672Z" transform="translate(-644.456 -173.707)"/><path class="al" d="M659.067,213.2l-.923.223-.437.107-.806,3.352.777,3.109,1.37.146,1.02-3.624Z" transform="translate(-655.691 -192.486)"/></g></g></g></g></svg>