<svg xmlns="http://www.w3.org/2000/svg" width="18.28" height="18.312" viewBox="0 0 18.28 18.312">
  <path id="phone-call" d="M12.456,4.2a4,4,0,0,1,3.158,3.158M12.456,1a7.2,7.2,0,0,1,6.356,6.348m-.8,6.38v2.4a1.6,1.6,0,0,1-1.743,1.6,15.822,15.822,0,0,1-6.9-2.455,15.591,15.591,0,0,1-4.8-4.8A15.822,15.822,0,0,1,2.118,3.542,1.6,1.6,0,0,1,3.709,1.8h2.4a1.6,1.6,0,0,1,1.6,1.375,10.266,10.266,0,0,0,.56,2.247,1.6,1.6,0,0,1-.36,1.687L6.891,8.124a12.792,12.792,0,0,0,4.8,4.8L12.7,11.905a1.6,1.6,0,0,1,1.687-.36,10.266,10.266,0,0,0,2.247.56,1.6,1.6,0,0,1,1.375,1.623Z" transform="translate(-1.361 -0.172)" fill="none" stroke="#1d1d1b" stroke-linecap="round" stroke-linejoin="round" stroke-width="1.5"/>
</svg>
