<svg xmlns="http://www.w3.org/2000/svg" width="24" height="21" viewBox="0 0 24 21">
  <g id="printer-icon" transform="translate(0 -1)">
    <path id="Subtraction_1" data-name="Subtraction 1" d="M-8912.5-5796h-9a3,3,0,0,1-3-3v-1.5h-1.5a3,3,0,0,1-3-3v-4.5a3,3,0,0,1,3-3h1.5v-3a3,3,0,0,1,3-3h9a3,3,0,0,1,3,3v3h1.5a3,3,0,0,1,3,3v4.5a3,3,0,0,1-3,3h-1.5v1.5A3,3,0,0,1-8912.5-5796Zm-9-9a1.5,1.5,0,0,0-1.5,1.5v4.5a1.5,1.5,0,0,0,1.5,1.5h9a1.5,1.5,0,0,0,1.5-1.5v-4.5a1.5,1.5,0,0,0-1.5-1.5Zm0-1.5h9a3,3,0,0,1,3,3v1.5h1.5a1.5,1.5,0,0,0,1.5-1.5v-4.5a1.5,1.5,0,0,0-1.5-1.5h-18a1.5,1.5,0,0,0-1.5,1.5v4.5a1.5,1.5,0,0,0,1.5,1.5h1.5v-1.5A3,3,0,0,1-8921.5-5806.5Zm0-9a1.5,1.5,0,0,0-1.5,1.5v3h12v-3a1.5,1.5,0,0,0-1.5-1.5Zm-3.749,9a.752.752,0,0,1-.751-.751.751.751,0,0,1,.751-.75.75.75,0,0,1,.748.75A.751.751,0,0,1-8925.249-5806.5Z" transform="translate(8929 5818)" fill="#fff"/>
  </g>
</svg>
