<svg xmlns="http://www.w3.org/2000/svg" width="127.204" height="101.852" viewBox="0 0 127.204 101.852">
  <path id="qouteBR" d="M87.254-56.031a24.528,24.528,0,0,1-11.11-9.4,27,27,0,0,1-3.988-14.813q0-12.249,7.691-19.8T99.5-107.59q11.964,0,19.8,7.691t7.834,19.655a46.824,46.824,0,0,1-1.424,11.394,128.663,128.663,0,0,1-6.267,17.092l-16.522,41.02H74.72Zm-67.227,0a24.528,24.528,0,0,1-11.11-9.4A27,27,0,0,1,4.93-80.244q0-12.249,7.691-19.8t19.655-7.549q11.964,0,19.8,7.691t7.834,19.655a46.823,46.823,0,0,1-1.424,11.394,128.661,128.661,0,0,1-6.267,17.092L35.695-10.738H7.494Z" transform="translate(-2.43 110.09)" fill="none" stroke="#fff" stroke-width="5"/>
</svg>
