<svg xmlns="http://www.w3.org/2000/svg" width="127.205" height="101.852" viewBox="0 0 127.205 101.852">
  <path id="qouteTL" d="M44.81-62.3a24.528,24.528,0,0,1,11.11,9.4,27,27,0,0,1,3.988,14.813q0,12.249-7.691,19.8T32.561-10.738q-11.964,0-19.8-7.691T4.93-38.084A46.824,46.824,0,0,1,6.354-49.479,128.663,128.663,0,0,1,12.621-66.57l16.522-41.02h28.2Zm67.227,0a24.528,24.528,0,0,1,11.11,9.4,27,27,0,0,1,3.988,14.813q0,12.249-7.691,19.8T99.788-10.738q-11.964,0-19.8-7.691T72.157-38.084a46.824,46.824,0,0,1,1.424-11.394A128.661,128.661,0,0,1,79.848-66.57L96.37-107.59h28.2Z" transform="translate(-2.43 110.09)" fill="none" stroke="#fff" stroke-width="5"/>
</svg>
