<svg xmlns="http://www.w3.org/2000/svg" width="62" height="62" viewBox="0 0 62 62">
  <g id="question-raduis-icon" transform="translate(5.325 4.763)">
    <g id="Group_23749" data-name="Group 23749" transform="translate(-5 -4.763)">
      <g id="Group_23748" data-name="Group 23748" transform="translate(0 0)">
        <circle id="Ellipse_11710" data-name="Ellipse 11710" cx="31" cy="31" r="31" transform="translate(-0.325)" fill="#edeff9"/>
        <path id="Path_48928" data-name="Path 48928" d="M9.548-10.692a6.506,6.506,0,0,1,1.034-3.784,20.221,20.221,0,0,1,3.014-3.3A17.559,17.559,0,0,0,15.73-20a3.3,3.3,0,0,0,.682-2.046,3.017,3.017,0,0,0-1.3-2.574,5.737,5.737,0,0,0-3.454-.946,7.676,7.676,0,0,0-3.674.858,7.831,7.831,0,0,0-2.706,2.4L-.044-25.432A12.325,12.325,0,0,1,4.95-29.788a16.8,16.8,0,0,1,7.458-1.54,13.817,13.817,0,0,1,8.118,2.156,6.916,6.916,0,0,1,3.058,5.984,7.876,7.876,0,0,1-.594,3.168,8.39,8.39,0,0,1-1.452,2.31q-.858.946-2.222,2.178A18.49,18.49,0,0,0,16.94-13.09a3.863,3.863,0,0,0-.748,2.4ZM12.892.352A4.172,4.172,0,0,1,9.878-.814a3.793,3.793,0,0,1-1.21-2.838A3.686,3.686,0,0,1,9.856-6.446a4.244,4.244,0,0,1,3.036-1.122,4.244,4.244,0,0,1,3.036,1.122,3.686,3.686,0,0,1,1.188,2.794,3.793,3.793,0,0,1-1.21,2.838A4.172,4.172,0,0,1,12.892.352Z" transform="translate(18.905 46.488)" fill="#d5313a"/>
      </g>
    </g>
  </g>
</svg>
