<svg xmlns="http://www.w3.org/2000/svg" width="19.446" height="15.794" viewBox="0 0 19.446 15.794">
  <path id="twitter-icon" d="M17.447-10.124a8.567,8.567,0,0,0,2-2.061,7.99,7.99,0,0,1-2.3.617,3.975,3.975,0,0,0,1.752-2.2,7.846,7.846,0,0,1-2.529.962,3.976,3.976,0,0,0-2.912-1.259,3.984,3.984,0,0,0-3.985,3.985,4.5,4.5,0,0,0,.1.913,11.328,11.328,0,0,1-8.218-4.171A3.955,3.955,0,0,0,.814-11.32,3.983,3.983,0,0,0,2.591-8a4.013,4.013,0,0,1-1.8-.506v.049a3.986,3.986,0,0,0,3.2,3.911,4.214,4.214,0,0,1-1.049.136,5.023,5.023,0,0,1-.753-.062A3.993,3.993,0,0,0,5.91-1.708,7.982,7.982,0,0,1,.962-.006,8.248,8.248,0,0,1,0-.055,11.263,11.263,0,0,0,6.12,1.734,11.262,11.262,0,0,0,17.46-9.605C17.46-9.778,17.46-9.951,17.447-10.124Z" transform="translate(0 14.06)" fill="#fff"/>
</svg>
