<svg xmlns="http://www.w3.org/2000/svg" width="19.292" height="19.38" viewBox="0 0 19.292 19.38">
  <path id="whatsapp-icon" d="M20.481,6.817A9.607,9.607,0,0,0,5.363,18.4L4,23.38l5.093-1.338a9.612,9.612,0,0,0,4.591,1.171h0a9.607,9.607,0,0,0,6.795-16.4ZM13.687,21.59h0A7.983,7.983,0,0,1,9.62,20.478l-.292-.173L6.3,21.1l.807-2.945-.188-.3a7.983,7.983,0,1,1,6.763,3.74Zm4.377-5.978c-.239-.119-1.419-.7-1.639-.779s-.38-.119-.54.119-.619.782-.76.942-.279.179-.518.06a6.493,6.493,0,0,1-1.931-1.193A7.184,7.184,0,0,1,11.341,13.1c-.141-.242-.016-.37.1-.49s.242-.279.361-.421a1.668,1.668,0,0,0,.242-.4.447.447,0,0,0-.022-.421c-.06-.119-.54-1.3-.741-1.784s-.393-.4-.54-.411-.3-.006-.458-.006a.878.878,0,0,0-.641.3,2.685,2.685,0,0,0-.838,2,4.682,4.682,0,0,0,.98,2.484,10.719,10.719,0,0,0,4.1,3.62,13.313,13.313,0,0,0,1.366.506,3.338,3.338,0,0,0,1.513.1,2.471,2.471,0,0,0,1.62-1.143,2.017,2.017,0,0,0,.138-1.14C18.466,15.794,18.306,15.734,18.064,15.611Z" transform="translate(-4 -4)" fill="#fff" fill-rule="evenodd"/>
</svg>
