<svg xmlns="http://www.w3.org/2000/svg" width="16.713" height="12.679" viewBox="0 0 16.713 12.679">
  <path id="bullet-list" d="M586.56,219.8h-9.221a1.153,1.153,0,0,0,0,2.305h9.221a1.153,1.153,0,0,0,0-2.305Zm0-4.61h-9.221a1.153,1.153,0,0,0,0,2.305h9.221a1.153,1.153,0,0,0,0-2.305Zm-9.221-2.305h9.221a1.153,1.153,0,0,0,0-2.305h-9.221a1.153,1.153,0,0,0,0,2.305Zm-4.61,6.339a1.729,1.729,0,1,0,1.729,1.729,1.729,1.729,0,0,0-1.729-1.729Zm0-4.61a1.729,1.729,0,1,0,1.729,1.729,1.729,1.729,0,0,0-1.729-1.729Zm0-4.61a1.729,1.729,0,1,0,1.729,1.729A1.729,1.729,0,0,0,572.729,210Z" transform="translate(-571 -210)" fill="#5e5e59" fill-rule="evenodd"/>
</svg>
