<svg xmlns="http://www.w3.org/2000/svg" width="13.508" height="13.508" viewBox="0 0 13.508 13.508">
  <path id="grid" d="M8.5,4H5.126A1.126,1.126,0,0,0,4,5.126V8.5A1.126,1.126,0,0,0,5.126,9.628H8.5A1.126,1.126,0,0,0,9.628,8.5V5.126A1.126,1.126,0,0,0,8.5,4Zm7.88,0H13.005A1.126,1.126,0,0,0,11.88,5.126V8.5a1.126,1.126,0,0,0,1.126,1.126h3.377A1.126,1.126,0,0,0,17.508,8.5V5.126A1.126,1.126,0,0,0,16.382,4ZM8.5,11.88H5.126A1.126,1.126,0,0,0,4,13.005v3.377a1.126,1.126,0,0,0,1.126,1.126H8.5a1.126,1.126,0,0,0,1.126-1.126V13.005A1.126,1.126,0,0,0,8.5,11.88Zm7.88,0H13.005a1.126,1.126,0,0,0-1.126,1.126v3.377a1.126,1.126,0,0,0,1.126,1.126h3.377a1.126,1.126,0,0,0,1.126-1.126V13.005A1.126,1.126,0,0,0,16.382,11.88Z" transform="translate(-4 -4)" fill="#5e5e59"/>
</svg>
