<svg xmlns="http://www.w3.org/2000/svg" width="22.694" height="22.694" viewBox="0 0 22.694 22.694">
  <path id="calendar-dates-red" d="M22.425,8.808V5.4H20.155V6.539H17.886V5.4H8.808V6.539H6.539V5.4H4.269v3.4Zm0,2.269H4.269V22.425H22.425ZM20.155,3.135h2.269A2.269,2.269,0,0,1,24.694,5.4V22.425a2.269,2.269,0,0,1-2.269,2.269H4.269A2.269,2.269,0,0,1,2,22.425V5.4A2.269,2.269,0,0,1,4.269,3.135H6.539V2H8.808V3.135h9.078V2h2.269ZM9.943,15.617H7.674V13.347H9.943Zm4.539,0H12.212V13.347h2.269Zm4.539,0H16.751V13.347h2.269ZM9.943,20.155H7.674V17.886H9.943Zm4.539,0H12.212V17.886h2.269Z" transform="translate(-2 -2)" fill="#d5313a" fill-rule="evenodd"/>
</svg>
