<svg xmlns="http://www.w3.org/2000/svg" width="19.49" height="18.096" viewBox="0 0 19.49 18.096">
  <path id="Filter" d="M695.7,1336.248h1.259a2.549,2.549,0,0,0,4.906,0h11.931a.7.7,0,0,0,0-1.392H701.861a2.549,2.549,0,0,0-4.906,0H695.7a.7.7,0,1,0,0,1.392Zm3.712-1.856a1.16,1.16,0,1,1-1.16,1.16,1.16,1.16,0,0,1,1.16-1.16Zm14.384,6.96h-6.673a2.548,2.548,0,0,0-4.75,0H695.7a.7.7,0,1,0,0,1.392h6.542a2.55,2.55,0,0,0,5.015,0H713.8a.7.7,0,0,0,0-1.392Zm-9.048,2.088a1.16,1.16,0,1,1,1.16-1.16A1.16,1.16,0,0,1,704.744,1343.44Zm9.048,4.408h-1.259a2.549,2.549,0,0,0-4.906,0H695.7a.7.7,0,0,0,0,1.392h11.931a2.549,2.549,0,0,0,4.906,0h1.259a.7.7,0,0,0,0-1.392Zm-3.712,1.856a1.16,1.16,0,1,1,1.16-1.16A1.16,1.16,0,0,1,710.08,1349.7Z" transform="translate(-695 -1333)" fill="#1d1d1b" fill-rule="evenodd"/>
</svg>
