<svg xmlns="http://www.w3.org/2000/svg" width="18" height="18" viewBox="0 0 18 18">
  <path id="linkedin" d="M16.714,128H1.282A1.291,1.291,0,0,0,0,129.3v15.4A1.291,1.291,0,0,0,1.282,146H16.714A1.3,1.3,0,0,0,18,144.7V129.3A1.3,1.3,0,0,0,16.714,128ZM5.44,143.429H2.772v-8.59H5.444v8.59Zm-1.334-9.763a1.547,1.547,0,1,1,1.547-1.547A1.548,1.548,0,0,1,4.106,133.665Zm11.334,9.763H12.773V139.25c0-1-.02-2.278-1.386-2.278-1.39,0-1.6,1.085-1.6,2.206v4.251H7.116v-8.59H9.675v1.173h.036a2.81,2.81,0,0,1,2.527-1.386c2.7,0,3.2,1.78,3.2,4.094Z" transform="translate(0 -128)" fill="#1378dc"/>
</svg>
