<svg xmlns="http://www.w3.org/2000/svg" width="18" height="22" viewBox="0 0 18 22">
  <path id="Location2" d="M92,1507a9.235,9.235,0,0,0-9,9,9.981,9.981,0,0,0,1.175,4.155q.032.06.069.12C89.687,1529,91.308,1529,92,1529c1.08,0,2.25-.76,5.022-4.635,1.445-2.02,2.682-4.005,2.734-4.09.025-.04.048-.08.068-.12A9.984,9.984,0,0,0,101,1516,9.235,9.235,0,0,0,92,1507Zm6.482,12.485S93.493,1527.5,92,1527.5s-6.482-8.015-6.482-8.015A8.535,8.535,0,0,1,84.5,1516a7.5,7.5,0,1,1,15,0A8.534,8.534,0,0,1,98.482,1519.485ZM92,1511.5a4,4,0,1,0,4,4A4,4,0,0,0,92,1511.5Zm0,6.5a2.5,2.5,0,1,1,2.5-2.5A2.5,2.5,0,0,1,92,1518Z" transform="translate(-83 -1507)" fill="#1d1d1b" fill-rule="evenodd"/>
</svg>
