<svg xmlns="http://www.w3.org/2000/svg" width="27.85" height="29.555" viewBox="0 0 27.85 29.555">
  <g id="PDF" transform="translate(-14.769)">
    <path id="Rectangle_11530" data-name="Rectangle 11530" d="M2.641,0h0A14.088,14.088,0,0,1,16.729,14.088v6.369a3.522,3.522,0,0,1-3.522,3.522H2.641A2.641,2.641,0,0,1,0,21.337V2.641A2.641,2.641,0,0,1,2.641,0Z" transform="translate(23.692 2.788)" fill="#f3e7e8"/>
    <path id="Path_46860" data-name="Path 46860" d="M42.46,8,34.931.174A.569.569,0,0,0,34.521,0H23.3a2.28,2.28,0,0,0-2.278,2.277v7.954H16.473a1.706,1.706,0,0,0-1.7,1.7v8.529a1.706,1.706,0,0,0,1.7,1.7h4.548v5.116A2.278,2.278,0,0,0,23.3,29.555H40.341a2.277,2.277,0,0,0,2.278-2.272V8.392A.569.569,0,0,0,42.46,8Zm-7.8-6.464,6.181,6.423H34.662ZM16.473,21.03a.568.568,0,0,1-.567-.567V11.934a.568.568,0,0,1,.567-.567H31.821a.568.568,0,0,1,.567.567v8.529a.568.568,0,0,1-.567.567Zm25.009,6.254a1.139,1.139,0,0,1-1.141,1.135H23.3a1.14,1.14,0,0,1-1.141-1.136V22.166h9.663a1.706,1.706,0,0,0,1.7-1.7V11.934a1.706,1.706,0,0,0-1.7-1.7H22.158V2.277A1.142,1.142,0,0,1,23.3,1.137H33.525V8.526a.568.568,0,0,0,.568.568h7.389v18.19Z" fill="#d5313a"/>
    <path id="Path_46861" data-name="Path 46861" d="M76.053,240.9a1.28,1.28,0,0,0-.7-.478,5.738,5.738,0,0,0-1.172-.073H72.6v4.882h.986v-1.842h.643a5.626,5.626,0,0,0,1.022-.07,1.428,1.428,0,0,0,.511-.231,1.339,1.339,0,0,0,.415-.481,1.593,1.593,0,0,0,.163-.756A1.516,1.516,0,0,0,76.053,240.9Zm-.844,1.344a.647.647,0,0,1-.308.24,2.548,2.548,0,0,1-.779.077h-.539v-1.385h.476a4.733,4.733,0,0,1,.709.033.681.681,0,0,1,.4.216.631.631,0,0,1,.157.44A.656.656,0,0,1,75.209,242.241Z" transform="translate(-54.488 -226.472)" fill="#d5313a"/>
    <path id="Path_46862" data-name="Path 46862" d="M155.279,241.68a2.133,2.133,0,0,0-.466-.791,1.633,1.633,0,0,0-.736-.45,3.518,3.518,0,0,0-.929-.093h-1.8v4.882H153.2a2.981,2.981,0,0,0,.873-.1,1.732,1.732,0,0,0,.693-.39,2.153,2.153,0,0,0,.523-.863,3.209,3.209,0,0,0,.15-1.039A3.6,3.6,0,0,0,155.279,241.68Zm-.959,2a1.033,1.033,0,0,1-.258.471.91.91,0,0,1-.4.2,2.685,2.685,0,0,1-.6.047h-.736v-3.234h.443a4.466,4.466,0,0,1,.809.047.938.938,0,0,1,.456.23,1.117,1.117,0,0,1,.28.473,2.916,2.916,0,0,1,.1.869A3.184,3.184,0,0,1,154.32,243.685Z" transform="translate(-128.693 -226.472)" fill="#d5313a"/>
    <path id="Path_46863" data-name="Path 46863" d="M240.193,241.172v-.826h-3.347v4.882h.986v-2.075h2.038v-.826h-2.038v-1.156Z" transform="translate(-209.257 -226.472)" fill="#d5313a"/>
  </g>
</svg>
