<svg xmlns="http://www.w3.org/2000/svg" width="18" height="18" viewBox="0 0 18 18">
  <path id="twitter-square" d="M16.071,128H1.929A1.929,1.929,0,0,0,0,129.929v14.143A1.929,1.929,0,0,0,1.929,146H16.071A1.929,1.929,0,0,0,18,144.071V129.929A1.929,1.929,0,0,0,16.071,128Zm-1.965,6.38c.008.113.008.229.008.342a7.446,7.446,0,0,1-7.5,7.5,7.463,7.463,0,0,1-4.046-1.181,5.551,5.551,0,0,0,.635.032,5.283,5.283,0,0,0,3.271-1.125,2.639,2.639,0,0,1-2.463-1.828,2.84,2.84,0,0,0,1.189-.048,2.635,2.635,0,0,1-2.109-2.587v-.032a2.633,2.633,0,0,0,1.189.333,2.63,2.63,0,0,1-1.173-2.194,2.6,2.6,0,0,1,.358-1.33A7.482,7.482,0,0,0,8.9,135.015a2.641,2.641,0,0,1,4.5-2.407,5.164,5.164,0,0,0,1.671-.635,2.628,2.628,0,0,1-1.157,1.45,5.244,5.244,0,0,0,1.519-.41A5.546,5.546,0,0,1,14.107,134.38Z" transform="translate(0 -128)" fill="#1ba4eb"/>
</svg>
