<svg id="instagram-black" xmlns="http://www.w3.org/2000/svg" width="20" height="20" viewBox="0 0 20 20">
  <g id="Group_23879" data-name="Group 23879">
    <path id="Path_48932" data-name="Path 48932" d="M510,160c-2.716,0-3.056.012-4.123.06a7.348,7.348,0,0,0-2.427.465,5.113,5.113,0,0,0-2.925,2.925,7.347,7.347,0,0,0-.465,2.427c-.048,1.067-.06,1.407-.06,4.123s.012,3.056.06,4.123a7.347,7.347,0,0,0,.465,2.427,5.112,5.112,0,0,0,2.925,2.925,7.348,7.348,0,0,0,2.427.465c1.067.048,1.407.06,4.123.06s3.056-.012,4.123-.06a7.348,7.348,0,0,0,2.427-.465,5.112,5.112,0,0,0,2.925-2.925,7.348,7.348,0,0,0,.465-2.427c.048-1.067.06-1.407.06-4.123s-.012-3.056-.06-4.123a7.348,7.348,0,0,0-.465-2.427,5.112,5.112,0,0,0-2.925-2.925,7.348,7.348,0,0,0-2.427-.465C513.056,160.012,512.716,160,510,160Zm0,1.8c2.67,0,2.986.01,4.041.058a5.533,5.533,0,0,1,1.857.345,3.311,3.311,0,0,1,1.9,1.9,5.533,5.533,0,0,1,.345,1.857c.048,1.055.058,1.371.058,4.041s-.01,2.986-.058,4.041a5.533,5.533,0,0,1-.345,1.857,3.311,3.311,0,0,1-1.9,1.9,5.533,5.533,0,0,1-1.857.345c-1.054.048-1.37.058-4.041.058s-2.987-.01-4.041-.058a5.533,5.533,0,0,1-1.857-.345,3.311,3.311,0,0,1-1.9-1.9,5.534,5.534,0,0,1-.345-1.857c-.048-1.055-.058-1.371-.058-4.041s.01-2.986.058-4.041a5.534,5.534,0,0,1,.345-1.857,3.311,3.311,0,0,1,1.9-1.9,5.533,5.533,0,0,1,1.857-.345C507.014,161.812,507.33,161.8,510,161.8Zm0,3.063A5.135,5.135,0,1,0,515.135,170,5.135,5.135,0,0,0,510,164.865Zm0,8.468A3.333,3.333,0,1,1,513.333,170,3.333,3.333,0,0,1,510,173.333Zm6.538-8.671a1.2,1.2,0,1,1-1.2-1.2A1.2,1.2,0,0,1,516.538,164.662Z" transform="translate(-500 -160)" fill="#fff" fill-rule="evenodd"/>
  </g>
</svg>
