<svg xmlns="http://www.w3.org/2000/svg" width="17" height="17.002" viewBox="0 0 17 17.002">
  <g id="link-icon" transform="translate(-3.468 -3.467)">
    <path id="Path_48930" data-name="Path 48930" d="M8.465,11.293a3.072,3.072,0,0,1,4.242,0l.707.707,1.414-1.414-.707-.707a5,5,0,0,0-7.07,0L4.929,12A5,5,0,0,0,12,19.071l.707-.707L11.293,16.95l-.707.707a3,3,0,0,1-4.243-4.243l2.122-2.121Z" transform="translate(0 -0.064)" fill="#fff"/>
    <path id="Path_48931" data-name="Path 48931" d="M12,4.929l-.707.707L12.707,7.05l.707-.707a3,3,0,0,1,4.243,4.243l-2.122,2.121a3.072,3.072,0,0,1-4.242,0L10.586,12,9.172,13.414l.707.707a5,5,0,0,0,7.07,0L19.071,12A5,5,0,0,0,12,4.929Z" transform="translate(-0.064)" fill="#fff"/>
  </g>
</svg>
