<svg xmlns="http://www.w3.org/2000/svg" width="32.742" height="20.001" viewBox="0 0 32.742 20.001">
  <g id="media_icon" transform="translate(-557.258 -726)">
    <path id="Subtraction_2" data-name="Subtraction 2" d="M336.753-11174H315.99a.99.99,0,0,1-.989-.989v-15.326a.991.991,0,0,1,.989-.991h13.256a10.492,10.492,0,0,0-1.33,1.978H316.979v8.282l1.655-1.385a1.016,1.016,0,0,1,.631-.221,1.016,1.016,0,0,1,.631.221l2.669,2.226,4.2-3.646a10.491,10.491,0,0,0,.391,2.268l-3.92,3.407a1,1,0,0,1-.656.243,1.008,1.008,0,0,1-.631-.221l-2.669-2.223-2.3,1.928v2.473h14.129a10.446,10.446,0,0,0,5.758,1.971A1.079,1.079,0,0,1,336.753-11174Zm-13.719-10.162a1.819,1.819,0,0,1-1.829-1.8,1.819,1.819,0,0,1,1.829-1.8,1.819,1.819,0,0,1,1.829,1.8A1.819,1.819,0,0,1,323.034-11184.161Z" transform="translate(242.257 11920)" fill="#d5313a"/>
    <g id="Group_23773" data-name="Group 23773" transform="translate(-3.339 -0.339)">
      <g id="Ellipse_11699" data-name="Ellipse 11699" transform="translate(574.339 726.339)" fill="#fff" stroke="#d5313a" stroke-width="1.7">
        <circle cx="9.5" cy="9.5" r="9.5" stroke="none"/>
        <circle cx="9.5" cy="9.5" r="8.65" fill="none"/>
      </g>
      <path id="video" d="M8,15V7l6.671,4Z" transform="translate(573.671 724.837)" fill="#d5313a"/>
    </g>
  </g>
</svg>
