<svg xmlns="http://www.w3.org/2000/svg" width="65" height="65" viewBox="0 0 65 65">
  <g id="podcast-play" transform="translate(-0.595 -0.607)">
    <circle id="Ellipse_42" data-name="Ellipse 42" cx="32.5" cy="32.5" r="32.5" transform="translate(0.595 0.607)" fill="#d5313a"/>
    <g id="Group_24115" data-name="Group 24115" transform="translate(-80.708 15.002)">
      <path id="Path_51477" data-name="Path 51477" d="M125.131,225.132a1.061,1.061,0,1,0-2.122,0,8.658,8.658,0,1,1-17.317,0,1.061,1.061,0,0,0-2.122,0,10.8,10.8,0,0,0,9.719,10.728v2.192h-1.07a5.328,5.328,0,0,0-5.322,5.322,1.061,1.061,0,0,0,1.061,1.061h12.783a1.061,1.061,0,0,0,1.061-1.061,5.328,5.328,0,0,0-5.322-5.322h-1.07v-2.192A10.8,10.8,0,0,0,125.131,225.132Z" transform="translate(-0.547 -208.225)" fill="#fff"/>
      <path id="Path_51478" data-name="Path 51478" d="M168.953,10.652a1.061,1.061,0,0,1,0,2.122h-3.266v2.139h3.266a1.061,1.061,0,0,1,0,2.122h-3.266v0a6.387,6.387,0,0,0,12.774,0v0h-3.266a1.061,1.061,0,1,1,0-2.122h3.266V12.774h-3.266a1.061,1.061,0,1,1,0-2.122h3.266V8.513h-3.266a1.061,1.061,0,1,1,0-2.122h3.266v0a6.387,6.387,0,1,0-12.774,0v0h3.266a1.061,1.061,0,0,1,0,2.122h-3.266v2.139Z" transform="translate(-58.27)" fill="#fff"/>
    </g>
  </g>
</svg>
