<svg xmlns="http://www.w3.org/2000/svg" width="14" height="23.513" viewBox="0 0 14 23.513">
  <g id="podcast" transform="translate(-103.024)">
    <path id="Path_51477" data-name="Path 51477" d="M117.571,224.76a.689.689,0,1,0-1.378,0,5.622,5.622,0,0,1-11.245,0,.689.689,0,0,0-1.378,0,7.01,7.01,0,0,0,6.311,6.966v1.423h-.695a3.46,3.46,0,0,0-3.456,3.456.689.689,0,0,0,.689.689h8.3a.689.689,0,0,0,.689-.689,3.46,3.46,0,0,0-3.456-3.456h-.695v-1.423A7.01,7.01,0,0,0,117.571,224.76Z" transform="translate(-0.547 -213.781)" fill="#d5313a"/>
    <path id="Path_51478" data-name="Path 51478" d="M167.808,6.917a.689.689,0,0,1,0,1.378h-2.121V9.684h2.121a.689.689,0,0,1,0,1.378h-2.121v0a4.147,4.147,0,0,0,8.295,0v0h-2.121a.689.689,0,1,1,0-1.378h2.121V8.295h-2.121a.689.689,0,1,1,0-1.378h2.121V5.528h-2.121a.689.689,0,1,1,0-1.378h2.121v0a4.147,4.147,0,1,0-8.295,0v0h2.121a.689.689,0,0,1,0,1.378h-2.121V6.917Z" transform="translate(-59.811)" fill="#d5313a"/>
  </g>
</svg>
