<svg xmlns="http://www.w3.org/2000/svg" xmlns:xlink="http://www.w3.org/1999/xlink" width="1180" height="133.115" viewBox="0 0 1180 133.115">
  <defs>
    <clipPath id="clip-path">
      <rect id="Rectangle_11740" data-name="Rectangle 11740" width="1180" height="71" transform="translate(44 414.308)" fill="#fff"/>
    </clipPath>
  </defs>
  <g id="soundWaves" transform="translate(-44 -414.308)">
    <g id="Waves" transform="translate(-17.371 106.751)" opacity="0.5">
      <g id="Group_4" data-name="Group 4" transform="translate(1011.637 313.455)">
        <path id="Path_55" data-name="Path 55" d="M725.022,397.313v-6.138c0-1.042,1.235-1.886,2.757-1.886h0c1.522,0,2.757.844,2.757,1.886v11.973c0,1.042-1.235,1.886-2.757,1.886h0c-1.522,0-2.757-.844-2.757-1.886Z" transform="translate(-725.022 -333.553)" fill="#fff"/>
        <path id="Path_56" data-name="Path 56" d="M737.21,393.007V374.924c0-1.041,1.233-1.885,2.756-1.885h0c1.522,0,2.757.844,2.757,1.885v35.861c0,1.042-1.234,1.885-2.757,1.885h0c-1.523,0-2.756-.844-2.756-1.885Z" transform="translate(-724.115 -329.246)" fill="#fff"/>
        <path id="Path_57" data-name="Path 57" d="M749.4,385.98V348.411c0-1.041,1.235-1.886,2.757-1.886h0c1.523,0,2.757.845,2.757,1.886v74.834c0,1.041-1.235,1.886-2.757,1.886h0c-1.522,0-2.757-.845-2.757-1.886Z" transform="translate(-723.207 -322.219)" fill="#fff"/>
        <path id="Path_58" data-name="Path 58" d="M761.584,377.215V315.34c0-1.041,1.233-1.885,2.756-1.885H767.1V438.786c0,1.041-1.235,1.885-2.757,1.885h0c-1.522,0-2.756-.845-2.756-1.885Z" transform="translate(-722.3 -313.455)" fill="#fff"/>
        <path id="Path_59" data-name="Path 59" d="M773.77,390.929V367.084c0-1.041,1.234-1.885,2.757-1.885h0c1.522,0,2.757.844,2.757,1.885v47.385c0,1.041-1.234,1.885-2.757,1.885h0c-1.523,0-2.757-.844-2.757-1.885Z" transform="translate(-721.393 -327.169)" fill="#fff"/>
        <path id="Path_60" data-name="Path 60" d="M785.958,394.216v-14.73c0-1.041,1.233-1.886,2.756-1.886h0c1.522,0,2.757.844,2.757,1.886v29.155c0,1.041-1.235,1.886-2.757,1.886h0c-1.522,0-2.756-.844-2.756-1.886Z" transform="translate(-720.486 -330.455)" fill="#fff"/>
        <path id="Path_61" data-name="Path 61" d="M798.144,385.262V345.7c0-1.041,1.235-1.885,2.757-1.885h0c1.522,0,2.757.845,2.757,1.885v78.816c0,1.041-1.235,1.885-2.757,1.885h0c-1.522,0-2.757-.844-2.757-1.885Z" transform="translate(-719.579 -321.502)" fill="#fff"/>
        <path id="Path_62" data-name="Path 62" d="M810.332,390.929V367.084c0-1.041,1.233-1.885,2.756-1.885h0c1.523,0,2.757.844,2.757,1.885v47.385c0,1.041-1.234,1.885-2.757,1.885h0c-1.523,0-2.756-.844-2.756-1.885Z" transform="translate(-718.671 -327.169)" fill="#fff"/>
        <path id="Path_63" data-name="Path 63" d="M824.939,435.618c-1.522,0-2.757-.844-2.757-1.885V326.094c0-1.042,1.234-1.885,2.757-1.885h0c1.523,0,2.756.844,2.756,1.885V433.733c0,1.041-1.233,1.885-2.756,1.885Z" transform="translate(-717.789 -316.305)" fill="#fff"/>
        <path id="Path_64" data-name="Path 64" d="M939.011,397.313v-6.138c0-1.042-1.235-1.886-2.757-1.886h0c-1.522,0-2.757.844-2.757,1.886v11.973c0,1.042,1.235,1.886,2.757,1.886h0c1.522,0,2.757-.844,2.757-1.886Z" transform="translate(-709.502 -333.553)" fill="#fff"/>
        <path id="Path_65" data-name="Path 65" d="M926.824,393.007V374.924c0-1.041-1.235-1.885-2.757-1.885h0c-1.522,0-2.757.844-2.757,1.885v35.861c0,1.042,1.235,1.885,2.757,1.885h0c1.522,0,2.757-.844,2.757-1.885Z" transform="translate(-710.409 -329.246)" fill="#fff"/>
        <path id="Path_66" data-name="Path 66" d="M914.637,385.98V348.411c0-1.041-1.234-1.886-2.757-1.886h0c-1.523,0-2.757.845-2.757,1.886v74.834c0,1.041,1.234,1.886,2.757,1.886h0c1.523,0,2.757-.845,2.757-1.886Z" transform="translate(-711.317 -322.219)" fill="#fff"/>
        <path id="Path_67" data-name="Path 67" d="M902.45,377.215V315.34c0-1.041-1.235-1.885-2.757-1.885h-2.757V438.786c0,1.041,1.235,1.885,2.757,1.885h0c1.522,0,2.757-.845,2.757-1.885Z" transform="translate(-712.224 -313.455)" fill="#fff"/>
        <path id="Path_68" data-name="Path 68" d="M890.263,390.929V367.084c0-1.041-1.235-1.885-2.757-1.885h0c-1.522,0-2.757.844-2.757,1.885v47.385c0,1.041,1.235,1.885,2.757,1.885h0c1.522,0,2.757-.844,2.757-1.885Z" transform="translate(-713.131 -327.169)" fill="#fff"/>
        <path id="Path_69" data-name="Path 69" d="M878.076,394.216v-14.73c0-1.041-1.234-1.886-2.757-1.886h0c-1.522,0-2.756.844-2.756,1.886v29.155c0,1.041,1.233,1.886,2.756,1.886h0c1.523,0,2.757-.844,2.757-1.886Z" transform="translate(-714.038 -330.455)" fill="#fff"/>
        <path id="Path_70" data-name="Path 70" d="M865.889,385.262V345.7c0-1.041-1.235-1.885-2.757-1.885h0c-1.522,0-2.757.845-2.757,1.885v78.816c0,1.041,1.235,1.885,2.757,1.885h0c1.522,0,2.757-.844,2.757-1.885Z" transform="translate(-714.946 -321.502)" fill="#fff"/>
        <path id="Path_71" data-name="Path 71" d="M853.7,390.929V367.084c0-1.041-1.235-1.885-2.757-1.885h0c-1.523,0-2.756.844-2.756,1.885v47.385c0,1.041,1.233,1.885,2.756,1.885h0c1.522,0,2.757-.844,2.757-1.885Z" transform="translate(-715.853 -327.169)" fill="#fff"/>
        <path id="Path_72" data-name="Path 72" d="M839.1,435.618c1.521,0,2.756-.844,2.756-1.885V326.094c0-1.042-1.235-1.885-2.756-1.885h0c-1.522,0-2.757.844-2.757,1.885V433.733c0,1.041,1.235,1.885,2.757,1.885Z" transform="translate(-716.735 -316.305)" fill="#fff"/>
      </g>
      <g id="Group_3" data-name="Group 3" transform="translate(773.533 313.455)">
        <path id="Path_37" data-name="Path 37" d="M502.948,397.313v-6.138c0-1.042,1.233-1.886,2.756-1.886h0c1.522,0,2.756.844,2.756,1.886v11.973c0,1.042-1.233,1.886-2.756,1.886h0c-1.522,0-2.756-.844-2.756-1.886Z" transform="translate(-502.948 -333.553)" fill="#fff"/>
        <path id="Path_38" data-name="Path 38" d="M515.135,393.007V374.924c0-1.041,1.233-1.885,2.756-1.885h0c1.523,0,2.757.844,2.757,1.885v35.861c0,1.042-1.234,1.885-2.757,1.885h0c-1.522,0-2.756-.844-2.756-1.885Z" transform="translate(-502.041 -329.246)" fill="#fff"/>
        <path id="Path_39" data-name="Path 39" d="M527.322,385.98V348.411c0-1.041,1.233-1.886,2.756-1.886h0c1.521,0,2.756.845,2.756,1.886v74.834c0,1.041-1.234,1.886-2.756,1.886h0c-1.523,0-2.756-.845-2.756-1.886Z" transform="translate(-501.133 -322.219)" fill="#fff"/>
        <path id="Path_40" data-name="Path 40" d="M539.509,377.215V315.34c0-1.041,1.234-1.885,2.756-1.885h2.757V438.786c0,1.041-1.235,1.885-2.757,1.885h0c-1.522,0-2.756-.845-2.756-1.885Z" transform="translate(-500.226 -313.455)" fill="#fff"/>
        <path id="Path_41" data-name="Path 41" d="M551.7,390.929V367.084c0-1.041,1.234-1.885,2.757-1.885h0c1.521,0,2.756.844,2.756,1.885v47.385c0,1.041-1.235,1.885-2.756,1.885h0c-1.522,0-2.757-.844-2.757-1.885Z" transform="translate(-499.319 -327.169)" fill="#fff"/>
        <path id="Path_42" data-name="Path 42" d="M563.883,394.216v-14.73c0-1.041,1.233-1.886,2.756-1.886h0c1.522,0,2.757.844,2.757,1.886v29.155c0,1.041-1.234,1.886-2.757,1.886h0c-1.523,0-2.756-.844-2.756-1.886Z" transform="translate(-498.412 -330.455)" fill="#fff"/>
        <path id="Path_43" data-name="Path 43" d="M576.069,385.262V345.7c0-1.041,1.235-1.885,2.757-1.885h0c1.521,0,2.756.845,2.756,1.885v78.816c0,1.041-1.235,1.885-2.756,1.885h0c-1.522,0-2.757-.844-2.757-1.885Z" transform="translate(-497.505 -321.502)" fill="#fff"/>
        <path id="Path_44" data-name="Path 44" d="M588.257,390.929V367.084c0-1.041,1.233-1.885,2.756-1.885h0c1.523,0,2.757.844,2.757,1.885v47.385c0,1.041-1.234,1.885-2.757,1.885h0c-1.522,0-2.756-.844-2.756-1.885Z" transform="translate(-496.597 -327.169)" fill="#fff"/>
        <path id="Path_45" data-name="Path 45" d="M602.864,435.618c-1.522,0-2.757-.844-2.757-1.885V326.094c0-1.042,1.234-1.885,2.757-1.885h0c1.523,0,2.757.844,2.757,1.885V433.733c0,1.041-1.234,1.885-2.757,1.885Z" transform="translate(-495.715 -316.305)" fill="#fff"/>
        <path id="Path_46" data-name="Path 46" d="M716.936,397.313v-6.138c0-1.042-1.235-1.886-2.757-1.886h0c-1.522,0-2.757.844-2.757,1.886v11.973c0,1.042,1.235,1.886,2.757,1.886h0c1.523,0,2.757-.844,2.757-1.886Z" transform="translate(-487.428 -333.553)" fill="#fff"/>
        <path id="Path_47" data-name="Path 47" d="M704.749,393.007V374.924c0-1.041-1.234-1.885-2.757-1.885h0c-1.523,0-2.756.844-2.756,1.885v35.861c0,1.042,1.233,1.885,2.756,1.885h0c1.522,0,2.757-.844,2.757-1.885Z" transform="translate(-488.335 -329.246)" fill="#fff"/>
        <path id="Path_48" data-name="Path 48" d="M692.562,385.98V348.411c0-1.041-1.234-1.886-2.757-1.886h0c-1.522,0-2.757.845-2.757,1.886v74.834c0,1.041,1.235,1.886,2.757,1.886h0c1.523,0,2.757-.845,2.757-1.886Z" transform="translate(-489.243 -322.219)" fill="#fff"/>
        <path id="Path_49" data-name="Path 49" d="M680.375,377.215V315.34c0-1.041-1.235-1.885-2.757-1.885h-2.756V438.786c0,1.041,1.233,1.885,2.756,1.885h0c1.522,0,2.757-.845,2.757-1.885Z" transform="translate(-490.15 -313.455)" fill="#fff"/>
        <path id="Path_50" data-name="Path 50" d="M668.188,390.929V367.084c0-1.041-1.235-1.885-2.757-1.885h0c-1.523,0-2.757.844-2.757,1.885v47.385c0,1.041,1.234,1.885,2.757,1.885h0c1.522,0,2.757-.844,2.757-1.885Z" transform="translate(-491.057 -327.169)" fill="#fff"/>
        <path id="Path_51" data-name="Path 51" d="M656,394.216v-14.73c0-1.041-1.235-1.886-2.757-1.886h0c-1.522,0-2.756.844-2.756,1.886v29.155c0,1.041,1.233,1.886,2.756,1.886h0c1.523,0,2.757-.844,2.757-1.886Z" transform="translate(-491.964 -330.455)" fill="#fff"/>
        <path id="Path_52" data-name="Path 52" d="M643.814,385.262V345.7c0-1.041-1.235-1.885-2.756-1.885h0c-1.523,0-2.757.845-2.757,1.885v78.816c0,1.041,1.235,1.885,2.757,1.885h0c1.521,0,2.756-.844,2.756-1.885Z" transform="translate(-492.872 -321.502)" fill="#fff"/>
        <path id="Path_53" data-name="Path 53" d="M631.627,390.929V367.084c0-1.041-1.234-1.885-2.757-1.885h0c-1.523,0-2.756.844-2.756,1.885v47.385c0,1.041,1.233,1.885,2.756,1.885h0c1.522,0,2.757-.844,2.757-1.885Z" transform="translate(-493.779 -327.169)" fill="#fff"/>
        <path id="Path_54" data-name="Path 54" d="M617.02,435.618c1.522,0,2.756-.844,2.756-1.885V326.094c0-1.042-1.234-1.885-2.756-1.885h0c-1.522,0-2.757.844-2.757,1.885V433.733c0,1.041,1.235,1.885,2.757,1.885Z" transform="translate(-494.661 -316.305)" fill="#fff"/>
      </g>
      <g id="Group_24116" data-name="Group 24116" transform="translate(535.43 313.455)">
        <path id="Path_37-2" data-name="Path 37" d="M502.948,397.313v-6.138c0-1.042,1.233-1.886,2.756-1.886h0c1.522,0,2.756.844,2.756,1.886v11.973c0,1.042-1.233,1.886-2.756,1.886h0c-1.522,0-2.756-.844-2.756-1.886Z" transform="translate(-502.948 -333.553)" fill="#fff"/>
        <path id="Path_38-2" data-name="Path 38" d="M515.135,393.007V374.924c0-1.041,1.233-1.885,2.756-1.885h0c1.523,0,2.757.844,2.757,1.885v35.861c0,1.042-1.234,1.885-2.757,1.885h0c-1.522,0-2.756-.844-2.756-1.885Z" transform="translate(-502.041 -329.246)" fill="#fff"/>
        <path id="Path_39-2" data-name="Path 39" d="M527.322,385.98V348.411c0-1.041,1.233-1.886,2.756-1.886h0c1.521,0,2.756.845,2.756,1.886v74.834c0,1.041-1.234,1.886-2.756,1.886h0c-1.523,0-2.756-.845-2.756-1.886Z" transform="translate(-501.133 -322.219)" fill="#fff"/>
        <path id="Path_40-2" data-name="Path 40" d="M539.509,377.215V315.34c0-1.041,1.234-1.885,2.756-1.885h2.757V438.786c0,1.041-1.235,1.885-2.757,1.885h0c-1.522,0-2.756-.845-2.756-1.885Z" transform="translate(-500.226 -313.455)" fill="#fff"/>
        <path id="Path_41-2" data-name="Path 41" d="M551.7,390.929V367.084c0-1.041,1.234-1.885,2.757-1.885h0c1.521,0,2.756.844,2.756,1.885v47.385c0,1.041-1.235,1.885-2.756,1.885h0c-1.522,0-2.757-.844-2.757-1.885Z" transform="translate(-499.319 -327.169)" fill="#fff"/>
        <path id="Path_42-2" data-name="Path 42" d="M563.883,394.216v-14.73c0-1.041,1.233-1.886,2.756-1.886h0c1.522,0,2.757.844,2.757,1.886v29.155c0,1.041-1.234,1.886-2.757,1.886h0c-1.523,0-2.756-.844-2.756-1.886Z" transform="translate(-498.412 -330.455)" fill="#fff"/>
        <path id="Path_43-2" data-name="Path 43" d="M576.069,385.262V345.7c0-1.041,1.235-1.885,2.757-1.885h0c1.521,0,2.756.845,2.756,1.885v78.816c0,1.041-1.235,1.885-2.756,1.885h0c-1.522,0-2.757-.844-2.757-1.885Z" transform="translate(-497.505 -321.502)" fill="#fff"/>
        <path id="Path_44-2" data-name="Path 44" d="M588.257,390.929V367.084c0-1.041,1.233-1.885,2.756-1.885h0c1.523,0,2.757.844,2.757,1.885v47.385c0,1.041-1.234,1.885-2.757,1.885h0c-1.522,0-2.756-.844-2.756-1.885Z" transform="translate(-496.597 -327.169)" fill="#fff"/>
        <path id="Path_45-2" data-name="Path 45" d="M602.864,435.618c-1.522,0-2.757-.844-2.757-1.885V326.094c0-1.042,1.234-1.885,2.757-1.885h0c1.523,0,2.757.844,2.757,1.885V433.733c0,1.041-1.234,1.885-2.757,1.885Z" transform="translate(-495.715 -316.305)" fill="#fff"/>
        <path id="Path_46-2" data-name="Path 46" d="M716.936,397.313v-6.138c0-1.042-1.235-1.886-2.757-1.886h0c-1.522,0-2.757.844-2.757,1.886v11.973c0,1.042,1.235,1.886,2.757,1.886h0c1.523,0,2.757-.844,2.757-1.886Z" transform="translate(-487.428 -333.553)" fill="#fff"/>
        <path id="Path_47-2" data-name="Path 47" d="M704.749,393.007V374.924c0-1.041-1.234-1.885-2.757-1.885h0c-1.523,0-2.756.844-2.756,1.885v35.861c0,1.042,1.233,1.885,2.756,1.885h0c1.522,0,2.757-.844,2.757-1.885Z" transform="translate(-488.335 -329.246)" fill="#fff"/>
        <path id="Path_48-2" data-name="Path 48" d="M692.562,385.98V348.411c0-1.041-1.234-1.886-2.757-1.886h0c-1.522,0-2.757.845-2.757,1.886v74.834c0,1.041,1.235,1.886,2.757,1.886h0c1.523,0,2.757-.845,2.757-1.886Z" transform="translate(-489.243 -322.219)" fill="#fff"/>
        <path id="Path_49-2" data-name="Path 49" d="M680.375,377.215V315.34c0-1.041-1.235-1.885-2.757-1.885h-2.756V438.786c0,1.041,1.233,1.885,2.756,1.885h0c1.522,0,2.757-.845,2.757-1.885Z" transform="translate(-490.15 -313.455)" fill="#fff"/>
        <path id="Path_50-2" data-name="Path 50" d="M668.188,390.929V367.084c0-1.041-1.235-1.885-2.757-1.885h0c-1.523,0-2.757.844-2.757,1.885v47.385c0,1.041,1.234,1.885,2.757,1.885h0c1.522,0,2.757-.844,2.757-1.885Z" transform="translate(-491.057 -327.169)" fill="#fff"/>
        <path id="Path_51-2" data-name="Path 51" d="M656,394.216v-14.73c0-1.041-1.235-1.886-2.757-1.886h0c-1.522,0-2.756.844-2.756,1.886v29.155c0,1.041,1.233,1.886,2.756,1.886h0c1.523,0,2.757-.844,2.757-1.886Z" transform="translate(-491.964 -330.455)" fill="#fff"/>
        <path id="Path_52-2" data-name="Path 52" d="M643.814,385.262V345.7c0-1.041-1.235-1.885-2.756-1.885h0c-1.523,0-2.757.845-2.757,1.885v78.816c0,1.041,1.235,1.885,2.757,1.885h0c1.521,0,2.756-.844,2.756-1.885Z" transform="translate(-492.872 -321.502)" fill="#fff"/>
        <path id="Path_53-2" data-name="Path 53" d="M631.627,390.929V367.084c0-1.041-1.234-1.885-2.757-1.885h0c-1.523,0-2.756.844-2.756,1.885v47.385c0,1.041,1.233,1.885,2.756,1.885h0c1.522,0,2.757-.844,2.757-1.885Z" transform="translate(-493.779 -327.169)" fill="#fff"/>
        <path id="Path_54-2" data-name="Path 54" d="M617.02,435.618c1.522,0,2.756-.844,2.756-1.885V326.094c0-1.042-1.234-1.885-2.756-1.885h0c-1.522,0-2.757.844-2.757,1.885V433.733c0,1.041,1.235,1.885,2.757,1.885Z" transform="translate(-494.661 -316.305)" fill="#fff"/>
      </g>
      <g id="Group_2" data-name="Group 2" transform="translate(297.214 313.455)">
        <path id="Path_19" data-name="Path 19" d="M280.873,397.313v-6.138c0-1.042,1.233-1.886,2.756-1.886h0c1.522,0,2.756.844,2.756,1.886v11.973c0,1.042-1.233,1.886-2.756,1.886h0c-1.522,0-2.756-.844-2.756-1.886Z" transform="translate(-280.873 -333.553)" fill="#fff"/>
        <path id="Path_20" data-name="Path 20" d="M293.06,393.007V374.924c0-1.041,1.235-1.885,2.756-1.885h0c1.522,0,2.757.844,2.757,1.885v35.861c0,1.042-1.235,1.885-2.757,1.885h0c-1.521,0-2.756-.844-2.756-1.885Z" transform="translate(-279.966 -329.246)" fill="#fff"/>
        <path id="Path_21" data-name="Path 21" d="M305.247,385.98V348.411c0-1.041,1.233-1.886,2.756-1.886h0c1.523,0,2.756.845,2.756,1.886v74.834c0,1.041-1.233,1.886-2.756,1.886h0c-1.523,0-2.756-.845-2.756-1.886Z" transform="translate(-279.058 -322.219)" fill="#fff"/>
        <path id="Path_22" data-name="Path 22" d="M317.434,377.215V315.34c0-1.041,1.235-1.885,2.756-1.885h2.757V438.786c0,1.041-1.235,1.885-2.757,1.885h0c-1.521,0-2.756-.845-2.756-1.885Z" transform="translate(-278.151 -313.455)" fill="#fff"/>
        <path id="Path_23" data-name="Path 23" d="M329.621,390.929V367.084c0-1.041,1.233-1.885,2.756-1.885h0c1.522,0,2.756.844,2.756,1.885v47.385c0,1.041-1.233,1.885-2.756,1.885h0c-1.522,0-2.756-.844-2.756-1.885Z" transform="translate(-277.244 -327.169)" fill="#fff"/>
        <path id="Path_24" data-name="Path 24" d="M341.808,394.216v-14.73c0-1.041,1.235-1.886,2.756-1.886h0c1.523,0,2.757.844,2.757,1.886v29.155c0,1.041-1.235,1.886-2.757,1.886h0c-1.521,0-2.756-.844-2.756-1.886Z" transform="translate(-276.337 -330.455)" fill="#fff"/>
        <path id="Path_25" data-name="Path 25" d="M353.995,385.262V345.7c0-1.041,1.233-1.885,2.756-1.885h0c1.522,0,2.756.845,2.756,1.885v78.816c0,1.041-1.233,1.885-2.756,1.885h0c-1.522,0-2.756-.844-2.756-1.885Z" transform="translate(-275.429 -321.502)" fill="#fff"/>
        <path id="Path_26" data-name="Path 26" d="M366.182,390.929V367.084c0-1.041,1.235-1.885,2.756-1.885h0c1.522,0,2.757.844,2.757,1.885v47.385c0,1.041-1.235,1.885-2.757,1.885h0c-1.521,0-2.756-.844-2.756-1.885Z" transform="translate(-274.522 -327.169)" fill="#fff"/>
        <path id="Path_27" data-name="Path 27" d="M380.789,435.618c-1.522,0-2.757-.844-2.757-1.885V326.094c0-1.042,1.235-1.885,2.757-1.885h0c1.523,0,2.757.844,2.757,1.885V433.733c0,1.041-1.235,1.885-2.757,1.885Z" transform="translate(-273.64 -316.305)" fill="#fff"/>
        <path id="Path_28" data-name="Path 28" d="M494.861,397.313v-6.138c0-1.042-1.233-1.886-2.756-1.886h0c-1.522,0-2.756.844-2.756,1.886v11.973c0,1.042,1.233,1.886,2.756,1.886h0c1.522,0,2.756-.844,2.756-1.886Z" transform="translate(-265.353 -333.553)" fill="#fff"/>
        <path id="Path_29" data-name="Path 29" d="M482.674,393.007V374.924c0-1.041-1.235-1.885-2.757-1.885h0c-1.523,0-2.756.844-2.756,1.885v35.861c0,1.042,1.233,1.885,2.756,1.885h0c1.522,0,2.757-.844,2.757-1.885Z" transform="translate(-266.26 -329.246)" fill="#fff"/>
        <path id="Path_30" data-name="Path 30" d="M470.487,385.98V348.411c0-1.041-1.233-1.886-2.756-1.886h0c-1.523,0-2.756.845-2.756,1.886v74.834c0,1.041,1.233,1.886,2.756,1.886h0c1.522,0,2.756-.845,2.756-1.886Z" transform="translate(-267.168 -322.219)" fill="#fff"/>
        <path id="Path_31" data-name="Path 31" d="M458.3,377.215V315.34c0-1.041-1.235-1.885-2.757-1.885h-2.756V438.786c0,1.041,1.233,1.885,2.756,1.885h0c1.522,0,2.757-.845,2.757-1.885Z" transform="translate(-268.075 -313.455)" fill="#fff"/>
        <path id="Path_32" data-name="Path 32" d="M446.113,390.929V367.084c0-1.041-1.233-1.885-2.756-1.885h0c-1.522,0-2.756.844-2.756,1.885v47.385c0,1.041,1.233,1.885,2.756,1.885h0c1.523,0,2.756-.844,2.756-1.885Z" transform="translate(-268.982 -327.169)" fill="#fff"/>
        <path id="Path_33" data-name="Path 33" d="M433.926,394.216v-14.73c0-1.041-1.235-1.886-2.757-1.886h0c-1.522,0-2.756.844-2.756,1.886v29.155c0,1.041,1.233,1.886,2.756,1.886h0c1.522,0,2.757-.844,2.757-1.886Z" transform="translate(-269.889 -330.455)" fill="#fff"/>
        <path id="Path_34" data-name="Path 34" d="M421.739,385.262V345.7c0-1.041-1.233-1.885-2.756-1.885h0c-1.522,0-2.756.845-2.756,1.885v78.816c0,1.041,1.233,1.885,2.756,1.885h0c1.523,0,2.756-.844,2.756-1.885Z" transform="translate(-270.797 -321.502)" fill="#fff"/>
        <path id="Path_35" data-name="Path 35" d="M409.552,390.929V367.084c0-1.041-1.235-1.885-2.757-1.885h0c-1.521,0-2.756.844-2.756,1.885v47.385c0,1.041,1.235,1.885,2.756,1.885h0c1.522,0,2.757-.844,2.757-1.885Z" transform="translate(-271.704 -327.169)" fill="#fff"/>
        <path id="Path_36" data-name="Path 36" d="M394.945,435.618c1.522,0,2.756-.844,2.756-1.885V326.094c0-1.042-1.233-1.885-2.756-1.885h0c-1.522,0-2.757.844-2.757,1.885V433.733c0,1.041,1.235,1.885,2.757,1.885Z" transform="translate(-272.586 -316.305)" fill="#fff"/>
      </g>
      <g id="Group_1" data-name="Group 1" transform="translate(61.371 313.455)">
        <path id="Path_1" data-name="Path 1" d="M61.371,397.313v-6.138c0-1.042,1.235-1.886,2.757-1.886h0c1.522,0,2.757.844,2.757,1.886v11.973c0,1.042-1.235,1.886-2.757,1.886h0c-1.522,0-2.757-.844-2.757-1.886Z" transform="translate(-61.371 -333.553)" fill="#fff"/>
        <path id="Path_2" data-name="Path 2" d="M73.558,393.007V374.924c0-1.041,1.235-1.885,2.757-1.885h0c1.522,0,2.757.844,2.757,1.885v35.861c0,1.042-1.235,1.885-2.757,1.885h0c-1.522,0-2.757-.844-2.757-1.885Z" transform="translate(-60.464 -329.246)" fill="#fff"/>
        <path id="Path_3" data-name="Path 3" d="M85.745,385.98V348.411c0-1.041,1.235-1.886,2.757-1.886h0c1.522,0,2.757.845,2.757,1.886v74.834c0,1.041-1.235,1.886-2.757,1.886h0c-1.522,0-2.757-.845-2.757-1.886Z" transform="translate(-59.556 -322.219)" fill="#fff"/>
        <path id="Path_4" data-name="Path 4" d="M97.932,377.215V315.34c0-1.041,1.235-1.885,2.757-1.885h2.757V438.786c0,1.041-1.235,1.885-2.757,1.885h0c-1.522,0-2.757-.845-2.757-1.885Z" transform="translate(-58.649 -313.455)" fill="#fff"/>
        <path id="Path_5" data-name="Path 5" d="M110.119,390.929V367.084c0-1.041,1.235-1.885,2.757-1.885h0c1.522,0,2.757.844,2.757,1.885v47.385c0,1.041-1.235,1.885-2.757,1.885h0c-1.522,0-2.757-.844-2.757-1.885Z" transform="translate(-57.742 -327.169)" fill="#fff"/>
        <path id="Path_6" data-name="Path 6" d="M122.306,394.216v-14.73c0-1.041,1.235-1.886,2.757-1.886h0c1.522,0,2.757.844,2.757,1.886v29.155c0,1.041-1.235,1.886-2.757,1.886h0c-1.522,0-2.757-.844-2.757-1.886Z" transform="translate(-56.835 -330.455)" fill="#fff"/>
        <path id="Path_7" data-name="Path 7" d="M134.493,385.262V345.7c0-1.041,1.235-1.885,2.757-1.885h0c1.522,0,2.757.845,2.757,1.885v78.816c0,1.041-1.235,1.885-2.757,1.885h0c-1.523,0-2.757-.844-2.757-1.885Z" transform="translate(-55.927 -321.502)" fill="#fff"/>
        <path id="Path_8" data-name="Path 8" d="M146.68,390.929V367.084c0-1.041,1.235-1.885,2.757-1.885h0c1.522,0,2.756.844,2.756,1.885v47.385c0,1.041-1.233,1.885-2.756,1.885h0c-1.523,0-2.757-.844-2.757-1.885Z" transform="translate(-55.02 -327.169)" fill="#fff"/>
        <path id="Path_9" data-name="Path 9" d="M161.287,435.618c-1.521,0-2.756-.844-2.756-1.885V326.094c0-1.042,1.235-1.885,2.756-1.885h0c1.524,0,2.757.844,2.757,1.885V433.733c0,1.041-1.233,1.885-2.757,1.885Z" transform="translate(-54.138 -316.305)" fill="#fff"/>
        <path id="Path_10" data-name="Path 10" d="M275.36,397.313v-6.138c0-1.042-1.235-1.886-2.757-1.886h0c-1.522,0-2.757.844-2.757,1.886v11.973c0,1.042,1.235,1.886,2.757,1.886h0c1.523,0,2.757-.844,2.757-1.886Z" transform="translate(-45.851 -333.553)" fill="#fff"/>
        <path id="Path_11" data-name="Path 11" d="M263.173,393.007V374.924c0-1.041-1.235-1.885-2.757-1.885h0c-1.522,0-2.757.844-2.757,1.885v35.861c0,1.042,1.235,1.885,2.757,1.885h0c1.522,0,2.757-.844,2.757-1.885Z" transform="translate(-46.758 -329.246)" fill="#fff"/>
        <path id="Path_12" data-name="Path 12" d="M250.986,385.98V348.411c0-1.041-1.235-1.886-2.757-1.886h0c-1.522,0-2.757.845-2.757,1.886v74.834c0,1.041,1.235,1.886,2.757,1.886h0c1.523,0,2.757-.845,2.757-1.886Z" transform="translate(-47.666 -322.219)" fill="#fff"/>
        <path id="Path_13" data-name="Path 13" d="M238.8,377.215V315.34c0-1.041-1.235-1.885-2.757-1.885h-2.757V438.786c0,1.041,1.235,1.885,2.757,1.885h0c1.523,0,2.757-.845,2.757-1.885Z" transform="translate(-48.573 -313.455)" fill="#fff"/>
        <path id="Path_14" data-name="Path 14" d="M226.612,390.929V367.084c0-1.041-1.235-1.885-2.757-1.885h0c-1.522,0-2.757.844-2.757,1.885v47.385c0,1.041,1.235,1.885,2.757,1.885h0c1.522,0,2.757-.844,2.757-1.885Z" transform="translate(-49.48 -327.169)" fill="#fff"/>
        <path id="Path_15" data-name="Path 15" d="M214.424,394.216v-14.73c0-1.041-1.233-1.886-2.756-1.886h0c-1.522,0-2.757.844-2.757,1.886v29.155c0,1.041,1.235,1.886,2.757,1.886h0c1.522,0,2.756-.844,2.756-1.886Z" transform="translate(-50.387 -330.455)" fill="#fff"/>
        <path id="Path_16" data-name="Path 16" d="M202.238,385.262V345.7c0-1.041-1.235-1.885-2.757-1.885h0c-1.522,0-2.757.845-2.757,1.885v78.816c0,1.041,1.235,1.885,2.757,1.885h0c1.523,0,2.757-.844,2.757-1.885Z" transform="translate(-51.295 -321.502)" fill="#fff"/>
        <path id="Path_17" data-name="Path 17" d="M190.05,390.929V367.084c0-1.041-1.233-1.885-2.756-1.885h0c-1.522,0-2.757.844-2.757,1.885v47.385c0,1.041,1.235,1.885,2.757,1.885h0c1.522,0,2.756-.844,2.756-1.885Z" transform="translate(-52.202 -327.169)" fill="#fff"/>
        <path id="Path_18" data-name="Path 18" d="M175.443,435.618c1.522,0,2.757-.844,2.757-1.885V326.094c0-1.042-1.235-1.885-2.757-1.885h0c-1.522,0-2.756.844-2.756,1.885V433.733c0,1.041,1.233,1.885,2.756,1.885Z" transform="translate(-53.084 -316.305)" fill="#fff"/>
      </g>
    </g>
    <g id="Mask_Group_15" data-name="Mask Group 15" opacity="0.75" clip-path="url(#clip-path)">
      <g id="Waves-2" data-name="Waves" transform="translate(-17.371 106.751)">
        <g id="Group_4-2" data-name="Group 4" transform="translate(1011.637 313.455)">
          <path id="Path_55-2" data-name="Path 55" d="M725.022,397.313v-6.138c0-1.042,1.235-1.886,2.757-1.886h0c1.522,0,2.757.844,2.757,1.886v11.973c0,1.042-1.235,1.886-2.757,1.886h0c-1.522,0-2.757-.844-2.757-1.886Z" transform="translate(-725.022 -333.553)" fill="#fff"/>
          <path id="Path_56-2" data-name="Path 56" d="M737.21,393.007V374.924c0-1.041,1.233-1.885,2.756-1.885h0c1.522,0,2.757.844,2.757,1.885v35.861c0,1.042-1.234,1.885-2.757,1.885h0c-1.523,0-2.756-.844-2.756-1.885Z" transform="translate(-724.115 -329.246)" fill="#fff"/>
          <path id="Path_57-2" data-name="Path 57" d="M749.4,385.98V348.411c0-1.041,1.235-1.886,2.757-1.886h0c1.523,0,2.757.845,2.757,1.886v74.834c0,1.041-1.235,1.886-2.757,1.886h0c-1.522,0-2.757-.845-2.757-1.886Z" transform="translate(-723.207 -322.219)" fill="#fff"/>
          <path id="Path_58-2" data-name="Path 58" d="M761.584,377.215V315.34c0-1.041,1.233-1.885,2.756-1.885H767.1V438.786c0,1.041-1.235,1.885-2.757,1.885h0c-1.522,0-2.756-.845-2.756-1.885Z" transform="translate(-722.3 -313.455)" fill="#fff"/>
          <path id="Path_59-2" data-name="Path 59" d="M773.77,390.929V367.084c0-1.041,1.234-1.885,2.757-1.885h0c1.522,0,2.757.844,2.757,1.885v47.385c0,1.041-1.234,1.885-2.757,1.885h0c-1.523,0-2.757-.844-2.757-1.885Z" transform="translate(-721.393 -327.169)" fill="#fff"/>
          <path id="Path_60-2" data-name="Path 60" d="M785.958,394.216v-14.73c0-1.041,1.233-1.886,2.756-1.886h0c1.522,0,2.757.844,2.757,1.886v29.155c0,1.041-1.235,1.886-2.757,1.886h0c-1.522,0-2.756-.844-2.756-1.886Z" transform="translate(-720.486 -330.455)" fill="#fff"/>
          <path id="Path_61-2" data-name="Path 61" d="M798.144,385.262V345.7c0-1.041,1.235-1.885,2.757-1.885h0c1.522,0,2.757.845,2.757,1.885v78.816c0,1.041-1.235,1.885-2.757,1.885h0c-1.522,0-2.757-.844-2.757-1.885Z" transform="translate(-719.579 -321.502)" fill="#fff"/>
          <path id="Path_62-2" data-name="Path 62" d="M810.332,390.929V367.084c0-1.041,1.233-1.885,2.756-1.885h0c1.523,0,2.757.844,2.757,1.885v47.385c0,1.041-1.234,1.885-2.757,1.885h0c-1.523,0-2.756-.844-2.756-1.885Z" transform="translate(-718.671 -327.169)" fill="#fff"/>
          <path id="Path_63-2" data-name="Path 63" d="M824.939,435.618c-1.522,0-2.757-.844-2.757-1.885V326.094c0-1.042,1.234-1.885,2.757-1.885h0c1.523,0,2.756.844,2.756,1.885V433.733c0,1.041-1.233,1.885-2.756,1.885Z" transform="translate(-717.789 -316.305)" fill="#fff"/>
          <path id="Path_64-2" data-name="Path 64" d="M939.011,397.313v-6.138c0-1.042-1.235-1.886-2.757-1.886h0c-1.522,0-2.757.844-2.757,1.886v11.973c0,1.042,1.235,1.886,2.757,1.886h0c1.522,0,2.757-.844,2.757-1.886Z" transform="translate(-709.502 -333.553)" fill="#fff"/>
          <path id="Path_65-2" data-name="Path 65" d="M926.824,393.007V374.924c0-1.041-1.235-1.885-2.757-1.885h0c-1.522,0-2.757.844-2.757,1.885v35.861c0,1.042,1.235,1.885,2.757,1.885h0c1.522,0,2.757-.844,2.757-1.885Z" transform="translate(-710.409 -329.246)" fill="#fff"/>
          <path id="Path_66-2" data-name="Path 66" d="M914.637,385.98V348.411c0-1.041-1.234-1.886-2.757-1.886h0c-1.523,0-2.757.845-2.757,1.886v74.834c0,1.041,1.234,1.886,2.757,1.886h0c1.523,0,2.757-.845,2.757-1.886Z" transform="translate(-711.317 -322.219)" fill="#fff"/>
          <path id="Path_67-2" data-name="Path 67" d="M902.45,377.215V315.34c0-1.041-1.235-1.885-2.757-1.885h-2.757V438.786c0,1.041,1.235,1.885,2.757,1.885h0c1.522,0,2.757-.845,2.757-1.885Z" transform="translate(-712.224 -313.455)" fill="#fff"/>
          <path id="Path_68-2" data-name="Path 68" d="M890.263,390.929V367.084c0-1.041-1.235-1.885-2.757-1.885h0c-1.522,0-2.757.844-2.757,1.885v47.385c0,1.041,1.235,1.885,2.757,1.885h0c1.522,0,2.757-.844,2.757-1.885Z" transform="translate(-713.131 -327.169)" fill="#fff"/>
          <path id="Path_69-2" data-name="Path 69" d="M878.076,394.216v-14.73c0-1.041-1.234-1.886-2.757-1.886h0c-1.522,0-2.756.844-2.756,1.886v29.155c0,1.041,1.233,1.886,2.756,1.886h0c1.523,0,2.757-.844,2.757-1.886Z" transform="translate(-714.038 -330.455)" fill="#fff"/>
          <path id="Path_70-2" data-name="Path 70" d="M865.889,385.262V345.7c0-1.041-1.235-1.885-2.757-1.885h0c-1.522,0-2.757.845-2.757,1.885v78.816c0,1.041,1.235,1.885,2.757,1.885h0c1.522,0,2.757-.844,2.757-1.885Z" transform="translate(-714.946 -321.502)" fill="#fff"/>
          <path id="Path_71-2" data-name="Path 71" d="M853.7,390.929V367.084c0-1.041-1.235-1.885-2.757-1.885h0c-1.523,0-2.756.844-2.756,1.885v47.385c0,1.041,1.233,1.885,2.756,1.885h0c1.522,0,2.757-.844,2.757-1.885Z" transform="translate(-715.853 -327.169)" fill="#fff"/>
          <path id="Path_72-2" data-name="Path 72" d="M839.1,435.618c1.521,0,2.756-.844,2.756-1.885V326.094c0-1.042-1.235-1.885-2.756-1.885h0c-1.522,0-2.757.844-2.757,1.885V433.733c0,1.041,1.235,1.885,2.757,1.885Z" transform="translate(-716.735 -316.305)" fill="#fff"/>
        </g>
        <g id="Group_3-2" data-name="Group 3" transform="translate(773.533 313.455)">
          <path id="Path_37-3" data-name="Path 37" d="M502.948,397.313v-6.138c0-1.042,1.233-1.886,2.756-1.886h0c1.522,0,2.756.844,2.756,1.886v11.973c0,1.042-1.233,1.886-2.756,1.886h0c-1.522,0-2.756-.844-2.756-1.886Z" transform="translate(-502.948 -333.553)" fill="#fff"/>
          <path id="Path_38-3" data-name="Path 38" d="M515.135,393.007V374.924c0-1.041,1.233-1.885,2.756-1.885h0c1.523,0,2.757.844,2.757,1.885v35.861c0,1.042-1.234,1.885-2.757,1.885h0c-1.522,0-2.756-.844-2.756-1.885Z" transform="translate(-502.041 -329.246)" fill="#fff"/>
          <path id="Path_39-3" data-name="Path 39" d="M527.322,385.98V348.411c0-1.041,1.233-1.886,2.756-1.886h0c1.521,0,2.756.845,2.756,1.886v74.834c0,1.041-1.234,1.886-2.756,1.886h0c-1.523,0-2.756-.845-2.756-1.886Z" transform="translate(-501.133 -322.219)" fill="#fff"/>
          <path id="Path_40-3" data-name="Path 40" d="M539.509,377.215V315.34c0-1.041,1.234-1.885,2.756-1.885h2.757V438.786c0,1.041-1.235,1.885-2.757,1.885h0c-1.522,0-2.756-.845-2.756-1.885Z" transform="translate(-500.226 -313.455)" fill="#fff"/>
          <path id="Path_41-3" data-name="Path 41" d="M551.7,390.929V367.084c0-1.041,1.234-1.885,2.757-1.885h0c1.521,0,2.756.844,2.756,1.885v47.385c0,1.041-1.235,1.885-2.756,1.885h0c-1.522,0-2.757-.844-2.757-1.885Z" transform="translate(-499.319 -327.169)" fill="#fff"/>
          <path id="Path_42-3" data-name="Path 42" d="M563.883,394.216v-14.73c0-1.041,1.233-1.886,2.756-1.886h0c1.522,0,2.757.844,2.757,1.886v29.155c0,1.041-1.234,1.886-2.757,1.886h0c-1.523,0-2.756-.844-2.756-1.886Z" transform="translate(-498.412 -330.455)" fill="#fff"/>
          <path id="Path_43-3" data-name="Path 43" d="M576.069,385.262V345.7c0-1.041,1.235-1.885,2.757-1.885h0c1.521,0,2.756.845,2.756,1.885v78.816c0,1.041-1.235,1.885-2.756,1.885h0c-1.522,0-2.757-.844-2.757-1.885Z" transform="translate(-497.505 -321.502)" fill="#fff"/>
          <path id="Path_44-3" data-name="Path 44" d="M588.257,390.929V367.084c0-1.041,1.233-1.885,2.756-1.885h0c1.523,0,2.757.844,2.757,1.885v47.385c0,1.041-1.234,1.885-2.757,1.885h0c-1.522,0-2.756-.844-2.756-1.885Z" transform="translate(-496.597 -327.169)" fill="#fff"/>
          <path id="Path_45-3" data-name="Path 45" d="M602.864,435.618c-1.522,0-2.757-.844-2.757-1.885V326.094c0-1.042,1.234-1.885,2.757-1.885h0c1.523,0,2.757.844,2.757,1.885V433.733c0,1.041-1.234,1.885-2.757,1.885Z" transform="translate(-495.715 -316.305)" fill="#fff"/>
          <path id="Path_46-3" data-name="Path 46" d="M716.936,397.313v-6.138c0-1.042-1.235-1.886-2.757-1.886h0c-1.522,0-2.757.844-2.757,1.886v11.973c0,1.042,1.235,1.886,2.757,1.886h0c1.523,0,2.757-.844,2.757-1.886Z" transform="translate(-487.428 -333.553)" fill="#fff"/>
          <path id="Path_47-3" data-name="Path 47" d="M704.749,393.007V374.924c0-1.041-1.234-1.885-2.757-1.885h0c-1.523,0-2.756.844-2.756,1.885v35.861c0,1.042,1.233,1.885,2.756,1.885h0c1.522,0,2.757-.844,2.757-1.885Z" transform="translate(-488.335 -329.246)" fill="#fff"/>
          <path id="Path_48-3" data-name="Path 48" d="M692.562,385.98V348.411c0-1.041-1.234-1.886-2.757-1.886h0c-1.522,0-2.757.845-2.757,1.886v74.834c0,1.041,1.235,1.886,2.757,1.886h0c1.523,0,2.757-.845,2.757-1.886Z" transform="translate(-489.243 -322.219)" fill="#fff"/>
          <path id="Path_49-3" data-name="Path 49" d="M680.375,377.215V315.34c0-1.041-1.235-1.885-2.757-1.885h-2.756V438.786c0,1.041,1.233,1.885,2.756,1.885h0c1.522,0,2.757-.845,2.757-1.885Z" transform="translate(-490.15 -313.455)" fill="#fff"/>
          <path id="Path_50-3" data-name="Path 50" d="M668.188,390.929V367.084c0-1.041-1.235-1.885-2.757-1.885h0c-1.523,0-2.757.844-2.757,1.885v47.385c0,1.041,1.234,1.885,2.757,1.885h0c1.522,0,2.757-.844,2.757-1.885Z" transform="translate(-491.057 -327.169)" fill="#fff"/>
          <path id="Path_51-3" data-name="Path 51" d="M656,394.216v-14.73c0-1.041-1.235-1.886-2.757-1.886h0c-1.522,0-2.756.844-2.756,1.886v29.155c0,1.041,1.233,1.886,2.756,1.886h0c1.523,0,2.757-.844,2.757-1.886Z" transform="translate(-491.964 -330.455)" fill="#fff"/>
          <path id="Path_52-3" data-name="Path 52" d="M643.814,385.262V345.7c0-1.041-1.235-1.885-2.756-1.885h0c-1.523,0-2.757.845-2.757,1.885v78.816c0,1.041,1.235,1.885,2.757,1.885h0c1.521,0,2.756-.844,2.756-1.885Z" transform="translate(-492.872 -321.502)" fill="#fff"/>
          <path id="Path_53-3" data-name="Path 53" d="M631.627,390.929V367.084c0-1.041-1.234-1.885-2.757-1.885h0c-1.523,0-2.756.844-2.756,1.885v47.385c0,1.041,1.233,1.885,2.756,1.885h0c1.522,0,2.757-.844,2.757-1.885Z" transform="translate(-493.779 -327.169)" fill="#fff"/>
          <path id="Path_54-3" data-name="Path 54" d="M617.02,435.618c1.522,0,2.756-.844,2.756-1.885V326.094c0-1.042-1.234-1.885-2.756-1.885h0c-1.522,0-2.757.844-2.757,1.885V433.733c0,1.041,1.235,1.885,2.757,1.885Z" transform="translate(-494.661 -316.305)" fill="#fff"/>
        </g>
        <g id="Group_24116-2" data-name="Group 24116" transform="translate(535.43 313.455)">
          <path id="Path_37-4" data-name="Path 37" d="M502.948,397.313v-6.138c0-1.042,1.233-1.886,2.756-1.886h0c1.522,0,2.756.844,2.756,1.886v11.973c0,1.042-1.233,1.886-2.756,1.886h0c-1.522,0-2.756-.844-2.756-1.886Z" transform="translate(-502.948 -333.553)" fill="#fff"/>
          <path id="Path_38-4" data-name="Path 38" d="M515.135,393.007V374.924c0-1.041,1.233-1.885,2.756-1.885h0c1.523,0,2.757.844,2.757,1.885v35.861c0,1.042-1.234,1.885-2.757,1.885h0c-1.522,0-2.756-.844-2.756-1.885Z" transform="translate(-502.041 -329.246)" fill="#fff"/>
          <path id="Path_39-4" data-name="Path 39" d="M527.322,385.98V348.411c0-1.041,1.233-1.886,2.756-1.886h0c1.521,0,2.756.845,2.756,1.886v74.834c0,1.041-1.234,1.886-2.756,1.886h0c-1.523,0-2.756-.845-2.756-1.886Z" transform="translate(-501.133 -322.219)" fill="#fff"/>
          <path id="Path_40-4" data-name="Path 40" d="M539.509,377.215V315.34c0-1.041,1.234-1.885,2.756-1.885h2.757V438.786c0,1.041-1.235,1.885-2.757,1.885h0c-1.522,0-2.756-.845-2.756-1.885Z" transform="translate(-500.226 -313.455)" fill="#fff"/>
          <path id="Path_41-4" data-name="Path 41" d="M551.7,390.929V367.084c0-1.041,1.234-1.885,2.757-1.885h0c1.521,0,2.756.844,2.756,1.885v47.385c0,1.041-1.235,1.885-2.756,1.885h0c-1.522,0-2.757-.844-2.757-1.885Z" transform="translate(-499.319 -327.169)" fill="#fff"/>
          <path id="Path_42-4" data-name="Path 42" d="M563.883,394.216v-14.73c0-1.041,1.233-1.886,2.756-1.886h0c1.522,0,2.757.844,2.757,1.886v29.155c0,1.041-1.234,1.886-2.757,1.886h0c-1.523,0-2.756-.844-2.756-1.886Z" transform="translate(-498.412 -330.455)" fill="#fff"/>
          <path id="Path_43-4" data-name="Path 43" d="M576.069,385.262V345.7c0-1.041,1.235-1.885,2.757-1.885h0c1.521,0,2.756.845,2.756,1.885v78.816c0,1.041-1.235,1.885-2.756,1.885h0c-1.522,0-2.757-.844-2.757-1.885Z" transform="translate(-497.505 -321.502)" fill="#fff"/>
          <path id="Path_44-4" data-name="Path 44" d="M588.257,390.929V367.084c0-1.041,1.233-1.885,2.756-1.885h0c1.523,0,2.757.844,2.757,1.885v47.385c0,1.041-1.234,1.885-2.757,1.885h0c-1.522,0-2.756-.844-2.756-1.885Z" transform="translate(-496.597 -327.169)" fill="#fff"/>
          <path id="Path_45-4" data-name="Path 45" d="M602.864,435.618c-1.522,0-2.757-.844-2.757-1.885V326.094c0-1.042,1.234-1.885,2.757-1.885h0c1.523,0,2.757.844,2.757,1.885V433.733c0,1.041-1.234,1.885-2.757,1.885Z" transform="translate(-495.715 -316.305)" fill="#fff"/>
          <path id="Path_46-4" data-name="Path 46" d="M716.936,397.313v-6.138c0-1.042-1.235-1.886-2.757-1.886h0c-1.522,0-2.757.844-2.757,1.886v11.973c0,1.042,1.235,1.886,2.757,1.886h0c1.523,0,2.757-.844,2.757-1.886Z" transform="translate(-487.428 -333.553)" fill="#fff"/>
          <path id="Path_47-4" data-name="Path 47" d="M704.749,393.007V374.924c0-1.041-1.234-1.885-2.757-1.885h0c-1.523,0-2.756.844-2.756,1.885v35.861c0,1.042,1.233,1.885,2.756,1.885h0c1.522,0,2.757-.844,2.757-1.885Z" transform="translate(-488.335 -329.246)" fill="#fff"/>
          <path id="Path_48-4" data-name="Path 48" d="M692.562,385.98V348.411c0-1.041-1.234-1.886-2.757-1.886h0c-1.522,0-2.757.845-2.757,1.886v74.834c0,1.041,1.235,1.886,2.757,1.886h0c1.523,0,2.757-.845,2.757-1.886Z" transform="translate(-489.243 -322.219)" fill="#fff"/>
          <path id="Path_49-4" data-name="Path 49" d="M680.375,377.215V315.34c0-1.041-1.235-1.885-2.757-1.885h-2.756V438.786c0,1.041,1.233,1.885,2.756,1.885h0c1.522,0,2.757-.845,2.757-1.885Z" transform="translate(-490.15 -313.455)" fill="#fff"/>
          <path id="Path_50-4" data-name="Path 50" d="M668.188,390.929V367.084c0-1.041-1.235-1.885-2.757-1.885h0c-1.523,0-2.757.844-2.757,1.885v47.385c0,1.041,1.234,1.885,2.757,1.885h0c1.522,0,2.757-.844,2.757-1.885Z" transform="translate(-491.057 -327.169)" fill="#fff"/>
          <path id="Path_51-4" data-name="Path 51" d="M656,394.216v-14.73c0-1.041-1.235-1.886-2.757-1.886h0c-1.522,0-2.756.844-2.756,1.886v29.155c0,1.041,1.233,1.886,2.756,1.886h0c1.523,0,2.757-.844,2.757-1.886Z" transform="translate(-491.964 -330.455)" fill="#fff"/>
          <path id="Path_52-4" data-name="Path 52" d="M643.814,385.262V345.7c0-1.041-1.235-1.885-2.756-1.885h0c-1.523,0-2.757.845-2.757,1.885v78.816c0,1.041,1.235,1.885,2.757,1.885h0c1.521,0,2.756-.844,2.756-1.885Z" transform="translate(-492.872 -321.502)" fill="#fff"/>
          <path id="Path_53-4" data-name="Path 53" d="M631.627,390.929V367.084c0-1.041-1.234-1.885-2.757-1.885h0c-1.523,0-2.756.844-2.756,1.885v47.385c0,1.041,1.233,1.885,2.756,1.885h0c1.522,0,2.757-.844,2.757-1.885Z" transform="translate(-493.779 -327.169)" fill="#fff"/>
          <path id="Path_54-4" data-name="Path 54" d="M617.02,435.618c1.522,0,2.756-.844,2.756-1.885V326.094c0-1.042-1.234-1.885-2.756-1.885h0c-1.522,0-2.757.844-2.757,1.885V433.733c0,1.041,1.235,1.885,2.757,1.885Z" transform="translate(-494.661 -316.305)" fill="#fff"/>
        </g>
        <g id="Group_2-2" data-name="Group 2" transform="translate(297.214 313.455)">
          <path id="Path_19-2" data-name="Path 19" d="M280.873,397.313v-6.138c0-1.042,1.233-1.886,2.756-1.886h0c1.522,0,2.756.844,2.756,1.886v11.973c0,1.042-1.233,1.886-2.756,1.886h0c-1.522,0-2.756-.844-2.756-1.886Z" transform="translate(-280.873 -333.553)" fill="#fff"/>
          <path id="Path_20-2" data-name="Path 20" d="M293.06,393.007V374.924c0-1.041,1.235-1.885,2.756-1.885h0c1.522,0,2.757.844,2.757,1.885v35.861c0,1.042-1.235,1.885-2.757,1.885h0c-1.521,0-2.756-.844-2.756-1.885Z" transform="translate(-279.966 -329.246)" fill="#fff"/>
          <path id="Path_21-2" data-name="Path 21" d="M305.247,385.98V348.411c0-1.041,1.233-1.886,2.756-1.886h0c1.523,0,2.756.845,2.756,1.886v74.834c0,1.041-1.233,1.886-2.756,1.886h0c-1.523,0-2.756-.845-2.756-1.886Z" transform="translate(-279.058 -322.219)" fill="#fff"/>
          <path id="Path_22-2" data-name="Path 22" d="M317.434,377.215V315.34c0-1.041,1.235-1.885,2.756-1.885h2.757V438.786c0,1.041-1.235,1.885-2.757,1.885h0c-1.521,0-2.756-.845-2.756-1.885Z" transform="translate(-278.151 -313.455)" fill="#fff"/>
          <path id="Path_23-2" data-name="Path 23" d="M329.621,390.929V367.084c0-1.041,1.233-1.885,2.756-1.885h0c1.522,0,2.756.844,2.756,1.885v47.385c0,1.041-1.233,1.885-2.756,1.885h0c-1.522,0-2.756-.844-2.756-1.885Z" transform="translate(-277.244 -327.169)" fill="#fff"/>
          <path id="Path_24-2" data-name="Path 24" d="M341.808,394.216v-14.73c0-1.041,1.235-1.886,2.756-1.886h0c1.523,0,2.757.844,2.757,1.886v29.155c0,1.041-1.235,1.886-2.757,1.886h0c-1.521,0-2.756-.844-2.756-1.886Z" transform="translate(-276.337 -330.455)" fill="#fff"/>
          <path id="Path_25-2" data-name="Path 25" d="M353.995,385.262V345.7c0-1.041,1.233-1.885,2.756-1.885h0c1.522,0,2.756.845,2.756,1.885v78.816c0,1.041-1.233,1.885-2.756,1.885h0c-1.522,0-2.756-.844-2.756-1.885Z" transform="translate(-275.429 -321.502)" fill="#fff"/>
          <path id="Path_26-2" data-name="Path 26" d="M366.182,390.929V367.084c0-1.041,1.235-1.885,2.756-1.885h0c1.522,0,2.757.844,2.757,1.885v47.385c0,1.041-1.235,1.885-2.757,1.885h0c-1.521,0-2.756-.844-2.756-1.885Z" transform="translate(-274.522 -327.169)" fill="#fff"/>
          <path id="Path_27-2" data-name="Path 27" d="M380.789,435.618c-1.522,0-2.757-.844-2.757-1.885V326.094c0-1.042,1.235-1.885,2.757-1.885h0c1.523,0,2.757.844,2.757,1.885V433.733c0,1.041-1.235,1.885-2.757,1.885Z" transform="translate(-273.64 -316.305)" fill="#fff"/>
          <path id="Path_28-2" data-name="Path 28" d="M494.861,397.313v-6.138c0-1.042-1.233-1.886-2.756-1.886h0c-1.522,0-2.756.844-2.756,1.886v11.973c0,1.042,1.233,1.886,2.756,1.886h0c1.522,0,2.756-.844,2.756-1.886Z" transform="translate(-265.353 -333.553)" fill="#fff"/>
          <path id="Path_29-2" data-name="Path 29" d="M482.674,393.007V374.924c0-1.041-1.235-1.885-2.757-1.885h0c-1.523,0-2.756.844-2.756,1.885v35.861c0,1.042,1.233,1.885,2.756,1.885h0c1.522,0,2.757-.844,2.757-1.885Z" transform="translate(-266.26 -329.246)" fill="#fff"/>
          <path id="Path_30-2" data-name="Path 30" d="M470.487,385.98V348.411c0-1.041-1.233-1.886-2.756-1.886h0c-1.523,0-2.756.845-2.756,1.886v74.834c0,1.041,1.233,1.886,2.756,1.886h0c1.522,0,2.756-.845,2.756-1.886Z" transform="translate(-267.168 -322.219)" fill="#fff"/>
          <path id="Path_31-2" data-name="Path 31" d="M458.3,377.215V315.34c0-1.041-1.235-1.885-2.757-1.885h-2.756V438.786c0,1.041,1.233,1.885,2.756,1.885h0c1.522,0,2.757-.845,2.757-1.885Z" transform="translate(-268.075 -313.455)" fill="#fff"/>
          <path id="Path_32-2" data-name="Path 32" d="M446.113,390.929V367.084c0-1.041-1.233-1.885-2.756-1.885h0c-1.522,0-2.756.844-2.756,1.885v47.385c0,1.041,1.233,1.885,2.756,1.885h0c1.523,0,2.756-.844,2.756-1.885Z" transform="translate(-268.982 -327.169)" fill="#fff"/>
          <path id="Path_33-2" data-name="Path 33" d="M433.926,394.216v-14.73c0-1.041-1.235-1.886-2.757-1.886h0c-1.522,0-2.756.844-2.756,1.886v29.155c0,1.041,1.233,1.886,2.756,1.886h0c1.522,0,2.757-.844,2.757-1.886Z" transform="translate(-269.889 -330.455)" fill="#fff"/>
          <path id="Path_34-2" data-name="Path 34" d="M421.739,385.262V345.7c0-1.041-1.233-1.885-2.756-1.885h0c-1.522,0-2.756.845-2.756,1.885v78.816c0,1.041,1.233,1.885,2.756,1.885h0c1.523,0,2.756-.844,2.756-1.885Z" transform="translate(-270.797 -321.502)" fill="#fff"/>
          <path id="Path_35-2" data-name="Path 35" d="M409.552,390.929V367.084c0-1.041-1.235-1.885-2.757-1.885h0c-1.521,0-2.756.844-2.756,1.885v47.385c0,1.041,1.235,1.885,2.756,1.885h0c1.522,0,2.757-.844,2.757-1.885Z" transform="translate(-271.704 -327.169)" fill="#fff"/>
          <path id="Path_36-2" data-name="Path 36" d="M394.945,435.618c1.522,0,2.756-.844,2.756-1.885V326.094c0-1.042-1.233-1.885-2.756-1.885h0c-1.522,0-2.757.844-2.757,1.885V433.733c0,1.041,1.235,1.885,2.757,1.885Z" transform="translate(-272.586 -316.305)" fill="#fff"/>
        </g>
        <g id="Group_1-2" data-name="Group 1" transform="translate(61.371 313.455)">
          <path id="Path_1-2" data-name="Path 1" d="M61.371,397.313v-6.138c0-1.042,1.235-1.886,2.757-1.886h0c1.522,0,2.757.844,2.757,1.886v11.973c0,1.042-1.235,1.886-2.757,1.886h0c-1.522,0-2.757-.844-2.757-1.886Z" transform="translate(-61.371 -333.553)" fill="#fff"/>
          <path id="Path_2-2" data-name="Path 2" d="M73.558,393.007V374.924c0-1.041,1.235-1.885,2.757-1.885h0c1.522,0,2.757.844,2.757,1.885v35.861c0,1.042-1.235,1.885-2.757,1.885h0c-1.522,0-2.757-.844-2.757-1.885Z" transform="translate(-60.464 -329.246)" fill="#fff"/>
          <path id="Path_3-2" data-name="Path 3" d="M85.745,385.98V348.411c0-1.041,1.235-1.886,2.757-1.886h0c1.522,0,2.757.845,2.757,1.886v74.834c0,1.041-1.235,1.886-2.757,1.886h0c-1.522,0-2.757-.845-2.757-1.886Z" transform="translate(-59.556 -322.219)" fill="#fff"/>
          <path id="Path_4-2" data-name="Path 4" d="M97.932,377.215V315.34c0-1.041,1.235-1.885,2.757-1.885h2.757V438.786c0,1.041-1.235,1.885-2.757,1.885h0c-1.522,0-2.757-.845-2.757-1.885Z" transform="translate(-58.649 -313.455)" fill="#fff"/>
          <path id="Path_5-2" data-name="Path 5" d="M110.119,390.929V367.084c0-1.041,1.235-1.885,2.757-1.885h0c1.522,0,2.757.844,2.757,1.885v47.385c0,1.041-1.235,1.885-2.757,1.885h0c-1.522,0-2.757-.844-2.757-1.885Z" transform="translate(-57.742 -327.169)" fill="#fff"/>
          <path id="Path_6-2" data-name="Path 6" d="M122.306,394.216v-14.73c0-1.041,1.235-1.886,2.757-1.886h0c1.522,0,2.757.844,2.757,1.886v29.155c0,1.041-1.235,1.886-2.757,1.886h0c-1.522,0-2.757-.844-2.757-1.886Z" transform="translate(-56.835 -330.455)" fill="#fff"/>
          <path id="Path_7-2" data-name="Path 7" d="M134.493,385.262V345.7c0-1.041,1.235-1.885,2.757-1.885h0c1.522,0,2.757.845,2.757,1.885v78.816c0,1.041-1.235,1.885-2.757,1.885h0c-1.523,0-2.757-.844-2.757-1.885Z" transform="translate(-55.927 -321.502)" fill="#fff"/>
          <path id="Path_8-2" data-name="Path 8" d="M146.68,390.929V367.084c0-1.041,1.235-1.885,2.757-1.885h0c1.522,0,2.756.844,2.756,1.885v47.385c0,1.041-1.233,1.885-2.756,1.885h0c-1.523,0-2.757-.844-2.757-1.885Z" transform="translate(-55.02 -327.169)" fill="#fff"/>
          <path id="Path_9-2" data-name="Path 9" d="M161.287,435.618c-1.521,0-2.756-.844-2.756-1.885V326.094c0-1.042,1.235-1.885,2.756-1.885h0c1.524,0,2.757.844,2.757,1.885V433.733c0,1.041-1.233,1.885-2.757,1.885Z" transform="translate(-54.138 -316.305)" fill="#fff"/>
          <path id="Path_10-2" data-name="Path 10" d="M275.36,397.313v-6.138c0-1.042-1.235-1.886-2.757-1.886h0c-1.522,0-2.757.844-2.757,1.886v11.973c0,1.042,1.235,1.886,2.757,1.886h0c1.523,0,2.757-.844,2.757-1.886Z" transform="translate(-45.851 -333.553)" fill="#fff"/>
          <path id="Path_11-2" data-name="Path 11" d="M263.173,393.007V374.924c0-1.041-1.235-1.885-2.757-1.885h0c-1.522,0-2.757.844-2.757,1.885v35.861c0,1.042,1.235,1.885,2.757,1.885h0c1.522,0,2.757-.844,2.757-1.885Z" transform="translate(-46.758 -329.246)" fill="#fff"/>
          <path id="Path_12-2" data-name="Path 12" d="M250.986,385.98V348.411c0-1.041-1.235-1.886-2.757-1.886h0c-1.522,0-2.757.845-2.757,1.886v74.834c0,1.041,1.235,1.886,2.757,1.886h0c1.523,0,2.757-.845,2.757-1.886Z" transform="translate(-47.666 -322.219)" fill="#fff"/>
          <path id="Path_13-2" data-name="Path 13" d="M238.8,377.215V315.34c0-1.041-1.235-1.885-2.757-1.885h-2.757V438.786c0,1.041,1.235,1.885,2.757,1.885h0c1.523,0,2.757-.845,2.757-1.885Z" transform="translate(-48.573 -313.455)" fill="#fff"/>
          <path id="Path_14-2" data-name="Path 14" d="M226.612,390.929V367.084c0-1.041-1.235-1.885-2.757-1.885h0c-1.522,0-2.757.844-2.757,1.885v47.385c0,1.041,1.235,1.885,2.757,1.885h0c1.522,0,2.757-.844,2.757-1.885Z" transform="translate(-49.48 -327.169)" fill="#fff"/>
          <path id="Path_15-2" data-name="Path 15" d="M214.424,394.216v-14.73c0-1.041-1.233-1.886-2.756-1.886h0c-1.522,0-2.757.844-2.757,1.886v29.155c0,1.041,1.235,1.886,2.757,1.886h0c1.522,0,2.756-.844,2.756-1.886Z" transform="translate(-50.387 -330.455)" fill="#fff"/>
          <path id="Path_16-2" data-name="Path 16" d="M202.238,385.262V345.7c0-1.041-1.235-1.885-2.757-1.885h0c-1.522,0-2.757.845-2.757,1.885v78.816c0,1.041,1.235,1.885,2.757,1.885h0c1.523,0,2.757-.844,2.757-1.885Z" transform="translate(-51.295 -321.502)" fill="#fff"/>
          <path id="Path_17-2" data-name="Path 17" d="M190.05,390.929V367.084c0-1.041-1.233-1.885-2.756-1.885h0c-1.522,0-2.757.844-2.757,1.885v47.385c0,1.041,1.235,1.885,2.757,1.885h0c1.522,0,2.756-.844,2.756-1.885Z" transform="translate(-52.202 -327.169)" fill="#fff"/>
          <path id="Path_18-2" data-name="Path 18" d="M175.443,435.618c1.522,0,2.757-.844,2.757-1.885V326.094c0-1.042-1.235-1.885-2.757-1.885h0c-1.522,0-2.756.844-2.756,1.885V433.733c0,1.041,1.233,1.885,2.756,1.885Z" transform="translate(-53.084 -316.305)" fill="#fff"/>
        </g>
      </g>
    </g>
  </g>
</svg>
