<svg xmlns="http://www.w3.org/2000/svg" width="17" height="17" viewBox="0 0 17 17">
  <path id="twitter-icon" d="M15.179,128H1.821A1.822,1.822,0,0,0,0,129.821v13.357A1.822,1.822,0,0,0,1.821,145H15.179A1.822,1.822,0,0,0,17,143.179V129.821A1.822,1.822,0,0,0,15.179,128Zm-1.856,6.026c.008.106.008.216.008.323a7.033,7.033,0,0,1-7.081,7.081,7.048,7.048,0,0,1-3.821-1.116,5.243,5.243,0,0,0,.6.03,4.99,4.99,0,0,0,3.089-1.062,2.492,2.492,0,0,1-2.326-1.727,2.682,2.682,0,0,0,1.123-.046,2.489,2.489,0,0,1-1.992-2.444v-.03a2.487,2.487,0,0,0,1.123.315,2.483,2.483,0,0,1-1.108-2.072,2.458,2.458,0,0,1,.338-1.256,7.067,7.067,0,0,0,5.13,2.6,2.494,2.494,0,0,1,4.246-2.273,4.876,4.876,0,0,0,1.579-.6,2.482,2.482,0,0,1-1.093,1.37,4.953,4.953,0,0,0,1.434-.387A5.238,5.238,0,0,1,13.323,134.026Z" transform="translate(0 -128)" fill="#fff"/>
</svg>
