<svg xmlns="http://www.w3.org/2000/svg" width="16.923" height="17" viewBox="0 0 16.923 17">
  <path id="whatsapp-icon" d="M18.458,6.471A8.427,8.427,0,0,0,5.2,16.634L4,21l4.468-1.173a8.432,8.432,0,0,0,4.027,1.027h0a8.427,8.427,0,0,0,5.96-14.383ZM12.5,19.43h0a7,7,0,0,1-3.564-.975L8.674,18.3,6.022,19l.708-2.584-.165-.264A7,7,0,1,1,12.5,19.43Zm3.84-5.244c-.209-.1-1.245-.614-1.438-.683s-.333-.1-.474.1-.543.686-.667.826-.245.157-.454.052a5.7,5.7,0,0,1-1.694-1.047,6.3,6.3,0,0,1-1.171-1.457c-.124-.212-.014-.325.091-.43s.212-.245.317-.369a1.463,1.463,0,0,0,.212-.35.392.392,0,0,0-.019-.369c-.052-.1-.474-1.143-.65-1.565s-.344-.353-.474-.361-.262-.005-.4-.005a.771.771,0,0,0-.562.264,2.355,2.355,0,0,0-.735,1.755,4.107,4.107,0,0,0,.859,2.179,9.4,9.4,0,0,0,3.6,3.176,11.678,11.678,0,0,0,1.2.443,2.928,2.928,0,0,0,1.328.085,2.168,2.168,0,0,0,1.421-1,1.769,1.769,0,0,0,.121-1C16.689,14.345,16.549,14.293,16.337,14.186Z" transform="translate(-4 -4)" fill="#fff" fill-rule="evenodd"/>
</svg>
