<svg xmlns="http://www.w3.org/2000/svg" width="88" height="88" viewBox="0 0 88 88">
  <g id="logo4" transform="translate(-452 -2819)">
    <rect id="Rectangle_12738" data-name="Rectangle 12738" width="88" height="88" rx="44" transform="translate(452 2819)" fill="#fff" opacity="0.79"/>
    <g id="Group_26858" data-name="Group 26858">
      <circle id="Ellipse_11759" data-name="Ellipse 11759" cx="32" cy="32" r="32" transform="translate(464 2831)" fill="#ef7e25"/>
      <g id="location_linear" data-name="location/linear" transform="translate(472 2839)">
        <g id="vuesax_linear_location" data-name="vuesax/linear/location">
          <g id="location">
            <path id="Vector" d="M12.48,6.24A6.24,6.24,0,1,1,6.24,0,6.24,6.24,0,0,1,12.48,6.24Z" transform="translate(17.76 14.38)" fill="none" stroke="#fff" stroke-width="2"/>
            <path id="Vector-2" data-name="Vector" d="M.486,12.98c3.94-17.32,29.6-17.3,33.52.02,2.3,10.16-4.02,18.76-9.56,24.08a10.387,10.387,0,0,1-14.42,0C4.506,31.76-1.814,23.14.486,12.98Z" transform="translate(6.754 4)" fill="none" stroke="#fff" stroke-width="2"/>
            <path id="Vector-3" data-name="Vector" d="M0,0H48V48H0Z" transform="translate(48 48) rotate(180)" fill="none" opacity="0"/>
          </g>
        </g>
      </g>
    </g>
  </g>
</svg>
