<svg xmlns="http://www.w3.org/2000/svg" width="88" height="88" viewBox="0 0 88 88">
  <g id="logo2" transform="translate(-357 -2645)">
    <rect id="Rectangle_12738" data-name="Rectangle 12738" width="88" height="88" rx="44" transform="translate(357 2645)" fill="#fff" opacity="0.79"/>
    <g id="Group_26858" data-name="Group 26858">
      <ellipse id="Ellipse_11759" data-name="Ellipse 11759" cx="32" cy="32" rx="32" ry="32" transform="translate(369 2657)" fill="#ef7e25"/>
      <g id="d15b17cd9bc37de52e76ce1e42bd4774" transform="translate(363.994 2654.61)">
        <g id="Group_26866" data-name="Group 26866" transform="translate(17.006 14.39)">
          <path id="Path_65345" data-name="Path 65345" d="M185.172-501.491a13.4,13.4,0,0,0-10.931,9.024,15.513,15.513,0,0,0-.43,7.312c.7,4.058,2.766,7.21,6.548,10.01a2.491,2.491,0,0,1,1.062,1.337c.094.274.086.313-.039.391a3.152,3.152,0,0,0-.984,1.025,2.126,2.126,0,0,0,.109,1.822c.219.328.219.328.07.54a2.1,2.1,0,0,0,.023,2.284c.094.109.078.18-.117.579a1.979,1.979,0,0,0,1.547,2.917c.32.039.407.016.586-.141a.6.6,0,0,0,.094-.915.6.6,0,0,0-.406-.25.858.858,0,0,1-.625-.305.741.741,0,0,1,.047-.8l.149-.187,3.649-.039,3.649-.039.187-.219a.636.636,0,0,0,.039-.844l-.149-.188-3.633-.039-3.633-.039-.2-.188a.644.644,0,0,1-.039-.891l.156-.2,3.633-.023,3.641-.023.187-.219a.647.647,0,0,0,.031-.86l-.164-.2-3.625-.023-3.617-.023-.2-.188a.645.645,0,0,1,0-.954l.2-.187,3.617-.023,3.625-.024.156-.2a.638.638,0,0,0-.023-.86l-.187-.219-3.157-.023-3.157-.024-.1-.368a3.684,3.684,0,0,0-.75-1.493,12.227,12.227,0,0,0-1.2-1,19.894,19.894,0,0,1-3.446-3.441,13.143,13.143,0,0,1-2.422-7.187,13.47,13.47,0,0,1,.234-3.722,12.078,12.078,0,0,1,9.61-9.258,15.259,15.259,0,0,1,4.18-.008,12.127,12.127,0,0,1,7.946,5.255,12.188,12.188,0,0,1,1.938,7.718,13.213,13.213,0,0,1-2.477,7.28,20.333,20.333,0,0,1-3.391,3.362,11.258,11.258,0,0,0-1.2,1,3.821,3.821,0,0,0-.828,1.884c-.133.915-.016,1.2.555,1.322.453.1.7.336.7.657a.708.708,0,0,1-.633.7c-.524.094-.789.485-.625.923a.955.955,0,0,0,.781.446c.211,0,.477.368.477.665a.691.691,0,0,1-.586.625c-.461.1-.508.133-.633.359a.677.677,0,0,0,.109.8,1.361,1.361,0,0,0,.484.2.7.7,0,0,1,.578.985c-.133.336-.3.352-4.016.352h-3.524l-.187.2c-.187.18-.2.234-.2,1.157,0,1.142.109,1.548.539,1.994.524.54.742.6,2.118.6,1.344,0,1.578-.063,2.071-.547a1.964,1.964,0,0,0,.57-1.47l.031-.6h1.109a6.18,6.18,0,0,0,1.5-.117,1.962,1.962,0,0,0,1.125-2.823c-.2-.4-.211-.469-.117-.579a2.094,2.094,0,0,0,.023-2.291c-.149-.211-.149-.211,0-.43a2.116,2.116,0,0,0,.234-1.767,2.938,2.938,0,0,0-.992-1.15c-.187-.117-.187-.117-.055-.508a2.376,2.376,0,0,1,.969-1.22,20.354,20.354,0,0,0,3.68-3.425,14.787,14.787,0,0,0,3.063-7.468,19.706,19.706,0,0,0-.078-4.512A13.38,13.38,0,0,0,185.172-501.491Zm3.047,37.7c0,.375-.031.461-.227.665-.227.227-.242.227-1.1.227s-.875,0-1.1-.227c-.2-.2-.227-.289-.227-.665v-.438h2.656Z" transform="translate(-166.892 501.61)" fill="#fff"/>
          <path id="Path_65346" data-name="Path 65346" d="M121.25-495.556a.655.655,0,0,0-.211.985,32.517,32.517,0,0,0,2.875,2.362.646.646,0,0,0,.789-.86,26.883,26.883,0,0,0-2.789-2.448A.578.578,0,0,0,121.25-495.556Z" transform="translate(-116.369 495.887)" fill="#fff" opacity="0.4"/>
          <path id="Path_65347" data-name="Path 65347" d="M786.61-495.44a27.95,27.95,0,0,0-2.868,2.495.454.454,0,0,0-.008.477.7.7,0,0,0,.8.391,37.963,37.963,0,0,0,2.93-2.416.774.774,0,0,0-.008-.727A.681.681,0,0,0,786.61-495.44Z" transform="translate(-752.093 495.763)" fill="#fff" opacity="0.4"/>
          <path id="Path_65348" data-name="Path 65348" d="M39.142-352.894a.734.734,0,0,0-.492.649c0,.415.258.571,1.992,1.2a15.661,15.661,0,0,0,1.86.594.669.669,0,0,0,.6-.618c0-.438-.242-.594-1.875-1.189C39.47-352.9,39.377-352.933,39.142-352.894Z" transform="translate(-37.481 358.979)" fill="#fff" opacity="0.4"/>
          <path id="Path_65349" data-name="Path 65349" d="M855.709-352.725c-.484.156-2.938,1.064-3.117,1.157a.607.607,0,0,0-.351.587.666.666,0,0,0,.594.641,19.872,19.872,0,0,0,3.688-1.384.62.62,0,0,0,.016-.821C856.35-352.795,856.1-352.842,855.709-352.725Z" transform="translate(-817.864 358.865)" fill="#fff" opacity="0.4"/>
          <path id="Path_65350" data-name="Path 65350" d="M307.772-272.457a3.118,3.118,0,0,0-1.727.853,3.035,3.035,0,0,0-1.039,2.612,2.345,2.345,0,0,0,.289,1.243,3.536,3.536,0,0,0,1.414,1.493,4.7,4.7,0,0,0,2.438.43H310.3v9.6l.242.2a.552.552,0,0,0,.86-.023l.227-.227v-9.556h2.657v9.556l.227.227a.744.744,0,0,0,.438.227.744.744,0,0,0,.438-.227l.227-.227v-9.556h1.156a4.705,4.705,0,0,0,2.438-.43,3.537,3.537,0,0,0,1.414-1.493,2.343,2.343,0,0,0,.289-1.243,3.035,3.035,0,0,0-1.039-2.612,3.308,3.308,0,0,0-5.462,1.6,7.073,7.073,0,0,0-.125,1.658v1.2h-2.656v-1.2a4.3,4.3,0,0,0-.492-2.549A3.336,3.336,0,0,0,307.772-272.457Zm1.43,1.517a2.063,2.063,0,0,1,1.016,1.259,8.925,8.925,0,0,1,.086,1.423v1.1h-1.078c-1.406,0-1.782-.1-2.329-.657a1.676,1.676,0,0,1-.578-1.368,2.025,2.025,0,0,1,1.109-1.8A2.162,2.162,0,0,1,309.2-270.94Zm9.282-.039a2.013,2.013,0,0,1,.562,3.19c-.492.5-.82.587-2.2.618l-1.235.031v-1.126c0-1.282.1-1.744.469-2.19A2.125,2.125,0,0,1,318.484-270.979Z" transform="translate(-292.96 281.858)" fill="#fff" opacity="0.4"/>
          <path id="Path_65351" data-name="Path 65351" d="M10.23-191.213a.591.591,0,0,0-.031.9l.187.2h3.891l.18-.2a.641.641,0,0,0-.031-.946c-.211-.187-.227-.187-2.086-.187H10.456Z" transform="translate(-10.006 204.11)" fill="#fff" opacity="0.4"/>
          <path id="Path_65352" data-name="Path 65352" d="M876.086-191.259a.6.6,0,0,0-.086.907l.211.25h3.9l.188-.2a.59.59,0,0,0-.032-.9l-.226-.227h-1.883C876.32-191.431,876.281-191.423,876.086-191.259Z" transform="translate(-840.491 204.101)" fill="#fff" opacity="0.4"/>
        </g>
        <rect id="Rectangle_12742" data-name="Rectangle 12742" width="48" height="48" transform="translate(13.006 10.39)" fill="none"/>
      </g>
    </g>
  </g>
</svg>
