<svg xmlns="http://www.w3.org/2000/svg" width="74" height="74" viewBox="0 0 74 74">
  <g id="Benefits1" transform="translate(17.325 4.566)">
    <g id="Group_23749" data-name="Group 23749" transform="translate(-5 -4.763)">
      <g id="Group_23748" data-name="Group 23748" transform="translate(0 0)">
        <circle id="Ellipse_11710" data-name="Ellipse 11710" cx="37" cy="37" r="37" transform="translate(-12.325 0.198)" fill="#edeff9"/>
        <g id="Customer_" data-name="Customer " transform="translate(-0.325 14.199)">
          <g id="Layer_1" data-name="Layer 1" transform="translate(0 -0.003)">
            <path id="Path_61211" data-name="Path 61211" d="M42.139,9.659a4.8,4.8,0,1,1,4.8-4.8,4.8,4.8,0,0,1-4.8,4.8Zm0-7.975A3.176,3.176,0,1,0,45.31,4.859a3.176,3.176,0,0,0-3.171-3.176Z" transform="translate(-17.137 -0.026)" fill="#ef7e25"/>
            <path id="Path_61212" data-name="Path 61212" d="M44.13,19.17H31.442a3.587,3.587,0,0,0-3.582,3.582v7.034a4.572,4.572,0,0,0,3.75,4.491V52.841a.812.812,0,0,0,.812.812h4.036a.812.812,0,0,0,.812-.812V38.5a.633.633,0,0,1,.46-.59.487.487,0,0,1,.4.13.5.5,0,0,1,.173.384V52.841a.812.812,0,0,0,.812.812h4.036a.812.812,0,0,0,.812-.812V34.282a4.572,4.572,0,0,0,3.75-4.491V22.757A3.587,3.587,0,0,0,44.13,19.17Zm1.959,10.621A2.949,2.949,0,0,1,43.962,32.6V26.729a.812.812,0,1,0-1.623,0V52.024H39.926v-13.6a2.164,2.164,0,0,0-2.359-2.132A2.229,2.229,0,0,0,35.646,38.5V52.029H33.233v-25.3a.812.812,0,1,0-1.623,0V32.6a2.97,2.97,0,0,1-1.51-1.033,2.927,2.927,0,0,1-.6-1.78V22.757A1.964,1.964,0,0,1,31.458,20.8H44.13a1.964,1.964,0,0,1,1.959,1.959Z" transform="translate(-12.786 -8.796)" fill="#ef7e25"/>
            <path id="Path_61213" data-name="Path 61213" d="M76.085,10.934l-6.363-.076a.812.812,0,0,1-.8-.8L68.84,3.7a.812.812,0,0,1,1.385-.584L71.5,4.4,75.663.237a.806.806,0,0,1,1.147,0l2.705,2.705a.812.812,0,0,1,0,1.147L75.36,8.25l1.277,1.277a.812.812,0,0,1-.574,1.385ZM70.55,9.24l3.566.043-.444-.438a.812.812,0,0,1,0-1.147l4.161-4.161-1.6-1.58L72.081,6.118a.822.822,0,0,1-1.152,0l-.438-.444Z" transform="translate(-31.593 0.003)" fill="#ef7e25"/>
            <path id="Path_61214" data-name="Path 61214" d="M74.089,41.007a.822.822,0,0,1-.579-.243l-4.437-4.55a.806.806,0,0,1,0-1.131l4.437-4.545a.806.806,0,0,1,1.391.541v1.807h5.881a.812.812,0,0,1,.812.812v3.858a.812.812,0,0,1-.812.812h-5.9V40.2a.812.812,0,0,1-.482.757.866.866,0,0,1-.308.054Zm-3.3-5.357L73.256,38.2v-.622a.812.812,0,0,1,.812-.812h5.9V34.53H74.089a.812.812,0,0,1-.812-.812V33.1Z" transform="translate(-31.594 -13.898)" fill="#ef7e25"/>
            <path id="Path_61215" data-name="Path 61215" d="M76.236,71.235A.817.817,0,0,1,75.663,71L71.5,66.841l-1.277,1.277a.812.812,0,0,1-1.385-.584l.087-6.352a.817.817,0,0,1,.806-.806l6.352-.076a.833.833,0,0,1,.757.5.806.806,0,0,1-.173.887l-1.277,1.277,4.155,4.161a.812.812,0,0,1,0,1.147l-2.705,2.705A.817.817,0,0,1,76.236,71.235ZM71.5,64.877a.828.828,0,0,1,.579.238l4.155,4.161,1.58-1.564-4.161-4.155a.833.833,0,0,1-.238-.579.822.822,0,0,1,.238-.574l.444-.438-3.549.027-.06,3.555.438-.444A.828.828,0,0,1,71.5,64.877Z" transform="translate(-31.593 -27.672)" fill="#ef7e25"/>
            <path id="Path_61216" data-name="Path 61216" d="M7.058,10.936a.812.812,0,0,1-.574-1.385L7.761,8.274,3.6,4.113a.817.817,0,0,1,0-1.147L6.306.26A.839.839,0,0,1,7.5.239L11.657,4.4l1.25-1.282a.817.817,0,0,1,.887-.173.806.806,0,0,1,.5.757l-.076,6.358a.812.812,0,0,1-.768.8L7.1,10.936Zm-1.726-7.4L9.487,7.7a.806.806,0,0,1,0,1.147l-.438.438,3.566-.043.043-3.566-.444.444a.817.817,0,0,1-1.147,0L6.9,1.959Z" transform="translate(-1.544 0.001)" fill="#ef7e25"/>
            <path id="Path_61217" data-name="Path 61217" d="M7.5,41.025a.893.893,0,0,1-.308-.054.812.812,0,0,1-.5-.752V38.406H.812A.812.812,0,0,1,0,37.595V33.737a.812.812,0,0,1,.812-.812H6.693V31.118a.806.806,0,0,1,1.391-.541l4.442,4.545a.806.806,0,0,1,0,1.131L8.084,40.8A.806.806,0,0,1,7.5,41.025ZM1.623,36.783H7.5a.812.812,0,0,1,.812.812v.622l2.505-2.548L8.327,33.115v.622a.812.812,0,0,1-.812.812H1.623Z" transform="translate(0 -13.916)" fill="#ef7e25"/>
            <path id="Path_61218" data-name="Path 61218" d="M6.919,71.235A.812.812,0,0,1,6.346,71L3.641,68.292a.817.817,0,0,1,0-1.147L7.8,62.984l-1.3-1.3A.806.806,0,0,1,6.33,60.8a.839.839,0,0,1,.757-.5l6.379.076a.812.812,0,0,1,.8.806l.076,6.352a.812.812,0,0,1-1.418.584l-1.277-1.277L7.515,71A.812.812,0,0,1,6.919,71.235ZM5.35,67.713l1.569,1.564,4.161-4.161a.817.817,0,0,1,1.147,0l.444.444-.043-3.566L9.062,61.95l.438.438a.812.812,0,0,1,0,1.152Z" transform="translate(-1.563 -27.672)" fill="#ef7e25"/>
          </g>
        </g>
      </g>
    </g>
  </g>
</svg>
