<svg xmlns="http://www.w3.org/2000/svg" xmlns:xlink="http://www.w3.org/1999/xlink" width="74" height="74" viewBox="0 0 74 74">
  <defs>
    <clipPath id="clip-path">
      <rect id="Rectangle_11673" data-name="Rectangle 11673" width="50" height="38.667" fill="#ef7e25"/>
    </clipPath>
  </defs>
  <g id="Benefits2" transform="translate(5.325 4.566)">
    <g id="Group_23749" data-name="Group 23749" transform="translate(-5.325 -4.763)">
      <g id="Group_23748" data-name="Group 23748" transform="translate(0 0)">
        <circle id="Ellipse_11710" data-name="Ellipse 11710" cx="37" cy="37" r="37" transform="translate(0 0.198)" fill="#edeff9"/>
        <g id="Group_24830" data-name="Group 24830" transform="translate(11.999 18.197)">
          <g id="Mask_Group_36" data-name="Mask Group 36" clip-path="url(#clip-path)">
            <g id="Group_24197" data-name="Group 24197" transform="translate(0 3.133)">
              <path id="Path_49387" data-name="Path 49387" d="M134.779,67.8V81.369s-2.611.575-3.15.642a3.4,3.4,0,0,1-3.444-.624c-1.893-2-8.6-9.392-8.6-9.392a2.356,2.356,0,0,0-3-.181c-1.632,1-4.211,2.447-5.272,3.021a2.179,2.179,0,0,1-1.338.476,2.474,2.474,0,0,1-2.318-2.578,2.579,2.579,0,0,1,1.534-2.43c2.415-1.642,7.459-4.762,9.548-5.993,1.289-.755,2.22-.821,3.982.821,2.171,2.02,4.1,3.875,4.1,3.875a3.247,3.247,0,0,0,1.632.345c1.534-.246,6.333-1.544,6.333-1.544ZM108.112,90.792a2.673,2.673,0,0,0-.408-2.66,2.1,2.1,0,0,0-2.155-.607,2.64,2.64,0,0,0-.473-2.414,2.081,2.081,0,0,0-2.155-.607,2.689,2.689,0,0,0-.458-2.412,2.276,2.276,0,0,0-3.411.1,3.5,3.5,0,0,0-.751,4.121c.9,1.116,1.91.427,2.693.246-.212.854-.865,1.642,0,2.758s1.893.442,2.676.246c-.212.854-.832,1.642,0,2.775s2.04.476,2.873.2c-.31.919-1.012,1.9-.114,3.037s2.938.591,3.934-.476a2.853,2.853,0,0,0,.212-3.744,2.113,2.113,0,0,0-2.334-.558Zm18.213-7.1-7.687-8.551a2.373,2.373,0,0,0-2.726-.542c-1.077.526-2.465,1.231-3.525,1.79a6.242,6.242,0,0,1-2.366.87,4.276,4.276,0,0,1-4.048-4.466A4.557,4.557,0,0,1,107.9,69c1.632-1.248,5.3-3.432,5.3-3.432a4.493,4.493,0,0,0-3.607-1.642c-2.465,0-7.622,3.744-7.622,3.744a3.685,3.685,0,0,1-3.558.115L94.4,66.147V81.664a21.145,21.145,0,0,1,2.171.837,5.361,5.361,0,0,1,1.143-1.987,4.145,4.145,0,0,1,6.106,0,4.311,4.311,0,0,1,.963,1.9,3.753,3.753,0,0,1,1.632,1.116,4.245,4.245,0,0,1,.963,1.887,3.7,3.7,0,0,1,1.632,1.133,4.56,4.56,0,0,1,1.012,2.069,3.931,3.931,0,0,1,1.73,1.149,4.815,4.815,0,0,1,1.061,3.908h0s.587.723.93,1.116a1.626,1.626,0,0,0,2.514,0,2.144,2.144,0,0,0,0-2.791h0c-2.318-2.578-2.448-2.775-2.22-3.021s.571.3,3.182,3.284h0a1.164,1.164,0,0,0,.163.23,1.626,1.626,0,0,0,2.514,0,2.144,2.144,0,0,0,0-2.791l-.114-.1-.114-.131c-2.383-2.644-2.644-3.136-2.465-3.284s1.322,1.133,3.689,3.744h0a1.626,1.626,0,0,0,2.432,0,2.112,2.112,0,0,0,.112-2.628.182.182,0,0,0,0-.131c-3-3.284-2.873-3.382-2.693-3.579s.2-.214,3.117,3.021a1.626,1.626,0,0,0,2.5,0,2.111,2.111,0,0,0,0-2.775h0Z" transform="translate(-89.492 -63.8)" fill="#ef7e25"/>
              <rect id="Rectangle_11643" data-name="Rectangle 11643" width="4.126" height="19.633" transform="translate(45.874 3.205)" fill="#ef7e25"/>
              <rect id="Rectangle_11644" data-name="Rectangle 11644" width="4.126" height="22.996" transform="translate(0 0.722)" fill="#ef7e25"/>
            </g>
          </g>
        </g>
      </g>
    </g>
  </g>
</svg>
