<svg id="Critical6" xmlns="http://www.w3.org/2000/svg" xmlns:xlink="http://www.w3.org/1999/xlink" width="58" height="44.853" viewBox="0 0 58 44.853">
  <defs>
    <clipPath id="clip-path">
      <rect id="Rectangle_11673" data-name="Rectangle 11673" width="58" height="44.853" fill="#ad5480"/>
    </clipPath>
  </defs>
  <g id="Mask_Group_53" data-name="Mask Group 53" clip-path="url(#clip-path)">
    <g id="Group_24227" data-name="Group 24227" transform="translate(8901.403 12148.722)">
      <path id="Path_49142" data-name="Path 49142" d="M302.784,205.542a24.223,24.223,0,0,0-2.578,10.171.51.51,0,0,1-.453.567h0a.538.538,0,0,1-.513-.508,23.69,23.69,0,0,1,2.408-9.975h-1.813a.51.51,0,0,1-.485-.425l-.68,1.615a.51.51,0,0,1-.567.312.453.453,0,0,1-.4-.485v-.935l-.485,1.3a.492.492,0,0,1-.964-.2v-.992L295.8,207.1a.5.5,0,0,1-.964-.2v-1.643l-.2.312a.51.51,0,0,1-.425.226H292.5a28.925,28.925,0,0,1,2.21,9.887.51.51,0,0,1-.485.567.485.485,0,0,1-.51-.51,25.92,25.92,0,0,0-2.521-10.171.538.538,0,0,1,0-.538.51.51,0,0,1,.453-.283H294l.907-1.445a.538.538,0,0,1,.567-.227.652.652,0,0,1,.369.51v.963l.51-1.275a.51.51,0,0,1,.567-.312.538.538,0,0,1,.4.51v.737l.34-.935a.51.51,0,0,1,.538-.312.485.485,0,0,1,.425.485v1.19l.567-1.36a.5.5,0,0,1,.964.139l.17,1.331H302.5a.453.453,0,0,1,.425.255A.538.538,0,0,1,302.784,205.542Z" transform="translate(-9169.262 -12332.867)" fill="#c2005d"/>
      <path id="Path_49143" data-name="Path 49143" d="M293.1,203.026a.68.68,0,0,0,.652-.709v-3.256a.653.653,0,1,0-1.3,0v3.145a.68.68,0,0,0,.652.822Z" transform="translate(-9165.217 -12347.094)" fill="#c2005d"/>
      <path id="Path_49144" data-name="Path 49144" d="M294.582,203.036a.679.679,0,0,0,.368,0,.594.594,0,0,0,.538-.312l1.7-2.55a.708.708,0,0,0-.139-.963.623.623,0,0,0-.935.17l-1.7,2.55a.708.708,0,0,0,.17,1.1Z" transform="translate(-9159.7 -12344.867)" fill="#c2005d"/>
      <path id="Path_49145" data-name="Path 49145" d="M296.257,203.495l2.833-1.048a.68.68,0,0,0,.4-.878.651.651,0,0,0-.822-.453l-2.833,1.048a.709.709,0,0,0-.425.878.68.68,0,0,0,.623.485Z" transform="translate(-9156.135 -12338.64)" fill="#c2005d"/>
      <path id="Path_49146" data-name="Path 49146" d="M291.9,202.759a.623.623,0,0,0,.935.17.709.709,0,0,0,.139-.964l-1.7-2.55a.6.6,0,0,0-.907-.17.708.708,0,0,0-.17.964Z" transform="translate(-9172.486 -12344.76)" fill="#c2005d"/>
      <path id="Path_49147" data-name="Path 49147" d="M292.393,202.164l-2.833-1.048a.7.7,0,0,0-.453,1.331l2.833,1.048h.312a.623.623,0,0,0,.623-.485.68.68,0,0,0-.485-.85Z" transform="translate(-9176.86 -12338.641)" fill="#c2005d"/>
      <path id="Path_49148" data-name="Path 49148" d="M300.14,200.595a10.4,10.4,0,0,0-10.057,10.681v.17a16.687,16.687,0,0,0,2.833,10.113c.312.6.34.6.6,1.048l2.1,3.485a.793.793,0,0,0,1.108.283.935.935,0,0,0,.255-1.19l-2.125-3.513a11.036,11.036,0,0,1-.567-.964,15.214,15.214,0,0,1-2.663-9.264v-.17a8.5,8.5,0,1,1,17,0v.17a15.215,15.215,0,0,1-2.663,9.264l-.538.964c-.255.425-.793,1.275-2.125,3.513a.878.878,0,0,0,.255,1.19.68.68,0,0,0,.425,0,.762.762,0,0,0,.652-.4l2.125-3.485.6-1.048a16.832,16.832,0,0,0,2.833-10.113v-.17A10.4,10.4,0,0,0,300.14,200.595Z" transform="translate(-9172.539 -12340.159)" fill="#c2005d"/>
      <path id="Path_49149" data-name="Path 49149" d="M300.14,207.147h-7.989a.822.822,0,0,0-.793.85.85.85,0,0,0,.793.85h7.989a.822.822,0,0,0,.793-.85.793.793,0,0,0-.793-.85Z" transform="translate(-9168.545 -12319.911)" fill="#c2005d"/>
      <path id="Path_49150" data-name="Path 49150" d="M299.149,207.743h-6.941a.85.85,0,0,0,0,1.671h6.941a.85.85,0,0,0,0-1.671Z" transform="translate(-9168.063 -12318.07)" fill="#c2005d"/>
      <path id="Path_49151" data-name="Path 49151" d="M297.93,208.332h-5.468a.822.822,0,0,0-.793.85.85.85,0,0,0,.793.85h5.467a.85.85,0,0,0,.793-.85.822.822,0,0,0-.793-.85Z" transform="translate(-9167.581 -12316.252)" fill="#c2005d"/>
      <path id="Path_49152" data-name="Path 49152" d="M294.176,210.521a2.355,2.355,0,0,0,2.21-1.586h-4.391a2.355,2.355,0,0,0,2.181,1.586Z" transform="translate(-9166.574 -12314.389)" fill="#c2005d"/>
    </g>
  </g>
</svg>
