<svg id="Critical11" xmlns="http://www.w3.org/2000/svg" xmlns:xlink="http://www.w3.org/1999/xlink" width="58" height="44.853" viewBox="0 0 58 44.853">
  <defs>
    <clipPath id="clip-path">
      <rect id="Rectangle_11673" data-name="Rectangle 11673" width="58" height="44.853" fill="#ad5480"/>
    </clipPath>
  </defs>
  <g id="Mask_Group_58" data-name="Mask Group 58" clip-path="url(#clip-path)">
    <g id="Group_24226" data-name="Group 24226" transform="translate(8545.186 11319.198)">
      <path id="Path_49113" data-name="Path 49113" d="M234.848,215.571l-3.593-1.81L230,215.518l2.662,3.221a9.287,9.287,0,0,0-.426,2.076l-3.727,1.41.293,2.183,4.073.24a6.6,6.6,0,0,0,1.065,1.757l-1.677,3.78,1.651,1.331,3.008-2.848a6.765,6.765,0,0,0,1.917.479l1.3,3.966,2.05-.32.24-4.313a6.824,6.824,0,0,0,1.651-1.145l3.54,1.783,1.251-1.73-2.662-3.221a7.717,7.717,0,0,0,.666-1.97l3.727-1.411-.293-2.183-4.046-.24a8.169,8.169,0,0,0-1.041-1.81l1.7-3.807-1.651-1.331-3.162,2.8a7.3,7.3,0,0,0-1.969-.456l-1.331-3.966-2.023.32-.24,4.286a7.24,7.24,0,0,0-1.7,1.172Zm2.21,3.94a2.981,2.981,0,0,1,4.339-.665,3.461,3.461,0,0,1,.639,4.631,3.008,3.008,0,0,1-4.366.666,3.434,3.434,0,0,1-.612-4.605Z" transform="translate(-8754.602 -11528.989)" fill="#c2005d"/>
      <path id="Path_49114" data-name="Path 49114" d="M232.924,235.04l4.445-1.438a8.436,8.436,0,0,0,1.783,1.464l-.4,4.765,2.236.716,2.183-4.339a7.986,7.986,0,0,0,2.236-.32l2.9,3.7,2.05-1.2L249,233.679a7.984,7.984,0,0,0,1.384-1.887l4.5.426.665-2.4-4.073-2.316a10.118,10.118,0,0,0-.293-2.369l3.461-3.088-1.118-2.183-4.445,1.438a7.8,7.8,0,0,0-1.783-1.464l.4-4.792-2.236-.692-2.183,4.339a6.493,6.493,0,0,0-2.236.32l-2.875-3.7-2.076,1.2,1.358,4.686a8.759,8.759,0,0,0-1.384,1.917l-4.5-.426-.665,2.4,4.073,2.316a9.218,9.218,0,0,0,.32,2.369l-3.487,3.059Zm8.625-10.914a3.434,3.434,0,0,1,4.792,1.544,3.86,3.86,0,0,1-1.438,5.084,3.434,3.434,0,0,1-4.791-1.517,3.886,3.886,0,0,1,1.437-5.164Z" transform="translate(-8747.222 -11514.892)" fill="#c2005d"/>
      <path id="Path_49115" data-name="Path 49115" d="M227.522,235.6l4.366-1.677a7.766,7.766,0,0,0,1.863,1.358l-.186,4.792,2.289.586,1.943-4.472a7.986,7.986,0,0,0,2.236-.426l3.059,3.515,2.023-1.3-1.6-4.631a9.6,9.6,0,0,0,1.278-1.969l4.5.159.559-2.422-4.206-2.076a8.812,8.812,0,0,0-.4-2.343l3.3-3.274-1.278-2.156-4.366,1.677a8.578,8.578,0,0,0-1.863-1.358l.188-4.795-2.289-.586L237,218.666a7.981,7.981,0,0,0-2.236.426l-3.059-3.515-2.023,1.3,1.6,4.631A9.606,9.606,0,0,0,230,223.48l-4.5-.159-.559,2.422,4.206,2.076a9.024,9.024,0,0,0,.4,2.369l-3.3,3.248Zm7.986-11.366a3.434,3.434,0,0,1,4.9,1.251,3.913,3.913,0,0,1-1.172,5.164,3.407,3.407,0,0,1-4.872-1.251,3.886,3.886,0,0,1,1.2-5.164Z" transform="translate(-8765.643 -11515.395)" fill="#c2005d"/>
    </g>
  </g>
</svg>
