<svg id="Critical3" xmlns="http://www.w3.org/2000/svg" xmlns:xlink="http://www.w3.org/1999/xlink" width="58" height="44.853" viewBox="0 0 58 44.853">
  <defs>
    <clipPath id="clip-path">
      <rect id="Rectangle_11673" data-name="Rectangle 11673" width="58" height="44.853" fill="#ad5480"/>
    </clipPath>
  </defs>
  <g id="Mask_Group_50" data-name="Mask Group 50" clip-path="url(#clip-path)">
    <g id="Group_24225" data-name="Group 24225" transform="translate(8599.929 11005.673)">
      <path id="Path_49092" data-name="Path 49092" d="M151.467,198.481c.616-.718,0-1.308-.539-1.949a11.285,11.285,0,0,0-1.719-1.949c-.641-.539-.439-1.206-.385-1.819a21.881,21.881,0,0,0-1.847-5.771,7.7,7.7,0,0,0-6.285-4.951,11.082,11.082,0,0,0-10.877,18.108,8.979,8.979,0,0,1,2.565,5.77,14.879,14.879,0,0,1-2.565,6.978h13.391a7.159,7.159,0,0,0,.257-2.129c0-.59.821-1.308.949-2.565s.513-.872,1.154-.718,3.309.41,4.182-.744,0-2.565-.179-3.053.205-.539.487-.9-.257-1.1-.257-1.1.41,0,.667-.77-.334-.744-.439-1.386S150.826,199.225,151.467,198.481Zm-16.29-.282h-3.053v-3.206h3.053Zm0-4.438h-3.053v-3.232h3.053Zm4.258,4.438h-3.027v-3.206h3.025Zm0-4.438h-3.027v-3.232h3.025Zm0-4.463h-3.027v-3.232h3.025Zm4.258,8.9h-3.027v-3.206h2.924Zm0-4.438h-3.027v-3.232h2.924Z" transform="translate(-8724.81 -11173.791)" fill="#c2005d" fill-rule="evenodd"/>
      <path id="Path_49093" data-name="Path 49093" d="M157.73,187.975a11.929,11.929,0,0,0-12.545-6.028,7.7,7.7,0,0,0-6.259,4.951,21.957,21.957,0,0,0-1.873,5.771c0,.615.257,1.283-.384,1.819a12.317,12.317,0,0,0-1.694,1.949c-.513.641-1.155,1.231-.539,1.949s1.386.513,1.283,1.129-.667.667-.439,1.386.667.77.667.77-.539.718-.257,1.1.641.439.487.9-1.052,1.873-.154,3.053,3.512.923,4.156.744,1.026-.462,1.154.718.9,1.9.949,2.565a9.388,9.388,0,0,0,.257,2.129H155.93a14.571,14.571,0,0,1-2.565-6.978,8.927,8.927,0,0,1,2.565-5.771,11.855,11.855,0,0,0,1.8-12.159Zm-9.261,10.9h-3.026v-3.232h3.027Zm0-5.131h-3.026v-3.232h3.027Zm0-5.131h-3.026v-3.232h3.027Z" transform="translate(-8702.751 -11173.701)" fill="#c2005d" fill-rule="evenodd"/>
      <path id="Path_49094" data-name="Path 49094" d="M130.584,184.613h-1.744v-1.462l1.719.125C130.584,183.716,130.584,184.155,130.584,184.613Z" transform="translate(-8719.267 -11169.415)" fill="#c2005d"/>
      <path id="Path_49095" data-name="Path 49095" d="M130.614,196.253l-1.719-.282a24.976,24.976,0,0,1,.616-2.745l1.642.539a20.519,20.519,0,0,0-.539,2.488Zm35.427,0a19.5,19.5,0,0,0-.565-2.565l1.667-.539a18.954,18.954,0,0,1,.59,2.719Zm-34.35-4.077-1.616-.69a20.363,20.363,0,0,1,1.154-2.565l1.514.9a18.738,18.738,0,0,0-1.052,2.335Zm33.349,0a23.516,23.516,0,0,0-1.052-2.309l1.488-.923a22.65,22.65,0,0,1,1.154,2.565Zm-31.374-3.719-1.411-1.052A19.677,19.677,0,0,1,133.9,185.2l1.283,1.254a19.449,19.449,0,0,0-1.591,1.949Zm29.45,0a22.758,22.758,0,0,0-1.514-2l1.283-1.254a23.678,23.678,0,0,1,1.667,2.206Zm-26.808-3.181-1.154-1.36a16.421,16.421,0,0,1,2.052-1.744l1,1.514a15.6,15.6,0,0,0-1.975,1.514Zm24.165,0a18.881,18.881,0,0,0-1.9-1.591l1-1.514a16.412,16.412,0,0,1,2.052,1.744Zm-20.907-2.565-.872-1.591a20.957,20.957,0,0,1,2.383-1.231l.642,1.719a17.042,17.042,0,0,0-2.232,1.078Zm17.65,0a17.229,17.229,0,0,0-2.155-1.129l.641-1.694a17.338,17.338,0,0,1,2.383,1.206Zm-13.981-1.667-.487-1.77a17.782,17.782,0,0,1,2.565-.616l.282,1.819a15.047,15.047,0,0,0-2.437.539Zm10.261,0a15.035,15.035,0,0,0-2.36-.564l.282-1.847a18.752,18.752,0,0,1,2.565.641Zm-6.362-.77v-1.819a18.134,18.134,0,0,1,2.565,0V180.3a18.872,18.872,0,0,0-2.591-.051Z" transform="translate(-8719.093 -11184.083)" fill="#c2005d"/>
      <path id="Path_49096" data-name="Path 49096" d="M139.773,184.613h-1.744v-1.337l1.719-.125C139.747,183.639,139.773,184.126,139.773,184.613Z" transform="translate(-8690.874 -11169.415)" fill="#c2005d"/>
    </g>
  </g>
</svg>
