<svg id="Critical4" xmlns="http://www.w3.org/2000/svg" xmlns:xlink="http://www.w3.org/1999/xlink" width="58" height="44.853" viewBox="0 0 58 44.853">
  <defs>
    <clipPath id="clip-path">
      <rect id="Rectangle_11673" data-name="Rectangle 11673" width="58" height="44.853" fill="#ad5480"/>
    </clipPath>
  </defs>
  <g id="Mask_Group_51" data-name="Mask Group 51" clip-path="url(#clip-path)">
    <g id="Group_24232" data-name="Group 24232" transform="translate(7003.488 9152.979)">
      <rect id="Rectangle_11655" data-name="Rectangle 11655" width="9.407" height="2.304" rx="0.235" transform="translate(-6969.039 -9131.605)" fill="#c2005d"/>
      <rect id="Rectangle_11656" data-name="Rectangle 11656" width="9.407" height="2.304" rx="0.235" transform="translate(-6969.039 -9134.592)" fill="#c2005d"/>
      <rect id="Rectangle_11657" data-name="Rectangle 11657" width="9.407" height="2.304" rx="0.235" transform="translate(-6969.039 -9137.557)" fill="#c2005d"/>
      <rect id="Rectangle_11658" data-name="Rectangle 11658" width="9.407" height="2.304" rx="0.235" transform="translate(-6969.039 -9140.521)" fill="#c2005d"/>
      <rect id="Rectangle_11659" data-name="Rectangle 11659" width="9.407" height="2.304" rx="0.235" transform="translate(-6969.039 -9143.487)" fill="#c2005d"/>
      <rect id="Rectangle_11660" data-name="Rectangle 11660" width="9.407" height="2.304" rx="0.235" transform="translate(-6969.039 -9146.473)" fill="#c2005d"/>
      <rect id="Rectangle_11661" data-name="Rectangle 11661" width="9.407" height="2.304" rx="0.235" transform="translate(-6978.766 -9134.74)" fill="#c2005d"/>
      <rect id="Rectangle_11662" data-name="Rectangle 11662" width="9.407" height="2.304" rx="0.235" transform="translate(-6978.766 -9137.728)" fill="#c2005d"/>
      <rect id="Rectangle_11663" data-name="Rectangle 11663" width="9.407" height="2.304" rx="0.235" transform="translate(-6978.766 -9140.692)" fill="#c2005d"/>
      <path id="Path_49641" data-name="Path 49641" d="M165.211,154.235c-.533.512-1.194.96-1.792,1.429l-2.133,1.642-4.266,2.944a3.669,3.669,0,0,0-1.493-1.472,8.532,8.532,0,0,0-3.2-.939,66.716,66.716,0,0,1,6.037-3.328,7,7,0,0,1,3.39-1.344,4.672,4.672,0,0,1,3.455,1.067Z" transform="translate(-7110.7 -9285.093)" fill="#c2005d"/>
      <path id="Path_49642" data-name="Path 49642" d="M165.266,153.326a4.667,4.667,0,0,1-.491.7,8.366,8.366,0,0,0-1.024-.128,6.634,6.634,0,0,0-3.818,1.237,45.276,45.276,0,0,0-6.634,3.818h0a9.6,9.6,0,0,0-1.088,0h-.384a77.693,77.693,0,0,1,9.791-5.866,4.032,4.032,0,0,1,3.648.235Z" transform="translate(-7112.248 -9286.275)" fill="#c2005d"/>
      <path id="Path_49643" data-name="Path 49643" d="M163.621,152.974a111.811,111.811,0,0,0-9.833,6.122,20.742,20.742,0,0,0-2.816.128,83.037,83.037,0,0,1,9.023-6.037C161.125,152.824,162.959,152.4,163.621,152.974Z" transform="translate(-7114.89 -9286.498)" fill="#c2005d"/>
      <path id="Path_49644" data-name="Path 49644" d="M151.008,154.074Z" transform="translate(-7114.777 -9282.224)" fill="#c2005d"/>
      <path id="Path_49645" data-name="Path 49645" d="M181.868,158.309c-7.658-.128-15.679-5.013-18.836-5.141-12.522-.533-18.537,2.858-20.009,3.733a20.434,20.434,0,0,0-1.728,1.173,91.224,91.224,0,0,1,5.226,10.327l.32-.171a11.732,11.732,0,0,1,5.163-1.067,30.291,30.291,0,0,1,5.546.661c2,.384,4.01.875,6.015,1.323s4.01.875,6.037,1.173a18.62,18.62,0,0,0,6.058,0h0a26.2,26.2,0,0,0,4.949-3.584c.768-.64,1.536-1.3,2.347-1.92a24.653,24.653,0,0,1,2.581-1.365,62.119,62.119,0,0,1-6.4-.534h-5.2a12.014,12.014,0,0,0-1.259.1,20.819,20.819,0,0,0-5.376,1.429c-.3.128-.554-.213-.256-.365,6.4-3.264,14.76-1.067,16.34-.939a13.417,13.417,0,0,0,4.8-.3c1.194-.365,2.133-.853,2.133-2.282S187.223,158.309,181.868,158.309Z" transform="translate(-7144.785 -9285.2)" fill="#c2005d"/>
    </g>
  </g>
</svg>
