<svg id="Critical1" xmlns="http://www.w3.org/2000/svg" xmlns:xlink="http://www.w3.org/1999/xlink" width="58" height="44.853" viewBox="0 0 58 44.853">
  <defs>
    <clipPath id="clip-path">
      <rect id="Rectangle_11673" data-name="Rectangle 11673" width="58" height="44.853" fill="#ad5480"/>
    </clipPath>
  </defs>
  <g id="Mask_Group_48" data-name="Mask Group 48" clip-path="url(#clip-path)">
    <g id="Group_24222" data-name="Group 24222" transform="translate(10400.739 12777.084)">
      <path id="Path_48998" data-name="Path 48998" d="M55.418,216.528a3.4,3.4,0,1,0-3.189-3.4,3.309,3.309,0,0,0,3.189,3.4Zm7.332,4.351a2.981,2.981,0,0,0-2.981-2.981H50.827a2.981,2.981,0,0,0-2.981,2.981V233.4a1.282,1.282,0,1,0,2.533,0V221.979h.536V252.56a1.908,1.908,0,1,0,3.815,0V235.811h1.043v16.751a1.908,1.908,0,1,0,3.815,0V221.979h.51v11.385a1.283,1.283,0,1,0,2.563,0Z" transform="translate(-10445.367 -12986.818)" fill="#c2005d"/>
      <path id="Path_48999" data-name="Path 48999" d="M59.9,216.528a3.4,3.4,0,1,0-3.219-3.4A3.309,3.309,0,0,0,59.9,216.528Zm7.3,4.351a2.981,2.981,0,0,0-2.981-2.981H55.287a2.981,2.981,0,0,0-2.981,2.981V233.4a1.282,1.282,0,1,0,2.533,0V221.979h.536V252.56a1.908,1.908,0,1,0,3.815,0V235.813h1.043v16.751a1.968,1.968,0,0,0,1.937,2.027,1.937,1.937,0,0,0,1.878-2.027V221.979h.536v11.385a1.282,1.282,0,1,0,2.533,0Z" transform="translate(-10431.586 -12986.82)" fill="#c2005d"/>
      <path id="Path_49000" data-name="Path 49000" d="M64.411,216.528a3.4,3.4,0,1,0-3.219-3.4A3.309,3.309,0,0,0,64.411,216.528Zm7.3,4.351a2.981,2.981,0,0,0-2.981-2.981H59.791a2.981,2.981,0,0,0-2.981,2.981V233.4a1.282,1.282,0,1,0,2.533,0V221.979h.626V252.56a1.908,1.908,0,1,0,3.815,0V235.813h1.043v16.751a1.908,1.908,0,1,0,3.815,0V221.979h.536v11.385a1.282,1.282,0,1,0,2.533,0Z" transform="translate(-10417.67 -12986.82)" fill="#c2005d"/>
    </g>
  </g>
</svg>
