<svg id="Critical5" xmlns="http://www.w3.org/2000/svg" xmlns:xlink="http://www.w3.org/1999/xlink" width="58" height="44.853" viewBox="0 0 58 44.853">
  <defs>
    <clipPath id="clip-path">
      <rect id="Rectangle_11673" data-name="Rectangle 11673" width="58" height="44.853" fill="#ad5480"/>
    </clipPath>
  </defs>
  <g id="Mask_Group_52" data-name="Mask Group 52" clip-path="url(#clip-path)">
    <g id="Group_24223" data-name="Group 24223" transform="translate(9130.504 12189.587)">
      <path id="Path_49020" data-name="Path 49020" d="M249,231.439a6.339,6.339,0,0,0,3.553,2.075v-10.26l-.625-.227-.851-.23c-1.137-.313-2.245-.71-3.354-1.137a11.169,11.169,0,0,1-2.842-1.762,7.844,7.844,0,0,1-2.1-2.842,9.718,9.718,0,0,1-.8-4.092,10.374,10.374,0,0,1,.91-4.434,9.69,9.69,0,0,1,2.387-3.212,10.743,10.743,0,0,1,3.411-2.015,15.717,15.717,0,0,1,4.008-.853v-3.78h2.842v3.78a15.638,15.638,0,0,1,3.892.966,10.494,10.494,0,0,1,3.211,1.961,9.548,9.548,0,0,1,2.274,3.127,11.826,11.826,0,0,1,1,4.405h-6.537a5.314,5.314,0,0,0-1.165-3.325,3.266,3.266,0,0,0-2.672-1.39v8.7l1.137.284,1.222.341a15.376,15.376,0,0,1,5.258,2.444A10.633,10.633,0,0,1,266,222.972a8.041,8.041,0,0,1,1.023,3.155,25.539,25.539,0,0,1,.17,2.842,9.722,9.722,0,0,1-.511,2.842,9.466,9.466,0,0,1-1.819,3.212,11.858,11.858,0,0,1-3.525,2.842,13.76,13.76,0,0,1-5.685,1.478v4.178h-2.842v-4.178a12.079,12.079,0,0,1-8.072-3.382,13.814,13.814,0,0,1-3.381-8.787h6.509A6.168,6.168,0,0,0,249,231.438Zm2.047-22.909a4.318,4.318,0,0,0-1.364.764,3.553,3.553,0,0,0-.938,1.279,4.209,4.209,0,0,0-.341,1.791,3.183,3.183,0,0,0,.966,2.5,7.762,7.762,0,0,0,3.184,1.421v-8.015a4.546,4.546,0,0,0-1.591.256Zm5.969,24.557a5.058,5.058,0,0,0,1.62-.91,4.864,4.864,0,0,0,1.165-1.45,4.147,4.147,0,0,0,.455-2.015,3.553,3.553,0,0,0-1.108-2.842,10.97,10.97,0,0,0-3.865-1.762v9.437a7.018,7.018,0,0,0,1.648-.426Z" transform="translate(-9355.779 -12388.256)" fill="#c2005d"/>
    </g>
  </g>
</svg>
