<svg id="Critical8" xmlns="http://www.w3.org/2000/svg" xmlns:xlink="http://www.w3.org/1999/xlink" width="58" height="44.853" viewBox="0 0 58 44.853">
  <defs>
    <clipPath id="clip-path">
      <rect id="Rectangle_11673" data-name="Rectangle 11673" width="58" height="44.853" fill="#ad5480"/>
    </clipPath>
  </defs>
  <g id="Mask_Group_55" data-name="Mask Group 55" clip-path="url(#clip-path)">
    <g id="Group_24230" data-name="Group 24230" transform="translate(11350.221 14108.908)">
      <path id="Path_49601" data-name="Path 49601" d="M144.335,276.249a16.267,16.267,0,0,1,2.192,8.2,14.84,14.84,0,1,1-14.807-15.736,14.21,14.21,0,0,1,7.735,2.326l2.257-2.391a17.032,17.032,0,0,0-9.96-3.32,19.123,19.123,0,1,0,17.93,19.056,19.92,19.92,0,0,0-3.055-10.624Z" transform="translate(-11454.939 -14367.591)" fill="#c2005d"/>
      <path id="Path_49602" data-name="Path 49602" d="M130.914,268.4A10.323,10.323,0,0,0,125.9,267.1a11.851,11.851,0,1,0,11.121,11.819,12.051,12.051,0,0,0-1.228-5.345l-2.354,2.556a8.464,8.464,0,0,1,.465,2.788,8.036,8.036,0,1,1-8-8.5,7.667,7.667,0,0,1,2.623.5Z" transform="translate(-11449.12 -14362.061)" fill="#c2005d"/>
      <path id="Path_49603" data-name="Path 49603" d="M121.5,268.975v-.2a3.316,3.316,0,0,0-1,0,5.146,5.146,0,1,0,4.847,5.146,5.474,5.474,0,0,0,0-1.063h-.2l-2.49,2.656a2.457,2.457,0,0,1-1.793.764,2.391,2.391,0,0,1-1.76-.764,2.855,2.855,0,0,1,0-3.785Z" transform="translate(-11443.752 -14356.93)" fill="#c2005d"/>
      <path id="Path_49604" data-name="Path 49604" d="M140.813,270.883a.568.568,0,0,0-.465-.432l-5.114-.764-.764-5.478a.568.568,0,0,0-.4-.5h0a.631.631,0,0,0-.432,0l-5.511,5.844a.8.8,0,0,0,0,.532l.531,3.884-8.6,9.16a2.059,2.059,0,0,0-.465,1.925l-3.021,3.32a1.063,1.063,0,0,0,0,1.428.929.929,0,0,0,.664.3.963.963,0,0,0,.7-.3l3.021-3.32h.5a1.726,1.726,0,0,0,1.3-.568l8.6-9.163,3.653.6h0a.6.6,0,0,0,.3.162l5.478-5.844A.568.568,0,0,0,140.813,270.883Z" transform="translate(-11439.897 -14372.581)" fill="#c2005d"/>
    </g>
  </g>
</svg>
