<svg id="Critical10" xmlns="http://www.w3.org/2000/svg" xmlns:xlink="http://www.w3.org/1999/xlink" width="58" height="44.853" viewBox="0 0 58 44.853">
  <defs>
    <clipPath id="clip-path">
      <rect id="Rectangle_11673" data-name="Rectangle 11673" width="58" height="44.853" fill="#ad5480"/>
    </clipPath>
  </defs>
  <g id="Mask_Group_57" data-name="Mask Group 57" clip-path="url(#clip-path)">
    <g id="Group_24224" data-name="Group 24224" transform="translate(9395.311 12173.953)">
      <path id="Path_49056" data-name="Path 49056" d="M194.457,264.266a.916.916,0,0,1-.83-.49,1.088,1.088,0,0,1,.315-1.431,30.971,30.971,0,0,0,8.015-8.328,36.463,36.463,0,0,0,5.439-26.047.974.974,0,1,1,1.918-.315,38.641,38.641,0,0,1-5.725,27.622A32.516,32.516,0,0,1,195,264.121a.974.974,0,0,1-.544.145Z" transform="translate(-9575.227 -12393.421)" fill="#c2005d"/>
      <path id="Path_49057" data-name="Path 49057" d="M200.137,225a41.56,41.56,0,0,0,7.871,10.848l-6.526-1.4-5.725,3.378A44.31,44.31,0,0,0,200.137,225Z" transform="translate(-9568.197 -12398.95)" fill="#c2005d"/>
      <path id="Path_49058" data-name="Path 49058" d="M206.5,243.375a7.9,7.9,0,1,1,7.414-7.873A7.671,7.671,0,0,1,206.5,243.375Zm0-13.711a5.725,5.725,0,1,0,5.5,5.725,5.725,5.725,0,0,0-5.5-5.725Z" transform="translate(-9560.931 -12390.938)" fill="#c2005d"/>
      <path id="Path_49059" data-name="Path 49059" d="M198.5,245.335a.973.973,0,0,1-.687-.315,1.088,1.088,0,0,1,0-1.46l9.732-10.333a.945.945,0,0,1,1.374,0,1.088,1.088,0,0,1,0,1.46l-9.732,10.333A.974.974,0,0,1,198.5,245.335Z" transform="translate(-9562.7 -12374.435)" fill="#c2005d"/>
      <path id="Path_49060" data-name="Path 49060" d="M208.243,245.335a.973.973,0,0,1-.687-.315l-9.732-10.333a1.088,1.088,0,0,1,0-1.46.945.945,0,0,1,1.374,0l9.732,10.333a1.088,1.088,0,0,1,0,1.46.973.973,0,0,1-.687.315Z" transform="translate(-9562.679 -12374.435)" fill="#c2005d"/>
      <path id="Path_49061" data-name="Path 49061" d="M193.51,241.486a.974.974,0,0,1-.687-.315,1.088,1.088,0,0,1,0-1.46l9.732-10.333a.945.945,0,0,1,1.374,0,1.088,1.088,0,0,1,0,1.46l-9.735,10.333A.974.974,0,0,1,193.51,241.486Z" transform="translate(-9578.141 -12386.328)" fill="#c2005d"/>
      <path id="Path_49062" data-name="Path 49062" d="M203.238,241.486a.973.973,0,0,1-.687-.315l-9.732-10.333a1.088,1.088,0,0,1,0-1.46.945.945,0,0,1,1.375,0l9.732,10.333a1.088,1.088,0,0,1,0,1.46,1,1,0,0,1-.687.315Z" transform="translate(-9578.141 -12386.328)" fill="#c2005d"/>
    </g>
  </g>
</svg>
