<svg xmlns="http://www.w3.org/2000/svg" xmlns:xlink="http://www.w3.org/1999/xlink" width="58" height="44.854" viewBox="0 0 58 44.854">
  <defs>
    <clipPath id="clip-path">
      <rect id="Rectangle_11676" data-name="Rectangle 11676" width="58" height="44.853" transform="translate(114)" fill="#ef7e25" stroke="#707070" stroke-width="1"/>
    </clipPath>
  </defs>
  <g id="ObjectivesIcon3" transform="translate(-114)">
    <g id="Mask_Group_34" data-name="Mask Group 34" clip-path="url(#clip-path)">
      <path id="Path_49423" data-name="Path 49423" d="M197.843,58.658l-6.063-6.466v3.154a29.508,29.508,0,0,0-19.958,8.306V43.606h2.944L168.7,37.158l-6.08,6.448h2.944V63.389a29.49,29.49,0,0,0-19.644-8.008V52.226l-6.08,6.431,6.08,6.467V62a24.163,24.163,0,0,1,19.643,11.268v.508h6.255v-.438l.193.123a24.374,24.374,0,0,1,19.765-11.46v3.119Z" transform="translate(-25.843 -33.043)" fill="#ef7e25"/>
    </g>
  </g>
</svg>
