<svg id="ObjectivesIcon2" xmlns="http://www.w3.org/2000/svg" xmlns:xlink="http://www.w3.org/1999/xlink" width="58" height="44.854" viewBox="0 0 58 44.854">
  <defs>
    <clipPath id="clip-path">
      <rect id="Rectangle_11675" data-name="Rectangle 11675" width="58" height="44.853" transform="translate(114)" fill="#ef7e25" stroke="#707070" stroke-width="1"/>
    </clipPath>
  </defs>
  <g id="Mask_Group_33" data-name="Mask Group 33" transform="translate(-114)" clip-path="url(#clip-path)">
    <g id="Group_24183" data-name="Group 24183" transform="translate(-319.14 -192.551)">
      <path id="Path_49418" data-name="Path 49418" d="M152.885,56.869l-2.215-2.525L131.245,74.81l-4.939-5.427L109.251,87.5l-2.215-2.414,19.292-20.444,5.095,5.47,17.188-18.229-2.5-2.968,9.593-1.838Z" transform="translate(330.771 145.473)" fill="#ef7e25"/>
      <path id="Path_49419" data-name="Path 49419" d="M125.2,82.159V50.241L116.123,59.9V82.156S125.4,81.939,125.2,82.159Z" transform="translate(358.85 155.245)" fill="#ef7e25"/>
      <path id="Path_49420" data-name="Path 49420" d="M122.546,75.181V52.5l-9.082,9.657V75.181S122.745,74.96,122.546,75.181Z" transform="translate(350.634 162.223)" fill="#ef7e25"/>
      <path id="Path_49421" data-name="Path 49421" d="M111.31,71.583V53.664l6.844,5.936V71.583S111.177,71.384,111.31,71.583Z" transform="translate(343.973 165.821)" fill="#ef7e25"/>
      <path id="Path_49422" data-name="Path 49422" d="M115.651,67.985V54.829l-6.844,7v6.158S115.762,67.853,115.651,67.985Z" transform="translate(336.243 169.419)" fill="#ef7e25"/>
    </g>
  </g>
</svg>
