<svg id="Pillars2" xmlns="http://www.w3.org/2000/svg" xmlns:xlink="http://www.w3.org/1999/xlink" width="58" height="44.853" viewBox="0 0 58 44.853">
  <defs>
    <clipPath id="clip-path">
      <rect id="Rectangle_11673" data-name="Rectangle 11673" width="58" height="44.853" fill="#ad5480"/>
    </clipPath>
  </defs>
  <g id="Mask_Group_36" data-name="Mask Group 36" clip-path="url(#clip-path)">
    <g id="Group_24197" data-name="Group 24197" transform="translate(6568.777 8687.787)">
      <path id="Path_49387" data-name="Path 49387" d="M142.779,68.57V84.723s-3.129.685-3.774.765a4.087,4.087,0,0,1-4.126-.743c-2.268-2.386-10.305-11.185-10.305-11.185a2.835,2.835,0,0,0-3.6-.215c-1.956,1.193-5.045,2.914-6.316,3.6a2.621,2.621,0,0,1-1.6.567,2.953,2.953,0,0,1-2.777-3.07,3.07,3.07,0,0,1,1.838-2.894c2.894-1.956,8.937-5.671,11.44-7.137,1.545-.9,2.659-.978,4.771.978,2.6,2.405,4.908,4.615,4.908,4.615a3.911,3.911,0,0,0,1.956.411c1.838-.293,7.587-1.838,7.587-1.838ZM110.829,95.946a3.168,3.168,0,0,0-.489-3.168,2.523,2.523,0,0,0-2.582-.723,3.129,3.129,0,0,0-.567-2.874,2.5,2.5,0,0,0-2.582-.723,3.188,3.188,0,0,0-.548-2.873,2.738,2.738,0,0,0-4.087.117,4.146,4.146,0,0,0-.9,4.908c1.076,1.33,2.288.508,3.226.293-.254,1.017-1.037,1.956,0,3.285s2.268.526,3.207.293c-.254,1.017-1,1.956,0,3.3s2.444.567,3.442.235c-.371,1.095-1.213,2.268-.137,3.617s3.52.7,4.713-.567a3.383,3.383,0,0,0,.254-4.458,2.542,2.542,0,0,0-2.8-.665ZM132.65,87.5l-9.211-10.184a2.855,2.855,0,0,0-3.266-.645c-1.291.626-2.953,1.466-4.224,2.131a7.507,7.507,0,0,1-2.835,1.037,5.1,5.1,0,0,1-4.85-5.319A5.417,5.417,0,0,1,110.573,70c1.956-1.486,6.355-4.087,6.355-4.087a5.4,5.4,0,0,0-4.322-1.956c-2.953,0-9.132,4.458-9.132,4.458a4.439,4.439,0,0,1-4.263.137L94.4,66.6V85.075a25.426,25.426,0,0,1,2.6,1,6.375,6.375,0,0,1,1.369-2.366,4.986,4.986,0,0,1,7.315,0,5.123,5.123,0,0,1,1.154,2.268,4.5,4.5,0,0,1,1.956,1.33,5.045,5.045,0,0,1,1.154,2.247A4.439,4.439,0,0,1,111.9,90.9a5.417,5.417,0,0,1,1.213,2.464,4.712,4.712,0,0,1,2.073,1.369,5.71,5.71,0,0,1,1.271,4.654h0s.7.861,1.115,1.33a1.956,1.956,0,0,0,3.012,0,2.542,2.542,0,0,0,0-3.324h0c-2.777-3.07-2.933-3.3-2.659-3.6s.685.352,3.813,3.911h0a1.387,1.387,0,0,0,.2.274,1.956,1.956,0,0,0,3.012,0,2.542,2.542,0,0,0,0-3.324l-.137-.117-.137-.156c-2.855-3.148-3.168-3.735-2.953-3.911s1.584,1.349,4.419,4.458h0a1.956,1.956,0,0,0,2.914,0,2.5,2.5,0,0,0,.134-3.13.215.215,0,0,0,0-.156c-3.6-3.911-3.442-4.028-3.226-4.263s.235-.254,3.735,3.6a1.955,1.955,0,0,0,2.992,0,2.5,2.5,0,0,0,0-3.3h0Z" transform="translate(-6658.27 -8748.454)" fill="#ad5480"/>
      <rect id="Rectangle_11643" data-name="Rectangle 11643" width="4.126" height="19.633" transform="translate(-6514.904 -8681.449)" fill="#ad5480"/>
      <rect id="Rectangle_11644" data-name="Rectangle 11644" width="4.126" height="22.996" transform="translate(-6568.778 -8683.933)" fill="#ad5480"/>
    </g>
  </g>
</svg>
