<svg id="Pillars3" xmlns="http://www.w3.org/2000/svg" xmlns:xlink="http://www.w3.org/1999/xlink" width="58" height="44.853" viewBox="0 0 58 44.853">
  <defs>
    <clipPath id="clip-path">
      <rect id="Rectangle_11673" data-name="Rectangle 11673" width="58" height="44.853" fill="#ad5480"/>
    </clipPath>
  </defs>
  <g id="Mask_Group_37" data-name="Mask Group 37" clip-path="url(#clip-path)">
    <g id="Group_24198" data-name="Group 24198" transform="translate(6554.128 9057.321)">
      <path id="Path_49385" data-name="Path 49385" d="M212.707,93.338h.673V83.593h-5.994a16.819,16.819,0,0,0-1.264-3.283l3.752-4.078.469-.509-.469-.509-5.525-5.874-.489-.509-.469.509-3.772,4.078a16.147,16.147,0,0,0-2.916-1.3V65.832h-9.172v6.3a14.434,14.434,0,0,0-2.773,1.2L181.069,69.4l-.469-.509-.49.509-5.525,5.872-.469.509.469.51,3.609,3.833a18.1,18.1,0,0,0-1.285,3.2h-5.832v9.745h5.729a16.8,16.8,0,0,0,1.346,3.446l-3.568,3.833-.469.49.469.509,5.525,5.892.49.49.469-.49,3.689-3.935a14.843,14.843,0,0,0,3,1.264v6.116h9.172v-6.256a15.087,15.087,0,0,0,2.692-1.2l3.772,4.078.469.49.489-.49,5.525-5.892.469-.51-.469-.49-3.752-4.078a17.981,17.981,0,0,0,1.2-3.058Zm-11.091-4.995a9.521,9.521,0,1,1-9.5-10.194,9.847,9.847,0,0,1,9.5,10.194Z" transform="translate(-6717.357 -9123.153)" fill="#ad5480"/>
      <path id="Path_49386" data-name="Path 49386" d="M178.125,81.951a2.487,2.487,0,0,0,1.386.816V78.689h-.245l-.326-.1a10.192,10.192,0,0,1-1.325-.449,4.078,4.078,0,0,1-1.182-.693,3.1,3.1,0,0,1-.816-1.079,3.711,3.711,0,0,1-.306-1.611,3.933,3.933,0,0,1,.349-1.733,4.075,4.075,0,0,1,.938-1.264,4.382,4.382,0,0,1,1.346-.775,5.157,5.157,0,0,1,1.57-.349V69.15h1.06v1.488a6.381,6.381,0,0,1,1.549.367,4.282,4.282,0,0,1,1.241.777,3.67,3.67,0,0,1,.9,1.223,4.913,4.913,0,0,1,.408,1.733H182.08a2.038,2.038,0,0,0-.449-1.305,1.264,1.264,0,0,0-1.06-.53v3.4l.449.122.49.122a6.116,6.116,0,0,1,2.039.958,4.424,4.424,0,0,1,1.08,1.182,3.2,3.2,0,0,1,.408,1.244v1.1a3.507,3.507,0,0,1-.2,1.06,3.775,3.775,0,0,1-.714,1.264,5.159,5.159,0,0,1-1.386,1.1,5.32,5.32,0,0,1-2.243.571v1.631h-1.06V85.032a4.852,4.852,0,0,1-3.18-1.325,5.444,5.444,0,0,1-1.325-3.446h2.569a2.365,2.365,0,0,0,.632,1.692Zm.8-9.011a1.713,1.713,0,0,0-.53.306,1.3,1.3,0,0,0-.367.51,1.445,1.445,0,0,0-.143.693,1.2,1.2,0,0,0,.387.979,2.712,2.712,0,0,0,1.244.571v-3.14a1.875,1.875,0,0,0-.591.041Zm2.343,9.643a1.916,1.916,0,0,0,.632-.349,2.039,2.039,0,0,0,.469-.571,1.63,1.63,0,0,0,.163-.8,1.386,1.386,0,0,0-.428-1.121,4.076,4.076,0,0,0-1.529-.693v3.711a3.182,3.182,0,0,0,.653-.224Z" transform="translate(-6705.466 -9112.91)" fill="#ad5480"/>
    </g>
  </g>
</svg>
