<svg id="Principles4" xmlns="http://www.w3.org/2000/svg" xmlns:xlink="http://www.w3.org/1999/xlink" width="58" height="44.854" viewBox="0 0 58 44.854">
  <defs>
    <clipPath id="clip-path">
      <rect id="Rectangle_11673" data-name="Rectangle 11673" width="58" height="44.853" fill="#ef7e25" stroke="#707070" stroke-width="1"/>
    </clipPath>
  </defs>
  <g id="Mask_Group_42" data-name="Mask Group 42" clip-path="url(#clip-path)">
    <g id="Group_24204" data-name="Group 24204" transform="translate(5968.358 8055.379)">
      <path id="Path_49267" data-name="Path 49267" d="M156.975,99.495V96.044l-11.808-.221v37.769h16.495V100.38Zm-8.727,30.462V99.587l1.55-.111v30.37Zm2.472,0V99.587l1.55-.111v30.37Zm2.749-.148V99.439l1.568-.111V129.7Z" transform="translate(-6108.945 -8144.338)" fill="#c2b263"/>
      <path id="Path_49268" data-name="Path 49268" d="M162.256,138.63H156.3V94.145l6.255,1.126V134.7Z" transform="translate(-6074.557 -8149.524)" fill="#c2b263"/>
      <path id="Path_49269" data-name="Path 49269" d="M154.469,95.644v43.064h7.38V94.149Zm5,35.96h-2.2v-2.343h2.2Zm0-5.278h-2.2v-2.343h2.2Zm0-5.3h-2.2v-2.34h2.2Zm0-5.3h-2.2v-2.343h2.2Zm0-5.278h-2.2V108.1h2.2Zm0-5.3h-2.2v-2.343h2.2Z" transform="translate(-6080.202 -8149.51)" fill="#c2b263"/>
      <path id="Path_49270" data-name="Path 49270" d="M150.8,122.609l-.185-23.986L152,98.291l.185,23.986Z" transform="translate(-6092.12 -8136.713)" fill="#c2b263"/>
      <path id="Path_49271" data-name="Path 49271" d="M154.167,99.775v8.3l-5.535,2.1V129l12.048.3V97.285Zm2.38,1.937,1.679-.388v2.362l-1.7.406Zm0,5.351,1.7-.388v2.361l-1.679.406Zm0,5.351,1.7-.388v2.509l-1.7.406Zm0,5.351,1.7-.388v2.362l-1.679.406Zm0,7.731v-2.288l1.7-.406v2.362Z" transform="translate(-6098.239 -8139.822)" fill="#c2b263"/>
      <path id="Path_49272" data-name="Path 49272" d="M144.69,94.637v39.152l-.24,3.524h4.115v-36.9Zm2.86,23.986-1.439.332v-2.03l1.458-.332Zm0-4.576-1.439.332v-1.993l1.439-.332Zm0-4.556-1.458.332v-2.011l1.439-.351Zm0-6.586v2.03l-1.439.332v-2.03Zm-1.495,23.082,1.439-.332v2.03l-1.439.332Zm0,6.586v-2.011l1.458-.351v2.03Zm0-9.059v-2.03l1.439-.332v2.03Z" transform="translate(-6111.161 -8148.004)" fill="#c2b263"/>
      <path id="Path_49273" data-name="Path 49273" d="M151.577,97.285V129.3l13.173-.258V101.159Zm10.591,29.226-8.819-.48v-2.436l8.819.517Zm0-5.3-8.745-1.144v-2.454l8.819,1.126Zm0-5.129-8.819-1.329V112.3l8.819,1.4Zm0-5.24L153.423,109v-2.436l8.819,1.845Zm0-5.258-8.745-2.344V100.79l8.819,2.4Z" transform="translate(-6089.137 -8139.822)" fill="#c2b263"/>
      <path id="Path_49274" data-name="Path 49274" d="M154.171,102.4l.388.074v-2.38l-.388-.074" transform="translate(-6081.122 -8131.375)" fill="#c2b263"/>
    </g>
  </g>
</svg>
